<svg xmlns="http://www.w3.org/2000/svg" width="816" height="463.223" viewBox="0 0 816 463.223">
  <g id="hero-img" transform="translate(0 -0.777)">
    <path id="Fill_1" data-name="Fill 1" d="M780.021,439.387a40.914,40.914,0,0,0-7.416-1.008c-5.694-.02-11.389,0-17.083,0H9.416c-6.868,0-7.275-23.637-8.244-28.281-2.8-13.427-.273-27.013,4.252-39.714,5.723-16.06,14.015-31.43,15.962-48.46,1.8-15.693-1.961-31.412-4.627-46.967s-4.147-32.178,1.841-46.675c6.946-16.811,23.063-28.516,27.948-46.113,2.831-10.2,1.49-21.094,2.125-31.7.7-11.72,6.528-27.73,16.917-33.692,14.348-8.234,32.166-.657,47.344-5.655,12.07-3.974,20.824-14.915,27.623-26.137s12.507-23.443,21.656-32.631c19.423-19.5,56.039-11.114,72.72,8.857C250.883,80.3,285.146,87.06,303.947,71.255c13.545-11.386,19.917-29.91,31.028-44.02,23.388-29.7,75.1-40.576,97.683-4.425,9.5,15.2,13.384,33.54,20.028,50.4s17.67,33.615,34.159,38.187c16.587,4.6,33.607-4.308,50.682-5.8,18.61-1.628,37.748,6.174,50.68,20.661s19.4,35.375,17.13,55.306c-1.627,14.257,2.5,29.082,15.362,32.962s26.449-.36,39.445-3.65,27.544-5.4,38.985,2c17.056,11.039,18.573,36.674,17.005,58.013-1.084,14.752-2.45,30.489,2.028,44.8,1.931,6.165,5.537,13.689,10.52,17.784,6.349,5.218,17.782,7.12,25.412,9.919,19.092,7.007,39.246,14.787,51.762,31.5,8.978,11.987,12.965,28.691,7.959,43.014-4.164,11.912-15.392,21.447-27.6,22.075a26.163,26.163,0,0,1-6.192-.592" transform="translate(0 23)" fill="#09a3da" opacity="0.438"/>
    <path id="Fill_2" data-name="Fill 2" d="M668,247H0a48.771,48.771,0,0,1,7.349-21.828c10.039-15.6,26.64-24.884,42.781-33.039s33.052-16.209,44.784-30.447c12.147-14.743,17.244-34.264,23.885-52.483s16.325-36.958,33.167-45.114c22.854-11.069,49.323,1.207,71.452,13.8s47.591,26.084,71.28,17.172C317.175,86.6,328.852,61.415,341.13,39.87S373.478-3.823,396.985.559c21.917,4.083,33.852,28.876,40.732,51.153s13.926,47.585,33.6,58.534c32.564,18.125,78.437-15.192,107.31,8.882C600.061,137,595.683,174.421,614.31,195.49c10.327,11.68,26.023,16.291,37.735,26.426A54.367,54.367,0,0,1,668,247" transform="translate(64 215)" fill="#0e92c1" opacity="0.438"/>
    <path id="Fill_3" data-name="Fill 3" d="M31,0V25.4L23.859,33H0V0H31" transform="translate(424 150)" fill="#d8ab79"/>
    <path id="Fill_4" data-name="Fill 4" d="M31,0V25.4L23.859,33H0V0H31" transform="translate(421 147)" fill="#fffffe"/>
    <path id="Fill_5" data-name="Fill 5" d="M7,0,0,7V0H7" transform="translate(444 173)" fill="#fff8dd"/>
    <path id="Fill_6" data-name="Fill 6" d="M0,6H5V0H0Z" transform="translate(434 145)" fill="#fff8dd"/>
    <path id="Fill_7" data-name="Fill 7" d="M31,0V25.4L23.857,33H0V0H31" transform="translate(461 150)" fill="#d8ab79"/>
    <path id="Fill_8" data-name="Fill 8" d="M31,0V25.4L23.856,33H0V0H31" transform="translate(458 147)" fill="#fffffe"/>
    <path id="Fill_9" data-name="Fill 9" d="M7,0,0,7V0H7" transform="translate(481 173)" fill="#fff8dd"/>
    <path id="Fill_10" data-name="Fill 10" d="M0,6H5V0H0Z" transform="translate(470 145)" fill="#fff8dd"/>
    <path id="Fill_11" data-name="Fill 11" d="M31,0V25.4L23.856,33H0V0H31" transform="translate(496 150)" fill="#d8ab79"/>
    <path id="Fill_12" data-name="Fill 12" d="M31,0V25.4L23.857,33H0V0H31" transform="translate(493 147)" fill="#fffffe"/>
    <path id="Fill_13" data-name="Fill 13" d="M7,0,0,7V0H7" transform="translate(517 173)" fill="#fff8dd"/>
    <path id="Fill_14" data-name="Fill 14" d="M0,6H5V0H0Z" transform="translate(507 145)" fill="#fff8dd"/>
    <path id="Fill_15" data-name="Fill 15" d="M31,0V25.4L23.859,33H0V0H31" transform="translate(533 150)" fill="#d8ab79"/>
    <path id="Fill_16" data-name="Fill 16" d="M31,0V25.4L23.859,33H0V0H31" transform="translate(530 147)" fill="#fffffe"/>
    <path id="Fill_17" data-name="Fill 17" d="M0,6H5V0H0Z" transform="translate(543 145)" fill="#fff8dd"/>
    <g id="Group_21" data-name="Group 21" transform="translate(306)">
      <path id="Fill_18" data-name="Fill 18" d="M7.186,0,0,7.524V0H7.186" transform="translate(247.784 171.821)" fill="#fff8dd"/>
      <path id="Fill_20" data-name="Fill 20" d="M17.637,0H150.944c9.741,0,17.637,8.266,17.637,18.462v84.344c0,10.2-7.9,18.462-17.637,18.462H12.968L0,136.2V18.462C0,8.266,7.9,0,17.637,0" transform="translate(0.313 0.777)" fill="#39394a"/>
    </g>
    <path id="Fill_22" data-name="Fill 22" d="M2.137,4H99.863A2.072,2.072,0,0,0,102,2a2.072,2.072,0,0,0-2.137-2H2.137A2.072,2.072,0,0,0,0,2,2.072,2.072,0,0,0,2.137,4" transform="translate(342 15)" fill="#d85257"/>
    <path id="Fill_23" data-name="Fill 23" d="M2.185,4h34.63A2.1,2.1,0,0,0,39,2a2.1,2.1,0,0,0-2.185-2H2.185A2.1,2.1,0,0,0,0,2,2.1,2.1,0,0,0,2.185,4" transform="translate(405 103)" fill="#d85257"/>
    <path id="Fill_24" data-name="Fill 24" d="M2.137,4H99.863A2.072,2.072,0,0,0,102,2a2.072,2.072,0,0,0-2.137-2H2.137A2.072,2.072,0,0,0,0,2,2.072,2.072,0,0,0,2.137,4" transform="translate(330 65)" fill="#d85257"/>
    <path id="Fill_25" data-name="Fill 25" d="M2.152,4h28.7A2.08,2.08,0,0,0,33,2a2.081,2.081,0,0,0-2.152-2H2.152A2.081,2.081,0,0,0,0,2,2.08,2.08,0,0,0,2.152,4" transform="translate(399 77)" fill="#d85257"/>
    <path id="Fill_26" data-name="Fill 26" d="M2.166,4H64.833A2.089,2.089,0,0,0,67,2a2.09,2.09,0,0,0-2.167-2H2.166A2.089,2.089,0,0,0,0,2,2.087,2.087,0,0,0,2.166,4" transform="translate(353 24)" fill="#83be43"/>
    <path id="Fill_27" data-name="Fill 27" d="M2.166,4H64.833A2.09,2.09,0,0,0,67,2a2.09,2.09,0,0,0-2.167-2H2.166A2.088,2.088,0,0,0,0,2,2.088,2.088,0,0,0,2.166,4" transform="translate(353 33)" fill="#83be43"/>
    <path id="Fill_28" data-name="Fill 28" d="M2.166,4H64.833A2.09,2.09,0,0,0,67,2a2.09,2.09,0,0,0-2.167-2H2.166A2.088,2.088,0,0,0,0,2,2.088,2.088,0,0,0,2.166,4" transform="translate(353 43)" fill="#83be43"/>
    <path id="Fill_29" data-name="Fill 29" d="M2.166,4H64.833A2.09,2.09,0,0,0,67,2a2.09,2.09,0,0,0-2.167-2H2.166A2.088,2.088,0,0,0,0,2,2.088,2.088,0,0,0,2.166,4" transform="translate(353 86)" fill="#83be43"/>
    <path id="Fill_30" data-name="Fill 30" d="M2.166,4H64.833A2.09,2.09,0,0,0,67,2a2.09,2.09,0,0,0-2.167-2H2.166A2.088,2.088,0,0,0,0,2,2.088,2.088,0,0,0,2.166,4" transform="translate(353 95)" fill="#83be43"/>
    <path id="Fill_31" data-name="Fill 31" d="M2.167,4H64.834A2.088,2.088,0,0,0,67,2a2.088,2.088,0,0,0-2.166-2H2.167A2.089,2.089,0,0,0,0,2,2.089,2.089,0,0,0,2.167,4" transform="translate(366 54)" fill="#7d7aac"/>
    <path id="Fill_32" data-name="Fill 32" d="M10.671,0H91.329C97.223,0,102,5.037,102,11.251v51.4C102,68.863,97.223,73.9,91.329,73.9H7.848L0,83V11.251C0,5.037,4.778,0,10.671,0" transform="translate(522 112)" fill="#39394a"/>
    <path id="Fill_33" data-name="Fill 33" d="M1.319,2h60.36A1.2,1.2,0,0,0,63,1a1.2,1.2,0,0,0-1.321-1H1.319A1.193,1.193,0,0,0,0,1,1.193,1.193,0,0,0,1.319,2" transform="translate(542 121)" fill="#d85257"/>
    <path id="Fill_34" data-name="Fill 34" d="M1.344,2h21.31C23.4,2,24,1.552,24,1s-.6-1-1.346-1H1.344C.6,0,0,.448,0,1S.6,2,1.344,2" transform="translate(581 175)" fill="#d85257"/>
    <path id="Fill_35" data-name="Fill 35" d="M1.319,2H61.681A1.193,1.193,0,0,0,63,1a1.194,1.194,0,0,0-1.319-1H1.319A1.194,1.194,0,0,0,0,1,1.193,1.193,0,0,0,1.319,2" transform="translate(536 152)" fill="#d85257"/>
    <path id="Fill_36" data-name="Fill 36" d="M1.3,2H18.7A1.183,1.183,0,0,0,20,1a1.183,1.183,0,0,0-1.3-1H1.3A1.182,1.182,0,0,0,0,1,1.182,1.182,0,0,0,1.3,2" transform="translate(579 158)" fill="#d85257"/>
    <path id="Fill_37" data-name="Fill 37" d="M1.326,2h38.35C40.406,2,41,1.552,41,1a1.2,1.2,0,0,0-1.324-1H1.326C.594,0,0,.447,0,1S.594,2,1.326,2" transform="translate(549 127)" fill="#83be43"/>
    <path id="Fill_38" data-name="Fill 38" d="M1.326,2h38.35C40.406,2,41,1.553,41,1a1.2,1.2,0,0,0-1.324-1H1.326C.594,0,0,.447,0,1S.594,2,1.326,2" transform="translate(549 132)" fill="#83be43"/>
    <path id="Fill_39" data-name="Fill 39" d="M1.326,2h38.35C40.406,2,41,1.552,41,1s-.594-1-1.324-1H1.326C.594,0,0,.448,0,1S.594,2,1.326,2" transform="translate(549 138)" fill="#83be43"/>
    <path id="Fill_40" data-name="Fill 40" d="M1.326,2h38.35C40.406,2,41,1.552,41,1s-.594-1-1.324-1H1.326C.594,0,0,.448,0,1S.594,2,1.326,2" transform="translate(549 165)" fill="#83be43"/>
    <path id="Fill_41" data-name="Fill 41" d="M1.326,2h38.35C40.406,2,41,1.552,41,1a1.2,1.2,0,0,0-1.324-1H1.326C.594,0,0,.447,0,1S.594,2,1.326,2" transform="translate(549 170)" fill="#83be43"/>
    <path id="Fill_42" data-name="Fill 42" d="M1.327,2H39.676A1.2,1.2,0,0,0,41,1a1.2,1.2,0,0,0-1.324-1H1.327C.6,0,0,.448,0,1S.6,2,1.327,2" transform="translate(557 145)" fill="#7d7aac"/>
    <path id="Fill_43" data-name="Fill 43" d="M81.479,0H9.521C4.263,0,0,4.552,0,10.166V56.611c0,5.615,4.263,10.166,9.521,10.166H84L91,75V10.166C91,4.552,86.737,0,81.479,0" transform="translate(106 7)" fill="#39394a"/>
    <path id="Fill_44" data-name="Fill 44" d="M15.949,5.554,6.5,8.78l8.223,3.226L13.792,17,0,11.26,1.051,5.74,17,0,15.949,5.554" transform="translate(125 35)" fill="#d85257"/>
    <path id="Fill_45" data-name="Fill 45" d="M15.689,0H22L6.312,31H0L15.689,0" transform="translate(139 26)" fill="#d85257"/>
    <path id="Fill_46" data-name="Fill 46" d="M17,5.74,15.951,11.26,0,17l1.049-5.553L10.5,8.222,2.273,4.994,3.207,0,17,5.74" transform="translate(157 35)" fill="#d85257"/>
    <path id="Fill_47" data-name="Fill 47" d="M119.348,16H7.651A7.831,7.831,0,0,1,0,8,7.832,7.832,0,0,1,7.651,0h111.7A7.832,7.832,0,0,1,127,8a7.831,7.831,0,0,1-7.652,8" transform="translate(600 249)" fill="#39394a"/>
    <path id="Fill_48" data-name="Fill 48" d="M0,0H111.718A4.148,4.148,0,0,1,116,4a4.148,4.148,0,0,1-4.282,4H0" transform="translate(607 252)" fill="#13151b"/>
    <path id="Fill_49" data-name="Fill 49" d="M71,4a3.871,3.871,0,0,1-1.249,2.827A4.413,4.413,0,0,1,66.725,8H4.28a4.587,4.587,0,0,1-1.052-.122A4.06,4.06,0,0,1,0,4,3.872,3.872,0,0,1,1.254,1.171,4.418,4.418,0,0,1,4.28,0H66.725c.039,0,.078,0,.117,0A4.132,4.132,0,0,1,71,4" transform="translate(604 252)" fill="#83be43"/>
    <path id="Fill_50" data-name="Fill 50" d="M7,0,5.281,8H.992A4.093,4.093,0,0,1,0,7.878L1.693,0H7" transform="translate(607 252)" fill="#37a948"/>
    <path id="Fill_51" data-name="Fill 51" d="M7,0,5.288,8H0L1.711,0H7" transform="translate(618 252)" fill="#37a948"/>
    <path id="Fill_52" data-name="Fill 52" d="M7,0,5.287,8H0L1.711,0H7" transform="translate(630 252)" fill="#37a948"/>
    <path id="Fill_53" data-name="Fill 53" d="M7,0,5.286,8H0L1.711,0H7" transform="translate(641 252)" fill="#37a948"/>
    <path id="Fill_54" data-name="Fill 54" d="M7,0,5.288,8H0L1.711,0H7" transform="translate(651 252)" fill="#37a948"/>
    <path id="Fill_55" data-name="Fill 55" d="M7,0,5.287,8H0L1.712,0H6.89C6.926,0,6.964,0,7,0" transform="translate(664 252)" fill="#37a948"/>
    <path id="Fill_56" data-name="Fill 56" d="M40.393,24.164S46.687,3.468,29.379.834C17.142-1.612,6.3,1.211,1.757,10.806s-.3,39.209,13.112,54C29.2,80.611,47.735,93.405,69.239,85.69s28.5-20.885,30.418-29.727-4.195-21.45-19.579-21.826-24.3,2.823-32.343.376a10.1,10.1,0,0,1-7.342-10.348" transform="translate(174 86)" fill="#282735"/>
    <path id="Fill_57" data-name="Fill 57" d="M3.379,6.138S6.488.654,7,0C3.588,1.589-.164,6.729.006,11.682A13.909,13.909,0,0,0,3.5,20L3.379,6.138" transform="translate(180 100)" fill="#13151b"/>
    <path id="Fill_58" data-name="Fill 58" d="M0,2.424S3.523,42.882,31.709,49.035c23.356,5.1,41.928,0,46.155-12.119,3.774-10.817-2.642-18.644-7.75-20.882s-19.2,4.475-33.3-.932S27.481,0,27.481,0L0,2.424" transform="translate(181 113)" fill="#13151b"/>
    <path id="Fill_59" data-name="Fill 59" d="M3.205,0S26.989,7.939,31.518,13.9c2.959,3.892,3.707,9.06-.177,12.758S20.409,25.47,17.924,23.511L1,10.828S-2.35,1.276,3.205,0" transform="translate(107 167)" fill="#e58a7f"/>
    <path id="Fill_60" data-name="Fill 60" d="M.13,49.14S20.934,66.968,33.1,63.569C45.923,56.478,54.934,35.644,56.636,27.32S54-.817,45.267.026C42.388.3,26.3,39.289,26.3,39.289L6.148,31.8S-1.047,40.678.13,49.14" transform="translate(128 145)" fill="#c2333b"/>
    <path id="Fill_61" data-name="Fill 61" d="M16.763,0a36.346,36.346,0,0,1-6.026,4.283C8.438,5.427.154,9.057.007,11.528c-.238,4,5.437-1.318,9.847-2.305s5,4.446,8.085,3.458,4.7-2.8,3.822-6.094-5-6.588-5-6.588" transform="translate(88 163)" fill="#e58a7f"/>
    <path id="Fill_62" data-name="Fill 62" d="M15,14s0-7.543-1.179-9.179S4.054,2.95,4.054,2.95,1.693-.324.619.026s-.752,3.158.966,5.262,5.9.7,5.9.7.429,5.145,1.609,6.431S15,14,15,14" transform="translate(96 158)" fill="#eea596"/>
    <path id="Fill_63" data-name="Fill 63" d="M17,4.7c.11,2-5.161,4.3-6.808,4.3C10.1,9,10,9,9.9,9c-1.7-.026-4.567-.3-5.086-2A2.828,2.828,0,0,1,1.845,4.8C.637,4.2-.461,3.6.2,2.1S3.163,0,4.919.5,6.145,2.2,6.145,2.2s1.74-.5,1.74,1.668V3.9C9.093,1.5,14.912,0,14.912,0S16.888,2.7,17,4.7" transform="translate(96 171)" fill="#eea596"/>
    <path id="Fill_64" data-name="Fill 64" d="M9,4.7C9.107,6.7,3.9,9,2.277,9c-.091,0-.189,0-.291,0A3.452,3.452,0,0,1,.109,6.55a4.414,4.414,0,0,0,1.408.4C2.493,7.1,3.849,6.1,3.2,5.05S0,3.9,0,3.9C1.193,1.5,6.939,0,6.939,0S8.89,2.7,9,4.7" transform="translate(105 171)" fill="#e58a7f"/>
    <path id="Fill_65" data-name="Fill 65" d="M85.718,38.949c-.675,6.551-4.789,20.989-9.927,37.2v0c-5.384,16.979-11.886,35.9-16.737,49.723-3.837,10.937-5.48,25.316-8.257,41.23S26.191,245,26.191,245L15.6,236.7l-3.157-2.472L0,224.478l23.412-81.665L46.034,15.495,78.574,0S87.7,19.683,85.718,38.949" transform="translate(172 218)" fill="#465540"/>
    <path id="Fill_66" data-name="Fill 66" d="M61,2.407S40.705,64.814,35.456,83.147s-8.748,35.181-12.948,52.959C19.287,149.733,8.151,181.1,3.132,195L0,192.541c10.963-21.267,25.988-79.365,27.932-90.693C30.032,89.627,59.076,0,59.076,0L61,2.407" transform="translate(186 259)" fill="#344233"/>
    <path id="Fill_67" data-name="Fill 67" d="M42.717,38.874c-.676,6.539-4.8,20.949-9.941,37.126-2.106-8.807-3.662-23.952-11.1-42.541C15.985,33.833,7.051,33,0,32.152L2.976,15.465,35.563,0s9.142,19.645,7.154,38.874" transform="translate(215 218)" fill="#344233"/>
    <path id="Fill_68" data-name="Fill 68" d="M54,20,0,18.492a16.54,16.54,0,0,1,1.733-6.146A8.723,8.723,0,0,1,5.546,8.473C10.7,5.968,27.86.125,27.86.125s6.293-2.241,19.856,12.221A79.213,79.213,0,0,1,54,20" transform="translate(143 442)" fill="#c2333b"/>
    <path id="Fill_69" data-name="Fill 69" d="M54,7,0,5.621A14.109,14.109,0,0,1,1.733,0H47.715A74.259,74.259,0,0,1,54,7" transform="translate(143 455)" fill="#fffffe"/>
    <path id="Fill_70" data-name="Fill 70" d="M55.961,147.081c-.525,9.2-9.419,97.919-9.419,97.919l-10.884-7.4L16.614,224.655s7.183-61.387,6.926-92.639C21.439,92.056,11.691,53.7,5.412,32.544,2.272,21.961,0,15.692,0,15.692L16.429,7.7l13.39-6.517L32.238,0S35.072,2.385,38.7,6.021c5.778,5.8,13.56,14.793,15.172,22.5,2.613,12.55-2.358,89.278-2.358,89.278s4.971,20.084,4.447,29.285" transform="translate(239 217)" fill="#465540"/>
    <path id="Fill_71" data-name="Fill 71" d="M40,6.1c-3.978,5.282-9.372,11.61-14.324,15.462C20.254,25.778,11.811,30.09,5.6,33,2.346,22.263,0,15.9,0,15.9L33.324,0S36.252,2.41,40,6.1" transform="translate(239 217)" fill="#344233"/>
    <path id="Fill_72" data-name="Fill 72" d="M30.705,170.386c-.717,15.154-6.89,58.469-8.21,67.614l-3.062-2.056c1.554-9.169,7.667-45.982,8.358-60.549.765-16,1.765-36.617-.94-52.76a26.36,26.36,0,0,1-.369-4.279c-.136-14.931-3.4-73.206-6.877-91.077C5.73,26.081,1.335,14.881,0,6.5L13.532,0c3,6.764,8.284,19.017,9.765,24.493,1.914,7.037,4.679,66.716,5.012,90.337a77.577,77.577,0,0,0,.926,10.835c1.653,10.8,2.148,30.125,1.469,44.72" transform="translate(255 218)" fill="#344233"/>
    <path id="Fill_73" data-name="Fill 73" d="M.413.6c.366-.777,12.328-1.083,13.424.812s-3.562,20.574-6.85,18.409S-1.506,4.666.413.6" transform="translate(265 345)" fill="#344233"/>
    <path id="Fill_74" data-name="Fill 74" d="M54,20,0,18.519a16,16,0,0,1,1.732-6.035,8.644,8.644,0,0,1,3.813-3.8C10.7,6.22,23.766.073,23.766.073S34.152-1.719,47.715,12.484A78.469,78.469,0,0,1,54,20" transform="translate(232 442)" fill="#de4d59"/>
    <path id="Fill_75" data-name="Fill 75" d="M54,7,0,5.621A14.1,14.1,0,0,1,1.732,0H47.715A74.6,74.6,0,0,1,54,7" transform="translate(232 455)" fill="#fffffe"/>
    <path id="Fill_76" data-name="Fill 76" d="M98,82.918c-4.784,6.731-24.163,17.7-29.905,19.2s-15.974,2.689-30.809,1.191c-.147-3.06-3.87-15.437-7.223-25.345-2.11-6.236-4.073-11.5-4.9-12.848C23,61.625,10.675,57.731,8.52,52.994s-.761-20.3-.761-20.3S-2.017,13.729.378,10.986,15.351,2.025,15.351,2.025,25.507-.37,30.2.049s33.589.327,38.134,11.3,18.9,59.1,18.9,59.1.957,2.5,10.766,12.47" transform="translate(173 134)" fill="#de4d59"/>
    <path id="Fill_77" data-name="Fill 77" d="M47.811,10.555C46.214,11.9,19.343,14.95,4.859,13.71,2.768,7.055.823,1.44,0,0,0,0,13.324,5.865,23.774,7.037S49.9,8.8,47.811,10.555" transform="translate(199 198)" fill="#c2333b"/>
    <path id="Fill_78" data-name="Fill 78" d="M31,10.844C9.826,40.571,8.679,38.985,8.679,38.985,2.335,38.466,0,31.785,0,31.785L16.929,0A33,33,0,0,1,31,10.844" transform="translate(184 239)" fill="#eea596"/>
    <path id="Fill_79" data-name="Fill 79" d="M44.515,45.505C43.124,59.764,42.166,78.385,29.28,97.394c-3.239,4.779-7.319,10.188-11.608,15.606-4.388-5.594-13.1-9.374-17.673-11.064L15.993,70.8s5.071-62,7.855-66.749S33.577-1.68,39.172,3.32c5.169,4.616,6.739,27.928,5.344,42.185" transform="translate(198 138)" fill="#c2333b"/>
    <path id="Fill_80" data-name="Fill 80" d="M17,0a33.858,33.858,0,0,0-4.589.838c-.735.35-7.161,6.988-7.895,7.687S.415,10.2.048,10.9s1.408,2.866,4.59,1.818S15.837,2.306,17,0" transform="translate(159 268)" fill="#de4d59"/>
    <path id="Fill_81" data-name="Fill 81" d="M29.588,11.04c-1.93,1.017-10.348,1.022-10.348,1.022A104.312,104.312,0,0,1,8.713,13.8c-1.157.058-2.614.153-4.007.189-.835.02-1.646.018-2.352-.029-1.2-.083-2.1-.29-2.329-.741C-.579,12.057,10.073,0,12.212,0,15.591,0,26.09,1.162,26.09,1.162c6.275,2.033,5.43,8.862,3.5,9.878" transform="translate(163 268)" fill="#eea596"/>
    <path id="Fill_82" data-name="Fill 82" d="M2.115,7.99C1.364,8.007.635,8,0,7.965,2.462,4.748,7.817-.48,8,.035,8.145.468,4.438,5.127,2.115,7.99" transform="translate(165 272)" fill="#de4d59"/>
    <path id="Fill_83" data-name="Fill 83" d="M22,19.33c-1.915,4.548-9.976,8-15.853,3.723a29.066,29.066,0,0,0-1.069-6.01C3.318,10.1,0,.727,0,.727,6.558-3.135,19.265,9.546,19.265,11.476a10.729,10.729,0,0,0,1.887,6.5c.248.421.529.87.848,1.35" transform="translate(182 112)" fill="#e58a7f"/>
    <path id="Fill_84" data-name="Fill 84" d="M20,17.984a37.147,37.147,0,0,1-7.607,1.008A13.184,13.184,0,0,1,4.8,17.047C3.138,10.1,0,.728,0,.728,6.2-3.135,18.216,9.548,18.216,11.479A11.205,11.205,0,0,0,20,17.984" transform="translate(182 112)" fill="#de4d59"/>
    <path id="Fill_85" data-name="Fill 85" d="M15.512,0S11.348,3.219,9.173,4.5A84.655,84.655,0,0,1,.023,1.957S-.059,4.518.087,7.15C1.4,10.985,7.154,14,7.154,14s1.7-3.152,2.657-5.338c1.022,1.589,2.174,3.306,3.01,4.332C15.189,11.682,18.034,4.27,18,3.19A10.226,10.226,0,0,0,15.512,0" transform="translate(188 130)" fill="#c2333b"/>
    <path id="Fill_86" data-name="Fill 86" d="M1.424.263C-.268,1.169-.163,3.012.277,4.911s3.694,5.668,6.2,6A6.718,6.718,0,0,0,10,10.631S5.574-1.958,1.424.263" transform="translate(176 108)" fill="#e58a7f"/>
    <path id="Fill_87" data-name="Fill 87" d="M1.135.047c1.354-.335,3.7,1.147,5.221,3.479-1.427.07-2.05.67-1.51,1.505s3.1,1.537,3.7,1.309A4.808,4.808,0,0,0,9,6.989c-.379.019-5.67.2-6.118-2.079C2.614,3.158,5.059,2.958,5.059,2.958S3.207,1.03,1.843,1.489C.564,1.919.654,3.521.654,3.521S-1.1.6,1.135.047" transform="translate(177 111)" fill="#de4d59"/>
    <path id="Fill_88" data-name="Fill 88" d="M6.689.056C8.7.487,9.021,2.376,9,4.418S6.4,11.2,3.815,12.246A7.734,7.734,0,0,1,0,12.973S1.758-.995,6.689.056" transform="translate(206 107)" fill="#e58a7f"/>
    <path id="Fill_89" data-name="Fill 89" d="M5.53,0C4.206-.016,2.417,2.066,1.584,4.818c1.328-.273,2.045.19,1.753,1.176A4.745,4.745,0,0,1,.262,8.225,5.235,5.235,0,0,1,0,9c.354-.073,5.254-1.165,5.11-3.6C4.929,3.54,2.637,3.924,2.637,3.924S3.868,1.506,5.231,1.646c1.279.132,1.586,1.793,1.586,1.793S7.715.027,5.53,0" transform="translate(206 110)" fill="#de4d59"/>
    <path id="Fill_90" data-name="Fill 90" d="M28,9.551s-.113.792-.31,2.085c-.8,5.27-3.007,18.846-4.684,20.661C20.912,34.561,9.179,30.789,6.389,29.03S0,15.078,0,15.078s1.624-3.769,1.974-4.272S4.88,8.545,8.714,7.54,17.311,3.266,19.286,0C20.216,6.911,28,9.551,28,9.551" transform="translate(182 96)" fill="#eea596"/>
    <path id="Fill_91" data-name="Fill 91" d="M28,9.5s-.113.788-.31,2.074c-3.791-.992-7.348-4.364-9.262-6.8-2.561,3.392-10.833,5.794-13.262,6.43S0,15,0,15s1.624-3.75,1.974-4.25S4.88,8.5,8.714,7.5s8.6-4.251,10.573-7.5C20.216,6.875,28,9.5,28,9.5" transform="translate(182 96)" fill="#e58a7f"/>
    <path id="Fill_92" data-name="Fill 92" d="M2.994,1.358A1.536,1.536,0,0,0,1.358,0,1.518,1.518,0,0,0,.006,1.642,1.537,1.537,0,0,0,1.643,3,1.518,1.518,0,0,0,2.994,1.358" transform="translate(203 109)" fill="#282735"/>
    <path id="Fill_93" data-name="Fill 93" d="M6,2a8.259,8.259,0,0,0-3.019-.779A9.993,9.993,0,0,0,0,1.949,4.229,4.229,0,0,1,2.927.023,3,3,0,0,1,6,2" transform="translate(202 104)" fill="#282735"/>
    <path id="Fill_94" data-name="Fill 94" d="M2.994,1.358A1.537,1.537,0,0,0,1.358,0,1.518,1.518,0,0,0,.006,1.642,1.537,1.537,0,0,0,1.642,3,1.518,1.518,0,0,0,2.994,1.358" transform="translate(193 109)" fill="#282735"/>
    <path id="Fill_95" data-name="Fill 95" d="M0,2a8.119,8.119,0,0,1,3.013-.769A10.033,10.033,0,0,1,6,1.98,4.306,4.306,0,0,0,3.058.025,2.959,2.959,0,0,0,0,2" transform="translate(191 104)" fill="#282735"/>
    <path id="Fill_96" data-name="Fill 96" d="M.657,0S-.488,4.005.245,5.22,4,7,4,7A10.943,10.943,0,0,1,1.573,4.613C.979,3.561.657,0,.657,0" transform="translate(200 108)" fill="#de4d59"/>
    <path id="Fill_97" data-name="Fill 97" d="M2.993.268C2.849.019-.077.071,0,.516c.145.817,3.164.047,2.991-.248" transform="translate(199 116)" fill="#e58a7f"/>
    <path id="Fill_98" data-name="Fill 98" d="M.007,0a4.553,4.553,0,0,0,3.3,2.906A4.237,4.237,0,0,0,8,.9S4.545,2.459.007,0" transform="translate(194 119)" fill="#de4d59"/>
    <path id="Fill_99" data-name="Fill 99" d="M0,14.57V30H145V14.57C145,6.522,139,0,131.593,0H13.408C6,0,0,6.522,0,14.57" transform="translate(303 326)" fill="#f7dca1"/>
    <path id="Fill_100" data-name="Fill 100" d="M102.549,3.615s-59,14.988-68.817,21.3S0,148.419,0,148.419,23.134,156.966,30.145,167C41.711,113.487,58.267,56.878,58.267,56.878s46.618-13.75,56.082-17.465,24.536-15.236,28.392-30.1-36.571-8.05-40.192-5.7" transform="translate(259 295)" fill="#282735"/>
    <path id="Fill_101" data-name="Fill 101" d="M56.973,24.985H41.41L37.239,25H0a42.43,42.43,0,0,1,2.939-3.579c1.878-2.043,4.4-4.365,6.8-5.208C14.369,14.59,21.4,9.633,23.91,7.228S36.31-.864,40.172.111c3.182.8,12.987,11.266,15.961,19.765.182.524.34,1.041.468,1.545a10.91,10.91,0,0,1,.371,3.564" transform="translate(233 437)" fill="#8f4436"/>
    <path id="Fill_102" data-name="Fill 102" d="M56.973,2.987H41.41L37.239,3H0S2.165,1.6,5.353,0H56.6a7.736,7.736,0,0,1,.371,2.987" transform="translate(233 459)" fill="#723229"/>
    <path id="Fill_103" data-name="Fill 103" d="M13.493.015C9.205,2.694,2.3,4.511,1.151,5.756L0,7l25-.287S20.188-.367,13.493.015" transform="translate(237 450)" fill="#a15245"/>
    <path id="Fill_104" data-name="Fill 104" d="M24,1.226S15.705,6.858,10.908,8.572,1.88,11.51,1.067,15.836L.092,16s-.976-2.286,3.415-5.468S10.5,8,14.648,5.47,23.35,0,23.35,0L24,1.226" transform="translate(257 443)" fill="#723229"/>
    <path id="Fill_105" data-name="Fill 105" d="M56.972,24.985H41.411L37.239,25H0a42.315,42.315,0,0,1,2.94-3.579c1.878-2.043,4.4-4.365,6.8-5.208C14.37,14.59,21.4,9.633,23.911,7.228S36.311-.864,40.173.111c3.181.8,12.987,11.266,15.96,19.765.183.524.341,1.041.468,1.545a10.844,10.844,0,0,1,.371,3.564" transform="translate(320 437)" fill="#8f4436"/>
    <path id="Fill_106" data-name="Fill 106" d="M56.972,2.987H41.411L37.239,3H0S2.166,1.6,5.354,0H56.6a7.69,7.69,0,0,1,.371,2.987" transform="translate(320 459)" fill="#723229"/>
    <path id="Fill_107" data-name="Fill 107" d="M13.493.015C9.205,2.694,2.3,4.511,1.15,5.756L0,7l25-.287S20.188-.367,13.493.015" transform="translate(325 450)" fill="#a15245"/>
    <path id="Fill_108" data-name="Fill 108" d="M24,1.226S15.706,6.858,10.907,8.572,1.881,11.51,1.068,15.836L.092,16s-.975-2.286,3.416-5.468S10.5,8,14.649,5.47,23.349,0,23.349,0L24,1.226" transform="translate(344 443)" fill="#723229"/>
    <path id="Fill_109" data-name="Fill 109" d="M95.876,22.477c-2.365,6.381-47.031,30.242-47.031,30.242L33.864,163s-2.634-1.664-6.44-3.9c-.626-.369-1.283-.753-1.964-1.145C17.723,153.48,4.689,145.318,0,145.149c4.467-26.083,10.488-81.884,12.85-98.811S45.169,11.1,45.169,11.1L51.474,0,88.263,9.37l7.875,2.007a15.651,15.651,0,0,1-.261,11.1" transform="translate(343 299)" fill="#39394a"/>
    <path id="Fill_110" data-name="Fill 110" d="M63,3.254c-2.264,6-5.648,11.191-7.3,12.552-1.692,1.4-18.751,12.159-29.248,18.745A20.917,20.917,0,0,0,16.98,49.615L1.971,153c-.628-.369-1.287-.753-1.971-1.145L15.227,48.163a20.919,20.919,0,0,1,9.28-14.906c6.048-3.892,15.113-9.752,25.748-16.711C47.584,10.3,48.7,4.165,50.186,0L63,3.254" transform="translate(369 306)" fill="#282735"/>
    <path id="Fill_111" data-name="Fill 111" d="M.762,28.235s34.558,23.473,56.8,11.226C66.678,26.873,75.158,9.524,75,9.015S55.159,0,55.159,0L42.04,20.24l-37.278.17s-7.04,2.891-4,7.825" transform="translate(295 230)" fill="#eea596"/>
    <path id="Fill_112" data-name="Fill 112" d="M2.638,11.46l10.789,5.474s8.452.73,8.571-2.677S11.689.332,10.19.028,2.518,1.974,1.979,2.643,0,10.792,0,10.792l2.638.668" transform="translate(279 241)" fill="#de4d59"/>
    <path id="Fill_113" data-name="Fill 113" d="M8.618,11.027c.129,1.56-.857,2.509-2.144,1.827-.855,1.985-2.518,1.193-4.289-.865C.163,9.632-.13,7.971.042,6.719c.3-2.232,1.285-2.667,1.285-2.667A20.289,20.289,0,0,1,2.695,1.14,4.129,4.129,0,0,1,3.41.212C4.39-.656,13,1.423,13,1.423l-5.928.725.789,5.071a38.247,38.247,0,0,1,.757,3.808" transform="translate(275 243)" fill="#e58a7f"/>
    <path id="Fill_114" data-name="Fill 114" d="M5,11A15,15,0,0,1,0,2.735,18.755,18.755,0,0,1,1.329,0,21.873,21.873,0,0,0,5,11" transform="translate(275 244)" fill="#de4d59"/>
    <path id="Fill_115" data-name="Fill 115" d="M12,.532S5.371-.92,3.529.974-1.259,14.353.583,15.867,6.292,5.454,6.292,5.454l5.585-.063L12,.532" transform="translate(277 239)" fill="#eea596"/>
    <path id="Fill_116" data-name="Fill 116" d="M2.96.023C.027.646-.086,6.124.027,8.615S.479,18.7,1.719,18.948c.935.187,1.677-7.17,1.987-10.823A.712.712,0,0,1,5,7.705c1.053,1.482,2.1,2.974,3.1,4.5s2.078,2.9,1.674,4.936c-.8,4.029-5.143,3.322-6.923,6.228-1.409,2.3-.818,5.347.847,4.482.958-.5,2.707-2.552,4.174-2.8a30.522,30.522,0,0,0,6.717-1.642,4.913,4.913,0,0,0,2.925-2.457c1.825-4.186-1.872-8.352-4.152-11.29A49.407,49.407,0,0,0,5.691,1.44C5.026.9,3.873-.17,2.96.023" transform="translate(286 236)" fill="#eea596"/>
    <path id="Fill_117" data-name="Fill 117" d="M21.7.863C15.518,3.247,0,38.714,0,38.714S20.151,46.59,25.679,53c6.6-16.483,12.662-27.657,12.306-36.63S31.981-3.1,21.7.863" transform="translate(339 202)" fill="#cbe9f2"/>
    <path id="Fill_118" data-name="Fill 118" d="M82.281,125,1.5,110.091,9.12,84.135,4.867,50.081S-1.332,18.05.262,15.1,17.977,2.771,17.977,2.771C20.1.932,31.97-.542,35.337.193S63.327,8.48,67.756,12.712,84.405,65.36,84.94,83.213,82.281,125,82.281,125" transform="translate(360 189)" fill="#fffffe"/>
    <path id="Fill_119" data-name="Fill 119" d="M48,14.523C47.471,17.058,1.043,8.668,1.043,8.668L0,0C11.4,1.832,48.445,12.342,48,14.523" transform="translate(370 275)" fill="#cbe9f2"/>
    <path id="Fill_120" data-name="Fill 120" d="M24.929,25.12c.259-.581.142-10.623-6.214-25.12C11.418.251,0,6.748,0,6.748L3.531,21s2.354,8.125,4,9.373,11.72,7.5,17.395-5.249" transform="translate(429 240)" fill="#e58a7f"/>
    <path id="Fill_121" data-name="Fill 121" d="M5.637.111c1.188-1.456,15.232,11.723,19.8,22.708C29.837,33.391,32,40.589,32,40.589s-4.571,5.555-13.944,8.393-13.24,1.851-13.24,1.851S-6.549,15.043,5.637.111" transform="translate(420 199)" fill="#cbe9f2"/>
    <path id="Fill_122" data-name="Fill 122" d="M0,21.477s16.857,2.033,23.7,2.372,16.944.716,23-6.26S52.829,7.1,50.824,3.467,41.6-.947,36,1.14,21.9,7.929,17.366,9.066a99.37,99.37,0,0,1-12.4,1.769L0,21.477" transform="matrix(0.978, -0.208, 0.208, 0.978, 401.749, 263.857)" fill="#eea596"/>
    <path id="Fill_123" data-name="Fill 123" d="M10.274.242a11.028,11.028,0,0,1,1.472,8.39C10.7,13.644,1.865,9.988,0,4.278,2.7-1.484,10.274.242,10.274.242" transform="matrix(0.978, -0.208, 0.208, 0.978, 402.288, 276.011)" fill="#e58a7f"/>
    <path id="Fill_124" data-name="Fill 124" d="M6.157,6.548C5.66,6.617.7,5.366.172,5.88s-.035,3.5,4.52,4.386,5.622-1.825,5.622-1.825a15.535,15.535,0,0,0,3.656,2.546,5.787,5.787,0,0,0,3.977.224s4.706,3.526,5.858,2.648,2.017-4.878-.079-8.524S17.84-.24,15.8.024,6.653,6.478,6.157,6.548" transform="matrix(0.978, -0.208, 0.208, 0.978, 384.828, 275.633)" fill="#de4d59"/>
    <path id="Fill_125" data-name="Fill 125" d="M18.983,6.742c-.244-1.584-2.167-.488-2.167-.488a2.761,2.761,0,0,0-.867-3.011c-.577-.412-2.067.679-2.067.679S14.6,1.537,13.791.949,11.144.942,11.144.942,10.6.585,9.816.16c-.74-.4-2.767.033-3.615.476C3.184,2.214,1.005,5.846.125,7.778l-.007.013a1.229,1.229,0,0,0,.674,1.69l.157.05a1.052,1.052,0,0,0,1.123-.344C3.858,7.079,7.29,4.147,7.8,4.341l1.318.507s0,0,0,.005c-.116.222-4.492,8.642-3.8,9.7s1.194,1.081,2.241-.128a80.465,80.465,0,0,0,4.8-7.717S9.5,15.363,10.037,16.132s.868,1.11,1.823.463,3.578-7.712,3.578-7.712-1.527,8.742-.092,9.107,3.88-9.664,3.638-11.249" transform="matrix(0.978, -0.208, 0.208, 0.978, 392.237, 272.013)" fill="#eea596"/>
    <path id="Fill_126" data-name="Fill 126" d="M3,.668S2.51.873,1.18,4L0,3.567,1.81,0C2.512.363,3,.668,3,.668" transform="translate(397 262)" fill="#e58a7f"/>
    <path id="Fill_127" data-name="Fill 127" d="M37.685,23.883A83.908,83.908,0,0,1,33.086,35l-1.1-1.829-3.293-5.446L8.048,27.348,6.1,27.312s-4.8-5.4-5-8c-.2-2.558,2.61-8.845,2.7-9.031C3.668,10.4.1,13.885,0,12.557c-.1-1.35,4.2-5.4,4.2-5.4S.7,2.9,1.6,2.065,6.9,4.558,6.9,4.558A8.206,8.206,0,0,1,11.8.4c3.7-1.244,18.192.311,22.988,6.026s5.1,10.911,2.9,17.455" transform="translate(360 144)" fill="#282735"/>
    <path id="Fill_128" data-name="Fill 128" d="M33.538,17.771A97.37,97.37,0,0,1,28.946,30l-3.27-5.612L5.181,24,1.526,19.34A11.721,11.721,0,0,1,.013,13.627C.186,10.8,5.657,5.341,5.657,5.341s-.408-2.7.058-3.517S7.4.067,12.409,0,27.425,1.7,30.685,5.025s3.9,8.351,2.852,12.746" transform="translate(363 147)" fill="#13151b"/>
    <path id="Fill_129" data-name="Fill 129" d="M.751.208S-.841,16.423.611,16.958s3.228-4.283,3.228-5S4,0,4,0L.751.208" transform="translate(381 199)" fill="#235e92"/>
    <path id="Fill_130" data-name="Fill 130" d="M6.479,2.985S1.342,5.181.81,8.718C.567,10.334-.371,13.9.16,15.854S4.885,25,4.885,25s-.531-3.658.413-5.549,3.839-2.928,3.839-2.928S12.266,18.6,13.684,24.7c7.558-3.72,13.168-6.344,14.467-11.161s.827-6.891.413-8.354S24.49.911,23.013.241,10.849.241,6.479,2.985" transform="translate(373 185)" fill="#3d7aaf"/>
    <path id="Fill_131" data-name="Fill 131" d="M.34,9.507A3.742,3.742,0,0,1,.857,5.549C2.415,3.425,8.7.269,11.582.039S19.883.556,20,2.967,9.681,14.556.34,9.507" transform="translate(376 185)" fill="#235e92"/>
    <path id="Fill_132" data-name="Fill 132" d="M19.738,20.385C17.68,22.923,9.911,27.456,6.085,28,3.2,27.032-.33,22.559.025,22.5s3.53-3.2,3.882-4.956a13.051,13.051,0,0,0-.336-1.534,19.085,19.085,0,0,0-1.9-4.388C.317,5.034,14.442-1.677,15.559.377c.28.517.8,1.681,1.429,3.146C18.863,7.9,21.7,14.944,21.915,15.308c.3.484-.117,2.538-2.176,5.077" transform="translate(375 172)" fill="#e58a7f"/>
    <path id="Fill_133" data-name="Fill 133" d="M15,3.52a14.442,14.442,0,0,1-5.287,8.005A33.67,33.67,0,0,1,1.938,16,19.325,19.325,0,0,0,.089,11.615C-1.23,5.031,12.521-1.676,13.608.377c.272.517.779,1.68,1.392,3.144" transform="translate(378 172)" fill="#de4d59"/>
    <path id="Fill_134" data-name="Fill 134" d="M.107,2.364C-.7,2.935,3.309,5,4.694,5S15.337.782,14.991.079,4.52,3.594,4.52,3.594,1.232,1.574.107,2.364" transform="translate(378 192)" fill="#de4d59"/>
    <path id="Fill_135" data-name="Fill 135" d="M0,3.69c0,1.719,1.987,5.73,4.009,6.64A5.687,5.687,0,0,0,7,10.981s-.037-.347-.119-.916c-.028-.2-.063-.431-.1-.685C6.271,6.191,4.833-.6,1.852.042.265.383,0,1.971,0,3.69" transform="translate(361 164)" fill="#e58a7f"/>
    <path id="Fill_136" data-name="Fill 136" d="M8,4.362c0,2.031-2.271,6.772-4.581,7.848A6.333,6.333,0,0,1,0,12.978s.042-.409.135-1.082c.033-.237.073-.51.12-.811C.833,7.317,2.476-.707,5.883.05,7.7.453,8,2.329,8,4.362" transform="translate(390 161)" fill="#e58a7f"/>
    <path id="Fill_137" data-name="Fill 137" d="M5.85,3.039S5.559,1.566,4.411,1.463c-1.223-.108-2.3,2.05-2.3,2.05S4.16,3.147,4.34,4.8C4.478,6.743.936,7.766,0,8c.03-.188.066-.4.109-.643A4.406,4.406,0,0,0,2.758,5.345c.25-.879-.4-1.283-1.583-1.026C1.893,1.867,3.476,0,4.662,0,6.623,0,5.85,3.039,5.85,3.039" transform="translate(391 165)" fill="#de4d59"/>
    <path id="Fill_138" data-name="Fill 138" d="M27,8.176s-.033,1.172-.119,3.044c-.074,1.666-.194,3.881-.362,6.322-.331,4.776-3.126,7.244-6.372,9.3-2.953,1.873-10.586,5.682-14.312,3.5C2.692,28.5.746,15.284.172,9.582.068,8.524.009,7.725,0,7.3-.059,4.621,4.57,0,4.57,0a10.614,10.614,0,0,0,6.677,5.555C16.055,6.8,27,8.176,27,8.176" transform="translate(365 154)" fill="#eea596"/>
    <path id="Fill_139" data-name="Fill 139" d="M27,8.016S26.967,9.165,26.881,11c-4.35-.507-15.267-1.89-18.039-3.349C5.354,5.814,4.51,3.733,4.51,3.733L.172,9.394C.068,8.357.009,7.574,0,7.161-.059,4.53,4.57,0,4.57,0a10.536,10.536,0,0,0,6.677,5.446C16.055,6.671,27,8.016,27,8.016" transform="translate(365 155)" fill="#e58a7f"/>
    <path id="Fill_140" data-name="Fill 140" d="M0,3.987a4.774,4.774,0,0,0,4.557.8A6.14,6.14,0,0,0,9,0S5.5,4.573,0,3.987" transform="translate(373 173)" fill="#de4d59"/>
    <path id="Fill_141" data-name="Fill 141" d="M1.042,0a7.692,7.692,0,0,1,.9,4.078A5.29,5.29,0,0,1,0,7S1.422,4.685,1.042,0" transform="translate(373 167)" fill="#de4d59"/>
    <path id="Fill_142" data-name="Fill 142" d="M1.986.362C1.807-.216-.3.5.037.718S2.174.966,1.986.362" transform="translate(374 173)" fill="#e58a7f"/>
    <path id="Fill_143" data-name="Fill 143" d="M2.99,1.358a1.517,1.517,0,0,0-.521-1L2.142.144A1.5,1.5,0,0,0,.358.529,1.54,1.54,0,0,0,.01,1.641a1.519,1.519,0,0,0,.523,1l.325.211a1.5,1.5,0,0,0,1.784-.385A1.538,1.538,0,0,0,2.99,1.358" transform="translate(377 167)" fill="#282735"/>
    <path id="Fill_144" data-name="Fill 144" d="M0,2a5.952,5.952,0,0,1,2.481-.585A16.251,16.251,0,0,1,5,1.951,3.048,3.048,0,0,0,2.256,0C.977.032,0,2,0,2" transform="translate(377 164)" fill="#282735"/>
    <path id="Fill_145" data-name="Fill 145" d="M2.99,1.358a1.517,1.517,0,0,0-.521-1L2.142.144A1.5,1.5,0,0,0,.358.529,1.54,1.54,0,0,0,.01,1.641a1.519,1.519,0,0,0,.523,1l.325.211a1.5,1.5,0,0,0,1.784-.385A1.538,1.538,0,0,0,2.99,1.358" transform="translate(369 167)" fill="#282735"/>
    <path id="Fill_146" data-name="Fill 146" d="M0,2a5.953,5.953,0,0,1,2.481-.585A16.19,16.19,0,0,1,5,1.952,3.049,3.049,0,0,0,2.255,0C.976.032,0,2,0,2" transform="translate(368 165)" fill="#282735"/>
    <path id="Fill_147" data-name="Fill 147" d="M130.877,100H8.123A8.349,8.349,0,0,1,0,91.444V8.556A8.348,8.348,0,0,1,8.123,0H130.877A8.348,8.348,0,0,1,139,8.556V91.444A8.349,8.349,0,0,1,130.877,100" transform="translate(213 161)" fill="#cbe9f2"/>
    <path id="Fill_148" data-name="Fill 148" d="M130.877,100H8.123A8.348,8.348,0,0,1,0,91.444V8.556A8.347,8.347,0,0,1,8.123,0H130.877A8.347,8.347,0,0,1,139,8.556V91.444A8.348,8.348,0,0,1,130.877,100" transform="translate(208 161)" fill="#fffffe"/>
    <path id="Fill_149" data-name="Fill 149" d="M29.955,2H1.046A1.024,1.024,0,0,1,0,1,1.024,1.024,0,0,1,1.046,0H29.955A1.023,1.023,0,0,1,31,1a1.023,1.023,0,0,1-1.045,1" transform="translate(263 209)" fill="#b8e0ed"/>
    <path id="Fill_150" data-name="Fill 150" d="M29.955,2H1.046A1.024,1.024,0,0,1,0,1,1.023,1.023,0,0,1,1.046,0H29.955A1.022,1.022,0,0,1,31,1a1.023,1.023,0,0,1-1.045,1" transform="translate(263 215)" fill="#b8e0ed"/>
    <path id="Fill_151" data-name="Fill 151" d="M29.955,2H1.046A1.023,1.023,0,0,1,0,1,1.023,1.023,0,0,1,1.046,0H29.955A1.022,1.022,0,0,1,31,1a1.022,1.022,0,0,1-1.045,1" transform="translate(263 197)" fill="#b8e0ed"/>
    <path id="Fill_152" data-name="Fill 152" d="M29.955,2H1.046A1.024,1.024,0,0,1,0,1,1.024,1.024,0,0,1,1.046,0H29.955A1.023,1.023,0,0,1,31,1a1.023,1.023,0,0,1-1.045,1" transform="translate(263 203)" fill="#b8e0ed"/>
    <path id="Fill_153" data-name="Fill 153" d="M0,3H0A3.137,3.137,0,0,1,3.259,0H27.741A3.137,3.137,0,0,1,31,3a3.137,3.137,0,0,1-3.259,3H3.259A3.138,3.138,0,0,1,0,3" transform="translate(261 232)" fill="#b8e0ed"/>
    <path id="Fill_154" data-name="Fill 154" d="M50,49H.17C-1.185,32.149,5.888,8.811,8.551.024L8.558,0H32.111a137.242,137.242,0,0,0-1.783,32.832,92.2,92.2,0,0,0,1.707,13.106H50V49ZM16.021,15.933c-3.016,0-5.469,4.03-5.469,8.984S13.005,33.9,16.021,33.9s5.469-4.03,5.469-8.984S19.037,15.933,16.021,15.933Z" transform="translate(255 235)" fill="#cbe9f2"/>
    <path id="Fill_155" data-name="Fill 155" d="M24,45.938V49H3.476c-6.532-14.61-2.1-41.836-.767-49H5.693C.931,26.3,5.615,45.938,5.615,45.938H24" transform="translate(283 235)" fill="#b8e0ed"/>
    <path id="Fill_165" data-name="Fill 165" d="M0,177H10V0H0Z" transform="translate(59 284)" fill="#8f4436"/>
    <path id="Fill_166" data-name="Fill 166" d="M0,177H10V0H0Z" transform="translate(144 284)" fill="#8f4436"/>
    <path id="Fill_167" data-name="Fill 167" d="M442,177h-9.986V10.522H344.142V177h-9.985V10.522H0V0H442Z" transform="translate(59 284)" fill="#723229"/>
    <path id="Fill_168" data-name="Fill 168" d="M337,0V68H288.532a10.407,10.407,0,0,1-10.149-10.646c0-13.467-10.405-24.384-23.242-24.384H84.513c-10.529,0-19.885,7.047-23.25,17.514v0C57.9,60.953,48.54,68,38.012,68H0V0H337" transform="translate(59 296)" fill="#fffffe"/>
    <path id="Fill_169" data-name="Fill 169" d="M0,68H105V0H0Z" transform="translate(396 296)" fill="#eeeeed"/>
    <path id="Fill_170" data-name="Fill 170" d="M215.1,137.08C208.441,167.057,190.215,190,170.943,190H40.931C-10.233,178.529-5.327,87.865,12.2,76.022A42.616,42.616,0,0,1,22.848,70.77a37.76,37.76,0,0,1,23.34-.3s.534-39.373,15.07-52.919C88.834-8.143,142.844-3.068,177.4,16.326q4.154,2.331,7.909,4.927c33.64,23.317,36.446,85.854,29.785,115.827" transform="translate(418 272)" fill="#de4d59"/>
    <path id="Fill_171" data-name="Fill 171" d="M151.007,129.74c-21.7,18.775-67.194,29.821-106.39,16.2S-1.232,105.814.169,87.773c.694-8.953,2.6-14.278,4.339-17.371a37.85,37.85,0,0,1,23.309-.3s.533-39.168,15.05-52.643C64.029-2.181,100.778-3.749,132.323,5.333c20.258,5.831,34.175,25.406,33.74,47.494l-.007.343c-.351,16.935-7.349,17.3-7.349,17.3s4.548,2.942,10.5,12.884,3.5,27.61-18.2,46.382" transform="translate(436 272)" fill="#c2333b"/>
    <path id="Fill_172" data-name="Fill 172" d="M0,57.538s-.52,19.516,15.037,17.285C31.686,72.437,55.483,40.252,53.927,3.451c-3.112-7.807-8.94-1.717-16.074,11.709C23.334,42.483,8.3,40.81,0,57.538" transform="translate(572 379)" fill="#e98792"/>
    <path id="Fill_173" data-name="Fill 173" d="M6.3,0S1.8,11.534,1.011,15.315-.665,23.353.747,26c10.23-3.026,16.58-5.3,16.58-5.3L25,5.388,6.3,0" transform="translate(482 306)" fill="#e58a7f"/>
    <path id="Fill_174" data-name="Fill 174" d="M1.549,15.132S-3.023,7.563,3.542,2.157c7.432-6.122,15.708,2.163,14.3,7.81S7.409,21.741,1.549,15.132" transform="translate(482 321)" fill="#e58a7f"/>
    <path id="Fill_175" data-name="Fill 175" d="M16.385.862C12.44,2.444,2.288,32.7,0,42.034,10.424,45.33,21.1,50,21.1,50S30,34.894,30,20.612,25.905-2.958,16.385.862" transform="translate(484 270)" fill="#ea862e"/>
    <path id="Fill_176" data-name="Fill 176" d="M3.767,0l4.3,4.05a22.111,22.111,0,0,1,3.6-3.334,6.387,6.387,0,0,1,4.619.056c.935.55,1.023,1.652-.117,1.983a8.168,8.168,0,0,0-3.216,1.818c-.232.263-3.391,3.775-5.058,4.188a37.418,37.418,0,0,1-6.577.165S-2.9,1.984,3.767,0" transform="translate(489 328)" fill="#de4d59"/>
    <path id="Fill_177" data-name="Fill 177" d="M13.314,13.9c-1.4.448-1.752-1.519-1.752-1.519a1.99,1.99,0,0,1-1.19.649,2.867,2.867,0,0,1-1.7-.292,3.3,3.3,0,0,1-.789,1.173c-.935.8-2.252.2-4.378-2.513a13.511,13.511,0,0,0,.965,5.809A1.489,1.489,0,0,1,4.4,18.765a.816.816,0,0,1-.979.141C.669,17.828,0,10.774,0,9.968c0-.393.673-.744,1.361-1A12.381,12.381,0,0,1,2.8,8.542l0,0,0,0a1.873,1.873,0,0,1,.793-1.963c1.137-.895,1.84-.448,1.84-.448s0-2.054.612-2.771,2.717-.714,2.717-.714C9.111,1.568,9.547.406,10.775.05s1.839,1.339,1.839,1.339.438,2.683.7,5,1.4,7.062,0,7.508" transform="translate(479 326)" fill="#eea596"/>
    <path id="Fill_178" data-name="Fill 178" d="M2.769,9A7.717,7.717,0,0,1,1.423,7.028,17.251,17.251,0,0,1,0,.372,11.608,11.608,0,0,1,1.312,0c-.015.032-.1.322.644,2.515a11.528,11.528,0,0,0,.88,5.114A1.273,1.273,0,0,1,2.769,9" transform="translate(481 336)" fill="#e58a7f"/>
    <path id="Fill_179" data-name="Fill 179" d="M3,4.974A2.906,2.906,0,0,1,2.212,6C1.248,5.251.1,3.6,0,0A9.834,9.834,0,0,0,3,4.974" transform="translate(485 334)" fill="#e58a7f"/>
    <path id="Fill_180" data-name="Fill 180" d="M2,7.416A1.482,1.482,0,0,1,1.1,8,17.643,17.643,0,0,1,.067,0C.417,1.928,2,7.416,2,7.416" transform="translate(488 331)" fill="#e58a7f"/>
    <path id="Fill_181" data-name="Fill 181" d="M6.166,0,4.316,1.54a2.18,2.18,0,0,0-.77,1.943,75.824,75.824,0,0,1,0,8.614C3.45,14.865.422,21.34.052,24.755s1.311,7.858,2.973,11.366,5.912,5.867,5.912,5.867,3.233.186,4.063-.923C10.877,29.992,9.214,2.123,6.166,0" transform="translate(495 392)" fill="#fffffe"/>
    <path id="Fill_182" data-name="Fill 182" d="M19.813,19.149C18.4,21.782,16.821,31.584,16.03,36.3S10.837,48.736,7.758,46.649C6.323,45.676,4.6,42.97,3.144,40c-.4-.824-.786-1.666-1.137-2.5A25.127,25.127,0,0,1,.014,30.948c-.265-3.54,3.256-11.163,3.344-14.7S2.214,7.169,3.005,6.351,11.365,0,11.365,0s2.044,3.865,4.259,8.472c.269.556.537,1.122.807,1.693,2.669,5.681,4.109,7.626,3.383,8.984" transform="translate(498 386)" fill="#39394a"/>
    <path id="Fill_183" data-name="Fill 183" d="M14,1.719c-2.239,3.06-4.664,6.824-5.429,9.672C7.034,17.1,6.862,20.05,5.325,24.839A21.326,21.326,0,0,1,1.1,32C.713,31.163.342,30.309,0,29.462a18.869,18.869,0,0,0,3.619-4.806c1.194-2.948,1.879-8.293,3.073-14C7.3,7.734,10.366,3.471,13.217,0c.261.564.521,1.139.783,1.719" transform="translate(500 394)" fill="#282735"/>
    <path id="Fill_184" data-name="Fill 184" d="M.518,2.069l8.374,5.58a2.1,2.1,0,0,0,3.007-.73A1.087,1.087,0,0,0,11.4,5.5L1.973.179A1.327,1.327,0,0,0,.025.924,1.087,1.087,0,0,0,.518,2.069" transform="translate(510 402)" fill="#fffffe"/>
    <path id="Fill_185" data-name="Fill 185" d="M.545,2.108,4.806,4.843,7.82,6.778A9.757,9.757,0,0,0,9.6,7.892a1.96,1.96,0,0,0,2.149-.582c1.371-1.907-3.337-3.639-4.7-4.391Q4.568,1.55,2.085.182A1.42,1.42,0,0,0,.026.941,1.1,1.1,0,0,0,.545,2.108" transform="translate(504 413)" fill="#fffffe"/>
    <path id="Fill_186" data-name="Fill 186" d="M.551,2.1,5.02,4.929q1.534.97,3.064,1.942c.751.475,1.64,1.3,2.641,1.1a1.719,1.719,0,0,0,.682-.291,1.426,1.426,0,0,0,.5-1.663c-.34-.859-1.685-1.471-2.546-1.934q-1.6-.859-3.2-1.72L2.1.181A1.437,1.437,0,0,0,.027.936,1.084,1.084,0,0,0,.551,2.1" transform="translate(505 407)" fill="#fffffe"/>
    <path id="Fill_187" data-name="Fill 187" d="M54,22H1.8A1.833,1.833,0,0,1,.085,19.605c.1-.324.216-.666.345-1.011.589-1.589,1.478-3.259,2.729-3.875A63.965,63.965,0,0,0,14.748,7.792a68.064,68.064,0,0,0,6.192-5.285C23.006.855,27.71.044,32.546,0c.669-.006,1.343,0,2.01.026,5.493.19,10.706,1.364,11.966,3.419,1.743,2.84,4.649,10.614,6.275,15.148C53.526,20.622,54,22,54,22" transform="translate(435 440)" fill="#39394a"/>
    <path id="Fill_188" data-name="Fill 188" d="M25,.028C21.494,4.118,17.1,8.8,13.814,10.844,8.1,14.4,4.963,14.975,1.874,22H0a19.8,19.8,0,0,1,4.111-6.225c3.037-2.7,11.338-7.63,15.548-12.092,1.058-1.12,2.191-2.4,3.293-3.681C23.633,0,24.321,0,25,.028" transform="translate(445 440)" fill="#282735"/>
    <path id="Fill_189" data-name="Fill 189" d="M.552,2.62,5.022,5.773A1.234,1.234,0,0,0,6.545,5.7a1.335,1.335,0,0,0-.027-2.031L2.367.281A1.231,1.231,0,0,0,.853.24L.533.475A1.331,1.331,0,0,0,.552,2.62" transform="translate(449 446)" fill="#fffffe"/>
    <path id="Fill_190" data-name="Fill 190" d="M.551,2.621,5.023,5.772A1.231,1.231,0,0,0,6.545,5.7a1.334,1.334,0,0,0-.026-2.029L2.368.281A1.235,1.235,0,0,0,.852.24L.534.474A1.333,1.333,0,0,0,.551,2.621" transform="translate(454 443)" fill="#fffffe"/>
    <path id="Fill_191" data-name="Fill 191" d="M54,3H1.8A1.657,1.657,0,0,1,.085.89C.186.605.3.3.43,0H52.8C53.526,1.786,54,3,54,3" transform="translate(435 459)" fill="#fffffe"/>
    <path id="Fill_192" data-name="Fill 192" d="M.552,2.62l4.47,3.152A1.231,1.231,0,0,0,6.545,5.7a1.333,1.333,0,0,0-.027-2.029L2.368.281A1.231,1.231,0,0,0,.853.241L.533.473A1.333,1.333,0,0,0,.552,2.62" transform="translate(458 440)" fill="#fffffe"/>
    <path id="Fill_193" data-name="Fill 193" d="M76,54.236c-.116,13.7-.932,41.35-2.446,43.2s-66.14,2.346-68-.124,8.967-23.205,8.967-23.205A9.938,9.938,0,0,1,12.3,72.873c-.7-.617.815-3.208.815-3.208s-2.214-.618-2.56-1.111S13,64.236,13,64.236,4.384,32.883,3.1,29.056-1.088,15.357.426,13.5C1.485,12.209,7.4,9.187,10.863,7.489c1.484-.729,2.516-1.215,2.516-1.215S43.044.05,44.126,0a32.272,32.272,0,0,1,4.024,1.182c7.1,2.336,21.112,7.371,21.91,8.125C71.107,10.3,76.114,40.536,76,54.236" transform="translate(501 258)" fill="#f1b32a"/>
    <path id="Fill_194" data-name="Fill 194" d="M38,1.228c-2.356,5.494-7.441,13.287-17.589,14.564A21.955,21.955,0,0,1,0,7.776C1.513,7.02,2.564,6.515,2.564,6.515S32.8.052,33.9,0A32.419,32.419,0,0,1,38,1.228" transform="translate(511 257)" fill="#ea862e"/>
    <path id="Fill_195" data-name="Fill 195" d="M.5.515l0-.03C.493.5.491.5.5.515" transform="translate(516 315)" fill="#fffffe"/>
    <path id="Fill_196" data-name="Fill 196" d="M43.441,19.082c1.523-1.723-.219-17.1-3.38-18.944-1.58-.923-11.488,3.066-19.435,3.5S1.309,2.942.49,4.479C-1.15,7.551,1.775,19.127,2.709,20.394s39.212.408,40.732-1.312" transform="translate(514 290)" fill="#ea862e"/>
    <path id="Fill_197" data-name="Fill 197" d="M123.648,32.05c-3.66,8.01-16.206,8.273-29.179,8.161q-1.651-.012-3.307-.031c-4.1-.038-8.176-.052-11.954.193C62.459,41.46,29.3,33.5,30.328,34.584S36.822,90.321,41.95,120c-1.483-2.3-5.05-4.832-9.379-7.275q-.721-.4-1.465-.805A209.757,209.757,0,0,0,6.671,101.284l2.122-8.43S.134,23.173.134,21-1.969,1.717,10.466.234C26.608-1.691,73.74,8.887,73.74,8.887s8.58-.335,18.642-.544c1.081-.023,2.185-.046,3.293-.065,12.477-.211,26.009-.164,27.973.97,3.76,2.171,5.126,11.581,0,22.8" transform="translate(447 342)" fill="#2773a6"/>
    <path id="Fill_198" data-name="Fill 198" d="M3.5,9C3.259,8.419-.461,1.982.048.762S3.259,4.423,3.259,4.423,4.951-1.124,6.641.206,3.5,9,3.5,9" transform="translate(475 366)" fill="#245f91"/>
    <path id="Fill_199" data-name="Fill 199" d="M75.143,5.565c-5.981.094-11.965-.4-17.937-.781s-11.955-.506-17.929-.847q-8.026-.458-16.056-.919-3.946-.226-7.886-.517a74.627,74.627,0,0,0-8.03-.515c-2.28.084-4.216.786-4.7,3.357-.425,2.25.152,4.656.491,6.878.838,5.523,1.615,11.056,2.4,16.587C7.107,40.052,8.727,51.29,10.27,62.545,11.616,72.348,12.717,82.191,14,92q-.727-.4-1.476-.808c-.8-4.868-1.674-9.73-2.459-14.6-1.05-6.529-2.037-13.071-3.028-19.61-1.775-11.69-3.439-23.4-5.152-35.1Q1.257,17.595.661,13.307A34.93,34.93,0,0,1,.038,6.066,6.45,6.45,0,0,1,2.7,1.012C4.477-.171,6.569-.028,8.582.052,19.66.513,30.736.953,41.811,1.49c5.6.272,11.195.754,16.8.99,5.541.231,11.1.384,16.608,1.057,1.087.132,1.012,2.013-.078,2.029" transform="translate(467 363)" fill="#245f91"/>
    <path id="Fill_200" data-name="Fill 200" d="M4,0q-.074,1.244-.138,2.48c-.246,4.9-.5,9.792-.663,14.7-.161,4.882-.21,9.764-.261,14.645,0,.059,0,.12,0,.179q-1.459-.012-2.922-.031c-.049-4.908.049-9.824.194-14.728C.354,12.3.577,7.348.921,2.416c.054-.777.11-1.564.169-2.351C2.046.042,3.021.02,4,0" transform="translate(540 349)" fill="#245f91"/>
    <path id="Fill_201" data-name="Fill 201" d="M8.805,1.274c1.125,1.786-2.894,13.3-5.143,12.7S-.518,4.25.126,1.868,7.68-.513,8.805,1.274" transform="translate(452 352)" fill="#245f91"/>
    <path id="Fill_202" data-name="Fill 202" d="M80.21,24.122C75.621,30.941,55.851,39.416,40.844,45.5S13.834,63,13.834,63s-5.3-.922-10.239-7.739C1.092,51.808.264,46.7.057,42.5.019,41.751,0,41.031,0,40.355a46.252,46.252,0,0,1,.241-5.176C14.541,26.887,59.556,2.012,64.382.836A28,28,0,0,1,69.4.03,17.537,17.537,0,0,1,72.282.1a12.33,12.33,0,0,1,8.458,4.5C85.507,10.3,84.8,17.306,80.21,24.122" transform="translate(508 350)" fill="#3d7aaf"/>
    <path id="Fill_203" data-name="Fill 203" d="M72,.1C54.756,9.509,21.238,30.942,17.3,33.354,14.074,35.325,5.081,40.261.056,43,.019,42.239,0,41.51,0,40.827a164.75,164.75,0,0,0,17.474-9.152C25.794,26.687,56.083,7.037,69.134.031A17.2,17.2,0,0,1,72,.1" transform="translate(508 350)" fill="#245f91"/>
    <path id="Fill_204" data-name="Fill 204" d="M48.985,21.039c-.347,3.69-1.915,6.826-10.978,13.1S4.367,43,4.367,43L0,34.471l28.593-14.54L26.153,6.46,43.409,0s5.925,17.348,5.576,21.039" transform="translate(544 304)" fill="#e58a7f"/>
    <path id="Fill_205" data-name="Fill 205" d="M15,3.044C7.916,1.128.831,4,.831,4L0,.19C3.922-.269,10.7-.1,15,3.044" transform="translate(571 320)" fill="#de4d59"/>
    <path id="Fill_206" data-name="Fill 206" d="M8.271.179C3.065-1.8-1.11,13.124.265,23.5S7.649,49.533,7.477,48.986,31,39.337,31,39.337,17.308,3.619,8.271.179" transform="translate(561 267)" fill="#ea862e"/>
    <path id="Fill_207" data-name="Fill 207" d="M8.816,0A11.034,11.034,0,0,1,12,7.822c.086,5.124-9.021,3.634-12-1.489C1.313.092,8.816,0,8.816,0" transform="translate(538 336)" fill="#e58a7f"/>
    <path id="Fill_208" data-name="Fill 208" d="M6.206,8.993c-.481.189-5.7.189-6.126.823S.8,13.238,5.545,12.984s5.226-3.167,5.226-3.167a15.476,15.476,0,0,0,4.2,1.584A6.129,6.129,0,0,0,19,10.639s5.465,2.28,6.426,1.141.96-5.259-1.922-8.3S16.417-.511,14.434.25,6.687,8.8,6.206,8.993" transform="translate(520 334)" fill="#de4d59"/>
    <path id="Fill_209" data-name="Fill 209" d="M18.72,4.339c-.586-1.45-2.278.059-2.278.059A2.573,2.573,0,0,0,14.925,1.74C14.257,1.486,13,2.888,13,2.888s.2-2.446-.73-2.809S9.611.713,9.611.713,8.988.505,8.113.29c-.829-.2-2.769.7-3.522,1.331C1.9,3.855.5,7.843.035,9.9l0,.015a1.166,1.166,0,0,0,1.04,1.447l.166.008a1.132,1.132,0,0,0,1.053-.6c1.337-2.442,4.146-6.067,4.694-6l1.432.163s0,0,0,.005c-.069.241-2.643,9.323-1.722,10.159s1.431.739,2.219-.665a79.323,79.323,0,0,0,3.153-8.517s-.992,8.94-.292,9.542,1.109.848,1.928,0,1.926-8.213,1.926-8.213.35,8.7,1.868,8.7S19.3,5.787,18.72,4.339" transform="translate(529 331)" fill="#eea596"/>
    <path id="Fill_210" data-name="Fill 210" d="M2,.365S1.623.678,1.09,4L0,3.859.859,0C1.526.186,2,.365,2,.365" transform="translate(535 332)" fill="#e58a7f"/>
    <path id="Fill_211" data-name="Fill 211" d="M0,2.259,2.194,0,69.428.564,84,47.645,82.419,50,0,2.259" transform="translate(442 302)" fill="#39394a"/>
    <path id="Fill_212" data-name="Fill 212" d="M0,0,68.415.278,83,47,14.938,44.868,0,0" transform="translate(441 305)" fill="#39394a"/>
    <path id="Fill_213" data-name="Fill 213" d="M0,3H42V0H.408L0,3" transform="translate(524 349)" fill="#282735"/>
    <path id="Fill_214" data-name="Fill 214" d="M17.99,7H4.008A4.036,4.036,0,0,1,.286,4.79C-.756,2.493,1.18,0,4.008,0H17.99a4.036,4.036,0,0,1,3.724,2.21C22.757,4.507,20.819,7,17.99,7" transform="translate(471 327)" fill="#282735"/>
    <path id="Fill_215" data-name="Fill 215" d="M31,19.588S26.776,32.206,14.408,32A20.49,20.49,0,0,1,0,26.028s5.238-2.514,5.965-4.868a19.019,19.019,0,0,0-.143-5.633c-.428-3.638-1.164-7.561-1.164-7.561L18.637,0S19,2.624,19.7,5.736v0c.851,3.725,2.2,8.154,4.02,9.609A32.805,32.805,0,0,0,31,19.588" transform="translate(513 238)" fill="#e58a7f"/>
    <path id="Fill_216" data-name="Fill 216" d="M15,5.542v0a18.111,18.111,0,0,1-5.418,6.16A15.756,15.756,0,0,1,1.161,15C.734,11.485,0,7.7,0,7.7L13.937,0S14.3,2.535,15,5.542" transform="translate(517 238)" fill="#de4d59"/>
    <path id="Fill_217" data-name="Fill 217" d="M0,3.019C0,4.426,1.7,7.707,3.436,8.453A5.1,5.1,0,0,0,6,8.985s-.031-.283-.1-.75c-.024-.164-.054-.352-.089-.56C5.375,5.066,4.142-.489,1.587.035.228.314,0,1.613,0,3.019" transform="translate(504 232)" fill="#e58a7f"/>
    <path id="Fill_218" data-name="Fill 218" d="M0,5.319s14.328,12.8,45,8.965C34.46,3.435,17.23-6.438,0,5.319" transform="translate(497 220)" fill="#282735"/>
    <path id="Fill_219" data-name="Fill 219" d="M5.681,23.754a13.566,13.566,0,0,1-2.954-3.182c-.869-1.56.116-7.675.116-7.675S.119,16.267,0,15.144s3.36-6.489,3.36-6.489S2.089,4.537,2.727,3.976,4.465,5.847,4.465,5.847s2.086-5.3,6.721-5.8,19,3.182,21.611,9.733S32.97,23.816,32.913,24s-16.861,4.554-27.232-.249" transform="translate(503 212)" fill="#8f4436"/>
    <path id="Fill_220" data-name="Fill 220" d="M25,9.109s-.064.859-.193,2.436c-.045.557-.1,1.206-.16,1.938a10.091,10.091,0,0,1-4.93,8.26c-3.753,2.429-7.628,4.374-12.556,4.252C3.241,25.9,1.026,12.668.286,7.254.092,5.856,0,4.98,0,4.98A17.849,17.849,0,0,0,4.11,0C7.747,4.009,19.247,2.309,19.247,2.309a5.446,5.446,0,0,0,.47,2.429c.589,1.457,2.935,1.334,2.935,1.334l.353,2.31L25,9.109" transform="translate(508 225)" fill="#eea596"/>
    <path id="Fill_221" data-name="Fill 221" d="M25,8.679S24.936,9.5,24.807,11a7.167,7.167,0,0,1-1.066-.379c-1.7-.759-1.921-1.462-1.977-3.739-1.211.269-2.967.218-3.736-2.817-6.76,2-10.111.106-13.409-2.168A13.778,13.778,0,0,1,.286,6.912C.092,5.579,0,4.745,0,4.745A17.277,17.277,0,0,0,4.11,0C7.747,3.819,19.247,2.2,19.247,2.2a4.969,4.969,0,0,0,.47,2.315c.589,1.388,2.935,1.271,2.935,1.271l.353,2.2L25,8.679" transform="translate(508 224)" fill="#e58a7f"/>
    <path id="Fill_222" data-name="Fill 222" d="M2.99,1.358a1.517,1.517,0,0,0-.524-1C2.36.285,2.251.215,2.141.144A1.495,1.495,0,0,0,.359.529,1.5,1.5,0,0,0,.531,2.644c.109.069.217.14.325.211A1.492,1.492,0,0,0,2.64,2.47a1.537,1.537,0,0,0,.35-1.112" transform="translate(518 234)" fill="#282735"/>
    <path id="Fill_223" data-name="Fill 223" d="M2.99,1.358a1.52,1.52,0,0,0-.521-1C2.359.285,2.25.215,2.143.144A1.5,1.5,0,0,0,.358.529,1.543,1.543,0,0,0,.01,1.641a1.52,1.52,0,0,0,.524,1l.325.211A1.49,1.49,0,0,0,2.641,2.47,1.525,1.525,0,0,0,2.99,1.358" transform="translate(509 234)" fill="#282735"/>
    <path id="Fill_224" data-name="Fill 224" d="M1.043,0a7.7,7.7,0,0,1,.9,4.079A5.29,5.29,0,0,1,0,7S1.423,4.686,1.043,0" transform="translate(514 234)" fill="#de4d59"/>
    <path id="Fill_225" data-name="Fill 225" d="M0,3.987a4.776,4.776,0,0,0,4.557.8A6.14,6.14,0,0,0,9,0S5.5,4.573,0,3.987" transform="translate(514 240)" fill="#de4d59"/>
    <path id="Fill_226" data-name="Fill 226" d="M1.986.362C1.807-.216-.3.5.036.718S2.173.966,1.986.362" transform="translate(515 240)" fill="#e58a7f"/>
    <path id="Fill_227" data-name="Fill 227" d="M0,2a5.951,5.951,0,0,1,2.48-.585A16.277,16.277,0,0,1,5,1.951,3.05,3.05,0,0,0,2.255,0C.977.032,0,2,0,2" transform="translate(518 229)" fill="#282735"/>
    <path id="Fill_228" data-name="Fill 228" d="M0,2a5.953,5.953,0,0,1,2.481-.585A16.158,16.158,0,0,1,5,1.952,3.049,3.049,0,0,0,2.256,0C.977.032,0,2,0,2" transform="translate(508 229)" fill="#282735"/>
    <path id="Fill_229" data-name="Fill 229" d="M3.834,7c-.156,0-.327,0-.539-.015A3.558,3.558,0,0,1,.533,5.04,3.58,3.58,0,0,1,.407,1.51,2.987,2.987,0,0,1,2.345.238,8.12,8.12,0,0,1,4.378,0,7.761,7.761,0,0,1,7.807.681,2.3,2.3,0,0,1,8.936,2.193a3.912,3.912,0,0,1-.76,2.978A5,5,0,0,1,3.834,7ZM4.381.849a7.27,7.27,0,0,0-1.812.208,2.294,2.294,0,0,0-1.41.869,2.753,2.753,0,0,0,.129,2.705A2.743,2.743,0,0,0,3.34,6.139c.162.008.323.013.48.013A4.339,4.339,0,0,0,7.466,4.691a3.118,3.118,0,0,0,.628-2.313,1.45,1.45,0,0,0-.726-.965A6.852,6.852,0,0,0,4.381.849Z" transform="translate(515 232)" fill="#282735"/>
    <path id="Fill_230" data-name="Fill 230" d="M5.168,7A5.014,5.014,0,0,1,.822,5.171,3.921,3.921,0,0,1,.063,2.2,2.308,2.308,0,0,1,1.194.681,7.745,7.745,0,0,1,4.62,0,8.142,8.142,0,0,1,6.655.238,2.984,2.984,0,0,1,8.592,1.51a3.576,3.576,0,0,1-.125,3.53A3.56,3.56,0,0,1,5.705,6.985C5.493,7,5.323,7,5.168,7ZM4.618.849a6.847,6.847,0,0,0-2.985.564,1.45,1.45,0,0,0-.727.965,3.127,3.127,0,0,0,.628,2.313A4.328,4.328,0,0,0,5.174,6.152c.158,0,.322,0,.486-.013A2.74,2.74,0,0,0,7.712,4.631a2.753,2.753,0,0,0,.129-2.705A2.289,2.289,0,0,0,6.43,1.057,7.26,7.26,0,0,0,4.618.849Z" transform="translate(506 232)" fill="#282735"/>
    <path id="Fill_231" data-name="Fill 231" d="M.432,2a.439.439,0,0,1-.411-.324.486.486,0,0,1,.3-.593C.376,1.064.536,1.009,8.5,0A.454.454,0,0,1,9,.41a.461.461,0,0,1-.391.518C5.537,1.316.863,1.914.568,1.976A.4.4,0,0,1,.432,2" transform="translate(524 233)" fill="#282735"/>
    <path id="Fill_232" data-name="Fill 232" d="M45,27s-6.987-7.4-22.144-9.943C7.879,14.54.181,18.535,0,18.631c1.54-3.515,6.985-6.062,6.985-6.062s.559-2.2,1.327-4.507a21.056,21.056,0,0,1,1.871-4.347c1.54-2.3,13.739-4.73,19.065-3.274s12.083,9.1,12.912,10.673c.433.825.153,2.878-.211,4.649-.333,1.611-.737,2.991-.737,2.991L45,27" transform="translate(497 207)" fill="#39394a"/>
    <path id="Fill_233" data-name="Fill 233" d="M34,9.672C33.676,11.465,33.284,13,33.284,13A108.618,108.618,0,0,0,17.506,6.657,32.608,32.608,0,0,0,0,6.116S.544,3.665,1.29,1.1A26.88,26.88,0,0,1,12.9.311c8.161,1.3,18.61,7.762,21.1,9.361" transform="translate(505 213)" fill="#282735"/>
    <path id="Fill_234" data-name="Fill 234" d="M8.887.129C9.559.712,7.044,2.855,6.15,2.985S.169,2.4,0,1.751,8.218-.456,8.887.129" transform="translate(515 209)" fill="#282735"/>
    <path id="Fill_235" data-name="Fill 235" d="M8,4.361c0,2.032-2.27,6.771-4.582,7.849A6.348,6.348,0,0,1,0,12.978s.042-.409.135-1.083c.033-.237.073-.509.12-.81C.833,7.317,2.477-.707,5.884.05,7.7.455,8,2.33,8,4.361" transform="translate(530 229)" fill="#eea596"/>
    <path id="Fill_236" data-name="Fill 236" d="M5.849,3.039S5.559,1.567,4.41,1.463c-1.223-.107-2.3,2.05-2.3,2.05S4.16,3.147,4.34,4.8C4.478,6.744.935,7.766,0,8c.03-.188.066-.4.109-.642A4.4,4.4,0,0,0,2.757,5.345c.251-.878-.4-1.282-1.582-1.026C1.894,1.868,3.476,0,4.662,0,6.623,0,5.849,3.039,5.849,3.039" transform="translate(531 232)" fill="#de4d59"/>
    <path id="Fill_237" data-name="Fill 237" d="M11.078.1,23.173,29.868,35.1,18.676l7.9,2.44S38.446,39.337,29.069,48.663,8.527,45.93,3.482,35.032C-4.556,17.673,2.733-1.549,11.078.1" transform="translate(645 336)" fill="#1a7178"/>
    <path id="Fill_238" data-name="Fill 238" d="M4.465,0S1.067,4.749.533,7.221L0,9.693A12.113,12.113,0,0,0,4.62,11a5,5,0,0,0,2.667-.708s2.935.53,3.379.265S12,6.67,12,6.67L4.465,0" transform="translate(678 347)" fill="#de4d59"/>
    <path id="Fill_239" data-name="Fill 239" d="M0,.885S1.15-.141,2.013.016,6.4,4.436,5.963,4.908,3.3,3.962,1.8,1.91C.863,2.147.143,2.3.143,2.3L0,.885" transform="translate(689 351)" fill="#de4d59"/>
    <path id="Fill_240" data-name="Fill 240" d="M8.749,13.163C7.8,13.028,5.795,8.2,5.795,8.2S5.9,14.5,5.057,13.968,2.841,5.916,2.841,5.916s.527,8.723-.527,7.917-2-8.588-2-8.588S.167,3.678.009,1.813A2.018,2.018,0,0,1,.583.141C.718.024.839-.024.943.011c1.161.4,1.476.94,1.793,2.281,1.794,0,1.9.806,2.321,2.551,1.266-.269,1.372.269,2,1.476S9.7,13.3,8.749,13.163" transform="translate(682 347)" fill="#eea596"/>
    <path id="Fill_241" data-name="Fill 241" d="M3.876,12.773a2.111,2.111,0,0,1-2-.056C.932,12.212.56,11.007.082,9.1-.258,7.742.57,4.123.57,3.724S.651.436,1.3.038,2.761,2.429,2.761,4.123c0,.141-.007.29-.02.443A6.031,6.031,0,0,0,4.271,9.353a2.465,2.465,0,0,1,.519.749,1.972,1.972,0,0,1-.915,2.672" transform="translate(677 345)" fill="#eea596"/>
    <path id="Fill_242" data-name="Fill 242" d="M40,21.37,29.853,35l-9.322-6.094L9.657,21.8,0,15.486,13.433,0,40,21.37" transform="translate(733 409)" fill="#e58a7f"/>
    <path id="Fill_243" data-name="Fill 243" d="M19,5.183C16.471,9.262,12.707,15.274,9.117,21L0,14.917,12.683,0,19,5.183" transform="translate(734 410)" fill="#de4d59"/>
    <path id="Fill_244" data-name="Fill 244" d="M19,8.522,9.1,22,0,15.974C3.455,9.546,6.978,2.941,8.543,0L19,8.522" transform="translate(754 422)" fill="#fffffe"/>
    <path id="Fill_245" data-name="Fill 245" d="M54,4.211s-3.463,3.08-8.589,7.632q-.563.5-1.153,1.027c-2.2,1.957-4.657,4.141-7.249,6.444C30.944,24.709,24.15,30.749,18.24,36a10.486,10.486,0,0,1-2.54-2.481c-2.356-3.02-4.514-7.425-6.445-9.059C6.653,22.255,0,21.837,0,21.837s2.242-5.6,4.516-11.535q.253-.66.507-1.33C6.281,5.665,7.5,2.373,8.3,0c2.79,2.221,15.3,5.931,17.793,6.06,1.714.093,4.524-.876,8.6-2.06,1.855-.538,3.975-1.122,6.374-1.669a18.114,18.114,0,0,1,9.741.409A13.643,13.643,0,0,1,54,4.211" transform="translate(759 425)" fill="#282735"/>
    <path id="Fill_246" data-name="Fill 246" d="M42,2.6q-.578.439-1.184.9a19.073,19.073,0,0,0-5.194-2.26c-2.76-.486-14.793,3.4-16.926,3.73C16.021,5.378,3.547,2.182,0,1.251Q.26.675.521.09c3.993.955,15.017,3.534,17.984,3.61C22.149,3.791,33.8-1.192,37.392.268A36.426,36.426,0,0,1,42,2.6" transform="translate(763 434)" fill="#282735"/>
    <path id="Fill_247" data-name="Fill 247" d="M39,1.5,2.586,34A10.7,10.7,0,0,1,0,31.463L35.747,0A13.87,13.87,0,0,1,39,1.5" transform="translate(774 428)" fill="#fffffe"/>
    <path id="Fill_248" data-name="Fill 248" d="M20,2.429S12.37,9.424,3.007,18A20.241,20.241,0,0,1,.687,2.212C2.542,1.657,4.662,1.055,7.062.491A17.6,17.6,0,0,1,16.8.913,13.477,13.477,0,0,1,20,2.429" transform="translate(793 426)" fill="#fffffe"/>
    <path id="Fill_249" data-name="Fill 249" d="M0,80.044s26.711,4.6,38.159-.306S84.537,38.966,84.537,38.966l19.374,11.649L118,27.931S88.061,1.874,84.537.035,2.055,69.621,0,80.044" transform="translate(633 381)" fill="#282735"/>
    <path id="Fill_250" data-name="Fill 250" d="M4.94,100,8.333,80.315C.12,48.56-2.378,30.734,2.441,18.663,7.01,7.223,8.868,2.877,12.618,1.579A32.461,32.461,0,0,1,18.992.552C23.775.117,29.11,0,29.11,0s8.145,2.694,8.858,3.434c.437.454,6.474,4.028,11.143,7.29,2.973,2.077,5.393,4.026,5.461,4.966.179,2.414,2.678,17.457,2.856,19.315s3.214,9.284,4.285,14.3-6.9,19.369-7.257,19.926c-.118.183,1.082,3.554,2.75,8C60.625,86.354,66,100,66,100H4.94" transform="translate(602 321)" fill="#1aae98"/>
    <path id="Fill_251" data-name="Fill 251" d="M0,69.738,1.429,73,51.343,57.914,60,0,56.3.562l-8.482,53.6L0,69.738" transform="translate(666 308)" fill="#282735"/>
    <path id="Fill_252" data-name="Fill 252" d="M43,39.387,31.757,51,0,18.542,12.982,0l9.9,14.239L43,39.387" transform="translate(711 396)" fill="#eea596"/>
    <path id="Fill_253" data-name="Fill 253" d="M23,14.284,8.235,27,0,18.6,13.046,0,23,14.284" transform="translate(710 396)" fill="#de4d59"/>
    <path id="Fill_254" data-name="Fill 254" d="M26,15.656,14.9,27,0,11.924C2.888,9.283,10,2.971,13.348,0L26,15.656" transform="translate(727 419)" fill="#fffffe"/>
    <path id="Fill_255" data-name="Fill 255" d="M126,34.313s-5.637,5.263-12.7,11.707q-.9.827-1.834,1.669c-1.058.968-2.142,1.951-3.233,2.938-4.783-3.99-13.518-16.186-13.518-16.186s-.537.866-1.508,2.38c-5.919,9.237-27.99,42.653-43.252,51.994C32.189,99.69,10.664,95.339,3.83,82.652.1,75.727-.285,67.116.135,60.726a59.836,59.836,0,0,1,1.252-9.1l29.777.21S86.563-2.789,93.739.112,126,34.313,126,34.313" transform="translate(605 369)" fill="#39394a"/>
    <path id="Fill_256" data-name="Fill 256" d="M99,26.7q-.894.806-1.818,1.625C92.2,23.577,75.23,5.107,73.26,3.284c-6.3,2.875-11.815,9.581-28.885,30.657-11.2,13.83-19.687,19.94-25.459,22.274A10.569,10.569,0,0,1,6.491,52.821a6.758,6.758,0,0,1-.714-1.09S.393,42.563,0,32.3c11.815.136,17.571.066,17.571.066s2.91,11.766-6.452,17.8a2.184,2.184,0,0,0-.042,3.618c1.3.868,1.656.684,1.656.684s6.434,1.1,16.281-8.348S56.905,14.127,60.262,10.538C65.381,5.064,71.421.959,74.31,0,80.568,5.95,95.042,22.712,99,26.7" transform="translate(620 388)" fill="#282735"/>
    <path id="Fill_257" data-name="Fill 257" d="M6,4.828S5.456,5.619,4.472,7L0,0,6,4.828" transform="translate(694 399)" fill="#282735"/>
    <path id="Fill_258" data-name="Fill 258" d="M6.252.086C3.179-.488-.176,1.945.007,3.663s12.18,5.732,12.915,3.842S9.014.6,6.252.086" transform="translate(694 372)" fill="#282735"/>
    <path id="Fill_259" data-name="Fill 259" d="M56,25.872s-4.409,1.178-10.929,2.912c-.478.128-.967.259-1.47.393-2.8.747-5.928,1.581-9.226,2.458C26.654,33.694,18.008,36,10.485,38a11.748,11.748,0,0,1-1.246-3.51c-.856-3.92-.953-9.025-2.006-11.46C5.813,19.745,0,16.157,0,16.157s4.363-4.086,8.9-8.47Q9.4,7.2,9.911,6.705c2.517-2.447,4.994-4.9,6.7-6.705C18.2,3.392,27.9,12.83,30.1,14.152c1.5.909,4.439,1.368,8.606,2.237,1.9.4,4.048.877,6.437,1.528a18.842,18.842,0,0,1,8.6,5.063A15.028,15.028,0,0,1,56,25.872" transform="translate(731 424)" fill="#39394a"/>
    <path id="Fill_260" data-name="Fill 260" d="M37,20.633c-.489.119-.989.242-1.5.367a18,18,0,0,0-3.547-4.507c-2.237-1.686-14.93-3.121-17.007-3.726C12.341,12.007,2.724,3.39,0,.918Q.518.463,1.038,0C4.15,2.691,12.767,10.064,15.391,11.437,18.614,13.122,31.5,13.3,34.01,16.316A34.924,34.924,0,0,1,37,20.633" transform="translate(740 432)" fill="#282735"/>
    <path id="Fill_261" data-name="Fill 261" d="M47,2.889,1.253,15A11.683,11.683,0,0,1,0,11.495L44.728,0A15.017,15.017,0,0,1,47,2.889" transform="translate(740 447)" fill="#fffffe"/>
    <path id="Fill_262" data-name="Fill 262" d="M22,9.331S12.175,11.879.122,15C-.619,7.461,2.169,2.639,4.5,0c1.917.389,4.1.863,6.513,1.5a19.169,19.169,0,0,1,8.7,4.982A14.83,14.83,0,0,1,22,9.331" transform="translate(766 441)" fill="#fffffe"/>
    <path id="Fill_263" data-name="Fill 263" d="M65.177,59.5a.046.046,0,0,1-.016.005A20.053,20.053,0,0,0,61.3,61.228c-26.206,15.7-49.39,15.251-52.636,11.829C5.2,69.407-.215,53.233.007,33.182.318,5.091,14.5-3.217,17.655,1.055c4.388,5.948,4.6,43.855,4.6,43.855a18.4,18.4,0,0,0,2.968,1.825c1.236.52.309,2.737.309,2.737s24.311-2.613,31.178-5.145l0,0c2.893-1.073,6.2,2.009,6.475,2.009l4.01,5.589s2.778,5.937-2.024,7.582" transform="translate(598 323)" fill="#198596"/>
    <path id="Fill_264" data-name="Fill 264" d="M10.067,15.946c-2.025.194-4.6.194-8.289-5.993-3.61-6.069-.626-9.58-.5-9.715l0,0C4.282-.875,7.722,2.314,8,2.314L12.17,8.1s2.886,6.145-2.1,7.848" transform="translate(652 367)" fill="#17797f"/>
    <path id="Fill_265" data-name="Fill 265" d="M8.467,0S-.825,4.064.059,6.322,6.7,3.837,6.7,3.837s-3.5,8.231-1.154,7.046C10.848,9.01,8.467,0,8.467,0" transform="translate(610 372)" fill="#17797f"/>
    <path id="Fill_266" data-name="Fill 266" d="M23.987,10.389C23.5,11.757,14.24,6.161,14.24,6.161s4.278,3.54,5.491,7.954a2.341,2.341,0,0,1,.123.912A1.816,1.816,0,0,1,19.2,16.18s.762,2.215-.458,2c-.825-.146-4.009-3-5.975-4.831a1.489,1.489,0,0,0-2.384.513c-1.079,2.491-3.158,6.37-5.573,6.127C1.269,19.634-1.33,17.24.729,12.47c0,0,5.048-11.439,7.568-12.4S24.477,9.019,23.987,10.389" transform="translate(657 360)" fill="#eea596"/>
    <path id="Fill_267" data-name="Fill 267" d="M.13.681S1.032-.067,3.452,0,14.942.77,15,1.943,5.805,3.213,3.607,2.72-.528,1.753.13.681" transform="translate(665 359)" fill="#eea596"/>
    <path id="Fill_268" data-name="Fill 268" d="M6,6S1.768,1.761,0,0A11.145,11.145,0,0,1,6,6" transform="translate(670 368)" fill="#de4d59"/>
    <path id="Fill_269" data-name="Fill 269" d="M47.074,21.431C46.382,22.609,45.295,33,42.822,40.288A20.544,20.544,0,0,1,33.625,51l-1.653-3.247-10.907-21.4-6.231,15.75A95.123,95.123,0,0,1,3.443,29.66C2.315,28.2,1.157,26.638,0,24.967,9.069,14.172,10.779.218,24.23,0S48.56,12.217,48.954,14.466s-1.88,6.965-1.88,6.965" transform="translate(627 286)" fill="#282735"/>
    <path id="Fill_270" data-name="Fill 270" d="M39.918,12.532C38.671,15.8,38.049,19.161,36,22.34c-1.333,2.071-4.666,4.331-6.827,5.66L18.021,7.383,11.649,22.56A94.153,94.153,0,0,1,0,10.565L8.957,0,21.722,3.406S36.8,4.722,42.942,1.567c.446,4.291-1.781,7.7-3.024,10.965" transform="translate(630 305)" fill="#13151b"/>
    <path id="Fill_271" data-name="Fill 271" d="M9.7.093C7.719,5.282,9.037,11.056,8.6,16.468a14.791,14.791,0,0,1-2.3,7.377,7.838,7.838,0,0,1-2.859,2.538,18.2,18.2,0,0,1-3.316.91.216.216,0,0,0-.019.38c1.839.926,4.111-.282,5.586-1.533a11.712,11.712,0,0,0,3.535-6.28,30.1,30.1,0,0,0,.467-8.509C9.5,7.554,9.262,3.948,10,.206c.036-.184-.225-.3-.3-.113" transform="translate(665 305)" fill="#282735"/>
    <path id="Fill_272" data-name="Fill 272" d="M31,14.7C31,19.759,24.632,34,20.211,30.435S1.289,8.709.228,5.149A6.581,6.581,0,0,1,.7.557C5.443.118,10.728,0,10.728,0S18.8,2.717,19.5,3.464c.433.458,6.412,4.063,11.038,7.353A18.942,18.942,0,0,1,31,14.7" transform="translate(620 320)" fill="#198596"/>
    <path id="Fill_273" data-name="Fill 273" d="M29,11.449s-1.784,1.722-3.238,2.961c-.053.044-.1.091-.162.143-1.5,1.378-4.195,5.129-4.068,6.192a6.808,6.808,0,0,0,.593,2.9,5.129,5.129,0,0,1,.516,3.506c-.826,4.21-2.83,7.562-6.329,7.851-3.061.252-11.59-12-15.888-18.509a2.513,2.513,0,0,1,1.665-3.882,26.774,26.774,0,0,0,4.113-.95c3.89-1.2,10.414-5.663,14.305-8.484C22.43,1.771,23.713.777,23.713.777S26.886-.875,27.876.639,29,11.449,29,11.449" transform="translate(624 310)" fill="#e58a7f"/>
    <path id="Fill_274" data-name="Fill 274" d="M8,11.8s-1.681,1.775-3.05,3.052c-.05.045-.1.094-.152.147A32,32,0,0,1,0,3.269C1.811,1.826,3.02.8,3.02.8S6.008-.9,6.941.659,8,11.8,8,11.8" transform="translate(645 309)" fill="#de4d59"/>
    <path id="Fill_275" data-name="Fill 275" d="M0,.3C0,1.4,12.807,3.913,13,2.656S0-.8,0,.3" transform="translate(632 333)" fill="#de4d59"/>
    <path id="Fill_276" data-name="Fill 276" d="M17.924,9.726a5.645,5.645,0,0,0,.233,3.194,1,1,0,0,1-.532,1.186,3.386,3.386,0,0,1-1.215.336A2.868,2.868,0,0,0,14,15.7c-1.512,1.839-3.759,4.131-4.845,4.275C5.683,20.427,1.1,14.623.3,12.924S.43,1.7,1.765,1.836,21.063.407,23,0a9.151,9.151,0,0,1-.348,2.05c-1.093,3.8-4.326,6.164-4.728,7.675" transform="translate(649 307)" fill="#eea596"/>
    <path id="Fill_277" data-name="Fill 277" d="M.246,1.7C.015,2.761-.327,5.439.7,6.6A5.076,5.076,0,0,0,3.107,8s.065-.21.162-.563c.034-.123.071-.267.111-.426C3.887,5.023,4.742.675,2.722.1A1.832,1.832,0,0,0,.246,1.7" transform="translate(647 305)" fill="#eea596"/>
    <path id="Fill_278" data-name="Fill 278" d="M.284,1.582c-.116.151-.33.014-.275-.174C.252.594.7-.222,1.494.055,3.159.636,2.479,4.514,3,5.16,1.784,4.579.915,5.1,1.146,6A.986.986,0,0,1,.973,4.52a1.316,1.316,0,0,1,1.2-.328c-.1-1.512-.342-2.725-.94-2.96a.781.781,0,0,0-.945.35" transform="translate(648 306)" fill="#de4d59"/>
    <path id="Fill_279" data-name="Fill 279" d="M0,.1A2.161,2.161,0,0,0,1,2C.89,1.293.855.759.855.759S.433,1.018.188.077A.094.094,0,0,0,0,.1" transform="translate(648 310)" fill="#de4d59"/>
    <path id="Fill_280" data-name="Fill 280" d="M0,0A4.931,4.931,0,0,0,1.077,3.308,3.532,3.532,0,0,0,4,3.91,7.267,7.267,0,0,1,0,0" transform="translate(657 318)" fill="#de4d59"/>
    <path id="Fill_281" data-name="Fill 281" d="M.007.279C.155-.167,1.719-.1,1.98.66S-.142.724.007.279" transform="translate(657 323)" fill="#e58a7f"/>
    <path id="Fill_282" data-name="Fill 282" d="M1.719.3A1.02,1.02,0,0,0,1.029,0,1.048,1.048,0,0,0,.3.281a1.023,1.023,0,0,0-.3.69A1,1,0,0,0,.971,2,1.048,1.048,0,0,0,1.7,1.72,1.025,1.025,0,0,0,2,1.029,1.014,1.014,0,0,0,1.719.3" transform="translate(664 313)" fill="#282735"/>
    <path id="Fill_283" data-name="Fill 283" d="M0,.608a8.186,8.186,0,0,1,2.657.7A4.21,4.21,0,0,1,3.964,3,2.817,2.817,0,0,0,3.147.465,2.719,2.719,0,0,0,0,.608" transform="translate(663 310)" fill="#282735"/>
    <g id="Group_287" data-name="Group 287" transform="translate(664 319)">
      <path id="Fill_284" data-name="Fill 284" d="M1.789.62C1.884.56.112.013.005.406S1.5.8,1.789.62" transform="translate(0.182 0.927)" fill="#e58a7f"/>
    </g>
  </g>
</svg>
