<svg xmlns="http://www.w3.org/2000/svg" xmlns:xlink="http://www.w3.org/1999/xlink" width="499.94" height="500" viewBox="0 0 499.94 500">
  <defs>
    <clipPath id="clip-path">
      <path id="Clip_2" data-name="Clip 2" d="M0,0H499.94V500H0Z" transform="translate(0.06)" fill="none"/>
    </clipPath>
    <clipPath id="clip-path-2">
      <path id="Clip_178" data-name="Clip 178" d="M.929,42.437,20.923,53.98,54.39,34.658l.6-24.407L35.826,0,0,18.83.929,42.437" transform="translate(0.971 0.978)" fill="none"/>
    </clipPath>
  </defs>
  <g id="img2" transform="translate(-0.06)">
    <g id="Group_3" data-name="Group 3">
      <path id="Clip_2-2" data-name="Clip 2" d="M0,0H499.94V500H0Z" transform="translate(0.06)" fill="none"/>
      <g id="Group_3-2" data-name="Group 3" clip-path="url(#clip-path)">
        <path id="Fill_1" data-name="Fill 1" d="M0,500H499.94V0H0Z" transform="translate(0.06)" fill="#fffffe"/>
      </g>
    </g>
    <path id="Fill_4" data-name="Fill 4" d="M72.968,323.472a57.554,57.554,0,0,1-45.974-14.124c-10.435-9.433-16.86-22.164-.816-35.364,38.4-31.59,35.355-57.115,17.642-75.179S-18.915,144.205,8.8,111.8C22.153,96.184,46.317,96.312,69.027,96.44c24.428.138,47.175.276,52.976-19.177,11.193-37.537,24.682-67.1,59.8-75.205S258.534,9.992,266.531,46.6c7.92,36.255-37.344,34.232,5.523,92.729,25.21,34.4-16.664,108.1-54.538,92.969s-84.194,8.107-85.818,50.82c-1.072,28.168-35.444,37.36-58.73,40.353" transform="translate(79.936 35)" fill="#d8d6d0"/>
    <path id="Fill_5" data-name="Fill 5" d="M23.082,21.6A16.067,16.067,0,0,0,24.765,8.861C23.482,4.52,20.224.143,12.327,0c-15.8-.283-14.62,30.829-6.473,35.456,5.905,3.354,13.5-7.584,17.228-13.858" transform="translate(364.643 124.014)" fill="#d8d6d0"/>
    <path id="Fill_6" data-name="Fill 6" d="M22.9,22.405A16.065,16.065,0,0,0,25.551,9.831C24.6,5.4,21.686.792,13.822.051-1.906-1.432-3.1,29.679,4.672,34.912c5.634,3.793,14.035-6.536,18.231-12.507" transform="translate(158.083 74.958)" fill="#d8d6d0"/>
    <path id="Fill_7" data-name="Fill 7" d="M.233,12.638a10,10,0,0,0,4.245,6.784c2.338,1.576,5.639,2.385,9.488-.68,7.7-6.131-3.793-19.7-9.54-18.688C.26.786-.465,8.145.233,12.638" transform="translate(57.437 186.291)" fill="#d8d6d0"/>
    <path id="Fill_8" data-name="Fill 8" d="M.226,11.677a10.006,10.006,0,0,0,1.557,7.85c1.626,2.3,4.424,4.233,9.11,2.736,9.373-2.995,2.453-21.11-3.28-22.208C3.459-.741,1.171,7.23.226,11.677" transform="translate(368.591 174.579)" fill="#d8d6d0"/>
    <path id="Fill_9" data-name="Fill 9" d="M.527.627C.512.558.493.47.473.373L.527.627" transform="translate(356.932 210.915)" fill="#e57167"/>
    <path id="Fill_10" data-name="Fill 10" d="M182.994,6.7c6.21,13.562-29.564,43.242-79.9,66.291S6.91,103.727.7,90.165,30.264,46.924,80.6,23.874,176.784-6.866,182.994,6.7" transform="translate(146.299 333.763)" fill="#d8d6d0"/>
    <path id="Fill_11" data-name="Fill 11" d="M15.859,8.585l-14.3,7.374L0,0,.027.015.039.022l15.82,8.563" transform="translate(290.943 82.969)" fill="#2f2d4f"/>
    <path id="Fill_12" data-name="Fill 12" d="M128.184,6.74V258.98a6.727,6.727,0,0,1-3.384,5.838L10.08,330.588A6.731,6.731,0,0,1,0,324.751V75.577A9.883,9.883,0,0,1,2.893,68.59,10,10,0,0,1,4.9,67.041L118.058.93a6.673,6.673,0,0,1,7.05.158l.012.007a6.664,6.664,0,0,1,3.064,5.645" transform="translate(165.862 81.896)" fill="#252343"/>
    <path id="Fill_13" data-name="Fill 13" d="M0,11.5l17.852,4.955V0L0,11.5" transform="translate(170.935 401.668)" fill="#2f2d4f"/>
    <path id="Fill_14" data-name="Fill 14" d="M138.047,9.658l-12.756,6.579v7.357L24.029,82.1,0,68.59a10,10,0,0,1,2.008-1.549L115.165.93a6.676,6.676,0,0,1,7.05.158l.012.007,15.82,8.563" transform="translate(168.755 81.896)" fill="#352f5c"/>
    <path id="Fill_15" data-name="Fill 15" d="M128.185,8.9V256.138a8.886,8.886,0,0,1-4.467,7.708L13.3,327.147A8.882,8.882,0,0,1,0,319.441V73.406a8.885,8.885,0,0,1,4.4-7.669L114.82,1.226A8.884,8.884,0,0,1,128.185,8.9" transform="translate(183.253 90.456)" fill="#3d3b6a"/>
    <path id="Fill_16" data-name="Fill 16" d="M100.7,4.724v225a4.72,4.72,0,0,1-2.372,4.093L7.062,286.14a4.655,4.655,0,0,1-3.53.476A4.7,4.7,0,0,1,0,282.049V58.043A4.72,4.72,0,0,1,2.337,53.97L93.6.65a4.837,4.837,0,0,1,.863-.4A4.721,4.721,0,0,1,100.7,4.724" transform="translate(196.997 111.317)" fill="#fffffe"/>
    <path id="Fill_17" data-name="Fill 17" d="M1.8,42.316a1.8,1.8,0,0,1-.9-3.352L67.968.241a1.8,1.8,0,0,1,1.8,3.11L2.693,42.074a1.788,1.788,0,0,1-.9.242" transform="translate(217.443 306.413)" fill="#d8d6d0"/>
    <path id="Fill_18" data-name="Fill 18" d="M1.8,42.425a1.8,1.8,0,0,1-.9-3.351L68.16.24a1.8,1.8,0,1,1,1.795,3.111L2.693,42.185a1.785,1.785,0,0,1-.9.24" transform="translate(217.443 319.246)" fill="#d8d6d0"/>
    <path id="Fill_19" data-name="Fill 19" d="M1.8,42.424a1.8,1.8,0,0,1-.9-3.35L68.16.24a1.8,1.8,0,1,1,1.795,3.11L2.693,42.184a1.785,1.785,0,0,1-.9.24" transform="translate(217.443 332.19)" fill="#d8d6d0"/>
    <path id="Fill_20" data-name="Fill 20" d="M1.8,42.315a1.8,1.8,0,0,1-.9-3.351L67.968.241a1.8,1.8,0,1,1,1.8,3.11L2.693,42.074a1.776,1.776,0,0,1-.9.241" transform="translate(217.443 151.031)" fill="#d8d6d0"/>
    <path id="Fill_21" data-name="Fill 21" d="M0,30.564V42.68a2.283,2.283,0,0,0,3.434,1.972L51.34,16.689a2.286,2.286,0,0,0,1.133-1.973V0L0,30.564" transform="translate(220.362 122.263)" fill="#3d3b6a"/>
    <path id="Fill_22" data-name="Fill 22" d="M2.01,21.165A2.007,2.007,0,0,1,1,17.425L30.365.273A2.007,2.007,0,1,1,32.39,3.739L3.02,20.891a2,2,0,0,1-1.01.274" transform="translate(225.827 137.089)" fill="#4f5781"/>
    <path id="Fill_23" data-name="Fill 23" d="M4.027,2.443A2.259,2.259,0,0,1,2.013,4.886,2.259,2.259,0,0,1,0,2.443,2.259,2.259,0,0,1,2.013,0,2.259,2.259,0,0,1,4.027,2.443" transform="translate(262.81 132.421)" fill="#4f5781"/>
    <path id="Fill_24" data-name="Fill 24" d="M0,114.439V7.933L13.745,0V106.606L0,114.439" transform="translate(297.693 174.888)" fill="#383761"/>
    <path id="Fill_25" data-name="Fill 25" d="M3.461,149.053A3.461,3.461,0,0,1,0,145.591V47.6a3.456,3.456,0,0,1,1.728-2.993L79.023,0V106.506L5.167,148.594a3.427,3.427,0,0,1-1.706.459" transform="translate(218.67 182.821)" fill="#a6adb6"/>
    <path id="Fill_26" data-name="Fill 26" d="M118.938,3.808v98a3.8,3.8,0,0,1-1.9,3.29L5.686,168.557a3.751,3.751,0,0,1-2.354.472A3.8,3.8,0,0,1,0,165.251V68.063A3.8,3.8,0,0,1,1.9,64.77L113.232.515a3.8,3.8,0,0,1,5.706,3.293" transform="translate(231.474 143.412)" fill="#4064a0"/>
    <path id="Fill_27" data-name="Fill 27" d="M40.29,21.824C39.6,33.707,30.036,43.2,18.922,43.036S-.647,33.1.039,21.214,10.292-.166,21.407,0,40.976,9.94,40.29,21.824" transform="translate(280.783 198.709)" fill="#5797c5"/>
    <path id="Fill_28" data-name="Fill 28" d="M58.993,27.359V53.415a3.8,3.8,0,0,1-1.9,3.29L0,89.246l20.647-62.48L29.92,0,49.475,18.487l9.518,8.872" transform="translate(291.419 191.803)" fill="#2f2d4f"/>
    <path id="Fill_29" data-name="Fill 29" d="M28.83,18.486l-4.037,7.375L14.234,23.63l-4.222,7.262L0,26.765,9.272,0,28.83,18.486" transform="translate(312.066 191.804)" fill="#fffffe"/>
    <path id="Fill_30" data-name="Fill 30" d="M94.454,54.2l-92.1,52.486A3.751,3.751,0,0,1,0,107.155L37.117,0,94.454,54.2" transform="translate(234.806 205.286)" fill="#3d3b6a"/>
    <path id="Fill_31" data-name="Fill 31" d="M34.833,22.336l-4.876,8.911L17.2,28.552l-5.1,8.774L0,32.339,11.2,0l23.63,22.336" transform="translate(260.721 205.288)" fill="#fffffe"/>
    <path id="Fill_32" data-name="Fill 32" d="M0,0V25.462L4.4,28,4.02,2.338,0,0" transform="translate(221.396 201.749)" fill="#304287"/>
    <path id="Fill_33" data-name="Fill 33" d="M22.8,0V25.887L.382,38.83,0,13.164,22.8,0" transform="translate(225.416 190.923)" fill="#365192"/>
    <path id="Fill_34" data-name="Fill 34" d="M1.783,16.4h0C.9,16.848.167,16.372.154,15.333L0,2.871A3.244,3.244,0,0,1,1.582.171C2.469-.282,3.2.2,3.211,1.234L3.366,13.7a3.244,3.244,0,0,1-1.583,2.7" transform="translate(236.596 202.055)" fill="#fffffe"/>
    <path id="Fill_35" data-name="Fill 35" d="M13.843,1.235h0a3.242,3.242,0,0,1-1.582,2.7L1.629,9.356C.742,9.808.013,9.332,0,8.292a3.244,3.244,0,0,1,1.582-2.7L12.214.171c.887-.452,1.617.024,1.629,1.064" transform="translate(231.357 205.575)" fill="#fffffe"/>
    <path id="Fill_36" data-name="Fill 36" d="M0,13.165,22.8,0l4.021,2.339L4.02,15.5,0,13.165" transform="translate(221.396 188.584)" fill="#4064a0"/>
    <path id="Fill_37" data-name="Fill 37" d="M77.4,8.572c0,4.735-17.327,8.572-38.7,8.572S0,13.307,0,8.572,17.326,0,38.7,0,77.4,3.838,77.4,8.572" transform="translate(373.991 357.544)" fill="#d8d6d0"/>
    <path id="Fill_38" data-name="Fill 38" d="M22.7.571A2.917,2.917,0,0,1,24.63,2.933a23.568,23.568,0,0,1,.2,4.134c-.124,4.044-.175,5.693-.175,5.693a6.651,6.651,0,0,1-4.729,2.712l-1.031.144s-7.939,4.773-11.647,5.14c-4.838.479-9.783-1.746-5.781-6.452C5.246,9.859,10.8,8.077,12.444,4.517c.191-.415,1.431-1.3,1.747-1.627C16.872.116,18.933-.669,22.7.571" transform="translate(411.89 349.075)" fill="#4064a0"/>
    <path id="Fill_39" data-name="Fill 39" d="M5.187,3.039a.452.452,0,0,1-.415-.273A3.536,3.536,0,0,0,3.015.987a2.785,2.785,0,0,0-2.277.595A.451.451,0,1,1,.162.889,3.638,3.638,0,0,1,3.3.13,4.414,4.414,0,0,1,5.6,2.411.45.45,0,0,1,5.364,3l-.177.037" transform="translate(421.294 355.149)" fill="#fffffe"/>
    <path id="Fill_40" data-name="Fill 40" d="M5.186,3.039a.453.453,0,0,1-.415-.273A3.54,3.54,0,0,0,3.013.986a2.778,2.778,0,0,0-2.275.6A.451.451,0,0,1,.161.888,3.636,3.636,0,0,1,3.3.13,4.394,4.394,0,0,1,5.6,2.411.448.448,0,0,1,5.364,3l-.178.037" transform="translate(419.716 356.277)" fill="#fffffe"/>
    <path id="Fill_41" data-name="Fill 41" d="M5.188,3.039a.451.451,0,0,1-.415-.273A3.545,3.545,0,0,0,3.015.985a2.779,2.779,0,0,0-2.276.6A.451.451,0,0,1,.162.888,3.639,3.639,0,0,1,3.3.13,4.409,4.409,0,0,1,5.6,2.41.451.451,0,0,1,5.365,3l-.177.037" transform="translate(417.915 357.286)" fill="#fffffe"/>
    <path id="Fill_42" data-name="Fill 42" d="M6.993.621l.41,9.991a5.806,5.806,0,0,1-6.432.867L0,.69S4.228-.816,6.993.621" transform="translate(427.082 341.159)" fill="#eea183"/>
    <path id="Fill_43" data-name="Fill 43" d="M22.7.57a2.917,2.917,0,0,1,1.932,2.363,23.481,23.481,0,0,1,.2,4.134c-.124,4.043-.176,5.745-.176,5.745s-1.219,2.081-4.727,2.66l-1.345.216s-7.625,4.7-11.334,5.068c-4.837.478-9.782-1.746-5.78-6.452C5.245,9.858,10.8,8.077,12.444,4.517c.191-.415,1.43-1.3,1.747-1.627C16.871.116,18.933-.669,22.7.57" transform="translate(383.983 349.209)" fill="#4064a0"/>
    <path id="Fill_44" data-name="Fill 44" d="M5.187,3.038a.449.449,0,0,1-.414-.273A3.553,3.553,0,0,0,3.015.985a2.781,2.781,0,0,0-2.277.6A.451.451,0,0,1,.162.888,3.634,3.634,0,0,1,3.3.13,4.413,4.413,0,0,1,5.6,2.409.453.453,0,0,1,5.364,3l-.177.036" transform="translate(393.205 355.376)" fill="#fffffe"/>
    <path id="Fill_45" data-name="Fill 45" d="M5.187,3.039a.453.453,0,0,1-.415-.273A3.532,3.532,0,0,0,3.015.986a2.776,2.776,0,0,0-2.276.6A.451.451,0,0,1,.162.888,3.639,3.639,0,0,1,3.3.13,4.417,4.417,0,0,1,5.6,2.41.451.451,0,0,1,5.365,3l-.178.037" transform="translate(391.626 356.503)" fill="#fffffe"/>
    <path id="Fill_46" data-name="Fill 46" d="M5.188,3.039a.451.451,0,0,1-.415-.274A3.548,3.548,0,0,0,3.015.985a2.783,2.783,0,0,0-2.277.6A.451.451,0,0,1,.162.887,3.639,3.639,0,0,1,3.3.13,4.413,4.413,0,0,1,5.6,2.41.452.452,0,0,1,5.364,3l-.176.037" transform="translate(389.826 357.512)" fill="#fffffe"/>
    <path id="Fill_47" data-name="Fill 47" d="M6.993.622l.41,9.99A5.808,5.808,0,0,1,.97,11.48L0,.69S4.226-.815,6.993.622" transform="translate(399.175 341.293)" fill="#eea183"/>
    <path id="Fill_48" data-name="Fill 48" d="M44.119,7.023,6.451,0C4.072,13.352-1.458,43.188.361,55.929,3.293,76.453,6.9,116.6,6.9,116.6a14.682,14.682,0,0,0,9.02-.676s3.834-44.879.452-59.313c-2.039-8.7,2.741-23.73,5.283-36.582,0,0,.8-2.051,2.138-2,1.886.074,1.592,3.307,1.842,4.2.928,11.818,1.914,23.295,2.977,32.318,2.1,17.853,6.478,61.824,6.478,61.824a12.627,12.627,0,0,0,8.344-.677S46.779,64.275,44.79,53.9c-3.158-16.463-.911-34.888-.671-46.877" transform="translate(391.603 232.685)" fill="#3d3b6a"/>
    <path id="Fill_49" data-name="Fill 49" d="M1.148,96.761H1.126a.515.515,0,0,1-.492-.535c.019-.427,1.8-42.735,1.486-48.483a25.611,25.611,0,0,0-.986-5.66A29.038,29.038,0,0,1,.01,32.83C.172,24.969,5.631,1.4,5.863.4a.513.513,0,1,1,1,.232C6.8.873,1.2,25.1,1.037,32.852a28.112,28.112,0,0,0,1.089,8.97,26.747,26.747,0,0,1,1.018,5.865c.323,5.8-1.41,46.839-1.484,48.583a.513.513,0,0,1-.512.491" transform="translate(404.137 251.075)" fill="#252343"/>
    <path id="Fill_50" data-name="Fill 50" d="M1.759,97.639H1.751a.513.513,0,0,1-.506-.52c.025-1.828.594-44.81.933-48.047C2.523,45.768,1.451,33.9.4,27.455-.349,22.888.182,1.412.2.5A.512.512,0,0,1,.717,0H.73a.514.514,0,0,1,.5.526c0,.223-.551,22.292.18,26.763,1.063,6.5,2.141,18.516,1.788,21.889-.334,3.191-.921,47.508-.927,47.955a.513.513,0,0,1-.512.506" transform="translate(431.667 250.197)" fill="#252343"/>
    <path id="Fill_51" data-name="Fill 51" d="M.148.527A32.921,32.921,0,0,0,10.076,0a8.553,8.553,0,0,1-.244,4.4s-5.1,1.327-9.209.324A7.105,7.105,0,0,1,.148.527" transform="translate(425.729 345.29)" fill="#4f5781"/>
    <path id="Fill_52" data-name="Fill 52" d="M.152.527A34.681,34.681,0,0,0,10.344,0a8.334,8.334,0,0,1-.25,4.4S4.854,5.731.64,4.728A6.932,6.932,0,0,1,.152.527" transform="translate(397.752 345.29)" fill="#4f5781"/>
    <path id="Fill_53" data-name="Fill 53" d="M17.677,24.236c-1.943,9.69-10.414,17.02-10.414,17.02L0,34.793A6.282,6.282,0,0,0,1.529,33.1c.185-.265.372-.554.565-.867C7.168,23.962,15.116,0,15.116,0s4.5,14.547,2.561,24.236" transform="translate(385.87 158.713)" fill="#4064a0"/>
    <path id="Fill_54" data-name="Fill 54" d="M28.744,15.888s-1.639,4.587-7.725,3.871S0,1.48,0,1.48A18.545,18.545,0,0,0,6.465,0s6.828,6.7,13.5,8.334a12.894,12.894,0,0,1,8.779,7.554" transform="translate(365.275 182.613)" fill="#4064a0"/>
    <path id="Fill_55" data-name="Fill 55" d="M3.936,5.225l-.213.047a.512.512,0,0,1-.467-.3A12.174,12.174,0,0,0,0,.867C.185.6.372.313.565,0A13.2,13.2,0,0,1,4.187,4.543a.513.513,0,0,1-.251.682" transform="translate(387.399 190.949)" fill="#365192"/>
    <path id="Fill_56" data-name="Fill 56" d="M0,.629,1.172.119.9.882,0,.629" transform="translate(356.499 165.652)" fill="#2f2d4f"/>
    <path id="Fill_57" data-name="Fill 57" d="M9.861,1.343l7.933,13.229c.511.848.091,1.815-.753,1.725l-2.935-.317-5.048-.542a1.385,1.385,0,0,1-.986-.686L.223,1.736C-.281.9.116-.064.947,0l7.9.649a1.37,1.37,0,0,1,1.014.691" transform="translate(357.133 165.707)" fill="#2f2d4f"/>
    <path id="Fill_58" data-name="Fill 58" d="M1.354.574l-.935.569L0,.687,1.208,0l.146.574" transform="translate(373.293 181.356)" fill="#2f2d4f"/>
    <path id="Fill_59" data-name="Fill 59" d="M.226,1.743l7.9,13.108a1.39,1.39,0,0,0,.988.691l8,.889c.844.094,1.262-.876.747-1.733L9.882,1.378a1.384,1.384,0,0,0-1.016-.7L.947,0C.116-.067-.283.9.226,1.743" transform="translate(356.051 166.175)" fill="#3d3b6a"/>
    <path id="Fill_60" data-name="Fill 60" d="M2.2,1.3c.58.962.669,1.971.2,2.253S1.081,3.289.5,2.328-.169.357.3.074,1.62.341,2.2,1.3" transform="translate(363.392 173.244)" fill="#2f2d4f"/>
    <path id="Fill_61" data-name="Fill 61" d="M.391,3.668h0C.341,3.532-.4,1.563.3,1.2c.263-.138.639.223,1.016.739l0,0A16.424,16.424,0,0,1,2.578,4.123l0,.008.018.033-.06-.147-.01-.025c-.027-.071-.062-.16-.1-.259L2.415,3.7c-.381-1-1.082-3.109-.506-3.633.413-.376,1.352.994,2.123,2.327.608,1.047,1.109,2.069,1.173,2.2-.015-.042-.058-.177-.115-.369l-.01-.028c-.25-.864-.739-2.84-.013-3.311.56-.361,1.416,1.455,2.015,2.981v0C7.488,4.9,7.776,5.8,7.776,5.8s-.271-2.751.57-2.67,1.381,4.723,2.426,6.056,3.089,3.025,3,4.468c-.047.752-1.379,2.586-4.852,2.419A4.468,4.468,0,0,1,5.712,14.46C3.275,11.545.7,6.283.394,3.673" transform="translate(357.967 168.78)" fill="#eea183"/>
    <path id="Fill_62" data-name="Fill 62" d="M2.682,5.233A9.68,9.68,0,0,1,1.011,2.866C.629,1.856,0,0,0,0L0,0A16.424,16.424,0,0,1,1.262,2.186l0,.008A20.4,20.4,0,0,0,2.682,5.233" transform="translate(359.283 170.717)" fill="#e57167"/>
    <path id="Fill_63" data-name="Fill 63" d="M2.109,4.757A28.894,28.894,0,0,1,.48,1.888,6.9,6.9,0,0,1,0,0C.608,1.047,1.109,2.069,1.173,2.2c0,0,.722,2.043.936,2.559" transform="translate(361.999 171.17)" fill="#e57167"/>
    <path id="Fill_64" data-name="Fill 64" d="M1.015,3.763S-.181,1.239.024,0C.43,1.032.718,1.932.718,1.932" transform="translate(365.025 172.644)" fill="#e57167"/>
    <path id="Fill_65" data-name="Fill 65" d="M38.632,83.9C30.37,90.248-2.279,82.74.126,74.293c1.512-5.308,6.805-28.2,6.024-35.3s-6.2-11.418-2.706-19.4A19.88,19.88,0,0,0,4.121,5.838C3.117,2.287,4.383.711,7.955.2a25.7,25.7,0,0,1,6.669.036C19.667.969,25.4,1.917,30.3,2.991a52.191,52.191,0,0,1,8.957,2.6c8.659,3.83-3.209,22.055-5.043,32.7s8.82,42.231,4.421,45.61" transform="translate(397.09 155.807)" fill="#507db2"/>
    <path id="Fill_66" data-name="Fill 66" d="M14.643,3.732C5.441,3.732.51,1.1.266.964A.514.514,0,0,1,.76.063C.828.1,7.786,3.8,20.414,2.372a.513.513,0,1,1,.115,1.019,52.4,52.4,0,0,1-5.886.341" transform="translate(403.176 191.473)" fill="#4064a0"/>
    <path id="Fill_67" data-name="Fill 67" d="M7.279,6.552l-.15-.023C1.376,4.779.076.834.024.667A.513.513,0,0,1,1,.357c.048.15,1.221,3.607,6.426,5.19a.514.514,0,0,1-.149,1.005" transform="translate(408.363 170.049)" fill="#4064a0"/>
    <path id="Fill_68" data-name="Fill 68" d="M20.244,8.13C7.6,8.13.45,1.173.152.877A.513.513,0,1,1,.875.149,29.153,29.153,0,0,0,20.244,7.1a.513.513,0,1,1,0,1.026h0" transform="translate(401.935 222.483)" fill="#4064a0"/>
    <path id="Fill_69" data-name="Fill 69" d="M11.148,5.027h-.013C6.421,4.912.485,1.106.235.944A.513.513,0,1,1,.791.082C.851.12,6.738,3.893,11.161,4a.513.513,0,0,1-.013,1.026" transform="translate(409.568 223.218)" fill="#4064a0"/>
    <path id="Fill_70" data-name="Fill 70" d="M17.306,2.7C15.9,10.06,4.1,16.651,1.188,12.129-1.278,8.3.717,2.28,1.633,0,6.676.719,12.411,1.648,17.306,2.7" transform="translate(410.081 156.024)" fill="#fffffe"/>
    <path id="Fill_71" data-name="Fill 71" d="M6.761,68.425c-1.97-1.408-3.212-3.712-4.01-6.552,0,0,6.665-7.75,8.248-21.555.029-.231.054-.464.078-.7,0,0,0-.126-.013-.362-.1-2.16-.891-13.551-7.007-22.253,0,0-8.688-6.919-.636-17.006A64.873,64.873,0,0,1,20.3,33.576C23.073,50.295,6.761,68.425,6.761,68.425" transform="translate(434.151 162.144)" fill="#507db2"/>
    <path id="Fill_72" data-name="Fill 72" d="M5.283.559a.51.51,0,0,1-.539.484A19.549,19.549,0,0,0,0,1.479c.029-.231.054-.464.078-.7,0,0,0-.126-.013-.362A19.818,19.818,0,0,1,4.8.019a.515.515,0,0,1,.485.54" transform="translate(445.15 200.983)" fill="#4064a0"/>
    <path id="Fill_73" data-name="Fill 73" d="M0,.419,1.436,0C2.36,2.946,3.561,5.382,5.447,6.551c0,0-1.409,2.259-2.724,2.259S0,.419,0,.419" transform="translate(435.466 224.017)" fill="#e57167"/>
    <path id="Fill_74" data-name="Fill 74" d="M4.767.2S-.988,2.868.149,4.235c.393.472,5.008-1.007,5.008-1.007L5.312,4S.444,5.985.251,7.552,5.8,6.436,5.8,6.436l.2.979S2.111,8.931,1.819,10.291,7.147,9.5,7.147,9.5l.154.761S5.129,11.45,4.662,12.788s3.352-.406,4.765-1.538a1.736,1.736,0,0,0,.32-2.721S9.9,6.292,8.574,5.483c0,0,.466-1.9-.96-2.664,0,0,.057-3.7-2.847-2.623" transform="translate(428.762 222.684)" fill="#eea183"/>
    <path id="Fill_75" data-name="Fill 75" d="M2.042,4.847S2.335.406,0,0L.825,4.42l1.217.427" transform="translate(433.424 218.884)" fill="#eea183"/>
    <path id="Fill_76" data-name="Fill 76" d="M3.648,7.534s0,7.862,1.909,13.148a11.185,11.185,0,0,1-.889,9.048,11.706,11.706,0,0,0-.882-8.282C1.6,17.159-.339,7.857.05,0l3.6,7.534" transform="translate(402.063 131.594)" fill="#2f2d4f"/>
    <path id="Fill_77" data-name="Fill 77" d="M20.767,30.745s6.774-2.492,8.127-9.441.954-17.154-8.53-20.155S2.116,1.027,0,9.779c0,0,7.277,17.43,20.767,20.966" transform="translate(402.693 118.7)" fill="#2f2d4f"/>
    <path id="Fill_78" data-name="Fill 78" d="M0,3.7l.516,4.81L.8,11.321c5.484,2.362,11.1-1.177,11.041-1.674A46.624,46.624,0,0,1,10.64.379a1.554,1.554,0,0,0-.312-.167C7.436-1.045,0,3.7,0,3.7" transform="translate(412.82 149.066)" fill="#eea183"/>
    <path id="Fill_79" data-name="Fill 79" d="M0,3.7l.516,4.81a18.6,18.6,0,0,0,9.812-8.3C7.436-1.045,0,3.7,0,3.7" transform="translate(412.82 149.066)" fill="#e57167"/>
    <path id="Fill_80" data-name="Fill 80" d="M3.868,1.209S1.731-1.327.377.947s1.1,8.625,4.629,6.841L3.868,1.209" transform="translate(400.478 136.346)" fill="#e57167"/>
    <path id="Fill_81" data-name="Fill 81" d="M.956.576A.462.462,0,1,1,.576.045.462.462,0,0,1,.956.576" transform="translate(402.358 142.516)" fill="#fffffe"/>
    <path id="Fill_82" data-name="Fill 82" d="M3.33,3.47a.308.308,0,0,1-.307-.207A4.732,4.732,0,0,0,.213.6.306.306,0,0,1,.4.014a5.273,5.273,0,0,1,3.2,3.05.306.306,0,0,1-.19.389L3.33,3.47" transform="translate(401.252 138.71)" fill="#dc4740"/>
    <path id="Fill_83" data-name="Fill 83" d="M.324,1.481l-.168-.04A.3.3,0,0,1,.04,1.024,2.8,2.8,0,0,1,1.134.034a.306.306,0,0,1,.282.544,2.2,2.2,0,0,0-.843.748.31.31,0,0,1-.249.155" transform="translate(402.113 139.811)" fill="#dc4740"/>
    <path id="Fill_84" data-name="Fill 84" d="M.11,16.752c.051.714.125,1.382.224,1.986.9,5.448,5.689,16.511,15.274,10.875a22.556,22.556,0,0,0,5.343-4.148,16.548,16.548,0,0,0,2.482-3.557,9.716,9.716,0,0,0,.554-1.6c.03-.094.059-.19.087-.284l.05-.16a43.292,43.292,0,0,0,1.119-4.647c.351-1.878.573-3.629.71-5.069a7.52,7.52,0,0,0-3.066-6.8C17.063-.886,10.343-.327,5.825.841A7.5,7.5,0,0,0,.216,7.606c-.1,1.532-.187,3.277-.211,5.011-.018,1.428.007,2.854.1,4.135" transform="translate(402.509 123.98)" fill="#eea183"/>
    <path id="Fill_85" data-name="Fill 85" d="M5.1.49A.51.51,0,0,0,4.573,0,9,9,0,0,0,2.026.417C.242,1.026,0,1.534,0,1.534s.222.211,2.559-.264c.6-.122,1.395-.171,2.084-.237A.512.512,0,0,0,5.1.5V.49" transform="translate(401.545 135.018)" fill="#2f2d4f"/>
    <path id="Fill_86" data-name="Fill 86" d="M.008.865a.611.611,0,0,1,.509-.7A10.777,10.777,0,0,1,3.6.073C5.835.379,6.237.919,6.237.919s-.213.3-3.064.278c-.732-.006-1.677.119-2.5.2A.615.615,0,0,1,.01.877l0-.012" transform="translate(413.144 134.282)" fill="#2f2d4f"/>
    <path id="Fill_87" data-name="Fill 87" d="M2.084,6.009,2,5.986,0,5.208.815.343a.41.41,0,1,1,.809.135l-.7,4.207L2.3,5.222a.41.41,0,0,1-.214.787" transform="translate(409.517 138.927)" fill="#e57167"/>
    <path id="Fill_88" data-name="Fill 88" d="M0,0A4.064,4.064,0,0,0,3.26,2.037c.2-.526.382-1.06.554-1.6C2.719.638,1.045.763,0,0" transform="translate(422.682 143.851)" fill="#e57167"/>
    <path id="Fill_89" data-name="Fill 89" d="M.114,5.437A16.548,16.548,0,0,0,2.6,1.88,9.716,9.716,0,0,0,3.15.284C3.18.19,3.209.094,3.237,0A5.1,5.1,0,0,0,2.006.285S-.563,3.223.114,5.437" transform="translate(423.346 144.008)" fill="#2f2d4f"/>
    <path id="Fill_90" data-name="Fill 90" d="M0,1.169C.472,2.551,1.759,5.038,4.919,4.615S8.656,1.686,8.741,0L0,1.169" transform="translate(408.4 146.142)" fill="#fffffe"/>
    <path id="Fill_91" data-name="Fill 91" d="M0,1.442c.044.768.475,1.368.963,1.34s.85-.672.806-1.441S1.3-.027.809,0-.04.674,0,1.442" transform="translate(414.657 137.93)" fill="#2f2d4f"/>
    <path id="Fill_92" data-name="Fill 92" d="M0,1.442c.043.768.475,1.369.963,1.341s.848-.673.8-1.441S1.3-.026.809,0-.04.674,0,1.442" transform="translate(404.709 138.5)" fill="#2f2d4f"/>
    <path id="Fill_93" data-name="Fill 93" d="M1.689,1S3.878-1.244,5,.992,3.889,8.774,0,7.162L1.689,1" transform="translate(423.844 137.117)" fill="#eea183"/>
    <path id="Fill_94" data-name="Fill 94" d="M.956.576A.462.462,0,1,1,.577.044.462.462,0,0,1,.956.576" transform="translate(425.398 143.3)" fill="#fffffe"/>
    <path id="Fill_95" data-name="Fill 95" d="M.252,3.063a.288.288,0,0,0,.3-.173A4.475,4.475,0,0,1,3.387.571.289.289,0,0,0,3.253.008,4.984,4.984,0,0,0,.023,2.663a.29.29,0,0,0,.153.38l.076.02" transform="translate(424.741 139.395)" fill="#e57167"/>
    <path id="Fill_96" data-name="Fill 96" d="M1.105,1.462l.161-.025A.29.29,0,0,0,1.4,1.051,2.636,2.636,0,0,0,.44.043a.289.289,0,0,0-.3.493A2.1,2.1,0,0,1,.881,1.3a.288.288,0,0,0,.224.163" transform="translate(425.971 140.307)" fill="#e57167"/>
    <path id="Fill_97" data-name="Fill 97" d="M24.324,15.063a3.626,3.626,0,0,0-2.154.142,2.571,2.571,0,0,0-.926.748l-.162.21a1.48,1.48,0,0,1-.339-.195,2.729,2.729,0,0,1-.644-.742,8.489,8.489,0,0,1-1.279-2.133A5.122,5.122,0,0,0,17.3,10.925C7.644,13.93,0,5.6,0,5.6c2.988-9.2,19.234-4.816,23.425-2.59s5.647,12.844.9,12.049" transform="translate(403.763 122.136)" fill="#2f2d4f"/>
    <path id="Fill_98" data-name="Fill 98" d="M1.165.132A9.023,9.023,0,0,1,1.644,8.1c-1.77,4.657-3.057,12.022,1.327,14.383,0,0-2.1-5.087-1.241-8.3,1.018-3.814,2.828-7.6,2.179-10.355S2.109-.478,1.165.132" transform="translate(421.418 135.097)" fill="#2f2d4f"/>
    <path id="Fill_99" data-name="Fill 99" d="M3.887.883S4.714,7.276.318,9.527c0,0-1.9-12.969,3.569-8.644" transform="translate(402.056 127.506)" fill="#2f2d4f"/>
    <path id="Fill_100" data-name="Fill 100" d="M4.217,8.437A4.218,4.218,0,0,1,3.989.006C4.066,0,4.144,0,4.222,0a4.218,4.218,0,0,1,.227,8.43C4.372,8.434,4.294,8.437,4.217,8.437Zm0-7.78h0c-.065,0-.131,0-.2.005a3.56,3.56,0,0,0,.193,7.115c.065,0,.131,0,.2-.005A3.56,3.56,0,0,0,4.22.658Z" transform="translate(412.574 135.298)" fill="#fffffe"/>
    <path id="Fill_101" data-name="Fill 101" d="M4.217,8.436A4.218,4.218,0,0,1,3.987.006C4.065,0,4.143,0,4.22,0a4.218,4.218,0,0,1,.23,8.429C4.372,8.434,4.294,8.436,4.217,8.436Zm0-7.779h0c-.065,0-.131,0-.2.005a3.56,3.56,0,0,0,.194,7.115h0c.065,0,.131,0,.2-.005A3.56,3.56,0,0,0,4.221.658Z" transform="translate(401.063 135.929)" fill="#fffffe"/>
    <path id="Fill_102" data-name="Fill 102" d="M3.377.055C2.634.122.414.583,0,.672a4.744,4.744,0,0,0,.287.881C.258,1.392,1.694,1.08,1.694,1.1A14.621,14.621,0,0,1,4.021.8c.163-.008.331-.014.5-.015A2.571,2.571,0,0,1,5.448.034,12.344,12.344,0,0,0,3.377.055" transform="translate(420.485 137.307)" fill="#fffffe"/>
    <path id="Fill_103" data-name="Fill 103" d="M.554,1.823A2.665,2.665,0,0,1,2.309.659a2.426,2.426,0,0,1,1.785.969l.53-.389A3.046,3.046,0,0,0,2.273,0,3.277,3.277,0,0,0,0,1.469l.554.354" transform="translate(408.655 137.159)" fill="#fffffe"/>
    <path id="Fill_104" data-name="Fill 104" d="M27.345,16.842s3.482-9.479-2.328-13.18C18.664-.383,5.919-3.26,0,7.293l27.345,9.549" transform="translate(405.12 115.863)" fill="#507db2"/>
    <path id="Fill_105" data-name="Fill 105" d="M29.711,16.15s-4.239-5.056-13.989-8.238S.043,6.473.043,6.473A7.288,7.288,0,0,1,1.61,1.055C3.627-1.121,14.958.312,21.066,3.133c7.47,3.45,10.405,7.754,10.405,7.754s.468,3.742-1.76,5.263" transform="translate(402.249 121.445)" fill="#4064a0"/>
    <path id="Fill_106" data-name="Fill 106" d="M80.984,10.508c0,5.8-18.129,10.51-40.492,10.51S0,16.313,0,10.508,18.129,0,40.492,0,80.984,4.7,80.984,10.508" transform="translate(60.16 430.227)" fill="#d8d6d0"/>
    <path id="Fill_107" data-name="Fill 107" d="M.14,18.987a6.026,6.026,0,0,0,5.374.877l1.175-.5.96-.473S19.1,13.932,22.694,11.041,29.3,2.749,24.332.546,11.7,3.618,9.059,2.261c0,0-8.284-.086-8.243,4.348C.253,11.282-.255,13.411.14,18.987" transform="translate(104.142 427.409)" fill="#4064a0"/>
    <path id="Fill_108" data-name="Fill 108" d="M4.681,4.3a.49.49,0,0,1-.324-.432A3.857,3.857,0,0,0,3.208,1.4a3.031,3.031,0,0,0-2.55-.225A.49.49,0,0,1,.322.252,3.951,3.951,0,0,1,3.815.626,4.79,4.79,0,0,1,5.336,3.8a.491.491,0,0,1-.46.521L4.681,4.3" transform="translate(117.878 427.727)" fill="#fffffe"/>
    <path id="Fill_109" data-name="Fill 109" d="M4.681,4.3a.493.493,0,0,1-.325-.433A3.856,3.856,0,0,0,3.208,1.4a3.021,3.021,0,0,0-2.55-.224A.491.491,0,0,1,.322.251,3.956,3.956,0,0,1,3.814.625,4.79,4.79,0,0,1,5.336,3.8a.49.49,0,0,1-.46.52L4.681,4.3" transform="translate(116.297 428.207)" fill="#fffffe"/>
    <path id="Fill_110" data-name="Fill 110" d="M4.682,4.3a.493.493,0,0,1-.325-.433A3.856,3.856,0,0,0,3.209,1.4a3.023,3.023,0,0,0-2.55-.223A.491.491,0,0,1,.323.25,3.957,3.957,0,0,1,3.815.625,4.8,4.8,0,0,1,5.337,3.8a.492.492,0,0,1-.46.52l-.2-.027" transform="translate(114.525 428.675)" fill="#fffffe"/>
    <path id="Fill_111" data-name="Fill 111" d="M.762.333,0,13.369s2.3,1.507,7,.175L9.947,1.582S4.111-.873.762.333" transform="translate(106.375 419.9)" fill="#eea183"/>
    <path id="Fill_112" data-name="Fill 112" d="M0,1.466,27.482,0s4.524,48.253,5.346,59.654-2.716,60.208-2.716,60.208a10.652,10.652,0,0,1-10.467-.084s-.059-18.359-.321-23.591-2.38-25-1.85-29.943c0,0-6.6-37.565-7.361-39.522S0,24.058,0,24.058V1.466" transform="translate(85.312 305.881)" fill="#3d3b6a"/>
    <path id="Fill_113" data-name="Fill 113" d="M2.361,100.9h-.02a.5.5,0,0,1-.482-.522c.018-.481,1.847-48.244,1.858-54.518C3.729,39.606.039.94,0,.549a.5.5,0,1,1,1-.1c.153,1.594,3.733,39.106,3.721,45.412-.012,6.29-1.841,54.072-1.86,54.554a.5.5,0,0,1-.5.483" transform="translate(111.993 325.202)" fill="#252343"/>
    <path id="Fill_114" data-name="Fill 114" d="M.305,0S6.921,1.211,12.071.26a10.129,10.129,0,0,1-.679,5.177S5.25,6.549.493,5A8.4,8.4,0,0,1,.305,0" transform="translate(104.067 422.689)" fill="#4f5781"/>
    <path id="Fill_115" data-name="Fill 115" d="M.107,18.773a6.026,6.026,0,0,0,5.365.931l1.18-.493.965-.462s11.5-4.842,15.122-7.7S29.431,2.827,24.482.574,11.819,3.521,9.193,2.137c0,0-8.284-.169-8.286,4.266-.611,4.668-1.14,6.791-.8,12.37" transform="translate(66.866 427.325)" fill="#4064a0"/>
    <path id="Fill_116" data-name="Fill 116" d="M4.645,4.325a.489.489,0,0,1-.321-.435A3.856,3.856,0,0,0,3.2,1.41,3.023,3.023,0,0,0,.653,1.161.491.491,0,0,1,.326.235a3.96,3.96,0,0,1,3.489.41,4.8,4.8,0,0,1,1.49,3.2.491.491,0,0,1-.466.514l-.194-.029" transform="translate(80.748 427.584)" fill="#fffffe"/>
    <path id="Fill_117" data-name="Fill 117" d="M4.646,4.326a.492.492,0,0,1-.321-.436A3.854,3.854,0,0,0,3.2,1.411,3.019,3.019,0,0,0,.654,1.162.491.491,0,0,1,.327.236,3.955,3.955,0,0,1,3.816.645,4.792,4.792,0,0,1,5.3,3.84a.49.49,0,0,1-.465.515l-.194-.029" transform="translate(79.161 428.048)" fill="#fffffe"/>
    <path id="Fill_118" data-name="Fill 118" d="M4.645,4.325a.49.49,0,0,1-.321-.435A3.852,3.852,0,0,0,3.2,1.411a3.021,3.021,0,0,0-2.548-.25A.491.491,0,0,1,.326.235a3.96,3.96,0,0,1,3.489.41A4.785,4.785,0,0,1,5.3,3.84a.49.49,0,0,1-.464.515l-.195-.03" transform="translate(77.386 428.498)" fill="#fffffe"/>
    <path id="Fill_119" data-name="Fill 119" d="M.892.311,0,13.338s2.288,1.53,6.994.245l3.07-11.93S4.252-.861.892.311" transform="translate(69.197 419.654)" fill="#eea183"/>
    <path id="Fill_120" data-name="Fill 120" d="M21.946,0s-2.108,41.682-2.477,53.107-8.971,59.6-8.971,59.6A10.651,10.651,0,0,1,.1,111.532s1.853-18.266,2.138-23.5-1.169-22.2,1.277-29.973c0,0-2.656-38.049-3.206-40.074,0,0-.062-3.67-.247-8.943C-.073,5.274.059.971.059.971L21.946,0" transform="translate(68.131 313.524)" fill="#3d3b6a"/>
    <path id="Fill_121" data-name="Fill 121" d="M.5,96.2.431,96.2A.5.5,0,0,1,0,95.63C.074,95.153,6.866,47.841,7.531,41.6,8.194,35.381,8.549.846,8.552.5a.5.5,0,1,1,1,.01c-.014,1.424-.359,34.931-1.028,41.2S1.068,95.3,1,95.774a.5.5,0,0,1-.5.43" transform="translate(77.077 330.275)" fill="#252343"/>
    <path id="Fill_122" data-name="Fill 122" d="M.555,0S7.009,1.893,12.229,1.482a10.111,10.111,0,0,1-1.214,5.079S4.791,7.027.221,4.993A8.4,8.4,0,0,1,.555,0" transform="translate(67.401 422.042)" fill="#4f5781"/>
    <path id="Fill_123" data-name="Fill 123" d="M45.237,57.811C45.715,76.78,48.9,99.928,48.9,99.928S12.131,111.489,0,98.88c0,0,3.685-79.771,5.2-88.848l.018-.1c.492-2.953.4-2.555.775-4.409.38-1.872,2.509-4.07,4.676-5.03A4.286,4.286,0,0,1,13.545.115C24.638,3.369,43.776,8.579,47.42,12c2.59,2.434,1.594,11.237.213,21.242-.064.463-.128.928-.195,1.4-1.11,7.965-2.368,16.531-2.2,23.166" transform="translate(67.346 219.274)" fill="#507db2"/>
    <path id="Fill_124" data-name="Fill 124" d="M22.492,16.434l-.077-.006C8.817,14.363.166.924.08.788A.514.514,0,0,1,.948.238C1.031.37,9.44,13.419,22.569,15.412a.514.514,0,0,1-.077,1.022" transform="translate(72.048 286.616)" fill="#4064a0"/>
    <path id="Fill_125" data-name="Fill 125" d="M5.332,7.442c-.064.463-.128.928-.2,1.4A39.962,39.962,0,0,1,.047.726.514.514,0,0,1,.982.3a40.884,40.884,0,0,0,4.35,7.142" transform="translate(109.647 245.078)" fill="#4064a0"/>
    <path id="Fill_126" data-name="Fill 126" d="M11.825,28.913a.509.509,0,0,1-.359-.147C3.051,20.523.126,1.4.006.588A.513.513,0,0,1,1.021.437c.03.2,3,19.6,11.163,27.6a.513.513,0,0,1-.359.88" transform="translate(77.066 250.856)" fill="#4064a0"/>
    <path id="Fill_127" data-name="Fill 127" d="M1.6,0s.628,4.335.628,5.468c0,.565-2.232.853-2.232.853S.773,1.057,1.6,0" transform="translate(112.848 205.584)" fill="#eea183"/>
    <path id="Fill_128" data-name="Fill 128" d="M4.861,11.2a14.737,14.737,0,0,0,6.755.512l.3-2.021.079-.5.648-4.176.08-.521S4.888-1.044,1.679.175a1.626,1.626,0,0,0-.347.164A75.6,75.6,0,0,1,0,8.154c.144.928,2.043,2.012,4.861,3.049" transform="translate(90.26 214.215)" fill="#eea183"/>
    <path id="Fill_129" data-name="Fill 129" d="M6.646.817,6,4.993A22.9,22.9,0,0,1,0,0L6.646.817" transform="translate(96.26 218.414)" fill="#e57167"/>
    <path id="Fill_130" data-name="Fill 130" d="M28.089,14.363c-.056,1.555-.159,3.1-.331,4.492-.09.772-.2,1.5-.344,2.145a20.882,20.882,0,0,1-.582,2.132l0,.013c-.023.133-.236,1.218-.6,2.619l-.026.1a31.51,31.51,0,0,1-1.244,3.864l-.1.241a6.024,6.024,0,0,1-1.644,2.491c-3.1,2.162-13.6-1.332-13.6-1.332L8.584,30.71c-1.209-.313-1.375-.844-1.97-1.434a19.505,19.505,0,0,1-1.955-2.021,18.105,18.105,0,0,1-2.517-4A10.717,10.717,0,0,1,1.623,21.5c-.027-.1-.056-.211-.079-.313L1.5,21.01A48.354,48.354,0,0,1,.518,15.9C.233,13.84.082,11.926.01,10.353A8.186,8.186,0,0,1,3.689,3.124C10.236-1.189,17.514-.237,22.363,1.266a8.16,8.16,0,0,1,5.752,7.643c.033,1.667.033,3.571-.026,5.454" transform="translate(86.646 187.285)" fill="#eea183"/>
    <path id="Fill_131" data-name="Fill 131" d="M1.208,1.5C1.126,2.288.793,2.9.464,2.867s-.528-.7-.445-1.495S.434-.033.763,0s.528.7.445,1.5" transform="translate(112.537 203.221)" fill="#2f2d4f"/>
    <path id="Fill_132" data-name="Fill 132" d="M4.35.112A8.525,8.525,0,0,0,.183.443.289.289,0,0,0,0,.765l.164.912A.288.288,0,0,0,.5,1.913a13.766,13.766,0,0,1,3.782-.076.293.293,0,0,0,.33-.282c.007-.39,0-.779-.013-1.169A.29.29,0,0,0,4.35.112" transform="translate(110.464 199.451)" fill="#2f2d4f"/>
    <path id="Fill_133" data-name="Fill 133" d="M20.824,26.4c-.086,1.824,3.137.916,3.268-1.861s0-5.512,3.177-5.522,2.99-4.392,6.125-6.231,3.7-5.4,2.211-7.521-5,2.088-5,2.088,1.39-4.176-.129-5.706S25.585,5.8,25.585,5.8s1.5-5.344.269-5.7-2.345.014-4.67,4.48c0,0-11.1.978-14.476,4.41,0,0-3.011-1.587-4.692.321s1.363,2.251,1.363,2.251-3.893.811-3.322,2.759,2.67.988,2.67.988-.777,8.723,1.192,11.98c0,0-2.076,6.3-.226,7.519,1.577,1.04,2.987-.749,2.987-.749s-2.395,4.812.88,4.812c1.411,0,3.777-3.8,3.777-3.8s-2.166,5.169.562,4.933c3.312-.287,5.822-9.105,5.143-9.573,0,0-3.367-.582-2.951-5,.438-4.662,3.4-4.522,4.933-3.787,2.065.991,1.8,4.751,1.8,4.751" transform="translate(83.172 179.023)" fill="#2f2d4f"/>
    <path id="Fill_134" data-name="Fill 134" d="M1.314,4.7a.315.315,0,0,1-.162-.344A4.867,4.867,0,0,0,.079.524.316.316,0,0,1,.551.105,5.428,5.428,0,0,1,1.768,4.489a.315.315,0,0,1-.374.243L1.314,4.7" transform="translate(100.324 202.818)" fill="#e57167"/>
    <path id="Fill_135" data-name="Fill 135" d="M.169.908.041.785A.315.315,0,0,1,.16.356a2.869,2.869,0,0,1,1.488-.3A.315.315,0,1,1,1.61.689,2.272,2.272,0,0,0,.471.9a.315.315,0,0,1-.3,0" transform="translate(100.044 204.696)" fill="#e57167"/>
    <path id="Fill_136" data-name="Fill 136" d="M3.454.631l-.026.1A31.51,31.51,0,0,1,2.184,4.595,4.934,4.934,0,0,1,0,.148V0L.234.043l3.22.588" transform="translate(109.419 212.418)" fill="#fffffe"/>
    <path id="Fill_137" data-name="Fill 137" d="M31.116,15.305s-1.825,6.288-13.994,5.931C6.277,20.918,1.567,14.259,0,9.439c.492-2.953.4-2.555.774-4.41S3.282.959,5.45,0C8.93,3.131,22.766,15.094,31.116,15.305" transform="translate(72.562 219.762)" fill="#4064a0"/>
    <path id="Fill_138" data-name="Fill 138" d="M15.45,2.956A9.01,9.01,0,0,0,5.971.452C2.057,1.663-2.117,10.829,1.212,15.483s14.272,10.273,23.195,6.958c7.476-2.777,6.751-11.1,6.751-11.1-.393-1.74-1.679-2.974-4.29-3.459,0,0-9.068-.9-11.418-4.924" transform="translate(74.948 215.673)" fill="#507db2"/>
    <path id="Fill_139" data-name="Fill 139" d="M3.064,0S24.346,23.45,30.218,23.754l-3.363,10.03S8.586,29.025,2.492,20.164C-3.431,11.552,3.064,0,3.064,0" transform="translate(111.702 231.279)" fill="#507db2"/>
    <path id="Fill_140" data-name="Fill 140" d="M19.935.113S14.863,22.769,9.5,26.739s-9.388.523-9.388.523A14.119,14.119,0,0,1,2.5,17.484c.195-.277.4-.555.632-.829a13.777,13.777,0,0,1,1.183-1.274C9.735,10.23,12.57,0,12.57,0a15.032,15.032,0,0,0,7.365.113" transform="translate(136.812 236.894)" fill="#507db2"/>
    <path id="Fill_141" data-name="Fill 141" d="M0,.629l1.006.587.122.071L1.321,0h0L0,.629" transform="translate(144.309 209.169)" fill="#2f2d4f"/>
    <path id="Fill_142" data-name="Fill 142" d="M1.062.519,0,20.966a.546.546,0,0,0,.25.487l9.023,5.814a.545.545,0,0,0,.841-.43l1.049-20.2a.8.8,0,0,0-.206-.578L10.8,5.925,1.908.091A.542.542,0,0,0,1.335.074h0a.544.544,0,0,0-.272.445" transform="translate(144.293 209.096)" fill="#252343"/>
    <path id="Fill_143" data-name="Fill 143" d="M1.468,1.007,0,1.334.069,0l1.4,1.007" transform="translate(152.502 235.433)" fill="#2f2d4f"/>
    <path id="Fill_144" data-name="Fill 144" d="M0,.7l1.006.587-.031.6L8.938,7.053l2-.993-.156-.135L1.892.091A.542.542,0,0,0,1.319.074h0L0,.7" transform="translate(144.309 209.096)" fill="#352f5c"/>
    <path id="Fill_145" data-name="Fill 145" d="M1.041.685,0,20.726a.724.724,0,0,0,.33.644l8.685,5.595a.72.72,0,0,0,1.11-.568L11.161,6.453a.719.719,0,0,0-.325-.64L2.157.119A.721.721,0,0,0,1.041.685" transform="translate(142.859 209.726)" fill="#3d3b6a"/>
    <path id="Fill_146" data-name="Fill 146" d="M.946.363,0,18.6a.384.384,0,0,0,.175.342l7.178,4.625a.374.374,0,0,0,.284.053.38.38,0,0,0,.305-.355L8.885,5.109a.382.382,0,0,0-.173-.34L1.539.063,1.47.027A.383.383,0,0,0,.946.363" transform="translate(143.997 211.458)" fill="#fffffe"/>
    <path id="Fill_147" data-name="Fill 147" d="M4.187,2.7l-.051.982a.185.185,0,0,1-.286.146L.084,1.358,0,1.193.062,0,4.187,2.7" transform="translate(146.871 212.43)" fill="#3d3b6a"/>
    <path id="Fill_148" data-name="Fill 148" d="M2.459,15.772A8.314,8.314,0,0,1,.654,11.8C.408,9.623-.685,5.663.654,5.168S1.808,8.237,3.386,9.326,8.407,6.214,8.359,4.263C8.319,2.648,8.58,0,8.58,0a7.692,7.692,0,0,1,4.9,5.861c.792,4.554-3.345,10.354-3.345,10.354S4.767,18.6,2.459,15.772" transform="translate(146.614 220.791)" fill="#eea183"/>
    <path id="Fill_149" data-name="Fill 149" d="M2.6,3.145a.509.509,0,0,1-.314.106.52.52,0,0,1-.408-.2C1.263,2.247.619,1.5,0,.829.195.552.4.274.632,0A31.571,31.571,0,0,1,2.694,2.427a.513.513,0,0,1-.1.718" transform="translate(139.314 253.549)" fill="#4064a0"/>
    <path id="Fill_150" data-name="Fill 150" d="M19.156,5.606S14.58,13.006,8.62,17.813C5.506,14.87,2.434,11.758,0,9.224A59.507,59.507,0,0,0,14.529,0l4.627,5.606" transform="translate(119.776 227.393)" fill="#365192"/>
    <path id="Fill_151" data-name="Fill 151" d="M12.176,13.039c-.962.583-2.013,1.14-2.755,1.617A8.314,8.314,0,0,1,5.2,15.778c-3.649,0-5.2-5.654-5.2-5.654S1.864,3.248,5.888.973A8.009,8.009,0,0,1,9.239,0L8.821,8.063l0,.073c-.024.239-.038.495-.038.719,0,1.073.135,1.921.824,2.122,1.841.529,4.48-1.872,4.948-.524.277.806-.95,1.723-2.376,2.586" transform="translate(134.305 217.268)" fill="#eea183"/>
    <path id="Fill_152" data-name="Fill 152" d="M31.822,4.519c0,2.5-7.124,4.518-15.911,4.518S0,7.015,0,4.519,7.123,0,15.911,0,31.822,2.023,31.822,4.519" transform="translate(338.33 373.166)" fill="#d8d6d0"/>
    <path id="Fill_153" data-name="Fill 153" d="M32.707,2.305l-6.67,22.312a3.9,3.9,0,0,1-2.057,2.549,16.1,16.1,0,0,1-15.149,0,3.9,3.9,0,0,1-2.055-2.548L0,2.522,16.406,0l16.3,2.305" transform="translate(337.298 350.689)" fill="#3d3b6a"/>
    <path id="Fill_154" data-name="Fill 154" d="M32.9,8.7c0,4.806-7.364,8.7-16.447,8.7S0,13.506,0,8.7,7.364,0,16.448,0,32.9,3.895,32.9,8.7" transform="translate(337.257 343.128)" fill="#352f5c"/>
    <path id="Fill_155" data-name="Fill 155" d="M22.748,5.079c0,2.806-5.093,5.08-11.374,5.08S0,7.885,0,5.079,5.092,0,11.374,0,22.748,2.274,22.748,5.079" transform="translate(342.331 346.749)" fill="#252343"/>
    <path id="Fill_156" data-name="Fill 156" d="M46.267,66.14c-6.9-1.817-17.435,12.5-20.636,26.458V72.26A41.948,41.948,0,0,1,35.877,60.58c8.661-7.054,16.634-16.107,9.723-17.927-6.475-1.706-16.16,10.809-19.969,23.9V40.433A27.682,27.682,0,0,1,31.5,34.047c5.458-4.445,10.482-10.15,6.128-11.3-3.78-1-9.293,5.694-11.995,13.239V27.525a40.221,40.221,0,0,1,2.81-10.182C32.456,8.485,34.625-.643,29.332.036S20.6,16.494,23.5,28.606v4.356c-1.957-8.864-8.672-18.044-13.055-16.89-4.354,1.147.67,6.852,6.129,11.3A25.136,25.136,0,0,1,23.5,35.625V56.2C20.356,42.169,9.743,27.69,2.809,29.517c-6.91,1.82,1.063,10.872,9.724,17.926,6.545,5.331,9.635,10.325,10.963,13.043v24.67C20.14,71.384,9.8,57.486,3,59.278c-6.91,1.82-.985,8.435,8.749,16.436a45.961,45.961,0,0,1,11.75,14.3v11.62a3.583,3.583,0,0,0,2.135,0V97.007c1.354-2.738,4.448-7.675,10.913-12.941,8.661-7.054,16.634-16.106,9.723-17.926" transform="translate(329.26 250.436)" fill="#4064a0"/>
    <path id="Fill_157" data-name="Fill 157" d="M3.5,0,0,7.658V2.02L3.5,0" transform="translate(340.383 133.224)" fill="#365192"/>
    <path id="Fill_158" data-name="Fill 158" d="M1.736,5.638,0,4.636V1L1.733,0l0,5.638" transform="translate(338.65 135.244)" fill="#304287"/>
    <path id="Fill_159" data-name="Fill 159" d="M0,0V25.463L4.4,28,4.02,2.339,0,0" transform="translate(323.056 114.715)" fill="#304287"/>
    <path id="Fill_160" data-name="Fill 160" d="M22.8,0V25.887L.382,38.83,0,13.164,22.8,0" transform="translate(327.076 103.89)" fill="#365192"/>
    <path id="Fill_161" data-name="Fill 161" d="M11.475,2.578a7.778,7.778,0,0,1-.99,3.669l-4.62,8.605L1.078,12.081A2.666,2.666,0,0,1,0,9.694,7.756,7.756,0,0,1,.988,6.027C2.251,3.676,4.212,2.743,5.713,4.462,7.138.929,9.091-.565,10.4.192a2.665,2.665,0,0,1,1.076,2.386" transform="translate(332.913 115.535)" fill="#fffffe"/>
    <path id="Fill_162" data-name="Fill 162" d="M0,13.164,22.8,0l4.02,2.339L4.02,15.5,0,13.164" transform="translate(323.056 101.551)" fill="#4064a0"/>
    <path id="Fill_163" data-name="Fill 163" d="M81.92,15.836a19.278,19.278,0,0,1-2.711,8.995A18.494,18.494,0,0,1,72.886,31.6L8.759,68.951C3.867,71.8-.074,69.372,0,63.552a15.812,15.812,0,0,1,.558-3.825,21.778,21.778,0,0,1,2.153-5.17,20.31,20.31,0,0,1,4.482-5.468c.7-17.063,12.47-37.243,26.7-45.53C43.2-1.862,51.3-.878,55.869,5.074A22.416,22.416,0,0,1,60.03,1.9c.449-.261.89-.491,1.323-.7,6.943-3.257,12.29.542,12.179,9.02v.009c4.72-2.517,8.462-.063,8.388,5.606" transform="translate(181.366 55.293)" fill="#365192"/>
    <path id="Fill_164" data-name="Fill 164" d="M5.854.438,1.241,0,0,1.893a2.355,2.355,0,0,0,2.407.066C4.031,1.329,5.854.438,5.854.438" transform="translate(259.133 64.28)" fill="#365192"/>
    <path id="Fill_165" data-name="Fill 165" d="M0,0,6.8.188,3.655,2.523S.816,1.809,0,0" transform="translate(247.998 55.349)" fill="#365192"/>
    <path id="Fill_166" data-name="Fill 166" d="M0,1.777l6.384.158L4.16,0S.185.863,0,1.777" transform="translate(185.802 123.651)" fill="#365192"/>
    <path id="Fill_167" data-name="Fill 167" d="M81.919,15.836a19.285,19.285,0,0,1-2.711,8.995A18.494,18.494,0,0,1,72.885,31.6L8.758,68.951c-4.892,2.85-8.834.42-8.757-5.4a15.809,15.809,0,0,1,.557-3.825,21.744,21.744,0,0,1,2.153-5.17,20.279,20.279,0,0,1,4.482-5.468c.7-17.063,12.471-37.244,26.7-45.53C43.2-1.863,51.3-.878,55.868,5.073A22.41,22.41,0,0,1,60.029,1.9q.673-.391,1.323-.7c6.943-3.257,12.29.542,12.179,9.02v.009c4.72-2.518,8.462-.063,8.388,5.606" transform="translate(187.869 55.473)" fill="#4064a0"/>
    <path id="Fill_168" data-name="Fill 168" d="M16.889,4.891,8.954,0,8.535.726,6.425,4.41l-1.1,1.917L.766,14.282c-1,1.749-1.024,3.647-.055,4.248s2.571-.335,3.571-2.08l2-3.484-.19,14.626c-.022,1.658,1.091,2.345,2.485,1.533a5.8,5.8,0,0,0,2.565-4.474l.19-14.624,1.933,1.192a1.726,1.726,0,0,0,1.776-.163,5.233,5.233,0,0,0,1.8-1.917c1-1.748,1.025-3.647.055-4.248" transform="translate(223.429 66.169)" fill="#fffffe"/>
    <path id="Fill_169" data-name="Fill 169" d="M0,0,3.5,7.658V2.02L0,0" transform="translate(149.106 195.54)" fill="#365192"/>
    <path id="Fill_170" data-name="Fill 170" d="M0,5.638l1.736-1V1L0,0,0,5.638" transform="translate(152.603 197.56)" fill="#304287"/>
    <path id="Fill_171" data-name="Fill 171" d="M4.4,0V25.463L0,28,.383,2.34,4.4,0" transform="translate(164.465 176.443)" fill="#304287"/>
    <path id="Fill_172" data-name="Fill 172" d="M0,0V25.886L22.418,38.829,22.8,13.164,0,0" transform="translate(142.047 165.619)" fill="#365192"/>
    <path id="Fill_173" data-name="Fill 173" d="M26.821,13.164,4.02,0,0,2.34,22.8,15.5l4.02-2.34" transform="translate(142.047 163.279)" fill="#4064a0"/>
    <path id="Fill_174" data-name="Fill 174" d="M11.229,16.851h0a7.871,7.871,0,0,1-3.916-1.263C3.221,13.138-.059,7.933,0,3.984A4.332,4.332,0,0,1,1.023,1.028,3.439,3.439,0,0,1,3.615,0,7.866,7.866,0,0,1,7.529,1.263c4.091,2.449,7.371,7.655,7.312,11.6a4.332,4.332,0,0,1-1.022,2.956A3.439,3.439,0,0,1,11.229,16.851Zm-.236-3.038h0a3.57,3.57,0,0,1-1.324,1.511,3.363,3.363,0,0,1-.929.391,6.006,6.006,0,0,0,2.177.452,3.162,3.162,0,0,0,2.406-.961l-2.33-1.394ZM7.671,11.825l-.051,3.318a3.131,3.131,0,0,0,2.736-1.711ZM4.319,9.818A14.559,14.559,0,0,0,5.4,12.39a14.511,14.511,0,0,0,1.624,2.435l.051-3.358Zm7.28,1.245a7.43,7.43,0,0,1-.41,2.287l2.44,1.461a4.214,4.214,0,0,0,.611-2.167ZM1.422,8.085a15.713,15.713,0,0,0,4.395,5.864c-.32-.476-.616-.966-.879-1.456A15.618,15.618,0,0,1,3.682,9.437L1.422,8.085Zm6.3.654h0l-.038,2.51,2.889,1.729A6.811,6.811,0,0,0,11,10.705L7.718,8.739Zm3.446-1.051a11.5,11.5,0,0,1,.441,2.8l2.632,1.574a9.633,9.633,0,0,0-.671-2.933Zm-7.4-1.314a11.778,11.778,0,0,0,.359,2.748l2.958,1.77.038-2.51Zm4-.72L7.726,8.163l3.282,1.964a11.051,11.051,0,0,0-.477-2.817ZM.6,4.478a8.951,8.951,0,0,0,.535,2.853L3.5,8.749A12.411,12.411,0,0,1,3.17,6.017ZM9.035,2.91h0c.339.555.655,1.13.94,1.709a18.413,18.413,0,0,1,.974,2.358l2.286,1.368A15.933,15.933,0,0,0,9.035,2.91Zm-4.7.689h0a5.511,5.511,0,0,0-.553,2.2l3.35,2.005L7.167,5.3,4.332,3.6ZM7.819,2.024,7.772,5.078,10.3,6.589a17.445,17.445,0,0,0-.808-1.913,20.106,20.106,0,0,0-1.48-2.528Zm-6.452-.2h0A3.876,3.876,0,0,0,.62,3.91L3.182,5.443A6.045,6.045,0,0,1,3.7,3.22l-2.332-1.4Zm5.59-.3A3.912,3.912,0,0,0,4.584,3.169L7.176,4.721l.047-3.055-.266-.143ZM3.922.679a3.236,3.236,0,0,0-2.208.773L3.932,2.779A4.167,4.167,0,0,1,4.958,1.618a4.254,4.254,0,0,1,.956-.555A5.861,5.861,0,0,0,3.922.679Z" transform="translate(146.026 176.608)" fill="#fffffe"/>
    <path id="Fill_175" data-name="Fill 175" d="M84.835,8.977c3.97,10.552-11.665,26.2-34.922,34.948S4.586,51.214.616,40.662s11.665-26.2,34.922-34.947,45.327-7.289,49.3,3.262" transform="translate(258.877 401.532)" fill="#d8d6d0"/>
    <path id="Fill_176" data-name="Fill 176" d="M67.539,15.74l-40.523,23.4L0,23.539,40.276,0,67.539,15.74" transform="translate(266.878 360.896)" fill="#4f5781"/>
    <g id="Group_191" data-name="Group 191" transform="translate(272 341)">
      <path id="Clip_178-2" data-name="Clip 178" d="M.929,42.437,20.923,53.98,54.39,34.658l.6-24.407L35.826,0,0,18.83.929,42.437" transform="translate(0.971 0.978)" fill="none"/>
      <g id="Group_191-2" data-name="Group 191" clip-path="url(#clip-path-2)">
        <path id="Fill_177" data-name="Fill 177" d="M53.461,11.661,33.265,0,0,19.44,19.994,30.983,53.461,11.661" transform="translate(1.9 23.975)" fill="#252343"/>
        <path id="Fill_179" data-name="Fill 179" d="M31.833,1.02V27.248a1.022,1.022,0,0,1-.507.881L1.521,45.113a1,1,0,0,1-.63.127A1.018,1.018,0,0,1,0,44.228V18.217a1.017,1.017,0,0,1,.509-.881l29.8-17.2a1.018,1.018,0,0,1,1.528.882" transform="translate(7.552 6.918)" fill="#365192"/>
        <path id="Fill_180" data-name="Fill 180" d="M10.782,5.842a5.881,5.881,0,0,1-5.719,5.676A5.307,5.307,0,0,1,.01,5.678,5.881,5.881,0,0,1,5.729,0a5.308,5.308,0,0,1,5.053,5.841" transform="translate(20.75 21.718)" fill="#5797c5"/>
        <path id="Fill_181" data-name="Fill 181" d="M15.789,7.322V14.3a1.022,1.022,0,0,1-.507.881L0,23.886,5.526,7.164,8.008,0l5.233,4.947,2.548,2.375" transform="translate(23.596 19.87)" fill="#2f2d4f"/>
        <path id="Fill_182" data-name="Fill 182" d="M7.716,4.947,6.636,6.922l-2.826-.6L2.68,8.269,0,7.163,2.482,0,7.716,4.947" transform="translate(29.122 19.87)" fill="#fffffe"/>
        <path id="Fill_183" data-name="Fill 183" d="M25.281,14.505.63,28.552a1,1,0,0,1-.63.127L9.935,0,25.281,14.505" transform="translate(8.443 23.479)" fill="#3d3b6a"/>
        <path id="Fill_184" data-name="Fill 184" d="M9.322,5.978l-1.3,2.385L4.6,7.642,3.237,9.991,0,8.656,3,0,9.322,5.978" transform="translate(15.38 23.479)" fill="#fffffe"/>
        <path id="Fill_185" data-name="Fill 185" d="M31.833,1.019V27.248a1.018,1.018,0,0,1-.508.881L1.522,45.113a1,1,0,0,1-.63.127A1.017,1.017,0,0,1,0,44.228V18.217a1.013,1.013,0,0,1,.509-.881l29.8-17.2a1.018,1.018,0,0,1,1.527.881" transform="translate(19.291 13.05)" fill="#4064a0"/>
        <path id="Fill_186" data-name="Fill 186" d="M10.783,5.841a5.88,5.88,0,0,1-5.718,5.677A5.307,5.307,0,0,1,.01,5.678,5.883,5.883,0,0,1,5.73,0a5.308,5.308,0,0,1,5.053,5.84" transform="translate(32.488 27.85)" fill="#5797c5"/>
        <path id="Fill_187" data-name="Fill 187" d="M15.789,7.322V14.3a1.018,1.018,0,0,1-.508.881L0,23.886,5.525,7.164,8.008,0l5.233,4.948,2.548,2.374" transform="translate(35.335 26.002)" fill="#2f2d4f"/>
        <path id="Fill_188" data-name="Fill 188" d="M7.716,4.948,6.636,6.922l-2.826-.6L2.68,8.269,0,7.164,2.483,0,7.716,4.948" transform="translate(40.86 26.002)" fill="#fffffe"/>
        <path id="Fill_189" data-name="Fill 189" d="M25.28,14.506.63,28.553A1,1,0,0,1,0,28.68L9.933,0,25.28,14.506" transform="translate(20.183 29.61)" fill="#3d3b6a"/>
        <path id="Fill_190" data-name="Fill 190" d="M9.323,5.978,8.018,8.364,4.6,7.642,3.238,9.991,0,8.656,3,0,9.323,5.978" transform="translate(27.118 29.611)" fill="#fffffe"/>
      </g>
    </g>
    <path id="Fill_192" data-name="Fill 192" d="M40.523,0V46.792L0,70.188V23.4L40.523,0" transform="translate(293.894 376.636)" fill="#3d3b6a"/>
    <path id="Fill_193" data-name="Fill 193" d="M6.377,29.731h0a6.068,6.068,0,0,1-4.572-1.815A7.64,7.64,0,0,1,0,22.7C-.1,15.734,5.684,6.55,12.9,2.229A13.88,13.88,0,0,1,19.811,0a6.067,6.067,0,0,1,4.571,1.814,7.643,7.643,0,0,1,1.8,5.215C26.291,14,20.5,23.183,13.284,27.5A13.88,13.88,0,0,1,6.377,29.731Zm.414-5.359-4.11,2.461a5.578,5.578,0,0,0,4.244,1.695,10.6,10.6,0,0,0,3.843-.8,5.9,5.9,0,0,1-1.64-.691,6.29,6.29,0,0,1-2.336-2.666Zm5.862-3.508L7.915,23.7a5.521,5.521,0,0,0,4.826,3.019Zm5.914-3.541-4.862,2.912.09,5.925a25.44,25.44,0,0,0,2.868-4.3A25.572,25.572,0,0,0,18.567,17.323Zm-12.846,2.2-4.66,2.79a7.431,7.431,0,0,0,1.078,3.822l4.3-2.576a13.216,13.216,0,0,1-.723-4.036Zm17.956-5.254L19.69,16.653a27.553,27.553,0,0,1-2.215,5.388c-.478.887-1,1.751-1.551,2.569A27.721,27.721,0,0,0,23.677,14.265ZM12.57,15.42l-5.8,3.47a12.062,12.062,0,0,0,.765,4.01l5.1-3.052L12.57,15.42ZM6.489,13.567,2.254,16.1a16.96,16.96,0,0,0-1.184,5.176L5.712,18.5A20.331,20.331,0,0,1,6.489,13.567Zm13.053-2.319L13.623,14.79l.068,4.428,5.217-3.124a20.706,20.706,0,0,0,.633-4.846ZM12.488,9.976,7.607,12.9a19.4,19.4,0,0,0-.841,4.97L12.555,14.4l-.068-4.427ZM25.133,7.9h0L20.6,10.616a21.949,21.949,0,0,1-.59,4.821l4.183-2.5A15.767,15.767,0,0,0,25.132,7.9ZM10.248,5.135a28.069,28.069,0,0,0-7.41,9.591l4.033-2.415a32.38,32.38,0,0,1,1.717-4.16c.5-1.019,1.06-2.034,1.66-3.017Zm8.3,1.216-5,2.994.067,4.428,5.912-3.538A9.73,9.73,0,0,0,18.545,6.351Zm-6.153-2.78h0c-.11.071-.223.144-.333.218A35.406,35.406,0,0,0,9.445,8.248a30.809,30.809,0,0,0-1.426,3.377l4.454-2.666-.082-5.388Zm11.386-.352h0L19.661,5.683A10.682,10.682,0,0,1,20.573,9.6L25.094,6.9a6.841,6.841,0,0,0-1.317-3.679ZM13.912,2.69h0c-.136.071-.281.149-.468.252l.082,5.387L18.1,5.592a6.965,6.965,0,0,0-4.187-2.9ZM19.266,1.2a10.359,10.359,0,0,0-3.513.676,7.461,7.461,0,0,1,1.687.979A7.336,7.336,0,0,1,19.249,4.9l3.912-2.341A5.713,5.713,0,0,0,19.266,1.2Z" transform="translate(302.91 394.91)" fill="#4f5781"/>
    <path id="Fill_194" data-name="Fill 194" d="M27.016,62.389,0,46.47V0L27.016,15.6V62.389" transform="translate(266.878 384.435)" fill="#352f5c"/>
  </g>
</svg>
