<svg id="img1" xmlns="http://www.w3.org/2000/svg" xmlns:xlink="http://www.w3.org/1999/xlink" width="599.569" height="345" viewBox="0 0 599.569 345">
  <defs>
    <clipPath id="clip-path">
      <path id="Clip_2" data-name="Clip 2" d="M0,0H599.569V332.1H0Z" transform="translate(0 0.253)" fill="none"/>
    </clipPath>
    <clipPath id="clip-path-2">
      <path id="Clip_42" data-name="Clip 42" d="M6.66,8.651l0-2.318L0,0,.006,8.655l6.654,0" transform="translate(0.136 0.636)" fill="none"/>
    </clipPath>
    <clipPath id="clip-path-3">
      <path id="Clip_45" data-name="Clip 45" d="M8.5,6.759l-2.276,0L0,.006,8.5,0l0,6.759" transform="translate(0.127 0.672)" fill="none"/>
    </clipPath>
    <clipPath id="clip-path-4">
      <path id="Clip_48" data-name="Clip 48" d="M0,6.765H2.322L8.655,0,0,.007,0,6.765" transform="translate(0.586 0.607)" fill="none"/>
    </clipPath>
    <clipPath id="clip-path-5">
      <path id="Clip_51" data-name="Clip 51" d="M0,8.659,0,6.342,6.755,0l.006,8.655L0,8.659" transform="translate(0.436 0.569)" fill="none"/>
    </clipPath>
    <clipPath id="clip-path-6">
      <path id="Clip_54" data-name="Clip 54" d="M0,0,0,2.28,6.765,8.5,6.759,0,0,0" transform="translate(0.495 0.19)" fill="none"/>
    </clipPath>
    <clipPath id="clip-path-7">
      <path id="Clip_57" data-name="Clip 57" d="M0,0,2.318,0,8.659,6.648,0,6.654,0,0" transform="translate(0.647 0.017)" fill="none"/>
    </clipPath>
    <clipPath id="clip-path-8">
      <path id="Clip_60" data-name="Clip 60" d="M8.494,0,6.217,0,0,6.66l8.5-.006L8.494,0" transform="translate(0.191 0.075)" fill="none"/>
    </clipPath>
    <clipPath id="clip-path-9">
      <path id="Clip_63" data-name="Clip 63" d="M6.654,0l0,2.276L.006,8.5,0,0,6.654,0" transform="translate(0.199 0.25)" fill="none"/>
    </clipPath>
    <clipPath id="clip-path-10">
      <path id="Clip_94" data-name="Clip 94" d="M6.765,8.651l0-2.318L0,0,.006,8.655l6.759,0" transform="translate(0.363 0.636)" fill="none"/>
    </clipPath>
    <clipPath id="clip-path-11">
      <path id="Clip_97" data-name="Clip 97" d="M8.5,6.759l-2.276,0L0,.006,8.5,0l0,6.759" transform="translate(0.334 0.672)" fill="none"/>
    </clipPath>
    <clipPath id="clip-path-12">
      <path id="Clip_100" data-name="Clip 100" d="M0,6.765H2.322L8.654,0,0,.007,0,6.765" transform="translate(0.797 0.607)" fill="none"/>
    </clipPath>
    <clipPath id="clip-path-13">
      <path id="Clip_103" data-name="Clip 103" d="M0,8.659,0,6.342,6.754,0l.007,8.655L0,8.659" transform="translate(0.66 0.569)" fill="none"/>
    </clipPath>
    <clipPath id="clip-path-14">
      <path id="Clip_106" data-name="Clip 106" d="M0,0,0,2.28,6.765,8.5,6.759,0,0,0" transform="translate(0.72 0.19)" fill="none"/>
    </clipPath>
    <clipPath id="clip-path-15">
      <path id="Clip_109" data-name="Clip 109" d="M0,0,2.276,0,8.5,6.648,0,6.654,0,0" transform="translate(0.025 0.017)" fill="none"/>
    </clipPath>
    <clipPath id="clip-path-16">
      <path id="Clip_112" data-name="Clip 112" d="M8.494,0,6.217,0,0,6.66l8.5-.006L8.494,0" transform="translate(0.398 0.075)" fill="none"/>
    </clipPath>
    <clipPath id="clip-path-17">
      <path id="Clip_115" data-name="Clip 115" d="M6.759,0l0,2.276L.006,8.5,0,0,6.759,0" transform="translate(0.427 0.25)" fill="none"/>
    </clipPath>
  </defs>
  <g id="Group_3" data-name="Group 3">
    <path id="Clip_2-2" data-name="Clip 2" d="M0,0H599.569V332.1H0Z" transform="translate(0 0.253)" fill="none"/>
    <g id="Group_3-2" data-name="Group 3" clip-path="url(#clip-path)">
      <path id="Fill_1" data-name="Fill 1" d="M531.995,290.054c-2.435,1.355-5.042,2.647-7.787,3.912-12.967,6-29.171,11.214-47.724,15.7-1.148.28-2.314.559-3.488.831l-.294.07c-2.2.519-4.446,1.024-6.708,1.513-20.417,4.455-43.252,8.1-67.459,11.013l-1.373.163c-.112.016-.216.023-.328.039-32.314,3.826-67.019,6.349-101.594,7.668q-8.158.314-16.291.536c-.915.023-1.83.054-2.745.07-.8.023-1.6.047-2.4.062q-5.219.128-10.411.217c-1.3.031-2.607.047-3.911.07-.984.016-1.968.031-2.961.039-8.521.116-16.981.155-25.338.132-71.465-.225-135.35-5.488-167.482-14.529C-29.157,291.436-8.687,227.1,50.061,214.034s-22.5-89.052,71.169-139.168c56.9-30.442,116.507,35.773,165.806-17.175,73.554-79,138.608-66.089,179.605-25.3,46.2,45.969,9.135,102.019,58.61,99.161,74.138-4.282,118.4,96.387,6.742,158.5" transform="translate(0 0.253)" fill="#eceef3"/>
    </g>
  </g>
  <path id="Fill_4" data-name="Fill 4" d="M508,13.5C508,20.956,394.28,27,254,27S0,20.956,0,13.5,113.719,0,254,0,508,6.044,508,13.5" transform="translate(43 318)" fill="#ced4e3"/>
  <path id="Fill_5" data-name="Fill 5" d="M124,50.152,104.954,63.408c-37.823,3.566-63.938-9.56-80.655-23.7L31.664,23.3l-16.1,8.13C4.761,19.973,0,9.888,0,9.888,69.636-26.754,122.184,50.247,124,50.152" transform="translate(47 208)" fill="#088"/>
  <path id="Stroke_6" data-name="Stroke 6" d="M0,.015C1.054-.3,31.136,4.161,70,30" transform="translate(62 222)" fill="none" stroke="#fffffe" stroke-linecap="round" stroke-miterlimit="10" stroke-width="3"/>
  <path id="Fill_7" data-name="Fill 7" d="M101,103.954,75.383,107C-3.365,74.3.021,0,.021,0A96,96,0,0,1,27.266,3.876c-3.569,10.174,1.866,14.4,6.967,14.4,4.607,0,6.951-3.847,5.343-9.658C91.323,33.442,99.488,103.25,101,103.954" transform="translate(60 130)" fill="#00a6a7"/>
  <path id="Stroke_8" data-name="Stroke 8" d="M6.8,141a6.776,6.776,0,1,1,6.8-6.776A6.795,6.795,0,0,1,6.8,141ZM87.612,47.99A248.925,248.925,0,0,1,67.068,28.98,181.047,181.047,0,0,1,53.925,13.76C47.431,5.271,44.926.052,44.9,0L87.613,47.989ZM511.2,30.83a6.776,6.776,0,1,1,6.8-6.776A6.794,6.794,0,0,1,511.2,30.83Z" transform="translate(38 160)" fill="none" stroke="#fffffe" stroke-linecap="round" stroke-miterlimit="10" stroke-width="3"/>
  <path id="Fill_9" data-name="Fill 9" d="M79.13,8H3.871A3.949,3.949,0,0,1,0,4,3.949,3.949,0,0,1,3.871,0H79.13A3.948,3.948,0,0,1,83,4a3.948,3.948,0,0,1-3.87,4" transform="translate(209 320)" fill="#313154"/>
  <path id="Fill_10" data-name="Fill 10" d="M0,32H54V0H0Z" transform="translate(224 293)" fill="#2d2e43"/>
  <path id="Fill_11" data-name="Fill 11" d="M252.9,192H8.1A8.108,8.108,0,0,1,0,183.886V8.114A8.109,8.109,0,0,1,8.1,0H252.9A8.109,8.109,0,0,1,261,8.114V183.886A8.108,8.108,0,0,1,252.9,192" transform="translate(121 117)" fill="#2d2e43"/>
  <path id="Fill_12" data-name="Fill 12" d="M239.955,156H3.045A3.04,3.04,0,0,1,0,152.964V3.036A3.041,3.041,0,0,1,3.045,0h236.91A3.041,3.041,0,0,1,243,3.036V152.964A3.04,3.04,0,0,1,239.955,156" transform="translate(130 126)" fill="#313154"/>
  <path id="Fill_13" data-name="Fill 13" d="M2,0,2,5H0L0,0H2" transform="translate(262 252)" fill="#fffffe"/>
  <path id="Fill_14" data-name="Fill 14" d="M2,0,2,5H.005L0,0,2,0" transform="translate(262 240)" fill="#fffffe"/>
  <path id="Fill_15" data-name="Fill 15" d="M1.995,0,2,5,0,5,0,0H1.995" transform="translate(262 228)" fill="#fffffe"/>
  <path id="Fill_16" data-name="Fill 16" d="M2,0,2,5H0L0,0H2" transform="translate(262 216)" fill="#fffffe"/>
  <path id="Fill_17" data-name="Fill 17" d="M2,0,2,5H0L0,0,2,0" transform="translate(262 205)" fill="#fffffe"/>
  <path id="Fill_18" data-name="Fill 18" d="M1.995,0,2,5,0,5,0,0H1.995" transform="translate(262 193)" fill="#fffffe"/>
  <path id="Fill_19" data-name="Fill 19" d="M2,0,2,5H.005L0,0H2" transform="translate(262 181)" fill="#fffffe"/>
  <path id="Fill_20" data-name="Fill 20" d="M5,2,0,2V.005L5,0V2" transform="translate(272 170)" fill="#fffffe"/>
  <path id="Fill_21" data-name="Fill 21" d="M5,2,0,2V0L5,0V2" transform="translate(284 170)" fill="#fffffe"/>
  <path id="Fill_22" data-name="Fill 22" d="M5,2,0,2,0,0,5,0,5,2" transform="translate(296 170)" fill="#fffffe"/>
  <path id="Fill_23" data-name="Fill 23" d="M5,2,0,2V.005L5,0V2" transform="translate(308 170)" fill="#fffffe"/>
  <path id="Fill_24" data-name="Fill 24" d="M5,1.995,0,2V0L5,0V1.995" transform="translate(320 170)" fill="#fffffe"/>
  <path id="Fill_25" data-name="Fill 25" d="M5,2,0,2,0,0,5,0,5,2" transform="translate(332 170)" fill="#fffffe"/>
  <path id="Fill_26" data-name="Fill 26" d="M5,2,0,2V0L5,0V2" transform="translate(344 170)" fill="#fffffe"/>
  <path id="Fill_27" data-name="Fill 27" d="M0,5,0,0,2,0,2,5H0" transform="translate(358 180)" fill="#fffffe"/>
  <path id="Fill_28" data-name="Fill 28" d="M0,5,0,0H1.995L2,5H0" transform="translate(358 192)" fill="#fffffe"/>
  <path id="Fill_29" data-name="Fill 29" d="M.005,5,0,0H2L2,5,.005,5" transform="translate(358 204)" fill="#fffffe"/>
  <path id="Fill_30" data-name="Fill 30" d="M0,5,0,0,1.995,0,2,5H0" transform="translate(358 216)" fill="#fffffe"/>
  <path id="Fill_31" data-name="Fill 31" d="M0,5,0,0H2L2,5H0" transform="translate(358 228)" fill="#fffffe"/>
  <path id="Fill_32" data-name="Fill 32" d="M.005,5,0,0H2L2,5,.005,5" transform="translate(358 240)" fill="#fffffe"/>
  <path id="Fill_33" data-name="Fill 33" d="M0,5,0,0,1.995,0,2,5H0" transform="translate(358 252)" fill="#fffffe"/>
  <path id="Fill_34" data-name="Fill 34" d="M0,.005,5,0V2L0,2V.005" transform="translate(344 266)" fill="#fffffe"/>
  <path id="Fill_35" data-name="Fill 35" d="M0,0,5,0V1.995L0,2V0" transform="translate(332 266)" fill="#fffffe"/>
  <path id="Fill_36" data-name="Fill 36" d="M0,0,5,0,5,2,0,2,0,0" transform="translate(321 266)" fill="#fffffe"/>
  <path id="Fill_37" data-name="Fill 37" d="M0,.005,5,0V2L0,2V.005" transform="translate(309 266)" fill="#fffffe"/>
  <path id="Fill_38" data-name="Fill 38" d="M0,0,5,0V1.995L0,2V0" transform="translate(297 266)" fill="#fffffe"/>
  <path id="Fill_39" data-name="Fill 39" d="M0,.005,5,0,5,2,0,2,0,.005" transform="translate(285 266)" fill="#fffffe"/>
  <path id="Fill_40" data-name="Fill 40" d="M0,0,5,0V2L0,2V0" transform="translate(273 266)" fill="#fffffe"/>
  <g id="Group_43" data-name="Group 43" transform="translate(260 168)">
    <path id="Clip_42-2" data-name="Clip 42" d="M6.66,8.651l0-2.318L0,0,.006,8.655l6.654,0" transform="translate(0.136 0.636)" fill="none"/>
    <g id="Group_43-2" data-name="Group 43" clip-path="url(#clip-path-2)">
      <path id="Fill_41" data-name="Fill 41" d="M1.744,0l0,4.982H0L0,0,1.744,0" transform="translate(2.495 1.372)" fill="#fffffe"/>
    </g>
  </g>
  <g id="Group_46" data-name="Group 46" transform="translate(260 167)">
    <path id="Clip_45-2" data-name="Clip 45" d="M8.5,6.759l-2.276,0L0,.006,8.5,0l0,6.759" transform="translate(0.127 0.672)" fill="none"/>
    <g id="Group_46-2" data-name="Group 46" clip-path="url(#clip-path-3)">
      <path id="Fill_44" data-name="Fill 44" d="M4.892,1.771,0,1.774,0,0,4.891,0V1.771" transform="translate(0.732 3.071)" fill="#fffffe"/>
    </g>
  </g>
  <g id="Group_49" data-name="Group 49" transform="translate(352 167)">
    <path id="Clip_48-2" data-name="Clip 48" d="M0,6.765H2.322L8.655,0,0,.007,0,6.765" transform="translate(0.586 0.607)" fill="none"/>
    <g id="Group_49-2" data-name="Group 49" clip-path="url(#clip-path-4)">
      <path id="Fill_47" data-name="Fill 47" d="M4.983,1.772,0,1.775,0,0,4.982,0V1.772" transform="translate(3.521 3.004)" fill="#fffffe"/>
    </g>
  </g>
  <g id="Group_52" data-name="Group 52" transform="translate(355 168)">
    <path id="Clip_51-2" data-name="Clip 51" d="M0,8.659,0,6.342,6.755,0l.006,8.655L0,8.659" transform="translate(0.436 0.569)" fill="none"/>
    <g id="Group_52-2" data-name="Group 52" clip-path="url(#clip-path-5)">
      <path id="Fill_50" data-name="Fill 50" d="M0,4.983,0,0,1.771,0l0,4.982H0" transform="translate(3.023 1.187)" fill="#fffffe"/>
    </g>
  </g>
  <g id="Group_55" data-name="Group 55" transform="translate(355 261)">
    <path id="Clip_54-2" data-name="Clip 54" d="M0,0,0,2.28,6.765,8.5,6.759,0,0,0" transform="translate(0.495 0.19)" fill="none"/>
    <g id="Group_55-2" data-name="Group 55" clip-path="url(#clip-path-6)">
      <path id="Fill_53" data-name="Fill 53" d="M0,4.892,0,0,1.772,0l0,4.891H0" transform="translate(3.089 3.071)" fill="#fffffe"/>
    </g>
  </g>
  <g id="Group_58" data-name="Group 58" transform="translate(352 263)">
    <path id="Clip_57-2" data-name="Clip 57" d="M0,0,2.318,0,8.659,6.648,0,6.654,0,0" transform="translate(0.647 0.017)" fill="none"/>
    <g id="Group_58-2" data-name="Group 58" clip-path="url(#clip-path-7)">
      <path id="Fill_56" data-name="Fill 56" d="M0,0,4.981,0l0,1.744L0,1.747V0" transform="translate(3.707 2.563)" fill="#fffffe"/>
    </g>
  </g>
  <g id="Group_61" data-name="Group 61" transform="translate(260 263)">
    <path id="Clip_60-2" data-name="Clip 60" d="M8.494,0,6.217,0,0,6.66l8.5-.006L8.494,0" transform="translate(0.191 0.075)" fill="none"/>
    <g id="Group_61-2" data-name="Group 61" clip-path="url(#clip-path-8)">
      <path id="Fill_59" data-name="Fill 59" d="M0,0,4.89,0l0,1.743L0,1.747V0" transform="translate(0.916 2.628)" fill="#fffffe"/>
    </g>
  </g>
  <g id="Group_64" data-name="Group 64" transform="translate(260 261)">
    <path id="Clip_63-2" data-name="Clip 63" d="M6.654,0l0,2.276L.006,8.5,0,0,6.654,0" transform="translate(0.199 0.25)" fill="none"/>
    <g id="Group_64-2" data-name="Group 64" clip-path="url(#clip-path-9)">
      <path id="Fill_62" data-name="Fill 62" d="M1.743,0l0,4.89H0L0,0H1.743" transform="translate(2.56 3.255)" fill="#fffffe"/>
    </g>
  </g>
  <path id="Fill_65" data-name="Fill 65" d="M2,0,2,5H0L0,0H2" transform="translate(144 252)" fill="#fffffe"/>
  <path id="Fill_66" data-name="Fill 66" d="M2,0,2,5H0L0,0,2,0" transform="translate(144 240)" fill="#fffffe"/>
  <path id="Fill_67" data-name="Fill 67" d="M1.995,0,2,5,0,5,0,0H1.995" transform="translate(144 228)" fill="#fffffe"/>
  <path id="Fill_68" data-name="Fill 68" d="M2,0,2,5H.005L0,0H2" transform="translate(144 216)" fill="#fffffe"/>
  <path id="Fill_69" data-name="Fill 69" d="M2,0,2,5H0L0,0,2,0" transform="translate(144 205)" fill="#fffffe"/>
  <path id="Fill_70" data-name="Fill 70" d="M2,0,2,5,0,5,0,0H2" transform="translate(144 193)" fill="#fffffe"/>
  <path id="Fill_71" data-name="Fill 71" d="M2,0,2,5H.005L0,0H2" transform="translate(144 181)" fill="#fffffe"/>
  <path id="Fill_72" data-name="Fill 72" d="M5,2,0,2V.005L5,0V2" transform="translate(154 170)" fill="#fffffe"/>
  <path id="Fill_73" data-name="Fill 73" d="M5,2,0,2V0L5,0V2" transform="translate(166 170)" fill="#fffffe"/>
  <path id="Fill_74" data-name="Fill 74" d="M5,2,0,2,0,0,5,0,5,2" transform="translate(178 170)" fill="#fffffe"/>
  <path id="Fill_75" data-name="Fill 75" d="M5,2,0,2V.005L5,0V2" transform="translate(190 170)" fill="#fffffe"/>
  <path id="Fill_76" data-name="Fill 76" d="M5,1.995,0,2V0L5,0V1.995" transform="translate(202 170)" fill="#fffffe"/>
  <path id="Fill_77" data-name="Fill 77" d="M5,2,0,2,0,0,5,0,5,2" transform="translate(214 170)" fill="#fffffe"/>
  <path id="Fill_78" data-name="Fill 78" d="M5,2,0,2,0,0,5,0V2" transform="translate(226 170)" fill="#fffffe"/>
  <path id="Fill_79" data-name="Fill 79" d="M.005,5,0,0,2,0,2,5H.005" transform="translate(240 180)" fill="#fffffe"/>
  <path id="Fill_80" data-name="Fill 80" d="M0,5,0,0H1.995L2,5H0" transform="translate(240 192)" fill="#fffffe"/>
  <path id="Fill_81" data-name="Fill 81" d="M0,5,0,0H2L2,5,0,5" transform="translate(240 204)" fill="#fffffe"/>
  <path id="Fill_82" data-name="Fill 82" d="M0,5,0,0,2,0,2,5H0" transform="translate(240 216)" fill="#fffffe"/>
  <path id="Fill_83" data-name="Fill 83" d="M0,5,0,0H2L2,5H0" transform="translate(240 228)" fill="#fffffe"/>
  <path id="Fill_84" data-name="Fill 84" d="M.005,5,0,0H2L2,5,.005,5" transform="translate(240 240)" fill="#fffffe"/>
  <path id="Fill_85" data-name="Fill 85" d="M0,5,0,0,1.995,0,2,5H0" transform="translate(240 252)" fill="#fffffe"/>
  <path id="Fill_86" data-name="Fill 86" d="M0,.005,5,0V2L0,2V.005" transform="translate(226 266)" fill="#fffffe"/>
  <path id="Fill_87" data-name="Fill 87" d="M0,0,5,0V1.995L0,2V0" transform="translate(214 266)" fill="#fffffe"/>
  <path id="Fill_88" data-name="Fill 88" d="M0,0,5,0,5,2,0,2,0,0" transform="translate(202 266)" fill="#fffffe"/>
  <path id="Fill_89" data-name="Fill 89" d="M0,.005,5,0V2L0,2V.005" transform="translate(190 266)" fill="#fffffe"/>
  <path id="Fill_90" data-name="Fill 90" d="M0,0,5,0V1.995L0,2V0" transform="translate(178 266)" fill="#fffffe"/>
  <path id="Fill_91" data-name="Fill 91" d="M0,.005,5,0,5,2,0,2,0,.005" transform="translate(167 266)" fill="#fffffe"/>
  <path id="Fill_92" data-name="Fill 92" d="M0,0,5,0V2L0,2V0" transform="translate(155 266)" fill="#fffffe"/>
  <g id="Group_95" data-name="Group 95" transform="translate(141 168)">
    <path id="Clip_94-2" data-name="Clip 94" d="M6.765,8.651l0-2.318L0,0,.006,8.655l6.759,0" transform="translate(0.363 0.636)" fill="none"/>
    <g id="Group_95-2" data-name="Group 95" clip-path="url(#clip-path-10)">
      <path id="Fill_93" data-name="Fill 93" d="M1.772,0l0,4.982H0L0,0,1.772,0" transform="translate(2.759 1.372)" fill="#fffffe"/>
    </g>
  </g>
  <g id="Group_98" data-name="Group 98" transform="translate(142 167)">
    <path id="Clip_97-2" data-name="Clip 97" d="M8.5,6.759l-2.276,0L0,.006,8.5,0l0,6.759" transform="translate(0.334 0.672)" fill="none"/>
    <g id="Group_98-2" data-name="Group 98" clip-path="url(#clip-path-11)">
      <path id="Fill_96" data-name="Fill 96" d="M4.892,1.771,0,1.774,0,0,4.891,0V1.771" transform="translate(0.939 3.071)" fill="#fffffe"/>
    </g>
  </g>
  <g id="Group_101" data-name="Group 101" transform="translate(234 167)">
    <path id="Clip_100-2" data-name="Clip 100" d="M0,6.765H2.322L8.654,0,0,.007,0,6.765" transform="translate(0.797 0.607)" fill="none"/>
    <g id="Group_101-2" data-name="Group 101" clip-path="url(#clip-path-12)">
      <path id="Fill_99" data-name="Fill 99" d="M4.983,1.772,0,1.775,0,0,4.982,0V1.772" transform="translate(3.732 3.004)" fill="#fffffe"/>
    </g>
  </g>
  <g id="Group_104" data-name="Group 104" transform="translate(236 168)">
    <path id="Clip_103-2" data-name="Clip 103" d="M0,8.659,0,6.342,6.754,0l.007,8.655L0,8.659" transform="translate(0.66 0.569)" fill="none"/>
    <g id="Group_104-2" data-name="Group 104" clip-path="url(#clip-path-13)">
      <path id="Fill_102" data-name="Fill 102" d="M0,4.983,0,0,1.772,0l0,4.982H0" transform="translate(3.247 1.187)" fill="#fffffe"/>
    </g>
  </g>
  <g id="Group_107" data-name="Group 107" transform="translate(236 261)">
    <path id="Clip_106-2" data-name="Clip 106" d="M0,0,0,2.28,6.765,8.5,6.759,0,0,0" transform="translate(0.72 0.19)" fill="none"/>
    <g id="Group_107-2" data-name="Group 107" clip-path="url(#clip-path-14)">
      <path id="Fill_105" data-name="Fill 105" d="M0,4.892,0,0,1.772,0l0,4.891H0" transform="translate(3.314 3.071)" fill="#fffffe"/>
    </g>
  </g>
  <g id="Group_110" data-name="Group 110" transform="translate(235 263)">
    <path id="Clip_109-2" data-name="Clip 109" d="M0,0,2.276,0,8.5,6.648,0,6.654,0,0" transform="translate(0.025 0.017)" fill="none"/>
    <g id="Group_110-2" data-name="Group 110" clip-path="url(#clip-path-15)">
      <path id="Fill_108" data-name="Fill 108" d="M0,0,4.89,0l0,1.744L0,1.747V0" transform="translate(3.029 2.563)" fill="#fffffe"/>
    </g>
  </g>
  <g id="Group_113" data-name="Group 113" transform="translate(142 263)">
    <path id="Clip_112-2" data-name="Clip 112" d="M8.494,0,6.217,0,0,6.66l8.5-.006L8.494,0" transform="translate(0.398 0.075)" fill="none"/>
    <g id="Group_113-2" data-name="Group 113" clip-path="url(#clip-path-16)">
      <path id="Fill_111" data-name="Fill 111" d="M0,0,4.89,0l0,1.743L0,1.747V0" transform="translate(1.123 2.628)" fill="#fffffe"/>
    </g>
  </g>
  <g id="Group_116" data-name="Group 116" transform="translate(141 261)">
    <path id="Clip_115-2" data-name="Clip 115" d="M6.759,0l0,2.276L.006,8.5,0,0,6.759,0" transform="translate(0.427 0.25)" fill="none"/>
    <g id="Group_116-2" data-name="Group 116" clip-path="url(#clip-path-17)">
      <path id="Fill_114" data-name="Fill 114" d="M1.771,0l0,4.89H0L0,0H1.771" transform="translate(2.826 3.255)" fill="#fffffe"/>
    </g>
  </g>
  <path id="Fill_117" data-name="Fill 117" d="M0,30.829V3.574S8.277-6.245,26.818,6.667s27.889,3.541,38.088,0l2.657-1.075L68,31,0,30.829" transform="translate(278 222)" fill="#2d2e43"/>
  <path id="Fill_118" data-name="Fill 118" d="M0,10.5A10.5,10.5,0,1,0,10.5,0,10.5,10.5,0,0,0,0,10.5" transform="translate(314 196)" fill="#2d2e43"/>
  <path id="Fill_119" data-name="Fill 119" d="M101.153,207,0,101.153,105.848,0,207,105.848,101.153,207" transform="translate(136 94)" fill="#fffffe"/>
  <path id="Fill_120" data-name="Fill 120" d="M150,76.7,73.3,150,0,73.3,76.7,0,150,76.7" transform="translate(164 123)" fill="#088"/>
  <path id="Fill_121" data-name="Fill 121" d="M98,83,73.754,106,0,29.4,30.994,0c8.8,1.91,17.356,6.183,21.477,15.022,10.242,21.959-8.7,41.578,14.1,46.691C81.557,65.069,92.919,73.853,98,83" transform="translate(164 167)" fill="#00a6a7"/>
  <path id="Fill_122" data-name="Fill 122" d="M0,15.637A16,16,0,1,0,16.363,0,16,16,0,0,0,0,15.637" transform="translate(255 185)" fill="#f1c526"/>
  <path id="Fill_123" data-name="Fill 123" d="M27,9.591s-5.779,1.835-10.243-7c-5.572-11.028-30.1,16.631-7.063,17.891C19.536,21.02,31.813,29,31.813,29s12.62-10.116,6.524-17.573c-2.685-3.283-7.149-1.039-7.149-1.039s5.547-4.6,3.408-5.754S28.941,9.96,28.941,9.96,27.3,3.41,25.36,5.457C23.77,7.135,27,9.591,27,9.591" transform="translate(448 126)" fill="#2d2e43"/>
  <path id="Fill_124" data-name="Fill 124" d="M68,33.8S36.043,36.631,23.9,3.737A5.7,5.7,0,0,0,19.331.085C14.086-.652,12,3.568,2.688,6.027-4.649,7.966,5.05,18.766,7.928,22.712,27.138,49.047,33.512,46.3,64.623,48L68,33.8" transform="translate(401 142)" fill="#d0176c"/>
  <path id="Fill_125" data-name="Fill 125" d="M25.208,0,0,93.63s15.583,2.781,44,2.318L42.167,36.617,25.208,0" transform="translate(437 227)" fill="#313154"/>
  <path id="Fill_126" data-name="Fill 126" d="M2.083,0,0,92.2s15.063,13.885,42,4.6L29.434,29.478,2.083,0" transform="translate(468 226)" fill="#313154"/>
  <path id="Fill_127" data-name="Fill 127" d="M57,14H0c.366-2.354,1.113-7.12,2.693-9.133C7.65-1.451,12.515.192,12.515.192L55.289,6.206S57.107,13.874,57,14" transform="translate(425 317)" fill="#2d2e43"/>
  <path id="Fill_128" data-name="Fill 128" d="M56.308,14H.7a.685.685,0,0,1-.678-.83A23.006,23.006,0,0,1,3.53,5.3,15.876,15.876,0,0,1,7.6,1.8,12.977,12.977,0,0,1,16.28.161l38.66,6a.684.684,0,0,1,.565.518c.3,1.262,1.152,4.871,1.481,6.5a.684.684,0,0,1-.679.815" transform="translate(455 317)" fill="#2d2e43"/>
  <path id="Fill_129" data-name="Fill 129" d="M.152,0C-.8.561,3,46,3,46" transform="translate(467 279)" fill="#2d2e43"/>
  <path id="Stroke_130" data-name="Stroke 130" d="M.152,0C-.8.561,3,46,3,46" transform="translate(467 279)" fill="none" stroke="#2d2e43" stroke-miterlimit="10" stroke-width="1"/>
  <path id="Fill_131" data-name="Fill 131" d="M11.656,0,16,22.845,4.344,25,0,2.156,11.656,0" transform="translate(461 158)" fill="#f1b07e"/>
  <path id="Fill_132" data-name="Fill 132" d="M11.453,0,13,8.1C10.434,11.789,5.927,14.987,2.653,17L0,3.118c.216-.386.434-.763.674-1.134L11.453,0" transform="translate(462 158)" fill="#e98966"/>
  <path id="Fill_133" data-name="Fill 133" d="M6.466,0S-3.793,14.526,1.534,29.205a3.068,3.068,0,0,0,2.258,1.961c3.772.784,13.021,2.171,15.743-2.332,3.446-5.7,9.656-19.941,4.491-24.209S6.466,0,6.466,0" transform="translate(453 138)" fill="#f1b07e"/>
  <path id="Fill_134" data-name="Fill 134" d="M.3,1.361S8.41-2.448,11.5,2.679,2.534,12.945.921,7.987.3,1.361.3,1.361" transform="translate(472 155)" fill="#f1b07e"/>
  <path id="Fill_135" data-name="Fill 135" d="M0,11.57S1.4,6.843,3.61,8.913s3.545,2.56,11.506,1.043C24.262,8.214,20.143,22,20.143,22s2.946-3.405,5.486-2.4c0,0,2.036-15.039-3.437-17.1s-18.362-3.9-20-1.008S0,11.57,0,11.57" transform="translate(454 136)" fill="#2d2e43"/>
  <path id="Fill_136" data-name="Fill 136" d="M1.826,1.726C1.515,2.545.893,3.107.436,2.983s-.573-.89-.262-1.709S1.107-.108,1.564.017s.573.89.262,1.709" transform="translate(455 151)" fill="#2d2e43"/>
  <path id="Fill_137" data-name="Fill 137" d="M1.825,1.726C1.514,2.545.892,3.108.437,2.983s-.574-.89-.263-1.709S1.107-.107,1.563.017s.574.891.262,1.709" transform="translate(465 152)" fill="#2d2e43"/>
  <path id="Fill_138" data-name="Fill 138" d="M0,0C.236.017,8,.85,8,.85S2.718,10.72.236.017" transform="translate(458 160)" fill="#fffffe"/>
  <path id="Fill_139" data-name="Fill 139" d="M10.57,1.833S12.305,8.139,21.92,0l7.157,1.623a8.449,8.449,0,0,1,4.915,3.2c7.4,9.962,33.046,46.422,18.743,54.683C36.129,69.1,0,47.883,0,47.883L5.014,10.228A10.638,10.638,0,0,1,8.488,3.687L10.57,1.833" transform="translate(454 176)" fill="#d0176c"/>
  <path id="Fill_140" data-name="Fill 140" d="M0,4.214s2.335.59,2.608-1.248C2.857,1.3,1.594,1.214,1.594,1.214s3.942-2.731,4.377,0S1.855,6.271,0,4.214" transform="translate(475 158)" fill="#e98966"/>
  <path id="Fill_141" data-name="Fill 141" d="M.515.5v.01C.5.5.485.5.485.485.5.485.515.5.515.5" transform="translate(493 343)" fill="#2d2e43"/>
  <path id="Fill_142" data-name="Fill 142" d="M107.488,136,0,107.488,28.512,0,136,28.513,107.488,136" transform="translate(416 180)" fill="#fffffe"/>
  <path id="Fill_143" data-name="Fill 143" d="M98,20.546,77.454,98,0,77.454,20.546,0,98,20.546" transform="translate(435 199)" fill="#088"/>
  <path id="Fill_144" data-name="Fill 144" d="M84,28.839,77.538,53,0,32.6,8.26,1.717c6.4-2.2,13.57-2.786,19.7,1.273C43.2,13.077,38.807,33.008,55.442,27.421,66.375,23.744,77.129,24.955,84,28.839" transform="translate(435 243)" fill="#00a6a7"/>
  <path id="Fill_145" data-name="Fill 145" d="M.185,4.09A5.5,5.5,0,1,0,6.909.185,5.5,5.5,0,0,0,.185,4.09" transform="translate(499 230)" fill="#f1c526"/>
  <path id="Fill_146" data-name="Fill 146" d="M5.784,0S-1.5,16.78.281,19.428,5.947,16.58,5.947,16.58s.02-7.209-3.043,1.775C1.013,23.9,13.329,36.877,19.652,25.418,25.394,15.012,23.8,9.778,23.8,9.778L5.784,0" transform="translate(487 228)" fill="#f1b07e"/>
  <path id="Fill_147" data-name="Fill 147" d="M0,9.206S17.991,22.9,11.757,52.451c-.434,2.056-.57,4.153.714,5.815,0,0,12.317,3.69,20.259,9.117,2.346,1.6,4.187-.131,4.255-2.742.353-13.594-4.9-49.976-27.1-64.641L0,9.206" transform="translate(477 179)" fill="#d0176c"/>
  <path id="Fill_148" data-name="Fill 148" d="M0,7A7,7,0,1,0,7,0,7,7,0,0,0,0,7" transform="translate(461 218)" fill="#f1c526"/>
  <path id="Stroke_149" data-name="Stroke 149" d="M18.649,13A5.426,5.426,0,0,1,13.3,7.512a5.353,5.353,0,1,1,10.7,0A5.427,5.427,0,0,1,18.649,13ZM5.239,10.746A5.313,5.313,0,0,1,0,5.373,5.313,5.313,0,0,1,5.239,0a5.313,5.313,0,0,1,5.239,5.373A5.313,5.313,0,0,1,5.239,10.746Z" transform="translate(449 146)" fill="none" stroke="#2d2e43" stroke-linecap="round" stroke-miterlimit="10" stroke-width="2"/>
  <path id="Fill_150" data-name="Fill 150" d="M15.963,21.995,17,8.954,13.346,1.511A2.776,2.776,0,0,0,8.851.875C7.289,2.557,5.788,4.869,6.334,7.193,7.38,11.652,9.207,17.685,9.207,17.685L0,28a29.249,29.249,0,0,0,15.963-6.005" transform="translate(402 120)" fill="#f1b07e"/>
  <path id="Stroke_151" data-name="Stroke 151" d="M0,.111,3,.89" transform="translate(460 152)" fill="none" stroke="#2d2e43" stroke-linecap="round" stroke-miterlimit="10" stroke-width="2"/>
  <path id="Fill_152" data-name="Fill 152" d="M61.083,125,0,61.083,63.917,0,125,63.918,61.083,125" transform="translate(154 45)" fill="#fffffe"/>
  <path id="Fill_153" data-name="Fill 153" d="M90,46.02,43.98,90,0,43.98,46.02,0,90,46.02" transform="translate(171 62)" fill="#088"/>
  <path id="Fill_154" data-name="Fill 154" d="M59,50.113,44.4,64,0,17.75,18.66,0c5.3,1.153,10.448,3.733,12.93,9.069,6.166,13.26-5.236,25.1,8.488,28.191C49.1,39.287,55.941,44.591,59,50.113" transform="translate(171 89)" fill="#00a6a7"/>
  <path id="Fill_155" data-name="Fill 155" d="M1.854,1.663a6,6,0,1,0,8.483.192,6,6,0,0,0-8.483-.192" transform="translate(235 102)" fill="#f1c526"/>
  <path id="Fill_156" data-name="Fill 156" d="M84.214,157,0,84.214,72.786,0,157,72.786,84.214,157" transform="translate(301 11)" fill="#fffffe"/>
  <path id="Fill_157" data-name="Fill 157" d="M113,52.387,60.612,113,0,60.613,52.388,0,113,52.387" transform="translate(323 33)" fill="#088"/>
  <path id="Fill_158" data-name="Fill 158" d="M77.5,57.89,60.948,77,0,24.427,21.155,0C27.9.812,34.641,3.426,38.377,9.807c9.283,15.853,14.209,17.062,31.7,19.29C81.581,30.557,83.9,44.782,77.5,57.89" transform="translate(322 69)" fill="#00a6a7"/>
  <path id="Fill_159" data-name="Fill 159" d="M.015,5.9A5.5,5.5,0,1,0,5.1.015,5.5,5.5,0,0,0,.015,5.9" transform="translate(377 66)" fill="#f1c526"/>
  <path id="Fill_160" data-name="Fill 160" d="M85.341,21.889a19.783,19.783,0,0,0-5.2.7,30.685,30.685,0,0,0-60.212,6.021,16.613,16.613,0,0,0-3.465-.366,16.38,16.38,0,1,0,0,32.76H84.737v-.016c.2.006.4.016.6.016a19.556,19.556,0,1,0,0-39.111" transform="translate(171)" fill="#eceef3"/>
</svg>
