<svg id="server-image" xmlns="http://www.w3.org/2000/svg" width="613" height="380" viewBox="0 0 613 380">
  <path id="Fill_3" data-name="Fill 3" d="M545.035,360H83.529A82.383,82.383,0,0,1,51.1,353.4a83.791,83.791,0,0,1-14.185-7.736,84.381,84.381,0,0,1-30.32-36.836,83.336,83.336,0,0,1,0-64.964A84.31,84.31,0,0,1,51.1,199.289a82.381,82.381,0,0,1,32.432-6.6,35.371,35.371,0,0,0,0-70.743h-42.5a36.218,36.218,0,0,1-14.258-2.9A37.1,37.1,0,0,1,7.2,99.45a36.634,36.634,0,0,1,0-28.558A37.1,37.1,0,0,1,26.766,51.3a36.218,36.218,0,0,1,14.258-2.9h99.368a14.317,14.317,0,0,0,0-28.634h-9.474a9.9,9.9,0,0,1-9.866-9.881A9.9,9.9,0,0,1,130.918,0h38.144c5.057,0,8.322,2.271,12.456,5.147a52.4,52.4,0,0,0,12.4,6.863c6.307,2.343,13.755,3.482,22.768,3.482H345.579a12.893,12.893,0,0,1,0,25.787H333.216a18.682,18.682,0,0,0,0,37.363h18.6c12.439,0,22.348.806,30.293,2.463,7.608,1.587,13.6,4,18.318,7.381a35.284,35.284,0,0,1,10.547,12.285c2.591,4.733,4.664,10.289,6.981,17.176,2.007,5.966,6.121,11.164,12.228,15.45a64.438,64.438,0,0,0,18.322,8.49,111.256,111.256,0,0,0,23.951,4.324H500.73a27.725,27.725,0,0,1,10.915,2.222,28.409,28.409,0,0,1,14.978,15,28.042,28.042,0,0,1,0,21.862,28.41,28.41,0,0,1-14.978,15,27.724,27.724,0,0,1-10.915,2.222h-8.41a27.078,27.078,0,0,0,0,54.157h52.714a50.877,50.877,0,0,1,20.029,4.076,52.125,52.125,0,0,1,27.484,27.526,51.466,51.466,0,0,1,0,40.119,52.125,52.125,0,0,1-27.484,27.526A50.877,50.877,0,0,1,545.035,360Zm23.854-157.481a28,28,0,1,1,10.942-2.213A27.9,27.9,0,0,1,568.889,202.519ZM103.231,19.762A9.881,9.881,0,1,1,113.1,9.881,9.884,9.884,0,0,1,103.231,19.762Z" transform="translate(16 20)" fill="#2f3b61"/>
  <path id="Fill_4" data-name="Fill 4" d="M21.083,29a117.476,117.476,0,0,0,50.84-17.234C98.563-4.977,44.577-2.207,0,9.8L15.9,26.1,21.083,29" transform="translate(220 103)" fill="#142629"/>
  <path id="Fill_5" data-name="Fill 5" d="M84.066,41.486C74.917,49.153,51.322,64.1,28.339,80.16L3.772,88,0,73.044C18.491,47.136,42.648,20.928,63.087,8.076c35.861-22.546,53.086,6.5,20.979,33.409" transform="translate(203 58)" fill="#20684e"/>
  <path id="Fill_6" data-name="Fill 6" d="M0,75.257C30.327,32.752,84.635.233,84.833.113a.753.753,0,0,1,1.075.316.907.907,0,0,1-.33,1.165c-.2.118-53.634,32.12-83.792,73.893L.186,76,0,75.257" transform="translate(207 70)" fill="#142629"/>
  <path id="Fill_7" data-name="Fill 7" d="M21.968,27.091C17.039,38.677,9.147,66.107,0,94.433A53.647,53.647,0,0,0,19.4,124C38.322,97.81,55.28,67.451,62.049,43.238,75.3-4.158,40.734-17.016,21.968,27.091" transform="translate(214 12)" fill="#9dc268"/>
  <path id="Fill_8" data-name="Fill 8" d="M1.147,100C28.009,55.842,41.909,1.429,41.967,1.2A.956.956,0,0,0,41.351.034.889.889,0,0,0,40.257.7C40.2.927,26.456,54.71,0,98.453q.561.784,1.147,1.547" transform="translate(223 26)" fill="#5a904e"/>
  <path id="Fill_9" data-name="Fill 9" d="M41.818,35.66c-.833,11.943-6.5,39.382-10.927,67.151L19.369,126,5.831,118.3C-.063,86.915-2.2,51.229,2.778,27.528,11.514-14.053,44.743-6.254,41.818,35.66" transform="translate(197 4)" fill="#20684e"/>
  <path id="Fill_10" data-name="Fill 10" d="M3.221,113.62C-6.3,62.406,8.325.818,8.378.593A.766.766,0,0,1,9.365.036a.9.9,0,0,1,.614,1.042C9.927,1.3-4.466,61.907,4.647,112.493L3.894,114l-.672-.38" transform="translate(213 16)" fill="#142629"/>
  <path id="Fill_11" data-name="Fill 11" d="M114.331,52.76C105.06,57.921,86.275,65.785,64.688,75H.153L0,72.3C29.781,43.938,66.821,16.572,95.884,5.249c50.989-19.865,65.741,21.191,18.447,47.511" transform="translate(187 304)" fill="#20684e"/>
  <path id="Fill_12" data-name="Fill 12" d="M0,58C47.841,21.543,107.411.153,107.659.063a.983.983,0,0,1,1.3.662,1.159,1.159,0,0,1-.708,1.39C108.007,2.2,50.508,22.849,3.414,58H0" transform="translate(207 321)" fill="#142629"/>
  <path id="Fill_13" data-name="Fill 13" d="M74,8C67.75-.771,40.057-4.408,0,8H74" transform="translate(251 372)" fill="#142629"/>
  <path id="Fill_14" data-name="Fill 14" d="M62.741,93c10.6-8.948,21.49-20.5,28.785-34.387C110.347,22.8,116.2,11.51,125.373,8.486,133.294,5.874,64.784-23.76,0,45.8,2.261,61.755,10.973,78.874,32.958,93H62.741" transform="translate(192 274)" fill="#49896c"/>
  <path id="Fill_15" data-name="Fill 15" d="M105.678,0C68.145,13.744,30.661,42.445,0,70.854Q.8,71.931,1.671,73C33.086,43.865,71.677,14.447,110,1.436,108.755.948,107.306.461,105.678,0" transform="translate(203 277)" fill="#20684e"/>
  <path id="Fill_16" data-name="Fill 16" d="M64.524,24.336C53.583,35.382,33.96,60.165,11.507,87.786,11.5,87.794-11.339,124.673,7.354,159c40.894-26.135,81.26-59.07,104.187-89.158,45.244-59.378,4.1-97.114-47.017-45.506" transform="translate(179 194)" fill="#9dc268"/>
  <path id="Fill_17" data-name="Fill 17" d="M.338,117C62.225,69.829,111.487,2.558,111.7,2.274a1.459,1.459,0,0,0-.206-2A1.352,1.352,0,0,0,109.566.6C109.359.878,60.892,67.057,0,113.846c.087,1.045.2,2.1.338,3.154" transform="translate(179 215)" fill="#5a904e"/>
  <path id="Fill_18" data-name="Fill 18" d="M0,39.982a158.958,158.958,0,0,1,30.367-28.5c29.785-20.808,59.381-9.131,62.207,2.13,1.154,4.595.13,15.431-5.122,28.387H3.015Q1.465,41,0,39.982" transform="translate(209 338)" fill="#9dc268"/>
  <path id="Fill_19" data-name="Fill 19" d="M10.406,38H3.623A219.651,219.651,0,0,1,28.046,24.285,150.385,150.385,0,0,1,41.752.462,1.018,1.018,0,0,1,42.513,0a.526.526,0,0,1,.418.2,1.34,1.34,0,0,1-.145,1.52l0,.006A146.334,146.334,0,0,0,30.227,23.26,180.365,180.365,0,0,1,65.521,11.035a1.3,1.3,0,0,1,.29-.034,1.047,1.047,0,0,1,.792.351,1.893,1.893,0,0,1,.384,1.45,2.891,2.891,0,0,1-1.864,2.529,169.313,169.313,0,0,0-17.776,5.147,34.756,34.756,0,0,1,9.437,8.929,1.388,1.388,0,0,1-.218,1.53.971.971,0,0,1-.715.407.535.535,0,0,1-.448-.24,34.231,34.231,0,0,0-10.788-9.648A194.917,194.917,0,0,0,19.262,32.941c1.26,1.061,3.243,2.8,5.532,5.057L21.61,38c-1.9-1.779-3.476-3.1-4.459-3.9-2.226,1.234-4.5,2.547-6.745,3.9ZM1.644,38H0c2.521-6.367,7.332-17.972,11.219-24.177a1.07,1.07,0,0,1,.83-.566.524.524,0,0,1,.354.134,1.225,1.225,0,0,1-.01,1.478C8.691,20.776,4.07,31.9,1.645,38Z" transform="translate(231 342)" fill="#5a904e"/>
  <path id="Fill_20" data-name="Fill 20" d="M0,49H47V0H0Z" transform="translate(485 331)" fill="#efac4a"/>
  <path id="Fill_21" data-name="Fill 21" d="M0,49H36V0H0Z" transform="translate(457 331)" fill="#b87a3b"/>
  <path id="Fill_22" data-name="Fill 22" d="M0,17H7V0H0Z" transform="translate(472 331)" fill="#efac4a"/>
  <path id="Fill_23" data-name="Fill 23" d="M0,7H7V0H0Z" transform="translate(472 354)" fill="#efac4a"/>
  <path id="Fill_24" data-name="Fill 24" d="M0,28H27V0H0Z" transform="translate(473 302)" fill="#efac4a"/>
  <path id="Fill_25" data-name="Fill 25" d="M0,28H21V0H0Z" transform="translate(496 302)" fill="#b87a3b"/>
  <path id="Fill_26" data-name="Fill 26" d="M0,10H4V0H0Z" transform="translate(504 302)" fill="#efac4a"/>
  <path id="Fill_27" data-name="Fill 27" d="M0,4H4V0H0Z" transform="translate(504 315)" fill="#efac4a"/>
  <path id="Fill_28" data-name="Fill 28" d="M22.5,65a1.248,1.248,0,0,1-1.089-.616L3.262,34.358A22.722,22.722,0,0,1,6.59,6.627a22.412,22.412,0,0,1,31.819,0A22.727,22.727,0,0,1,41.74,34.358L23.589,64.384A1.246,1.246,0,0,1,22.5,65Zm0-52.252a8.628,8.628,0,1,0,8.581,8.627A8.613,8.613,0,0,0,22.5,12.748Z" transform="translate(472 230)" fill="#d13875"/>
  <path id="Fill_29" data-name="Fill 29" d="M8.772,21.375A8.7,8.7,0,0,1,0,30V65a1.272,1.272,0,0,0,1.113-.616L19.668,34.359A22.26,22.26,0,0,0,23,22.624,22.815,22.815,0,0,0,0,0V12.747a8.7,8.7,0,0,1,8.772,8.627" transform="translate(495 230)" fill="#a83364"/>
  <path id="Fill_30" data-name="Fill 30" d="M2.239,33.939A1.12,1.12,0,0,1,0,33.825C.894,16.474,4.892,6.532,9.647,2.4A8.71,8.71,0,0,1,16.33.04a10.345,10.345,0,0,1,6.324,3.386c4.785,4.953,8.179,15.231,7.166,28.639a1.122,1.122,0,0,1-2.238-.167c.962-12.729-2.144-22.365-6.543-26.92a8.162,8.162,0,0,0-4.928-2.711,6.551,6.551,0,0,0-4.99,1.824C6.771,7.872,3.1,17.276,2.239,33.939" transform="translate(318 267)" fill="#0d0e11"/>
  <path id="Fill_31" data-name="Fill 31" d="M7.038,0S5.592.1,5.244,2.179.06,77.94.06,77.94-.986,82,5.642,82H65.357c6.63,0,5.582-4.06,5.582-4.06S66.1,4.259,65.756,2.179,63.961,0,63.961,0H7.038" transform="translate(298 297)" fill="#e3822d"/>
  <path id="Fill_32" data-name="Fill 32" d="M7.039,0s-1.445.1-1.8,2.179S.06,77.94.06,77.94-.986,82,5.643,82H65.358c6.629,0,5.582-4.06,5.582-4.06S66.105,4.259,65.756,2.179,63.962,0,63.962,0H7.039" transform="translate(306 297)" fill="#f3bb27"/>
  <path id="Fill_33" data-name="Fill 33" d="M3.572,53H34.427c6.547,0,5.513-4.05,5.513-4.05S38.173,21.766,36.712,0H4.505S3.579.064,3.356,1.408.039,50.375.039,50.375-.627,52.983,3.572,53" transform="translate(336 326)" fill="#e3822d"/>
  <path id="Fill_34" data-name="Fill 34" d="M29,33.6a1.088,1.088,0,1,1-2.176.042C26.462,17.2,23.375,7.908,19.463,4.1a5.8,5.8,0,0,0-4.7-1.884A8.273,8.273,0,0,0,9.842,5.034c-4.65,4.878-8.2,15.33-7.6,28.824a1.089,1.089,0,1,1-2.175.094c-.637-14.126,3.2-25.187,8.2-30.437A10.366,10.366,0,0,1,14.538.041a7.866,7.866,0,0,1,6.436,2.484C25.253,6.688,28.622,16.5,29,33.6" transform="translate(330 269)" fill="#101324"/>
  <path id="Fill_35" data-name="Fill 35" d="M19.433,24.242A.784.784,0,1,0,21,24.161c-.624-12.394-3.422-19.5-6.752-22.448A6.026,6.026,0,0,0,9.568.028,7.2,7.2,0,0,0,5.142,2.446C1.793,5.986-.584,13.327.126,22.9a.79.79,0,0,0,.842.738.794.794,0,0,0,.724-.856c-.674-9.092,1.5-15.976,4.579-19.23A5.688,5.688,0,0,1,9.722,1.618a4.53,4.53,0,0,1,3.493,1.3c3.046,2.7,5.618,9.418,6.218,21.319" transform="translate(359 305)" fill="#0d0e11"/>
  <path id="Fill_36" data-name="Fill 36" d="M40.538,0s.917.063,1.137,1.382,3.286,48.043,3.286,48.043S45.624,52,41.424,52H3.576c-4.2,0-3.538-2.575-3.538-2.575S3.1,2.7,3.322,1.382,4.461,0,4.461,0H40.538" transform="translate(346 327)" fill="#a83364"/>
  <path id="Fill_37" data-name="Fill 37" d="M40.539,0s.917.063,1.137,1.382,3.285,48.043,3.285,48.043S45.625,52,41.424,52H3.576c-4.2,0-3.538-2.575-3.538-2.575S3.1,2.7,3.323,1.382,4.461,0,4.461,0H40.539" transform="translate(341 327)" fill="#d94882"/>
  <path id="Fill_38" data-name="Fill 38" d="M0,24a.788.788,0,0,0,1.576.031c.262-11.747,2.5-18.385,5.33-21.1a4.231,4.231,0,0,1,3.406-1.345,6.011,6.011,0,0,1,3.561,2.008c3.368,3.484,5.942,10.951,5.5,20.59a.789.789,0,0,0,1.576.067c.461-10.091-2.315-17.992-5.94-21.741A7.537,7.537,0,0,0,10.472.03,5.735,5.735,0,0,0,5.812,1.8C2.713,4.777.273,11.789,0,24" transform="translate(351 306)" fill="#101324"/>
  <path id="Fill_39" data-name="Fill 39" d="M62.688,0H7.313A7.352,7.352,0,0,0,0,7.348v51.83a.806.806,0,0,0,.5.758.8.8,0,0,0,.89-.178l12.463-12.52H62.688A7.351,7.351,0,0,0,70,39.89V7.348A7.351,7.351,0,0,0,62.688,0" transform="translate(418 41)" fill="#d94882"/>
  <path id="Fill_40" data-name="Fill 40" d="M23.448,33a4.766,4.766,0,0,1-3.369-1.377A4.64,4.64,0,0,1,18.685,28.3a4.588,4.588,0,0,1,.465-2.025H14.018a4.64,4.64,0,0,1-.931,5.346,4.8,4.8,0,0,1-6.735,0,4.648,4.648,0,0,1-.929-5.349H4.878a1.338,1.338,0,1,1,0-2.677H22.512l.726-1.928H8.132a4.2,4.2,0,0,1-2.4-.834,4.433,4.433,0,0,1-1.57-1.986L.221,8.409A3.248,3.248,0,0,1,0,7.269,2.627,2.627,0,0,1,.438,5.805a2.528,2.528,0,0,1,1.245-.962,3.01,3.01,0,0,1,1.044-.184H28.616a3.059,3.059,0,0,1,.977.157L31.08.872A1.358,1.358,0,0,1,32.345,0V0h5.3A1.348,1.348,0,0,1,39,1.337a1.349,1.349,0,0,1-1.356,1.338H33.283l-2.1,5.557c-.018.06-.04.119-.061.176l-.044.1-.207.551-.014.032L28.41,15.6l-.012.032-1.214,3.222-.014.037-1.911,5.066A4.77,4.77,0,0,1,26.8,24.968l.014.013a4.643,4.643,0,0,1,0,6.64A4.768,4.768,0,0,1,23.448,33Zm-.027-6.726A2.053,2.053,0,0,0,22,26.867l-.053.051A2.014,2.014,0,0,0,22,29.732a2.08,2.08,0,0,0,2.9,0,2.019,2.019,0,0,0,.005-2.869l-.005,0a2.047,2.047,0,0,0-1.452-.589Zm-13.726,0a2.05,2.05,0,0,0-1.425.592l-.054.051a2.01,2.01,0,0,0,.054,2.814,2.079,2.079,0,0,0,2.9,0,2.019,2.019,0,0,0,.005-2.869l-.005,0a2.048,2.048,0,0,0-1.425-.589ZM6.11,16.381l.58,1.539a1.735,1.735,0,0,0,.627.764A1.46,1.46,0,0,0,8.132,19H23.211a1.464,1.464,0,0,0,.815-.311,1.764,1.764,0,0,0,.617-.737l.006-.014,0-.014.58-1.539H13.487a.892.892,0,1,1,0-1.784H25.9l1.082-2.866h-4.95a.892.892,0,1,1,0-1.783h5.621l.672-1.783.013-.032.206-.545.035-.109a.825.825,0,0,0,.04-.144H2.716a.655.655,0,0,0,.037.144l.931,2.47H15.341a.892.892,0,1,1,0,1.783H4.356L5.438,14.6h4.969a.892.892,0,1,1,0,1.784Zm13.207-4.65h-1.2a.892.892,0,1,1,0-1.783h1.2a.892.892,0,1,1,0,1.783Z" transform="translate(438 47)" fill="#fffffe"/>
  <path id="Fill_41" data-name="Fill 41" d="M36.286,35c-.463,0-.711-.322-1.006-.915l-.065-.128a11.342,11.342,0,0,0-2.821-3.314,4.72,4.72,0,0,0-2.834-1.066H16.232a3.492,3.492,0,0,1-2.514-1.068,3.656,3.656,0,0,1-1.046-2.574V24.3H10.778a6.805,6.805,0,0,0-4.1,1.53,16.034,16.034,0,0,0-4,4.738l-.041.088c-.048.092-.09.178-.131.262-.208.426-.346.707-.741.707a2.355,2.355,0,0,1-.884-.254C.1,31.084-.024,30.695,0,29.931L0,4.411A4.428,4.428,0,0,1,1.266,1.3l0-.006A4.231,4.231,0,0,1,4.313,0h24.4a4.215,4.215,0,0,1,3.046,1.3,4.431,4.431,0,0,1,1.264,3.11v6.383h1.338a3.517,3.517,0,0,1,2.515,1.069,3.656,3.656,0,0,1,1.044,2.572c0,2.03.019,4.152.038,6.2.038,4.239.078,8.619-.04,12.757a1.142,1.142,0,0,1-.84,1.393A2.063,2.063,0,0,1,36.286,35ZM15.439,24.3h0v1.636a.816.816,0,0,0,.235.572.777.777,0,0,0,.557.238H29.56a7.363,7.363,0,0,1,4.466,1.619,10.943,10.943,0,0,1,1.131.982V14.435a.844.844,0,0,0-.233-.576.785.785,0,0,0-.56-.234H33.026v6.263A4.428,4.428,0,0,1,31.761,23,4.234,4.234,0,0,1,28.715,24.3H15.439ZM4.313,2.831a1.518,1.518,0,0,0-1.093.463,1.594,1.594,0,0,0-.453,1.117V25.683a15.553,15.553,0,0,1,2.283-2.132,9.461,9.461,0,0,1,5.728-2.083H28.715A1.532,1.532,0,0,0,29.8,21a1.588,1.588,0,0,0,.455-1.116V4.411A1.572,1.572,0,0,0,29.8,3.3a1.526,1.526,0,0,0-1.089-.465ZM24.367,15.824H10.883a.849.849,0,0,1,0-1.7H24.367a.849.849,0,0,1,0,1.7Zm-16.626,0H6.277a.849.849,0,0,1,0-1.7H7.742a.849.849,0,0,1,0,1.7Zm19-6.552H25.28a.85.85,0,0,1,0-1.7h1.464a.85.85,0,0,1,0,1.7Zm-4.605,0H6.277a.85.85,0,0,1,0-1.7H22.139a.85.85,0,0,1,0,1.7Z" transform="translate(340 222)" fill="#fffffe"/>
  <path id="Fill_42" data-name="Fill 42" d="M1.973,0H86.026A1.968,1.968,0,0,1,88,1.95v19.1A1.968,1.968,0,0,1,86.026,23H1.973A1.968,1.968,0,0,1,0,21.05V1.95A1.968,1.968,0,0,1,1.973,0" transform="translate(473 119)" fill="#1c4571"/>
  <path id="Fill_43" data-name="Fill 43" d="M1.033,0H13.967A1.044,1.044,0,0,1,15,1.048v13.9A1.045,1.045,0,0,1,13.967,16H1.033A1.044,1.044,0,0,1,0,14.951V1.048A1.043,1.043,0,0,1,1.033,0" transform="translate(477 123)" fill="#fffffe"/>
  <path id="Fill_44" data-name="Fill 44" d="M.862,0H55.138A.941.941,0,0,1,56,1a.942.942,0,0,1-.862,1H.862A.942.942,0,0,1,0,1,.941.941,0,0,1,.862,0" transform="translate(498 124)" fill="#fffffe"/>
  <path id="Fill_45" data-name="Fill 45" d="M.862,0H55.138A.942.942,0,0,1,56,1a.941.941,0,0,1-.862,1H.862A.941.941,0,0,1,0,1,.942.942,0,0,1,.862,0" transform="translate(498 130)" fill="#fffffe"/>
  <path id="Fill_46" data-name="Fill 46" d="M.865,0h24.27A.942.942,0,0,1,26,1a.941.941,0,0,1-.864,1H.865A.942.942,0,0,1,0,1,.943.943,0,0,1,.865,0" transform="translate(498 135)" fill="#fffffe"/>
  <path id="Fill_50" data-name="Fill 50" d="M28.5,57A28.507,28.507,0,0,1,17.407,2.24,28.5,28.5,0,0,1,48.652,48.653,28.408,28.408,0,0,1,28.5,57Zm0-54.7A26.2,26.2,0,0,0,9.972,47.029,26.2,26.2,0,0,0,47.029,9.973,26.032,26.032,0,0,0,28.5,2.3Z" transform="translate(539 300)" fill="#9babca"/>
  <path id="Fill_51" data-name="Fill 51" d="M24.5,49a.434.434,0,0,1-.434-.434V46.429a.433.433,0,1,1,.866,0v2.137A.433.433,0,0,1,24.5,49Zm16.748-7.318a.428.428,0,0,1-.306-.127l-.973-.973a.433.433,0,0,1,.612-.613l.973.973a.435.435,0,0,1,0,.613A.43.43,0,0,1,41.248,41.682Zm-33.5,0a.43.43,0,0,1-.306-.127.435.435,0,0,1,0-.613l.973-.973a.433.433,0,1,1,.611.613l-.972.973A.432.432,0,0,1,7.751,41.682ZM48.568,24.933H46.429a.433.433,0,1,1,0-.866h2.138a.433.433,0,0,1,0,.866Zm-46,0H.432a.433.433,0,0,1,0-.866H2.57a.433.433,0,1,1,0,.866ZM40.276,9.158a.433.433,0,0,1-.306-.74l.973-.974a.433.433,0,0,1,.612.613l-.973.973A.429.429,0,0,1,40.276,9.158Zm-31.552,0a.426.426,0,0,1-.305-.128l-.973-.973a.433.433,0,0,1,.612-.613l.972.974a.434.434,0,0,1-.306.74ZM24.5,3a.433.433,0,0,1-.434-.432V.433a.433.433,0,1,1,.866,0V2.571A.432.432,0,0,1,24.5,3Z" transform="translate(543 304)" fill="#9babca"/>
  <path id="Fill_52" data-name="Fill 52" d="M0,20.145A.937.937,0,0,0,1,21a.936.936,0,0,0,1-.855V.856A.936.936,0,0,0,1,0,.938.938,0,0,0,0,.856V20.145" transform="translate(567 308)" fill="#9babca"/>
  <path id="Fill_53" data-name="Fill 53" d="M9.882,1.249A.805.805,0,0,0,9.553.111.924.924,0,0,0,8.337.418L.119,13.75a.807.807,0,0,0,.328,1.14.928.928,0,0,0,1.217-.308L9.882,1.249" transform="translate(559 328)" fill="#9babca"/>
  <path id="Fill_54" data-name="Fill 54" d="M2.5,5A2.5,2.5,0,1,0,0,2.5,2.5,2.5,0,0,0,2.5,5" transform="translate(565 326)" fill="#9babca"/>
  <path id="Fill_55" data-name="Fill 55" d="M34.845,65H26.183a2.1,2.1,0,0,1-.822-.166,2.166,2.166,0,0,1-1.168-1.172,2.164,2.164,0,0,1-.165-.825V55.749a.161.161,0,0,0-.13-.166l-.028-.011a23.576,23.576,0,0,1-5.307-2.267,23.836,23.836,0,0,1-4.651-3.52.164.164,0,0,0-.1-.048H13.8a.171.171,0,0,0-.094.029L7.588,53.309a2.1,2.1,0,0,1-.8.268,2.147,2.147,0,0,1-.277.018A2.153,2.153,0,0,1,5.2,53.148a2.118,2.118,0,0,1-.543-.614c-1.073-1.732-2.119-3.6-3.131-5.4-.5-.891-1.017-1.812-1.526-2.7l.082-.05a1.557,1.557,0,0,1-.035-.2,2.162,2.162,0,0,1,.427-1.6,2.146,2.146,0,0,1,.629-.556l6.115-3.544a.171.171,0,0,0,.07-.079.19.19,0,0,0,.009-.112l-.158-.648.009,0c-.058-.267-.109-.527-.154-.771-.092-.5-.166-.987-.221-1.448s-.1-.948-.131-1.456-.045-1-.045-1.468.015-.965.045-1.469.075-1,.131-1.46.131-.957.221-1.446.192-.962.305-1.421a.183.183,0,0,0-.013-.113.174.174,0,0,0-.078-.081L1.1,22.97a2.068,2.068,0,0,1-.628-.555A2.234,2.234,0,0,1,.1,21.657a2.208,2.208,0,0,1-.054-.841A2.114,2.114,0,0,1,.3,20.034c.977-1.817,2.064-3.668,3.115-5.458C3.932,13.7,4.462,12.8,4.968,11.92l.087.052c.047-.043.1-.083.144-.121a2.158,2.158,0,0,1,1.593-.429,2.106,2.106,0,0,1,.795.265l.452.262,5.671,3.29a.166.166,0,0,0,.085.023l.023,0a.17.17,0,0,0,.1-.049l.013-.015A24.646,24.646,0,0,1,16.144,13.3,23.807,23.807,0,0,1,23.9,9.414a.166.166,0,0,0,.089-.059.163.163,0,0,0,.034-.1V2.162A2.16,2.16,0,0,1,24.664.635a2.2,2.2,0,0,1,.7-.469A2.1,2.1,0,0,1,26.183,0h8.662a2.118,2.118,0,0,1,.823.166,2.225,2.225,0,0,1,.7.469A2.158,2.158,0,0,1,37,2.162V9.25a.179.179,0,0,0,.036.109.159.159,0,0,0,.094.058l.028.01a23.913,23.913,0,0,1,9.959,5.787.164.164,0,0,0,.1.046h.021a.17.17,0,0,0,.084-.022l2.019-1.169.006,0c1.359-.786,2.764-1.6,4.145-2.406a2.132,2.132,0,0,1,1.016-.258,2.185,2.185,0,0,1,1.323.449,2.1,2.1,0,0,1,.553.633c1,1.63,1.984,3.373,2.933,5.059.459.816.933,1.658,1.4,2.469a2.14,2.14,0,0,1,.269.8,2.213,2.213,0,0,1-.057.843,2.151,2.151,0,0,1-.372.759,2.116,2.116,0,0,1-.629.555c-1.319.818-2.73,1.618-4.094,2.391-.667.378-1.356.769-2.02,1.154a.153.153,0,0,0-.069.079.165.165,0,0,0-.01.108l.139.573-.008,0c.061.274.117.552.172.849.088.486.163.973.221,1.447s.1.977.129,1.455c.031.509.047,1,.047,1.47s-.016.96-.047,1.467c-.028.479-.071.969-.129,1.457-.057.46-.131.947-.221,1.447s-.193.968-.305,1.424a.162.162,0,0,0,.012.112.158.158,0,0,0,.075.081c1.522.817,3.079,1.742,4.585,2.636.712.423,1.447.86,2.164,1.276l-.079.1.068.085a2.153,2.153,0,0,1,.371.759,2.239,2.239,0,0,1,.057.843,2.108,2.108,0,0,1-.27.8L56.059,53.08l-.086-.052c-.043.04-.091.079-.144.12a2.158,2.158,0,0,1-1.593.429,2.134,2.134,0,0,1-.777-.257C52.1,52.6,50.7,51.762,49.343,50.955c-.668-.4-1.358-.808-2.026-1.2a.169.169,0,0,0-.081-.019h-.021a.172.172,0,0,0-.1.047,23.819,23.819,0,0,1-9.992,5.8.162.162,0,0,0-.088.06.152.152,0,0,0-.035.1v7.088a2.148,2.148,0,0,1-.166.825,2.12,2.12,0,0,1-.47.7,2.168,2.168,0,0,1-.7.47A2.118,2.118,0,0,1,34.845,65ZM13.8,48.457c.043,0,.087,0,.13.006a1.446,1.446,0,0,1,.87.4A22.837,22.837,0,0,0,19.2,52.2a22.418,22.418,0,0,0,4.99,2.137,1.467,1.467,0,0,1,1.114,1.416v7.088a.872.872,0,0,0,.066.333.943.943,0,0,0,.192.288.9.9,0,0,0,.286.192.853.853,0,0,0,.332.066h8.662a.853.853,0,0,0,.332-.066.866.866,0,0,0,.285-.193.9.9,0,0,0,.193-.286.856.856,0,0,0,.065-.333l0-7.088a1.483,1.483,0,0,1,.292-.877,1.453,1.453,0,0,1,.76-.522A22.344,22.344,0,0,0,41.826,52.2a22.815,22.815,0,0,0,4.406-3.334,1.448,1.448,0,0,1,.831-.4,1.414,1.414,0,0,1,.17-.01,1.467,1.467,0,0,1,.723.195c.659.382,1.351.772,2.021,1.149,1.378.776,2.8,1.579,4.1,2.4a.855.855,0,0,0,.318.107.873.873,0,0,0,.109.007.951.951,0,0,0,.239-.031.892.892,0,0,0,.311-.153.858.858,0,0,0,.224-.256l.324-.563,4.009-6.966a.876.876,0,0,0,.108-.32.933.933,0,0,0-.027-.35.864.864,0,0,0-.406-.537l-.641-.371-5.409-3.138a1.451,1.451,0,0,1-.653-.681,1.435,1.435,0,0,1-.092-.957c.115-.469.213-.923.29-1.349s.149-.9.207-1.367.1-.935.125-1.381.04-.9.04-1.393-.013-.963-.04-1.394-.068-.91-.125-1.38-.129-.943-.206-1.368-.173-.871-.29-1.348l-.141-.572.127-.042a1.326,1.326,0,0,1,.09-.3,1.443,1.443,0,0,1,.609-.688c.629-.364,1.288-.731,1.985-1.119,1.422-.791,2.892-1.608,4.124-2.426a.851.851,0,0,0,.255-.224.883.883,0,0,0,.151-.312.935.935,0,0,0,.027-.351.865.865,0,0,0-.108-.319c-.448-.778-.9-1.594-1.374-2.459-.965-1.749-1.962-3.559-2.958-5.071a.852.852,0,0,0-.224-.257.9.9,0,0,0-.311-.152.926.926,0,0,0-.237-.031.871.871,0,0,0-.1.006.823.823,0,0,0-.3.092c-1.324.816-2.732,1.616-4.093,2.389-.678.385-1.378.783-2.054,1.175a1.456,1.456,0,0,1-.727.2,1.437,1.437,0,0,1-1-.407,22.652,22.652,0,0,0-6.851-4.561,22.329,22.329,0,0,0-2.545-.91,1.479,1.479,0,0,1-.8-.515,1.449,1.449,0,0,1-.311-.9V2.162a.881.881,0,0,0-.257-.62.917.917,0,0,0-.286-.193.853.853,0,0,0-.332-.065H26.183a.853.853,0,0,0-.332.065.883.883,0,0,0-.285.194.9.9,0,0,0-.193.285.884.884,0,0,0-.066.333l0,7.088a1.473,1.473,0,0,1-.292.877,1.436,1.436,0,0,1-.758.521,22.381,22.381,0,0,0-2.591.921,22.554,22.554,0,0,0-4.756,2.758,23.123,23.123,0,0,0-2.094,1.793,1.449,1.449,0,0,1-.826.409,1.414,1.414,0,0,1-.917-.183L6.952,12.8a.866.866,0,0,0-.319-.109.856.856,0,0,0-.107-.007.939.939,0,0,0-.241.032.91.91,0,0,0-.311.152.9.9,0,0,0-.224.257c-.464.8-.931,1.654-1.425,2.556C3.376,17.409,2.4,19.2,1.418,20.656a.83.83,0,0,0-.107.321.912.912,0,0,0,.024.348.89.89,0,0,0,.151.313.825.825,0,0,0,.252.223l6.056,3.511a1.47,1.47,0,0,1,.651.678,1.447,1.447,0,0,1,.091.959c-.109.443-.206.9-.289,1.345-.077.418-.147.88-.207,1.373-.057.465-.1.929-.126,1.379s-.041.926-.041,1.393.014.935.041,1.393c.026.436.068.9.126,1.381s.127.931.207,1.369.18.9.289,1.347l.16.651-.158.032a1.394,1.394,0,0,1-.078.233,1.411,1.411,0,0,1-.608.687L1.736,43.137a.812.812,0,0,0-.249.224.933.933,0,0,0-.151.313.912.912,0,0,0-.024.348.83.83,0,0,0,.107.321c.687,1.2,1.391,2.422,2.072,3.6l.006.011c.74,1.283,1.506,2.61,2.253,3.918a.877.877,0,0,0,.536.409.963.963,0,0,0,.24.031.813.813,0,0,0,.108-.007.836.836,0,0,0,.32-.107L13,48.7A1.445,1.445,0,0,1,13.8,48.457Zm16.718-2.092A13.762,13.762,0,0,1,20.749,42.3a13.885,13.885,0,0,1,4.486-22.62,13.769,13.769,0,0,1,15.046,3.01,13.885,13.885,0,0,1-4.487,22.621A13.69,13.69,0,0,1,30.514,46.365Zm0-26.448A12.568,12.568,0,0,0,18.93,27.686a12.611,12.611,0,0,0,6.792,16.445A12.546,12.546,0,0,0,42.1,37.313a12.556,12.556,0,0,0-11.584-17.4Z" transform="translate(503 29)" fill="#bcc7db"/>
  <path id="Fill_56" data-name="Fill 56" d="M15.459,28H11.541a.69.69,0,0,1-.483-.2.656.656,0,0,1-.2-.472V24.217a.357.357,0,0,0-.281-.347A10.659,10.659,0,0,1,8.24,22.9a10.523,10.523,0,0,1-2.048-1.507.372.372,0,0,0-.454-.04L2.987,22.9a.683.683,0,0,1-.339.089.723.723,0,0,1-.181-.023.686.686,0,0,1-.418-.31l-.011-.018L.09,19.346a.658.658,0,0,1-.067-.508.669.669,0,0,1,.318-.406l2.765-1.558a.356.356,0,0,0,.174-.394,10.153,10.153,0,0,1-.23-3.732,9.642,9.642,0,0,1,.231-1.228.356.356,0,0,0-.194-.4L.341,9.569a.67.67,0,0,1-.318-.407.652.652,0,0,1,.068-.507L.1,8.635l1.947-3.29a.684.684,0,0,1,.418-.311.712.712,0,0,1,.182-.024.692.692,0,0,1,.338.088l2.767,1.56A.373.373,0,0,0,6.2,6.6a10.587,10.587,0,0,1,4.39-2.473.363.363,0,0,0,.266-.344V.668a.656.656,0,0,1,.2-.472.694.694,0,0,1,.483-.2h3.919a.7.7,0,0,1,.484.2.659.659,0,0,1,.2.472V3.783a.357.357,0,0,0,.282.347,10.6,10.6,0,0,1,4.383,2.477.373.373,0,0,0,.436.051L24.014,5.1l.015-.009a.68.68,0,0,1,.321-.079.722.722,0,0,1,.183.024.674.674,0,0,1,.418.311l.012.019,1.947,3.29a.653.653,0,0,1,.067.509.668.668,0,0,1-.319.407l-.019.012-2.746,1.546a.354.354,0,0,0-.172.393,10.154,10.154,0,0,1,.23,3.732,10.089,10.089,0,0,1-.232,1.227.357.357,0,0,0,.194.405l2.745,1.547a.669.669,0,0,1,.319.408.651.651,0,0,1-.067.508l-1.958,3.309a.681.681,0,0,1-.418.31.712.712,0,0,1-.179.023.69.69,0,0,1-.34-.089l-.021-.01-2.75-1.549a.369.369,0,0,0-.18-.047.376.376,0,0,0-.254.1A10.48,10.48,0,0,1,18.761,22.9a10.666,10.666,0,0,1-2.35.976.359.359,0,0,0-.266.343v3.115a.659.659,0,0,1-.2.472A.691.691,0,0,1,15.459,28ZM13.5,8.188a6,6,0,0,0-4.212,1.7,5.712,5.712,0,0,0,0,8.22,6.064,6.064,0,0,0,8.425,0,5.714,5.714,0,0,0,0-8.22A6,6,0,0,0,13.5,8.188Z" transform="translate(380 3)" fill="#bcc7db"/>
  <path id="Fill_57" data-name="Fill 57" d="M5,10A4.967,4.967,0,0,1,1.468,8.536l0,0A5,5,0,0,1,8.533,1.464,5,5,0,0,1,5,10ZM5,1.642A3.36,3.36,0,0,0,2.623,7.374l0,0A3.36,3.36,0,1,0,5,1.642Z" transform="translate(599 258)" fill="#9babca"/>
  <path id="Fill_58" data-name="Fill 58" d="M5,10A4.973,4.973,0,0,1,1.468,8.536l0-.005A5,5,0,1,1,8.533,1.465,5,5,0,0,1,5,10ZM5,1.643a3.351,3.351,0,1,0,2.375.981A3.339,3.339,0,0,0,5,1.643Z" transform="translate(477)" fill="#9babca"/>
  <path id="Fill_59" data-name="Fill 59" d="M5,10A4.967,4.967,0,0,1,1.468,8.536L1.462,8.53A5,5,0,0,1,8.532,1.464,5,5,0,0,1,5,10ZM5,1.642a3.351,3.351,0,1,0,2.375.982A3.337,3.337,0,0,0,5,1.642Z" transform="translate(350 82)" fill="#9babca"/>
  <path id="Fill_60" data-name="Fill 60" d="M5,10A4.974,4.974,0,0,1,1.467,8.536L1.462,8.53A5,5,0,0,1,8.533,1.465,5,5,0,0,1,5,10ZM5,1.643a3.359,3.359,0,0,0-2.378,5.73l0,0A3.359,3.359,0,1,0,5,1.643Z" transform="translate(310 192)" fill="#9babca"/>
  <path id="Fill_61" data-name="Fill 61" d="M5,10A4.968,4.968,0,0,1,1.467,8.535l0,0A5,5,0,0,1,8.531,1.464l0,0A5,5,0,0,1,5,10ZM5,1.642a3.352,3.352,0,1,0,2.375.983A3.34,3.34,0,0,0,5,1.642Z" transform="translate(467 186)" fill="#9babca"/>
  <path id="Fill_62" data-name="Fill 62" d="M5,10A4.971,4.971,0,0,1,1.468,8.536L1.462,8.53a5,5,0,0,1,7.07-7.066A5,5,0,0,1,5,10ZM5,1.642A3.36,3.36,0,0,0,2.623,7.374l0,0A3.359,3.359,0,1,0,5,1.642Z" transform="translate(446 306)" fill="#9babca"/>
  <path id="Fill_63" data-name="Fill 63" d="M5,10A4.97,4.97,0,0,1,1.468,8.536l0-.005A5,5,0,0,1,8.532,1.464,5,5,0,0,1,5,10ZM5,1.642a3.351,3.351,0,1,0,2.375.981A3.339,3.339,0,0,0,5,1.642Z" transform="translate(15 169)" fill="#9babca"/>
  <path id="Fill_64" data-name="Fill 64" d="M3.466,1.034a1.034,1.034,0,1,1,2.068,0V3.466H7.966a1.034,1.034,0,1,1,0,2.068H5.534V7.966a1.034,1.034,0,0,1-2.068,0V5.534H1.034a1.034,1.034,0,1,1,0-2.068H3.466V1.034" transform="translate(569 23)" fill="#bcc7db"/>
  <path id="Fill_65" data-name="Fill 65" d="M3.466,1.034a1.034,1.034,0,0,1,2.069,0V3.466H7.966a1.034,1.034,0,1,1,0,2.068H5.534V7.966a1.034,1.034,0,1,1-2.069,0V5.534H1.034a1.034,1.034,0,1,1,0-2.068H3.466V1.034" transform="translate(449 106)" fill="#bcc7db"/>
  <path id="Fill_66" data-name="Fill 66" d="M3.466,1.034a1.034,1.034,0,1,1,2.068,0V3.466H7.966a1.034,1.034,0,0,1,0,2.069H5.533V7.967a1.034,1.034,0,0,1-2.068,0V5.534H1.034a1.034,1.034,0,1,1,0-2.069H3.466V1.034" transform="translate(303 7)" fill="#bcc7db"/>
  <path id="Fill_67" data-name="Fill 67" d="M3.466,1.034a1.034,1.034,0,0,1,2.069,0V3.466H7.966a1.034,1.034,0,0,1,0,2.069H5.535V7.967a1.034,1.034,0,0,1-2.069,0V5.534H1.034a1.034,1.034,0,1,1,0-2.069H3.466V1.034" transform="translate(15 56)" fill="#bcc7db"/>
  <path id="Fill_69" data-name="Fill 69" d="M3.466,1.033a1.034,1.034,0,0,1,2.068,0V3.467H7.966a1.034,1.034,0,1,1,0,2.068H5.534V7.966a1.034,1.034,0,1,1-2.068,0V5.534H1.034a1.034,1.034,0,1,1,0-2.068H3.466V1.033" transform="translate(385 273)" fill="#bcc7db"/>
  <path id="Fill_70" data-name="Fill 70" d="M3.466,1.034a1.034,1.034,0,1,1,2.069,0V3.466H7.966a1.034,1.034,0,0,1,0,2.069H5.535V7.966a1.034,1.034,0,1,1-2.069,0V5.534H1.034a1.034,1.034,0,0,1,0-2.069H3.466V1.034" transform="translate(308 89)" fill="#bcc7db"/>
  <path id="Fill_72" data-name="Fill 72" d="M170.626,0H24.374A24.5,24.5,0,0,0,0,24.485v304.03A24.5,24.5,0,0,0,24.374,353H170.626A24.5,24.5,0,0,0,195,328.515V24.485A24.5,24.5,0,0,0,170.626,0" transform="translate(38 27)" fill="#0d0e11"/>
  <path id="Fill_73" data-name="Fill 73" d="M170.626,0H24.374A24.5,24.5,0,0,0,0,24.485v304.03A24.5,24.5,0,0,0,24.374,353H170.626A24.5,24.5,0,0,0,195,328.515V24.485A24.5,24.5,0,0,0,170.626,0" transform="translate(46 27)" fill="#0d0e11"/>
  <path id="Fill_74" data-name="Fill 74" d="M167.419,0A20.651,20.651,0,0,1,188,20.58V324.42A20.652,20.652,0,0,1,167.419,345H20.582A20.653,20.653,0,0,1,0,324.42V20.58A20.651,20.651,0,0,1,20.582,0H167.419" transform="translate(50 31)" fill="#101324"/>
  <path id="Fill_75" data-name="Fill 75" d="M159.231,0A12.844,12.844,0,0,1,172,12.784V316.217A12.844,12.844,0,0,1,159.231,329H12.77A12.845,12.845,0,0,1,0,316.217V12.784A12.844,12.844,0,0,1,12.77,0H159.231" transform="translate(58 39)" fill="#fffffe"/>
  <path id="Fill_76" data-name="Fill 76" d="M.721,14a.906.906,0,0,1-.335-.084c-.339-.142-.367-.272-.353-.558C-.016,11.7,0,9.948.016,8.251c.008-.82.016-1.666.016-2.478a1.431,1.431,0,0,1,.44-1.029,1.523,1.523,0,0,1,1.06-.427h.562V1.764A1.723,1.723,0,0,1,2.627.52,1.819,1.819,0,0,1,3.91,0H14.184a1.829,1.829,0,0,1,1.281.517A1.729,1.729,0,0,1,16,1.764v10.21c.012.3-.039.46-.373.575a1.031,1.031,0,0,1-.372.1c-.167,0-.225-.113-.313-.283-.017-.033-.035-.068-.055-.1l-.017-.034a6.439,6.439,0,0,0-1.683-1.9,2.96,2.96,0,0,0-1.724-.611h-.8v.654a1.425,1.425,0,0,1-.44,1.03,1.509,1.509,0,0,1-1.059.427H3.553a2.055,2.055,0,0,0-1.193.426,4.6,4.6,0,0,0-1.188,1.326l-.027.051C1.022,13.871.917,14,.721,14Zm.811-8.55a.334.334,0,0,0-.237.094.328.328,0,0,0-.1.229v5.965a4.952,4.952,0,0,1,.476-.393,3.208,3.208,0,0,1,1.88-.647H9.165a.337.337,0,0,0,.236-.1.321.321,0,0,0,.1-.229V9.72H3.91A1.829,1.829,0,0,1,2.627,9.2a1.729,1.729,0,0,1-.534-1.247V5.45ZM3.91,1.132a.653.653,0,0,0-.459.187.616.616,0,0,0-.192.445V7.955a.63.63,0,0,0,.192.446.659.659,0,0,0,.459.185h7.553a4.115,4.115,0,0,1,2.41.833,6.466,6.466,0,0,1,.962.853V1.764a.623.623,0,0,0-.19-.446.661.661,0,0,0-.461-.185Zm9.447,5.2H12.74a.34.34,0,1,1,0-.68h.616a.34.34,0,1,1,0,.68Zm-1.94,0H5.74a.34.34,0,1,1,0-.68h5.677a.34.34,0,1,1,0,.68Zm1.94-2.62H6.679a.341.341,0,1,1,0-.681h6.678a.341.341,0,1,1,0,.681Zm-8,0H4.739a.341.341,0,1,1,0-.681h.616a.341.341,0,1,1,0,.681Z" transform="translate(72 346)" fill="#9babca"/>
  <path id="Fill_77" data-name="Fill 77" d="M10.561,20H1.44A1.444,1.444,0,0,1,0,18.559V15.077a5.992,5.992,0,0,1,10.238-4.24l.032.035A5.96,5.96,0,0,1,12,15.077v3.482A1.444,1.444,0,0,1,10.561,20ZM6,10.264a4.829,4.829,0,0,0-4.81,4.812v3.482a.255.255,0,0,0,.071.177.25.25,0,0,0,.178.074h9.121a.252.252,0,0,0,.177-.073.256.256,0,0,0,.072-.178V15.077a4.784,4.784,0,0,0-1.383-3.37L9.4,11.679A4.774,4.774,0,0,0,6,10.264ZM6,8.648A4.322,4.322,0,0,1,2.947,1.269a4.32,4.32,0,0,1,7.375,3.055A4.3,4.3,0,0,1,9.056,7.381l-.036.033A4.3,4.3,0,0,1,6,8.648ZM6,1.192A3.132,3.132,0,1,0,6,7.457a3.109,3.109,0,0,0,2.186-.888l.028-.03A3.132,3.132,0,0,0,6,1.192Z" transform="translate(117 341)" fill="#9babca"/>
  <path id="Fill_78" data-name="Fill 78" d="M8.576,16H6.424a.869.869,0,0,1-.622-.261l-.049-.056a.891.891,0,0,1-.211-.573V13.734a6,6,0,0,1-1.039-.48,6.139,6.139,0,0,1-.933-.674L2.4,13.268l-.055.028a.868.868,0,0,1-.613.062.882.882,0,0,1-.534-.414L.119,11.056a.893.893,0,0,1,.32-1.214l1.176-.686c-.02-.108-.038-.221-.056-.354A6.294,6.294,0,0,1,1.507,8a6.108,6.108,0,0,1,.053-.8c.018-.134.036-.249.056-.352L.439,6.158A.877.877,0,0,1,.03,5.619a.9.9,0,0,1,.088-.676L1.194,3.059a.868.868,0,0,1,.534-.417.852.852,0,0,1,.227-.031.87.87,0,0,1,.44.121l1.176.688A5.9,5.9,0,0,1,5.543,2.265V.89A.89.89,0,0,1,5.8.263.861.861,0,0,1,6.423,0H8.576A.863.863,0,0,1,9.2.261l.048.055A.893.893,0,0,1,9.456.89V2.265a5.951,5.951,0,0,1,1.039.479,6.058,6.058,0,0,1,.933.676L12.6,2.732l.054-.03a.885.885,0,0,1,.388-.091.856.856,0,0,1,.226.03.878.878,0,0,1,.533.413l1.075,1.888a.891.891,0,0,1-.319,1.214l-1.178.687c.023.117.042.236.057.353a5.891,5.891,0,0,1,0,1.6c-.016.122-.035.241-.057.354l1.175.686a.881.881,0,0,1,.412.54.893.893,0,0,1-.089.675l-1.076,1.885a.868.868,0,0,1-1.2.327l-1.177-.688a5.984,5.984,0,0,1-1.972,1.155V15.11a.889.889,0,0,1-.257.626A.865.865,0,0,1,8.576,16ZM3.652,11.287a.566.566,0,0,1,.406.171,4.832,4.832,0,0,0,2.168,1.28.577.577,0,0,1,.464.568v1.535H8.311V13.306a.581.581,0,0,1,.427-.558,4.714,4.714,0,0,0,1.184-.494,4.834,4.834,0,0,0,1.01-.785.57.57,0,0,1,.7-.1l1.316.769.813-1.425-1.27-.742a.58.58,0,0,1-.313-.678,4.9,4.9,0,0,0,.129-.637,5.277,5.277,0,0,0,0-1.3,4.978,4.978,0,0,0-.129-.636.585.585,0,0,1,.268-.652l1.315-.769L12.95,3.865l-1.316.77a.57.57,0,0,1-.288.078.562.562,0,0,1-.4-.17,4.844,4.844,0,0,0-1.021-.8,4.78,4.78,0,0,0-1.148-.484.578.578,0,0,1-.464-.569V1.157H6.689V2.693a.582.582,0,0,1-.427.56,4.8,4.8,0,0,0-1.184.493,4.851,4.851,0,0,0-1.009.785.566.566,0,0,1-.7.1L2.05,3.866,1.238,5.289,2.52,6.04a.583.583,0,0,1,.3.67,4.966,4.966,0,0,0-.129.635A5.046,5.046,0,0,0,2.651,8a4.7,4.7,0,0,0,.168,1.29.583.583,0,0,1-.268.652l-1.314.768.813,1.426,1.317-.77A.565.565,0,0,1,3.652,11.287ZM7.5,11.1a3.015,3.015,0,0,1-2.16-.906,3.12,3.12,0,0,1,0-4.378l.036-.033a3.03,3.03,0,0,1,4.289.033,3.119,3.119,0,0,1,0,4.378A3.011,3.011,0,0,1,7.5,11.1Zm0-5.033a1.892,1.892,0,0,0-1.327.54l-.027.028a1.959,1.959,0,0,0,0,2.739,1.9,1.9,0,0,0,2.708,0,1.952,1.952,0,0,0,0-2.739A1.892,1.892,0,0,0,7.5,6.062Z" transform="translate(159 344)" fill="#9babca"/>
  <path id="Fill_79" data-name="Fill 79" d="M.607,12a.607.607,0,0,1-.43-1.036L2.422,8.718a5.373,5.373,0,1,1,8,.455l-.036.033a5.372,5.372,0,0,1-7.109.372L1.036,11.821A.6.6,0,0,1,.607,12ZM6.628,1.215A4.158,4.158,0,0,0,3.675,8.3l.012.012.013.012a4.159,4.159,0,0,0,5.84.019l.029-.031a4.157,4.157,0,0,0-2.94-7.1Z" transform="translate(204 349)" fill="#9babca"/>
  <path id="Fill_80" data-name="Fill 80" d="M3.07,0H109.93A3.082,3.082,0,0,1,113,3.075v208.85A3.082,3.082,0,0,1,109.93,215H3.07A3.081,3.081,0,0,1,0,211.925V3.075A3.081,3.081,0,0,1,3.07,0" transform="translate(66 117)" fill="#e0e7ef" stroke="#d94882" stroke-miterlimit="10" stroke-width="5"/>
  <path id="Fill_81" data-name="Fill 81" d="M17.5,3.545s8.47.7,14.886-3.545L35,1.261,18.381,42.685,17.5,44l-.881-1.315L0,1.261,2.613,0C9.029,4.246,17.5,3.545,17.5,3.545" transform="translate(105 127)" fill="#a83364"/>
  <path id="Fill_82" data-name="Fill 82" d="M17.751,0,27,2S21.276,16.17,26.242,27.98c0,0-3.931,21.57-4,22.067s.033,1.9-.069,2.269-.724.684-.724.684H3.173L0,31.959,17.751,0" transform="translate(120 127)" fill="#d13875"/>
  <path id="Fill_83" data-name="Fill 83" d="M9.258,0,0,2S5.73,16.17.759,27.98c0,0,3.934,21.57,4,22.067s-.034,1.9.069,2.269.725.684.725.684H36L9.258,0" transform="translate(99 127)" fill="#d94882"/>
  <path id="Fill_84" data-name="Fill 84" d="M21.974,1.286S.284,128.23,0,131.7s20.51,8.3,40.5,8.3,40.778-4.831,40.5-8.3S59.025,1.286,59.025,1.286L40.5,0,21.974,1.286" transform="translate(82 182)" fill="#d13875"/>
  <path id="Fill_85" data-name="Fill 85" d="M.558,0H37.442A.543.543,0,0,1,38,.525V2.474A.544.544,0,0,1,37.442,3H.558A.544.544,0,0,1,0,2.474V.525A.543.543,0,0,1,.558,0" transform="translate(104 180)" fill="#a83364"/>
  <path id="Fill_86" data-name="Fill 86" d="M3.052,0h31.9A3.087,3.087,0,0,1,38,3.1V26.9A3.087,3.087,0,0,1,34.948,30H3.052A3.087,3.087,0,0,1,0,26.9V3.1A3.087,3.087,0,0,1,3.052,0" transform="translate(186 117)" fill="#d94882"/>
  <path id="Fill_87" data-name="Fill 87" d="M1.957,6H156.042A1.918,1.918,0,0,0,158,4.135V1.865A1.919,1.919,0,0,0,156.042,0H1.957A1.919,1.919,0,0,0,0,1.865v2.27A1.918,1.918,0,0,0,1.957,6" transform="translate(66 104)" fill="#b0bed7"/>
  <path id="Fill_88" data-name="Fill 88" d="M1.957,6H156.042A1.919,1.919,0,0,0,158,4.135V1.864A1.918,1.918,0,0,0,156.042,0H1.957A1.918,1.918,0,0,0,0,1.864v2.27A1.919,1.919,0,0,0,1.957,6" transform="translate(66 91)" fill="#b0bed7"/>
  <path id="Fill_89" data-name="Fill 89" d="M1.957,6H156.042A1.918,1.918,0,0,0,158,4.135V1.865A1.918,1.918,0,0,0,156.042,0H1.957A1.918,1.918,0,0,0,0,1.865v2.27A1.918,1.918,0,0,0,1.957,6" transform="translate(66 79)" fill="#b0bed7"/>
  <path id="Fill_90" data-name="Fill 90" d="M0,2.811v15.6A16.594,16.594,0,0,0,16.5,35,16.594,16.594,0,0,0,33,18.41V2.811L18.134,0,0,2.811" transform="translate(219 58)" fill="#a83364"/>
  <path id="Fill_91" data-name="Fill 91" d="M62,23H29.07L0,0H32.93L62,23" transform="translate(190 38)" fill="#d94882"/>
  <path id="Fill_92" data-name="Fill 92" d="M0,4.49V19.76a16.5,16.5,0,0,0,33,0V4.49L12.43,0,0,4.49" transform="translate(186 57)" fill="#f4cec6"/>
  <path id="Fill_93" data-name="Fill 93" d="M62,23H29.07L0,0H32.93L62,23" transform="translate(157 38)" fill="#fffffe"/>
  <path id="Fill_94" data-name="Fill 94" d="M0,4.744V20.375A16.612,16.612,0,0,0,16.5,37,16.611,16.611,0,0,0,33,20.375V4.744L15.852,0,0,4.744" transform="translate(153 56)" fill="#a83364"/>
  <path id="Fill_95" data-name="Fill 95" d="M62,23H29.07L0,0H32.93L62,23" transform="translate(124 38)" fill="#d94882"/>
  <path id="Fill_96" data-name="Fill 96" d="M0,5.128V20.572a16.5,16.5,0,0,0,33,0V5.128L16.772,0,0,5.128" transform="translate(121 56)" fill="#f4cec6"/>
  <path id="Fill_97" data-name="Fill 97" d="M62,23H29.07L0,0H32.93L62,23" transform="translate(92 38)" fill="#fffffe"/>
  <path id="Fill_98" data-name="Fill 98" d="M0,3.081V18.549a16.5,16.5,0,0,0,33,0V3.081L13.423,0,0,3.081" transform="translate(88 58)" fill="#a83364"/>
  <path id="Fill_99" data-name="Fill 99" d="M58,23H25.232L0,2.937A12.55,12.55,0,0,1,8.043,0h21.03L58,23" transform="translate(63 38)" fill="#d94882"/>
  <path id="Fill_100" data-name="Fill 100" d="M3.052,0h31.9A3.087,3.087,0,0,1,38,3.1V26.9A3.088,3.088,0,0,1,34.948,30H3.052A3.088,3.088,0,0,1,0,26.9V3.1A3.087,3.087,0,0,1,3.052,0" transform="translate(186 236)" fill="#2569a4"/>
  <path id="Fill_101" data-name="Fill 101" d="M.491,0H37.509A.507.507,0,0,1,38,.518V4.484A.505.505,0,0,1,37.509,5H.491A.505.505,0,0,1,0,4.484V.518A.507.507,0,0,1,.491,0" transform="translate(186 151)" fill="#e2dfe1"/>
  <path id="Fill_102" data-name="Fill 102" d="M.491,0H37.509A.505.505,0,0,1,38,.516V4.482A.507.507,0,0,1,37.509,5H.491A.507.507,0,0,1,0,4.482V.516A.505.505,0,0,1,.491,0" transform="translate(186 161)" fill="#e2dfe1"/>
  <path id="Fill_103" data-name="Fill 103" d="M.491,0H37.509A.506.506,0,0,1,38,.516V4.484A.506.506,0,0,1,37.509,5H.491A.506.506,0,0,1,0,4.484V.516A.506.506,0,0,1,.491,0" transform="translate(186 172)" fill="#e2dfe1"/>
  <path id="Fill_104" data-name="Fill 104" d="M.491,0H37.509A.506.506,0,0,1,38,.517V4.484A.505.505,0,0,1,37.509,5H.491A.505.505,0,0,1,0,4.484V.517A.506.506,0,0,1,.491,0" transform="translate(186 182)" fill="#e2dfe1"/>
  <path id="Fill_105" data-name="Fill 105" d="M.491,0H37.509A.5.5,0,0,1,38,.516V4.482A.506.506,0,0,1,37.509,5H.491A.506.506,0,0,1,0,4.482V.516A.5.5,0,0,1,.491,0" transform="translate(186 193)" fill="#e2dfe1"/>
  <path id="Fill_106" data-name="Fill 106" d="M.491,0H37.509A.506.506,0,0,1,38,.518V4.483A.506.506,0,0,1,37.509,5H.491A.506.506,0,0,1,0,4.483V.518A.506.506,0,0,1,.491,0" transform="translate(186 203)" fill="#e2dfe1"/>
  <path id="Fill_107" data-name="Fill 107" d="M.491,0H37.509A.506.506,0,0,1,38,.516V4.484A.506.506,0,0,1,37.509,5H.491A.506.506,0,0,1,0,4.484V.516A.506.506,0,0,1,.491,0" transform="translate(186 214)" fill="#e2dfe1"/>
  <path id="Fill_108" data-name="Fill 108" d="M.491,0H37.509A.506.506,0,0,1,38,.517V4.484A.505.505,0,0,1,37.509,5H.491A.505.505,0,0,1,0,4.484V.517A.506.506,0,0,1,.491,0" transform="translate(186 224)" fill="#e2dfe1"/>
  <path id="Fill_109" data-name="Fill 109" d="M.491,0H37.509A.506.506,0,0,1,38,.517V4.484A.506.506,0,0,1,37.509,5H.491A.506.506,0,0,1,0,4.484V.517A.506.506,0,0,1,.491,0" transform="translate(186 275)" fill="#bcc7db"/>
  <path id="Fill_110" data-name="Fill 110" d="M.491,0H37.509A.506.506,0,0,1,38,.517V4.484A.506.506,0,0,1,37.509,5H.491A.506.506,0,0,1,0,4.484V.517A.506.506,0,0,1,.491,0" transform="translate(186 285)" fill="#bcc7db"/>
  <path id="Fill_111" data-name="Fill 111" d="M.491,0H37.509A.506.506,0,0,1,38,.516V4.483A.506.506,0,0,1,37.509,5H.491A.506.506,0,0,1,0,4.483V.516A.506.506,0,0,1,.491,0" transform="translate(186 296)" fill="#bcc7db"/>
  <path id="Fill_112" data-name="Fill 112" d="M.491,0H37.509A.505.505,0,0,1,38,.516V4.482A.507.507,0,0,1,37.509,5H.491A.507.507,0,0,1,0,4.482V.516A.505.505,0,0,1,.491,0" transform="translate(186 306)" fill="#bcc7db"/>
  <path id="Fill_113" data-name="Fill 113" d="M.491,0H37.509A.506.506,0,0,1,38,.517V4.483A.506.506,0,0,1,37.509,5H.491A.506.506,0,0,1,0,4.483V.517A.506.506,0,0,1,.491,0" transform="translate(186 317)" fill="#bcc7db"/>
  <path id="Fill_114" data-name="Fill 114" d="M.491,0H37.509A.506.506,0,0,1,38,.517V4.483A.506.506,0,0,1,37.509,5H.491A.506.506,0,0,1,0,4.483V.517A.506.506,0,0,1,.491,0" transform="translate(186 327)" fill="#bcc7db"/>
  <text id="IMG_2" data-name="IMG 2" transform="translate(190 244)" fill="#fffffe" font-size="10" font-family="OpenSans-ExtraBold, Open Sans" font-weight="800" letter-spacing="0em"><tspan x="0" y="11">IMG 2</tspan></text>
  <text id="IMG_1" data-name="IMG 1" transform="translate(190 125)" fill="#fffffe" font-size="10" font-family="OpenSans-ExtraBold, Open Sans" font-weight="800" letter-spacing="0em"><tspan x="0" y="11">IMG 1</tspan></text>
  <path id="Fill_116" data-name="Fill 116" d="M24.71,1.708C37.505-5.063,40.753,9.67,35.778,21.87S5.278,75.1,3.944,91.376c-.516,6.308-1.7,5.618-2.709,1.2C-3.807,70.511,7.1,11.029,24.71,1.708" transform="translate(48 273)" fill="#294537"/>
  <path id="Fill_117" data-name="Fill 117" d="M21.69,4.483C7.045-8.733-2.112,9.767.42,27.614s22.648,80.777,19.025,102.835c-1.4,8.549.382,8.024,3.179,2.482C36.573,105.29,41.852,22.677,21.69,4.483" transform="translate(24 214)" fill="#49896c"/>
  <path id="Fill_118" data-name="Fill 118" d="M8.063,128.579c.309.818.992.412,1.91-.948C24.984,76.78,1.6.8,1.527.559A.778.778,0,0,0,.551.036a.8.8,0,0,0-.516.992c.074.244,23.777,77.258,8.028,127.552" transform="translate(35 222)" fill="#20684e"/>
  <path id="Fill_119" data-name="Fill 119" d="M13.588,1.362C-.75-4.79-3,11.174,3.382,23.759S40.694,77.944,43.5,95.172c1.089,6.677,2.3,5.845,3.016,1.049C50.082,72.3,33.327,9.832,13.588,1.362" transform="translate(0 260)" fill="#9dc268"/>
  <path id="Fill_120" data-name="Fill 120" d="M37.794,93.786c.435.53.851.055,1.206-1.188C37.72,51,1.242.421,1.126.259A.621.621,0,1,0,.116.984c.117.164,37.093,51.432,37.678,92.8" transform="translate(6 266)" fill="#5a904e"/>
  <path id="Fill_121" data-name="Fill 121" d="M7.2,0H34.8L42,6.464,36.116,29H5.886L0,6.464,7.2,0" transform="translate(26 351)" fill="#34394e"/>
  <path id="Fill_122" data-name="Fill 122" d="M2.255,0H43.744A2.281,2.281,0,0,1,46,2.293V12.707A2.281,2.281,0,0,1,43.744,15H2.255A2.281,2.281,0,0,1,0,12.707V2.293A2.281,2.281,0,0,1,2.255,0" transform="translate(24 342)" fill="#34394e"/>
  <path id="Fill_123" data-name="Fill 123" d="M42,0,40.79,5H1.21L0,0H42" transform="translate(26 357)" fill="#101324"/>
  <path id="Fill_124" data-name="Fill 124" d="M1.015,4.07c4.616,2.078,11.321,2.718,13.673.719S15.734.152,14.6.073s-18.987-.72-13.587,4" transform="translate(358 198)" fill="#e5886b"/>
  <path id="Fill_125" data-name="Fill 125" d="M19.529,2.629c-1.074,1.191-3.759,2.256-7.28,3.007s-7.468,1.9-9.606,2.5c-2.457.692-2.928,2.368-2.506,4.6.177.94-.621,2.408.483,3.254l32.8-.519c1.2-.02,1.584-2.328,1.584-3.706V3.068C35,.312,33.389,0,31.57,0H22.752c-1.074,0-1.521.97-3.223,2.629" transform="translate(404 363)" fill="#177f7e"/>
  <path id="Fill_126" data-name="Fill 126" d="M2.014,5a.639.639,0,0,1-.554-.3L0,2.236c.41-.1.827-.191,1.246-.286L2.568,4.183a.5.5,0,0,1,.049.407.575.575,0,0,1-.312.345A.688.688,0,0,1,2.014,5ZM4.8,4.488a.638.638,0,0,1-.553-.3L2.73,1.625c.47-.1.945-.2,1.262-.259l1.363,2.3a.5.5,0,0,1,.049.409.573.573,0,0,1-.311.344A.686.686,0,0,1,4.8,4.488Zm2.788-.513a.637.637,0,0,1-.554-.3L5.493,1.071c.4-.085.822-.18,1.246-.284l1.4,2.371a.5.5,0,0,1,.05.409.574.574,0,0,1-.311.344A.688.688,0,0,1,7.588,3.975Zm2.786-.513a.639.639,0,0,1-.555-.3L8.181.393C8.613.263,9,.135,9.364,0l1.564,2.644a.5.5,0,0,1,.05.406.579.579,0,0,1-.312.347A.688.688,0,0,1,10.375,3.462Z" transform="translate(412 368)" fill="#fffffe"/>
  <path id="Fill_127" data-name="Fill 127" d="M1.015,1.931C5.631-.148,12.336-.788,14.688,1.211s1.046,4.637-.087,4.717-18.986.719-13.586-4" transform="translate(363 128)" fill="#e5886b"/>
  <path id="Fill_128" data-name="Fill 128" d="M65.729,33.761c-6.552-2.906-27.56-2.2-32.992-4.892C30.93,27.974,6.612.488,5.67.025S.648,5.655,0,7.177c0,0,17.61,37.28,27.505,40.8s25.316,4.76,27.309,3.6c8.6-5.023,17.468-14.91,10.916-17.816" transform="translate(373 129)" fill="#144847"/>
  <path id="Fill_129" data-name="Fill 129" d="M22.286.65S36.015,4.987,34.94,17.067C32.9,39.991,29.87,74.762,29.415,83.792c-.694,13.789-1.32,60.724-1.707,62.535a1.861,1.861,0,0,1-1.081,1.252c-.865.339-9.671,1.236-10.214-1.431-1.773-8.713-6.926-52.179-7.728-58.957S.1,22.6.1,22.6-.647,9.446,1.972,5.47C6.412-1.268,15.985-.248,22.286.65" transform="translate(409 219)" fill="#0d0e16"/>
  <path id="Fill_130" data-name="Fill 130" d="M1.52,1.007A1,1,0,0,1,2.514,0a1,1,0,0,1,.958,1.044c0,.212-1.257,74.132-1.5,78.872S3.991,139.766,4,139.928A1.007,1.007,0,0,1,3.07,141a1,1,0,0,1-1.019-.976C2.045,139.861-.228,84.584.019,79.8s1.5-78.579,1.5-78.791" transform="translate(428 226)" fill="#34394e"/>
  <path id="Fill_131" data-name="Fill 131" d="M5.126.387h0A7.366,7.366,0,0,0,.4,9.743L5.314,23.984a7.6,7.6,0,0,0,9.56,4.629h0a7.366,7.366,0,0,0,4.73-9.354L14.686,5.016A7.6,7.6,0,0,0,5.126.387" transform="translate(419 130)" fill="#e5886b"/>
  <path id="Fill_132" data-name="Fill 132" d="M13.576,3.391S25.528.6,28.021.2a23.3,23.3,0,0,1,6.348.038c.492.131.58.808.626,1.183s-1.1,4.091-1.126,4.45,8.182,13.751,7.2,25.7c-.321,3.9-5.882,14.963-5.486,23.976C36.4,74.106,43.158,90.912,43,91.912c-2.194,13.536-33.158,7.427-40.814.807,0,0-2.24-7.357-1.79-9.465.211-1-1.12-14.332.2-29.07A87.717,87.717,0,0,1,4.642,33.576c3.059-8.809,5.37-15.323,5.706-15.944,1.1-2.033,3.751-5.641,3.8-6.209S11.494,7.279,11.235,6.8s1.664-3.006,2.34-3.408" transform="translate(407 146)" fill="#60b2b0"/>
  <path id="Fill_133" data-name="Fill 133" d="M8,5.087,6.834.9A2.587,2.587,0,0,0,5.354.138C4.305-.077,2.757-.174,2.1.882S-.452,7.991.1,8.934A4.5,4.5,0,0,0,4.771,10.88C7,10.313,8,5.087,8,5.087" transform="translate(368 196)" fill="#144847"/>
  <path id="Fill_134" data-name="Fill 134" d="M58.432,0C51.134.2,34.8,30.443,32.8,31.463S3.5,30.171,2.335,30.155-.063,38.144,0,39.965c0,0,23.1,10.124,34.728,8.939S66.078,19.76,67.536,17.658C73.829,8.578,67.076-.226,58.432,0" transform="translate(371 168)" fill="#177f7e"/>
  <path id="Fill_135" data-name="Fill 135" d="M18.85,23.3c-.844,9.291-8.759,5.621-8.718,9.572l-.119.014c-6.771.751-7.544-2.434-7.621-3.169s-.329-4.482-.5-4.731S.114,24.916.015,23.975A77.123,77.123,0,0,1,1.668,10.53C3.02,3.542,9.206,0,9.206,0c11.652.937,7.558,16.556,9.823,15.472s4.3.593,3.566,3.53c-1.028,4.119,3.341,8.05-3.745,4.3" transform="translate(409 113)" fill="#eca77e"/>
  <path id="Fill_136" data-name="Fill 136" d="M15.28,25.527c-.005,0-4.546-1.433-2.571-8.409,0,0-6.853,1.278-9.725.154S-1.353,6.405,1.679,3,3.96,4.628,3.96,4.628,16.86-.227,22.065.008s8.851,9.039,8.819,12.337c0,0,1.056-2.39,2.75-2.263s-.853,3.478-.853,3.478,2.81,1.683,3.205,3.963c.385,2.21-7.176,12.144-9.641,17.14l-.073.166c-.538,1.238-1.965,2.27-3,1.357a5.554,5.554,0,0,1-1.9-4.839s2.462-4.64.125-5.8c0,0-1.552-1.445-3.288,1.817a11.018,11.018,0,0,0-.3,3.263,20.21,20.21,0,0,1-.979,10.652c-1.986,5.332-7.7,4.468-9.7,4.684S2.821,45.539,2.6,43.5s-.721-6.643-.8-7.341.178-1.145.374-1.16c0,0,3.324-.182,5.73-.195s4.13.136,5.441-1.24a6.72,6.72,0,0,0,2.392-5.1,8.327,8.327,0,0,0-.459-2.931" transform="translate(409 103)" fill="#101324"/>
  <path id="Fill_137" data-name="Fill 137" d="M.432,0S-.11.562.02,1.044,1.295,2.188,2.3,2.616s2.243.9,2.243.9A10.218,10.218,0,0,0,6.628,6.168c.883.548,1.312.963,1.368.794S7.476,2,6.792,1.439.432,0,.432,0" transform="translate(378 156)" fill="#e3896d"/>
  <path id="Fill_138" data-name="Fill 138" d="M1.58,8.074s2.5,2.7,3.083,3.209A10.007,10.007,0,0,0,7.8,12.514,35.761,35.761,0,0,1,13.012,14.4,28.783,28.783,0,0,1,15.285,17L19,13.069a44.533,44.533,0,0,1-4.2-3.508c-.642-.823-4.614-5.9-5.461-6.669S.65-.016.242,0s-.405,1.173.831,1.847A40.955,40.955,0,0,0,5.224,3.54s1.489,3.3,1.837,3.812c0,0-1.052.85-1.369,1.048S3.622,7.449,3.2,7.336s-1.586.29-1.617.737" transform="translate(378 153)" fill="#eca77e"/>
  <path id="Fill_139" data-name="Fill 139" d="M11,5.248,8.918,2.682a7.173,7.173,0,0,0-1.4-1.392A13.853,13.853,0,0,0,5.353.034,2.621,2.621,0,0,0,2.88,1.23C1.849,2.53-.106,4.751,0,6.089s3.187,3.606,3.447,3.9S11,5.248,11,5.248" transform="translate(390 164)" fill="#d94882"/>
  <path id="Fill_140" data-name="Fill 140" d="M0,.77S2.365,3.518,2.913,4.042A5.609,5.609,0,0,0,5,5L4.588.541c-.271.228-.562.468-.7.563-.3.2-1.956-.97-2.358-1.085S.029.316,0,.77" transform="translate(380 161)" fill="#eca77e"/>
  <path id="Fill_141" data-name="Fill 141" d="M0,39H38V0H0Z" transform="translate(369 162)" fill="#efac4a"/>
  <path id="Fill_142" data-name="Fill 142" d="M0,39H28V0H0Z" transform="translate(347 162)" fill="#b87a3b"/>
  <path id="Fill_143" data-name="Fill 143" d="M0,14H6V0H0Z" transform="translate(358 161)" fill="#efac4a"/>
  <path id="Fill_144" data-name="Fill 144" d="M0,6H6V0H0Z" transform="translate(358 180)" fill="#efac4a"/>
  <path id="Fill_145" data-name="Fill 145" d="M0,31H30V0H0Z" transform="translate(355 130)" fill="#efac4a"/>
  <path id="Fill_146" data-name="Fill 146" d="M0,31H23V0H0Z" transform="translate(380 130)" fill="#b87a3b"/>
  <path id="Fill_147" data-name="Fill 147" d="M0,11H5V0H0Z" transform="translate(389 130)" fill="#efac4a"/>
  <path id="Fill_148" data-name="Fill 148" d="M0,5H5V0H0Z" transform="translate(389 145)" fill="#efac4a"/>
  <path id="Fill_149" data-name="Fill 149" d="M2.836.032C1.575-.248-.232,1.342.025,3.125c.295,2.028,3.374,3.53,3.9,2.586C4.1,5.407,4.046.3,2.836.032" transform="translate(226 134)" fill="#e5886b"/>
  <path id="Fill_150" data-name="Fill 150" d="M.65,0A57.429,57.429,0,0,0,8.513,7.276L14,18.421,8.422,21l-.548-3.684s-3.173-1.119-4-1.579a10.315,10.315,0,0,1-2.454-2.7c-1.038-1.789.463-2.309.894-1.957a20.49,20.49,0,0,0,2.52,1.527,3.832,3.832,0,0,0,.857-2.9C5.373,8.185-2.23,1.335.65,0" transform="translate(224 126)" fill="#eca77e"/>
  <path id="Fill_151" data-name="Fill 151" d="M1.839.028l23.9,4.736a1.634,1.634,0,0,1,1.238,1.907,1.563,1.563,0,0,1-1.813,1.3L1.265,3.236A1.634,1.634,0,0,1,.027,1.33,1.562,1.562,0,0,1,1.839.028" transform="translate(227 228)" fill="#4e5058"/>
  <path id="Fill_152" data-name="Fill 152" d="M14.01,2.556c-1.456,0-3.9-1.75-5.22-2.556,0,0-4.075.68-3.395,1.459s2.97,1.232,2.97,1.232S8.027,4.717,4.8,4.557-.461,4.677.09,5.612s2.25,1.041,2.25,1.041A6,6,0,0,0,4.716,8.519c1.273.407,1.4.456,1.4.456s.6.937,3.268,1.023S17.957,7.711,18,6.773,14.01,2.556,14.01,2.556" transform="translate(238 230)" fill="#eca77e"/>
  <path id="Fill_153" data-name="Fill 153" d="M57.529,34.911c-9.566-1.839-21.9-.036-30.541-5.008C20.984,26.45,8.4,5.378,6.848.035,6.717-.416-.729,3.612.058,5.357c3.126,6.932,10.654,26.676,21.157,35.238C34.662,51.556,56.386,50.849,56.684,50.967,58.3,51.6,50.9,43,51.706,41.818s8.206-5.3,5.823-6.907" transform="translate(231 141)" fill="#e3822d"/>
  <path id="Fill_154" data-name="Fill 154" d="M6.635,0,.591,1.239S1.015,4.025.1,5.392,5.053,9,5.053,9L7.835,5.528,8,2.759,6.635,0" transform="translate(272 364)" fill="#e3896d"/>
  <path id="Fill_155" data-name="Fill 155" d="M4.595,3.077,0,11.511s4.519,51.018,5.537,56.9c1,5.762,5.465,42.347,3.865,59.359-.119,1.267-.325,1.739.565,2.022l7.02.209c1.044-.014.719-.68.712-2.183-.04-7.529,2.721-36.966,2.921-41.259A49.935,49.935,0,0,0,19.589,76.1c-.164-1.368,7.15-62.181,6.35-71.518s-21.344-1.5-21.344-1.5" transform="translate(263 237)" fill="#0d0e16"/>
  <path id="Fill_156" data-name="Fill 156" d="M0,117.975.93,118C1.47,109.444,2.2,97.335,2.5,89.922c.357-8.761-.14-18.108-.438-23.711-.123-2.321-.212-4-.193-4.7C1.938,59.08,3.994.613,4,.445A.446.446,0,0,0,3.549,0a.452.452,0,0,0-.481.418C3.063.586,1.01,58.994.94,61.488c-.021.744.067,2.432.193,4.768.3,5.593.794,14.923.438,23.636C1.269,97.28.539,109.411,0,117.975" transform="translate(277 249)" fill="#f3bb27"/>
  <path id="Fill_157" data-name="Fill 157" d="M2.057,0,0,5.655a4.644,4.644,0,0,1,2.794,4.977A3.684,3.684,0,0,0,5.615,15S12.067,8.23,12,7.53,12.9-.031,2.057,0" transform="translate(274 157)" fill="#e3896d"/>
  <path id="Fill_158" data-name="Fill 158" d="M3.525,26.919C-4.154,23.905,2.734,10.7,5.254,6.443,8.447,1.045,14.673,0,14.673,0c3.348,1.54,7.648,3.563,8.088,5.861,1.576,8.221-4.619,26.8-19.236,21.058" transform="translate(270 136)" fill="#eca77e"/>
  <path id="Fill_159" data-name="Fill 159" d="M9.482,18.809c-2.366,8.259,4.335,21.776,2.941,32.769C9.694,73.1-.126,97.123,0,98.834c.175,2.351,28.98,5.359,42.914.782a1.481,1.481,0,0,0,.928-2.025c-.65-1.466-9.182-35.9-6.747-59.582,1.142-11.1,5.206-18.517,5.769-22.539.638-4.557-.251-6.062-1.536-7.89C37.381,1.953,29.663-3.77,25.984,3.244c-4.746,9.045-15.6,12.416-16.5,15.565" transform="translate(254 163)" fill="#f3bb27"/>
  <path id="Fill_160" data-name="Fill 160" d="M26.113,0c-5.426,17.106-5.087,41.736-5.087,41.736L0,58.158,2.034,65S31.708,53.368,34.083,41.736,39,4.106,39,4.106L26.113,0" transform="translate(253 175)" fill="#e3822d"/>
  <path id="Fill_161" data-name="Fill 161" d="M3.129,9H25.662A1.478,1.478,0,0,0,27,7.38V2C27,1,25.791.157,25.791.157S22.512,2.036,16.9.12a4.2,4.2,0,0,0-2.46.111C12.8.672,1.317,5.242,1.317,5.242A2.461,2.461,0,0,0,0,7.159C0,8.393.562,8.946,3.129,9" transform="translate(254 369)" fill="#e3822d"/>
  <path id="Fill_162" data-name="Fill 162" d="M.477,0H26.523A.5.5,0,0,1,27,.519v.962A.5.5,0,0,1,26.523,2H.477A.5.5,0,0,1,0,1.481V.519A.5.5,0,0,1,.477,0" transform="translate(254 378)" fill="#fffffe"/>
  <path id="Fill_163" data-name="Fill 163" d="M16.612,14.533c-1.759,1.758-5.058,2.643-9.545.432-.107.161-.211.326-.312.5-.889,1.5-1.685,2.926-2.375,4.225,0,0-5.215-6.758-4.265-12.875S14.521-.369,17.18.1s2.683,3.6,2.683,3.6,5.827-1.254,10.374,1.92,5.377,12.7,4.4,17.408-9.936,12.052-4.9,24.37-2.324,21.434-13.668,19.3-16.884-18.1-4.158-32.512c0,0,5.8-5.452,4.96-8.985s-2.954-5.015-.255-10.659" transform="translate(269 127)" fill="#101324"/>
  <path id="Fill_164" data-name="Fill 164" d="M5.153,2.4A7.729,7.729,0,0,1,1.475,3.8,7.705,7.705,0,0,1,0,3.833c.452.173.981.362,1.475.535.908.317,1.7.577,1.7.577L3.347,6A15.476,15.476,0,0,1,5.153,4.7,24.577,24.577,0,0,1,8,3.169L6.321,0A4.509,4.509,0,0,1,6.1,1.251,2.708,2.708,0,0,1,5.153,2.4" transform="translate(229 139)" fill="#e5886b"/>
  <path id="Fill_165" data-name="Fill 165" d="M19.288,37.774c6.832-3.537,9.476-6.652,10.667-13.567.088-.51.168-1.04.241-1.593v0a101.784,101.784,0,0,1,.332-14.3A58.711,58.711,0,0,1,31.645,1.5Q31.817.733,32,0a13.615,13.615,0,0,1-2.118.477c-.033.274-.065.547-.1.823-.938,7.723-2.145,16.629-3.312,22.21a8.406,8.406,0,0,1-.369,1.256,18.87,18.87,0,0,1-5.5,7.018C15.169,36.512,7.148,40.708,1.3,43.427.871,44.989.436,46.517,0,48c3.665-2.032,8.418-4.625,13.215-7.124,1.766-.92,3.537-1.827,5.263-2.689q.415-.207.81-.413" transform="translate(261 193)" fill="#ecaa2c"/>
</svg>
