<svg xmlns="http://www.w3.org/2000/svg" xmlns:xlink="http://www.w3.org/1999/xlink" width="499.815" height="528.099" viewBox="0 0 499.815 528.099">
  <defs>
    <clipPath id="clip-path">
      <path id="Clip_2" data-name="Clip 2" d="M0,0H499.815V263.593H0Z" transform="translate(0.067 0.389)" fill="none"/>
    </clipPath>
  </defs>
  <g id="img-3" transform="translate(-0.067 4.099)">
    <g id="Group_3" data-name="Group 3" transform="translate(0 260.018)">
      <path id="Clip_2-2" data-name="Clip 2" d="M0,0H499.815V263.593H0Z" transform="translate(0.067 0.389)" fill="none"/>
      <g id="Group_3-2" data-name="Group 3" clip-path="url(#clip-path)">
        <path id="Fill_1" data-name="Fill 1" d="M73.207,224.99c97.61,51.47,255.864,51.47,353.47,0s97.607-134.918,0-186.388-255.86-51.47-353.47,0-97.61,134.918,0,186.388" transform="translate(0 0.389)" fill="rgba(0,0,0,0.04)"/>
      </g>
    </g>
    <path id="Fill_4" data-name="Fill 4" d="M128.435,54.749l2.924-3.491L42.577,0,36.563,3.472,68.1,21.677,37.82,39.158,6.013,20.794,0,24.266,90.878,76.73l.955-1.141.478.275,34.857-20.087.274.158.51-.61.742-.427-.258-.149" transform="translate(28.07 341.381)" fill="rgba(0,0,0,0.12)"/>
    <path id="Fill_5" data-name="Fill 5" d="M84.432,40.24c-19.315,9.207-50.63,9.207-69.945,0s-19.315-24.13,0-33.337,50.63-9.2,69.945,0,19.315,24.133,0,33.337" transform="translate(323.934 400.145)" fill="rgba(0,0,0,0.12)"/>
    <path id="Fill_6" data-name="Fill 6" d="M84.432,40.241c-19.315,9.207-50.63,9.207-69.945,0S-4.829,16.11,14.487,6.9s50.63-9.2,69.945,0,19.315,24.133,0,33.338" transform="translate(174.515 448.73)" fill="rgba(0,0,0,0.12)"/>
    <path id="Fill_7" data-name="Fill 7" d="M7.2,24.22c9.6,5.54,25.157,5.54,34.753,0s9.6-14.525,0-20.065-25.155-5.54-34.753,0-9.6,14.523,0,20.065" transform="translate(405.634 428.942)" fill="#d4d5cf"/>
    <path id="Fill_8" data-name="Fill 8" d="M7.2,24.22c9.6,5.541,25.155,5.541,34.753,0s9.6-14.523,0-20.064S16.794-1.385,7.2,4.156-2.4,18.68,7.2,24.22" transform="translate(49.518 434.823)" fill="rgba(0,0,0,0.12)"/>
    <path id="Fill_9" data-name="Fill 9" d="M56.214,4.326,6.37,139.975,6.359,140a1.773,1.773,0,0,1-.872.94,4.993,4.993,0,0,1-4.541,0,1.715,1.715,0,0,1-.928-1.117,1.023,1.023,0,0,1,0-.369,3.084,3.084,0,0,1,.179-.928L50.173,2.112a3.217,3.217,0,1,1,6.04,2.215" transform="translate(63.969 204.095)" fill="#253c40"/>
    <path id="Fill_10" data-name="Fill 10" d="M0,5.812,49.982,34.669l3.355-5.812L3.356,0,0,5.812" transform="translate(51.877 298.846)" fill="#253c40"/>
    <path id="Fill_11" data-name="Fill 11" d="M0,5.812,49.981,34.669l3.356-5.813L3.356,0,0,5.812" transform="translate(88.227 277.86)" fill="#253c40"/>
    <path id="Fill_12" data-name="Fill 12" d="M0,16.491,26.655,1.1A7.359,7.359,0,0,1,33.345.573a7.312,7.312,0,0,1,4.083,5.313L81.678,212.91a1.857,1.857,0,0,1,.056.426,2,2,0,0,1,.011.447,1.719,1.719,0,0,1-.928,1.106,5,5,0,0,1-4.541,0,1.921,1.921,0,0,1-.884-.961l-.045-.19L31.141,7.229a1.18,1.18,0,0,0-.414-.783,1.17,1.17,0,0,0-.85.223L3.21,22.061,0,16.491" transform="translate(79.511 182.613)" fill="#334f55"/>
    <path id="Fill_13" data-name="Fill 13" d="M17.2,35.839.969,26.464A2.139,2.139,0,0,1,0,24.786V24.4a2.138,2.138,0,0,1,.969-1.678L39.924.232a2.142,2.142,0,0,1,1.937,0L58.1,9.606a2.142,2.142,0,0,1,.969,1.678v.386a2.141,2.141,0,0,1-.969,1.678L19.142,35.839a2.142,2.142,0,0,1-1.937,0" transform="translate(105.809 361.104)" fill="#f5576c"/>
    <path id="Fill_14" data-name="Fill 14" d="M.518.811h0A1.686,1.686,0,0,1,.6.308a1.686,1.686,0,0,0-.083.5" transform="translate(105.291 384.694)" fill="#babcb8"/>
    <path id="Fill_15" data-name="Fill 15" d="M18.173,12.625a1.977,1.977,0,0,1-.968-.232L.968,3.019A2.141,2.141,0,0,1,0,1.341V.955a1.686,1.686,0,0,1,.083-.5A2.349,2.349,0,0,1,.283,0l17.89,10.33v2.3" transform="translate(105.809 384.549)" fill="#e54b5f"/>
    <path id="Fill_16" data-name="Fill 16" transform="translate(164.267 371.433)" fill="#c2c3be"/>
    <path id="Fill_17" data-name="Fill 17" d="M0,25.742v-2.3L40.61,0a1.982,1.982,0,0,1,.284.955v.386a2.156,2.156,0,0,1-.609,1.389,1.634,1.634,0,0,1-.36.289L.969,25.51l-.038.021a2,2,0,0,1-.931.21" transform="translate(123.982 371.433)" fill="#e54b5f"/>
    <path id="Fill_18" data-name="Fill 18" d="M17.2,35.84.969,26.465A2.139,2.139,0,0,1,0,24.787V24.4a2.139,2.139,0,0,1,.969-1.678L39.924.232a2.142,2.142,0,0,1,1.937,0L58.1,9.606a2.144,2.144,0,0,1,.969,1.678v.387a2.142,2.142,0,0,1-.969,1.678L19.142,35.84a2.142,2.142,0,0,1-1.937,0" transform="translate(98.768 328.182)" fill="#f5576c"/>
    <path id="Fill_19" data-name="Fill 19" transform="translate(98.83 351.629)" fill="#d0d1cb"/>
    <path id="Fill_20" data-name="Fill 20" d="M18.173,12.625a2.29,2.29,0,0,1-.412-.037,1.758,1.758,0,0,1-.557-.195L.969,3.019A2.146,2.146,0,0,1,0,1.362V.954A1.634,1.634,0,0,1,.062.523,2.27,2.27,0,0,1,.283,0l17.89,10.329v2.3" transform="translate(98.768 351.629)" fill="#e54b5f"/>
    <path id="Fill_21" data-name="Fill 21" transform="translate(116.942 338.512)" fill="#c2c3be"/>
    <path id="Fill_22" data-name="Fill 22" d="M0,25.742v-2.3L40.61,0l.027.047a1.962,1.962,0,0,1,.257.907v.387a2.142,2.142,0,0,1-.969,1.678L.969,25.51a1.778,1.778,0,0,1-.624.206A2.346,2.346,0,0,1,0,25.742" transform="translate(116.942 338.512)" fill="#e54b5f"/>
    <path id="Fill_23" data-name="Fill 23" d="M17.2,35.839.968,26.464A2.139,2.139,0,0,1,0,24.786V24.4a2.141,2.141,0,0,1,.968-1.678L39.924.232a2.142,2.142,0,0,1,1.937,0L58.1,9.606a2.142,2.142,0,0,1,.969,1.678v.387a2.144,2.144,0,0,1-.969,1.678L19.142,35.839a2.135,2.135,0,0,1-1.937,0" transform="translate(91.728 295.262)" fill="#f5576c"/>
    <path id="Fill_24" data-name="Fill 24" d="M4.626,2.611a1.589,1.589,0,0,1-.365-.15L0,0,4.261,2.46a1.571,1.571,0,0,0,.366.151" transform="translate(104.672 328.641)" fill="#d0d1cb"/>
    <path id="Fill_25" data-name="Fill 25" d="M3.858,2.227,0,0,3.858,2.227" transform="translate(100.814 326.414)" fill="#1e3438"/>
    <path id="Fill_26" data-name="Fill 26" d="M.418,1.037h0A1.98,1.98,0,0,1,.7.082a1.98,1.98,0,0,0-.283.955" transform="translate(91.31 318.625)" fill="#d0d1cb"/>
    <path id="Fill_27" data-name="Fill 27" d="M18.173,12.626a2.186,2.186,0,0,1-.6-.082,1.571,1.571,0,0,1-.366-.151L.968,3.019A2.175,2.175,0,0,1,.019,1.578,1.441,1.441,0,0,1,0,1.341V.955A1.98,1.98,0,0,1,.283,0l17.89,10.33v2.3" transform="translate(91.728 318.707)" fill="#e54b5f"/>
    <path id="Fill_28" data-name="Fill 28" transform="translate(149.827 305.591)" fill="#c2c3be"/>
    <path id="Fill_29" data-name="Fill 29" d="M0,25.743v-2.3L40.61,0a2.2,2.2,0,0,1,.125.252,1.815,1.815,0,0,1,.158.68.165.165,0,0,1,0,.023v.387a2.144,2.144,0,0,1-.969,1.678L.969,25.51l-.038.021A2,2,0,0,1,0,25.743" transform="translate(109.902 305.591)" fill="#e54b5f"/>
    <path id="Fill_30" data-name="Fill 30" d="M17.206,35.84.969,26.465A2.142,2.142,0,0,1,0,24.787V24.4a2.14,2.14,0,0,1,.969-1.677L39.925.232a2.135,2.135,0,0,1,1.937,0L58.1,9.607a2.139,2.139,0,0,1,.968,1.678v.386a2.141,2.141,0,0,1-.968,1.678L19.143,35.84a2.142,2.142,0,0,1-1.937,0" transform="translate(84.687 262.34)" fill="#f5576c"/>
    <path id="Fill_31" data-name="Fill 31" d="M0,.045H0A2.339,2.339,0,0,0,.453,0,2.339,2.339,0,0,1,0,.045" transform="translate(102.861 298.367)" fill="#c2c3be"/>
    <path id="Fill_32" data-name="Fill 32" d="M.616.672A2.233,2.233,0,0,0,.5.447,2.233,2.233,0,0,1,.616.672" transform="translate(142.969 272.223)" fill="#cccec8"/>
    <path id="Fill_33" data-name="Fill 33" d="M0,6.5H0L6.419,2.794a2.141,2.141,0,0,0,.968-1.678V.73A1.835,1.835,0,0,0,7.218,0a1.837,1.837,0,0,1,.17.73v.386a2.142,2.142,0,0,1-.969,1.678L0,6.5" transform="translate(136.367 272.895)" fill="#c2c3be"/>
    <path id="Fill_34" data-name="Fill 34" d="M0,25.742v-2.3L40.61,0a2.232,2.232,0,0,1,.114.225,1.835,1.835,0,0,1,.169.73v.386a2.141,2.141,0,0,1-.968,1.678L.969,25.51a1.7,1.7,0,0,1-.515.187s0,0,0,0A2.339,2.339,0,0,1,0,25.742" transform="translate(102.861 272.67)" fill="#e54b5f"/>
    <path id="Fill_35" data-name="Fill 35" d="M.936.624A2.138,2.138,0,0,1,.183.494a2.138,2.138,0,0,0,.753.13" transform="translate(101.926 297.787)" fill="#d0d1cb"/>
    <path id="Fill_36" data-name="Fill 36" d="M.01.5A2.086,2.086,0,0,1,.177,0,2.086,2.086,0,0,0,.01.5" transform="translate(84.707 285.953)" fill="#dbdcd6"/>
    <path id="Fill_37" data-name="Fill 37" d="M18.174,12.625a2.138,2.138,0,0,1-.753-.13,1.472,1.472,0,0,1-.216-.1L.969,3.019A2.144,2.144,0,0,1,0,1.341V.954A1.325,1.325,0,0,1,.01.793C.012.768.016.744.02.72v0c0-.01,0-.021.006-.031s0-.008,0-.012,0-.007,0-.01A2.086,2.086,0,0,1,.2.167C.224.11.253.055.284,0l17.89,10.33v2.3" transform="translate(84.687 285.786)" fill="#e54b5f"/>
    <path id="Fill_38" data-name="Fill 38" d="M27.951,42.04.969,26.464A2.138,2.138,0,0,1,0,24.786V24.4a2.138,2.138,0,0,1,.969-1.678L39.924.232a2.142,2.142,0,0,1,1.937,0L68.843,15.806a2.139,2.139,0,0,1,.969,1.678v.387a2.139,2.139,0,0,1-.969,1.678L29.888,42.04a2.142,2.142,0,0,1-1.937,0" transform="translate(66.902 223.219)" fill="#f5576c"/>
    <path id="Fill_39" data-name="Fill 39" d="M.075.675h0A1.979,1.979,0,0,0,1.044.444,1.979,1.979,0,0,1,.075.675" transform="translate(95.746 264.816)" fill="#1c3034"/>
    <path id="Fill_40" data-name="Fill 40" d="M.7,1.036A1.972,1.972,0,0,0,.418.082,1.972,1.972,0,0,1,.7,1.036" transform="translate(136.013 239.667)" fill="#cccec8"/>
    <path id="Fill_41" data-name="Fill 41" d="M0,25.742v-2.3L40.61,0a1.972,1.972,0,0,1,.283.954v.387a2.139,2.139,0,0,1-.969,1.678L.969,25.51A1.979,1.979,0,0,1,0,25.742" transform="translate(95.821 239.749)" fill="#e54b5f"/>
    <path id="Fill_42" data-name="Fill 42" d="M11.555,6.669,0,0,11.555,6.669" transform="translate(81.361 257.472)" fill="#dbdcd6"/>
    <path id="Fill_43" data-name="Fill 43" d="M2.9,1.35a1.982,1.982,0,0,1-.969-.232L0,0,1.936,1.119A1.982,1.982,0,0,0,2.9,1.35" transform="translate(92.916 264.141)" fill="#1e3438"/>
    <path id="Fill_44" data-name="Fill 44" d="M.418,1.037A1.992,1.992,0,0,1,.7.082a1.992,1.992,0,0,0-.283.955" transform="translate(66.484 246.583)" fill="#dbdcd6"/>
    <path id="Fill_45" data-name="Fill 45" d="M28.919,18.827a1.982,1.982,0,0,1-.969-.232l-1.936-1.119L.968,3.019A2.141,2.141,0,0,1,0,1.341V.955A1.992,1.992,0,0,1,.283,0L28.919,16.53v2.3" transform="translate(66.902 246.664)" fill="#e54b5f"/>
    <path id="Fill_46" data-name="Fill 46" d="M56.216,4.322,6.418,139.815l-.011.045-.112.3a2.093,2.093,0,0,1-.805.783,5.094,5.094,0,0,1-4.553,0,1.765,1.765,0,0,1-.928-1.119,2.047,2.047,0,0,1,0-.37,3.055,3.055,0,0,1,.19-.938L50.176,2.108a3.217,3.217,0,1,1,6.04,2.215" transform="translate(27.624 225.084)" fill="#253c40"/>
    <path id="Fill_47" data-name="Fill 47" d="M8.629,5.57a4.984,4.984,0,0,0-2.136,4.81L50.755,217.394a1.94,1.94,0,0,1,.067.5,1.912,1.912,0,0,1,0,.358,1.746,1.746,0,0,1-.928,1.13,5,5,0,0,1-4.541,0,1.98,1.98,0,0,1-.884-.928l-.011-.035-.056-.267L.207,11.734A11.473,11.473,0,0,1,5.419,0" transform="translate(74.092 199.104)" fill="#334f55"/>
    <path id="Fill_48" data-name="Fill 48" d="M41.414.558.358,0,0,33.529H0c-.034,3.035,1.937,6.091,5.922,8.45,7.965,4.715,20.964,4.856,29.034.313,4.072-2.292,6.1-5.338,6.1-8.4L41.414.558" transform="translate(53.659 413.201)" fill="#253c40"/>
    <path id="Fill_49" data-name="Fill 49" d="M6.1,3.317c-8.066,4.544-8.147,12.049-.181,16.765s20.965,4.856,29.035.313,8.15-12.048.181-16.764S14.169-1.225,6.1,3.317" transform="translate(54.024 401.574)" fill="#334f55"/>
    <path id="Fill_50" data-name="Fill 50" d="M37.506,10.256a5.083,5.083,0,0,1-.291,1.609c-.625,1.922-2.3,3.708-4.914,5.182A28.037,28.037,0,0,1,18.63,20.129,27.891,27.891,0,0,1,5.049,16.757C2.525,15.259.871,13.45.291,11.575A5.06,5.06,0,0,1,0,9.854c.045-2.5,1.877-4.915,5.2-6.768A27.459,27.459,0,0,1,18.853,0a27.668,27.668,0,0,1,13.6,3.374c3.283,1.943,5.07,4.378,5.048,6.879" transform="translate(55.803 403.37)" fill="#132529"/>
    <path id="Fill_51" data-name="Fill 51" d="M36.924,8.556c-.625,1.922-2.3,3.708-4.914,5.182a28.037,28.037,0,0,1-13.671,3.083A27.891,27.891,0,0,1,4.758,13.449C2.234,11.951.581,10.142,0,8.266c.625-1.922,2.3-3.709,4.914-5.16A27.69,27.69,0,0,1,18.563,0,27.927,27.927,0,0,1,32.167,3.4c2.523,1.5,4.154,3.284,4.757,5.16" transform="translate(56.094 406.678)" fill="#f5576c"/>
    <path id="Fill_52" data-name="Fill 52" d="M1.65.214c.9-.508,1.621-.082,1.61.952a3.586,3.586,0,0,1-1.651,2.79C.708,4.462-.012,4.036,0,3A3.582,3.582,0,0,1,1.65.214" transform="translate(81.646 426.108)" fill="#132529"/>
    <path id="Fill_53" data-name="Fill 53" d="M5.578,3.306C3.322,7.752-1.168,18.34,4.662,22.651c.246.179.47.334.715.491l-.022,2.144c-.581-.357-1.183-.76-1.764-1.183C-5.122,17.648,4.707,1.073,5.132.38A.826.826,0,0,1,5.623,0L5.578,3.306" transform="translate(48.372 415.792)" fill="#d4d5cf"/>
    <g id="Group_57" data-name="Group 57" transform="translate(53.691)">
      <path id="Fill_54" data-name="Fill 54" d="M30.334,1.307c-.245.513-6.589,12.643-17.021,15.078a15.244,15.244,0,0,1-3.6.424A18.14,18.14,0,0,1,0,13.771l.022-2.144c4.311,2.993,8.644,4.021,12.889,3.038C22.539,12.409,28.7.592,28.748.48A.894.894,0,0,1,29.955.1a.868.868,0,0,1,.379,1.206" transform="translate(0.035 427.307)" fill="#d4d5cf"/>
      <g id="Group_2" data-name="Group 2" transform="translate(102.309)">
        <path id="Fill_26-2" data-name="Fill 26" d="M206,6.578V175.839a6.56,6.56,0,0,1-3.282,5.682L9.848,291.131A6.585,6.585,0,0,1,0,285.421V117.558a6.556,6.556,0,0,1,3.294-5.688L196.117.89A6.587,6.587,0,0,1,206,6.578" fill="#f5576c" stroke="#c03649" stroke-miterlimit="10" stroke-width="8"/>
        <path id="Fill_27-2" data-name="Fill 27" d="M69.932,38.032C68.742,58.739,52.134,75.289,32.843,75S-1.123,57.678.068,36.968,17.864-.289,37.157,0,71.123,17.322,69.932,38.032" transform="translate(85 95)" fill="#f5a623"/>
        <path id="Fill_28-2" data-name="Fill 28" d="M101,46.9V91.573a6.516,6.516,0,0,1-3.244,5.64L0,153,35.349,45.887,51.225,0,84.7,31.693,101,46.9" transform="translate(105 84)" fill="#4f2d2d"/>
        <path id="Fill_29-2" data-name="Fill 29" d="M50,31.716,43,44.369,24.686,40.541,17.364,53,0,45.919,16.08,0,50,31.716" transform="translate(140 84)" fill="#fffffe"/>
        <path id="Fill_30-2" data-name="Fill 30" d="M164,93.542,4.087,184.131A6.546,6.546,0,0,1,0,184.946L64.446,0,164,93.542" transform="translate(6 107)" fill="#6a3b3b"/>
        <path id="Fill_31-2" data-name="Fill 31" d="M60,38.9,51.6,54.414,29.624,49.721,20.835,65,0,56.316,19.3,0,60,38.9" transform="translate(51 107)" fill="#fffffe"/>
      </g>
    </g>
    <path id="Fill_58" data-name="Fill 58" d="M0,81.819c.048-.03.1-.06.143-.087L140.691.579a5.351,5.351,0,0,1,4.843,0l4.251,2.45a4.815,4.815,0,0,1,1.573,1.584,4.824,4.824,0,0,0-1.574-1.579L145.539.584a5.35,5.35,0,0,0-4.843,0L.142,81.733c-.048.027-.1.056-.142.086" transform="translate(164.883 24.498)" fill="#fffffe"/>
    <path id="Fill_60" data-name="Fill 60" d="M.464,159.44V1.181A4.08,4.08,0,0,1,.654,0,4.155,4.155,0,0,0,.469,1.182V159.438H.464" transform="translate(162.134 109.243)" fill="#dbdcd6"/>
    <path id="Fill_61" data-name="Fill 61" d="M8.619,42.726a4.675,4.675,0,0,1-1.952-.559L2.427,39.718A5.349,5.349,0,0,1,0,35.522V0H.006V35.521a5.351,5.351,0,0,0,2.422,4.195l4.243,2.45a4.7,4.7,0,0,0,1.949.56" transform="translate(162.598 268.681)" fill="#d0d1cb"/>
    <path id="Fill_63" data-name="Fill 63" d="M16.9,79.133h0l-6.742-3.891,0-.006A1.416,1.416,0,0,1,9.593,73.5l2.885-7.8A2.8,2.8,0,0,0,11.815,63a11.785,11.785,0,0,1-1.1-1.351,1.748,1.748,0,0,0-1.41-.775,1.566,1.566,0,0,0-.86.262l-.09,7.732L1.6,64.975l.009-.005a1.167,1.167,0,0,1-.511-.837L.032,57.956a3.441,3.441,0,0,1,.95-2.79l5.663-5.206A5.194,5.194,0,0,0,8.03,47.155a38.454,38.454,0,0,1,.712-4.131,2.006,2.006,0,0,0-.106-1.179L4.082,39.217v-.008a1.647,1.647,0,0,1-.659-2.08l3.863-8.66a2.651,2.651,0,0,1,2.266-1.451l.093,0,4.109.2.1,0a3.34,3.34,0,0,0,2.5-1.322c.935-1.369,1.934-2.69,2.967-3.928a4.837,4.837,0,0,0,.995-2.942l-.382-6.08a3.583,3.583,0,0,1,1.214-2.712L27.54,5.218a1.287,1.287,0,0,1,.785-.3.935.935,0,0,1,.476.128l0-.007,6.733,3.885v.011a9.513,9.513,0,0,1-.351,1.767l.248-.072a4.2,4.2,0,0,0,2.423-1.822l4.01-7.641a2.322,2.322,0,0,1,2-1.165,1.909,1.909,0,0,1,.416.045L48.542,1a1.56,1.56,0,0,1,.445.179l0-.007L55.7,5.044l-8.991,5.7a2.793,2.793,0,0,0,.663,2.695,11.723,11.723,0,0,1,1.1,1.35,1.746,1.746,0,0,0,1.409.776,1.564,1.564,0,0,0,.862-.264l5.658-3.723a1.3,1.3,0,0,1,.706-.235.893.893,0,0,1,.466.127v-.011l6.708,3.871-5.143,4.01a3.4,3.4,0,0,1-.937,1.934l-5.662,5.207a5.2,5.2,0,0,0-1.385,2.805,38.244,38.244,0,0,1-.711,4.13A2.047,2.047,0,0,0,51.588,35.7l3.319,1.417a1.644,1.644,0,0,1,.86,2.19L51.9,47.971a2.651,2.651,0,0,1-2.266,1.452l-.093,0-4.109-.2h-.049c-.732,0-1.231.8-1.671,1.512-.1.161-.2.314-.29.453A8.28,8.28,0,0,1,41.517,53a9.994,9.994,0,0,0-1.648,1.467,4.841,4.841,0,0,0-1,2.942l.382,6.08A3.586,3.586,0,0,1,38.041,66.2l-2.069,1.627L37.156,75.3l-6.763-3.9,0,0a1.241,1.241,0,0,1-.55-.746L28.4,65.867a1.411,1.411,0,0,0-1.382-1.049,1.685,1.685,0,0,0-.634.128,20.417,20.417,0,0,1-2.626.868,4.2,4.2,0,0,0-2.423,1.822L18.734,74.11,16.9,79.132ZM36.612,22.416c-2.3,0-5.137,1.28-8.216,3.7a34.291,34.291,0,0,0-8.738,10.3c-2.293,4.208-3.193,8.242-2.6,11.668.722,4.191,3.218,6.6,6.85,6.6,2.476,0,5.228-1.135,7.96-3.283C38.78,45.956,43.389,35.624,42.138,28.36,41.467,24.471,39.556,22.416,36.612,22.416Z" transform="translate(270.492 172.399)" fill="#132529"/>
    <path id="Fill_64" data-name="Fill 64" d="M6.463,0,.864,5.148A3.3,3.3,0,0,0,0,6.762l8.317,4.8.006-.443a1.642,1.642,0,0,1,2.271.512l.008.009,8.013-4.626L6.463,0" transform="translate(270.612 222.418)" fill="#334f55"/>
    <path id="Fill_65" data-name="Fill 65" d="M12.9,7.46a34.05,34.05,0,0,1,2.06-2.849L6.984,0A2.827,2.827,0,0,1,5.811.251L1.7.047A2.6,2.6,0,0,0,0,.664L12.285,7.757l.62-.3" transform="translate(278.435 199.372)" fill="#334f55"/>
    <path id="Fill_66" data-name="Fill 66" d="M10.974,3.983a1.087,1.087,0,0,0-1.152.134L4.162,7.842a1.647,1.647,0,0,1-2.271-.515A10.993,10.993,0,0,0,.784,5.974a2.8,2.8,0,0,1-.66-2.7L.661,1.835,3.088.236A1.093,1.093,0,0,1,4.262.124V.113l6.711,3.87" transform="translate(323.807 183.742)" fill="#334f55"/>
    <path id="Fill_67" data-name="Fill 67" d="M10.628,13.669l-.188-.23a2.8,2.8,0,0,1-.663-2.695l8.991-5.7L12.055,1.171l0,.007A1.566,1.566,0,0,0,11.606,1L7.342.045a2.309,2.309,0,0,0-2.417,1.12L.915,8.806A3.431,3.431,0,0,1,0,9.831l9.059,5.23,1.568-1.393" transform="translate(307.428 172.399)" fill="#334f55"/>
    <path id="Fill_68" data-name="Fill 68" d="M0,7l8.319,4.8,6.838-6.267a10.66,10.66,0,0,0,.277-1.531L8.7.122l0,.007A1.1,1.1,0,0,0,7.442.3L1.05,5.327A3.485,3.485,0,0,0,0,7" transform="translate(290.591 177.315)" fill="#334f55"/>
    <path id="Fill_69" data-name="Fill 69" d="M15.329,76.44h0a1.91,1.91,0,0,1-.417-.045l-4.264-.953A1.426,1.426,0,0,1,9.593,73.5l2.884-7.8a2.8,2.8,0,0,0-.663-2.7,11.776,11.776,0,0,1-1.1-1.35,1.747,1.747,0,0,0-1.41-.776,1.567,1.567,0,0,0-.861.263L2.782,64.863a1.327,1.327,0,0,1-.718.24,1.022,1.022,0,0,1-.968-.971L.032,57.956a3.437,3.437,0,0,1,.951-2.789L6.646,49.96a5.2,5.2,0,0,0,1.385-2.805,38.618,38.618,0,0,1,.711-4.131A2.046,2.046,0,0,0,7.6,40.735L4.283,39.32a1.646,1.646,0,0,1-.86-2.192L7.286,28.47a2.647,2.647,0,0,1,2.266-1.451l.093,0,4.109.2.1,0a3.341,3.341,0,0,0,2.5-1.321c.934-1.369,1.933-2.69,2.967-3.928a4.837,4.837,0,0,0,.994-2.943l-.38-6.079a3.579,3.579,0,0,1,1.213-2.712l6.392-5.025a1.3,1.3,0,0,1,.791-.306,1.084,1.084,0,0,1,1.011.875l1.443,4.786a1.41,1.41,0,0,0,1.382,1.048,1.688,1.688,0,0,0,.634-.127,20.545,20.545,0,0,1,2.626-.867A4.2,4.2,0,0,0,37.85,8.806l4.01-7.641a2.323,2.323,0,0,1,2-1.165,1.909,1.909,0,0,1,.416.045L48.543,1a1.46,1.46,0,0,1,.987.72,1.46,1.46,0,0,1,.068,1.22l-2.886,7.806a2.8,2.8,0,0,0,.663,2.695,11.546,11.546,0,0,1,1.1,1.351,1.75,1.75,0,0,0,1.411.775,1.565,1.565,0,0,0,.861-.263l5.657-3.723a1.326,1.326,0,0,1,.718-.241,1.023,1.023,0,0,1,.968.971l1.063,6.177a3.431,3.431,0,0,1-.95,2.789L52.544,26.48a5.207,5.207,0,0,0-1.383,2.807,38.5,38.5,0,0,1-.712,4.13A2.045,2.045,0,0,0,51.588,35.7l3.319,1.415a1.646,1.646,0,0,1,.86,2.191L51.9,47.97a2.647,2.647,0,0,1-2.266,1.452l-.093,0-4.109-.2-.1,0a3.343,3.343,0,0,0-2.5,1.321c-.94,1.377-1.938,2.7-2.967,3.928a4.844,4.844,0,0,0-.994,2.943l.382,6.079A3.579,3.579,0,0,1,38.04,66.2l-6.389,5.023a1.3,1.3,0,0,1-.792.306,1.086,1.086,0,0,1-1.013-.875L28.4,65.866a1.41,1.41,0,0,0-1.381-1.048,1.684,1.684,0,0,0-.635.128,20.839,20.839,0,0,1-2.625.868,4.2,4.2,0,0,0-2.425,1.821L17.33,75.276A2.324,2.324,0,0,1,15.329,76.44ZM35.287,21.765c-2.476,0-5.229,1.135-7.961,3.283C20.411,30.486,15.8,40.818,17.053,48.081c.722,4.191,3.219,6.6,6.851,6.6,2.476,0,5.228-1.135,7.96-3.283,6.916-5.437,11.524-15.77,10.273-23.034C41.415,24.168,38.919,21.765,35.287,21.765Z" transform="translate(277.22 176.282)" fill="#253c40"/>
    <path id="Fill_77" data-name="Fill 77" d="M14.083,1.282V.009C13.58,1.5,11.252,7.929,7.72,11.151,4.913,13.711,1.083,16.67.108,19.524c-1.012,2.969,5.33,3.966,7.953,3.5,3.048-.54,6.991-2.27,9.138-4.906,1.509-1.853,2.47-4.051,3.547-5.51s3.562-3.085,4.144-4.773c.32-.926-.06-2.956-.51-4.672-.413-1.574-.859-3.3-1.4-3.157,0,.192,0,.971,0,.971a7.038,7.038,0,0,1-4.45,1.5c-1.3.05-4.462-.208-4.451-1.2" transform="translate(376.228 414.282)" fill="#132529"/>
    <path id="Fill_78" data-name="Fill 78" d="M.969,20.69c.871-.777,1.747-1.537,2.541-2.262,2.468-2.251,4.348-6.067,5.428-8.672a12.193,12.193,0,0,0,.934-4.683V0h8.9V8.479l-.045.022c-.428,1.849-4.512,6.77-6.833,9.978-1.556,2.151-4.511,4.887-8.044,5.358-3.347.447-5.057-.609-2.883-3.147" transform="translate(380.438 406.996)" fill="#eb9598"/>
    <path id="Fill_79" data-name="Fill 79" d="M14.083,1.282V.009c-.5,1.493-2.831,7.921-6.362,11.142-2.808,2.56-6.638,5.518-7.612,8.374-1.013,2.969,5.33,3.966,7.953,3.5,3.048-.54,6.991-2.27,9.138-4.906,1.509-1.855,2.47-4.051,3.547-5.51s3.562-3.085,4.144-4.773c.32-.927-.06-2.957-.51-4.672-.413-1.574-.859-3.3-1.4-3.157,0,.191,0,.97,0,.97a7.034,7.034,0,0,1-4.45,1.5c-1.3.05-4.462-.208-4.451-1.2" transform="translate(341.51 405.508)" fill="#132529"/>
    <path id="Fill_80" data-name="Fill 80" d="M.97,20.691c.871-.777,1.747-1.537,2.541-2.262,2.468-2.251,4.348-6.067,5.428-8.672a12.193,12.193,0,0,0,.934-4.683V0h8.9V8.48l-.045.022c-.428,1.849-4.512,6.77-6.833,9.978-1.556,2.151-4.512,4.886-8.044,5.358-3.347.446-5.058-.608-2.883-3.147" transform="translate(345.719 398.22)" fill="#eb9598"/>
    <path id="Fill_81" data-name="Fill 81" d="M45.265,2.206c6.9,15.072-.249,68.161-.249,68.161.208,2.446,3,7.258,4.046,18.022,1.232,12.719-1.932,44.654-1.932,44.654a9.632,9.632,0,0,1-8.994.358S29.652,85.3,28.057,72.658c-1.392-11.036-4.064-35.3-4.064-35.3L16.4,72.6a65.654,65.654,0,0,1,2.4,10.893c.72,7.438-6.487,42.07-6.487,42.07s-3.07,1.126-8.9.267c0,0-2.549-45.957-3.221-54.918C-.932,55.862,3.064,8.908,5.824,0L45.265,2.206" transform="translate(352.176 275.03)" fill="#253c40"/>
    <path id="Fill_82" data-name="Fill 82" d="M16.017,20,13.776,6S4.3,4.041,0,0C0,0,4.51,5.61,11.208,7.446l2.516,10.777-4.4,32.633L16.017,20" transform="translate(360.152 292.384)" fill="#132529"/>
    <path id="Fill_83" data-name="Fill 83" d="M28.7,43.272C33.921,25.888,40.584,0,38.069,0s-6.375-.232-9.2,2.609c-5.573,5.6-6.589,15.973-7.76,21.9s-2.007,10.6-3.871,19.384c-1.416,6.672-3.14,14.723-5.666,19.872a4.157,4.157,0,0,1-2.178,1.993C6.87,66.789,5.7,68.092,3.673,69.59,2.087,70.763.882,70.915.982,71.393A2.243,2.243,0,0,0,3.64,72.886a15.661,15.661,0,0,0,3.534-1.192A20.823,20.823,0,0,1,2.88,76.807c-3.871,3.361-4.427,5.742,2.009,6.915,4.034.735,7.688-1.2,12.27-9.573a73.581,73.581,0,0,0,4.57-9.5C24.8,56.1,27.118,48.529,28.7,43.272" transform="translate(332.877 224.462)" fill="#eb9598"/>
    <path id="Fill_84" data-name="Fill 84" d="M28.354.411h0c8.846.609,9.466,4.88,11.68,9.554a15.138,15.138,0,0,1,.418,11.4L34.288,39.2s2.887,6.978,6.238,13.569C25.056,61.4,5.738,56.866,1.086,50.564c-.2-1.337,1-11.785,1.735-18.611C.1,25.119-.623,20.785.527,16.267,2.661,7.88,10.945-.29,14.611.008l13.744.4" transform="translate(356.914 224.466)" fill="#f5576c"/>
    <path id="Fill_85" data-name="Fill 85" d="M18.082,36.262h3.433A18.131,18.131,0,0,0,21.417,0H18.18a18.131,18.131,0,1,0-.1,36.262" transform="translate(358.682 181.283)" fill="#132529"/>
    <path id="Fill_86" data-name="Fill 86" d="M10.683,33.559h0A10.683,10.683,0,0,1,0,22.876V0A10.683,10.683,0,0,1,10.683,10.683V33.559" transform="translate(397.279 193.516)" fill="#132529"/>
    <path id="Fill_87" data-name="Fill 87" d="M2.678,0,0,4.3a2.461,2.461,0,0,0,3.489-.715A2.664,2.664,0,0,0,2.678,0" transform="translate(396.558 189.457)" fill="#132529"/>
    <path id="Fill_88" data-name="Fill 88" d="M4.438,0C2.347,1.236-.238,6.5.017,17.522c.216,9.346,3.245,11.654,4.766,12.32s4.454.261,7.306-.215v5.609S8.148,39.813,8.4,42.386s5.691,3.179,9.379.667a23.873,23.873,0,0,0,6.053-6.337V23.159s1.925,2.57,5.075.48,3.268-7.267,1.437-9.125-5.776-1.271-6.512,1.3c0,0-4.548.166-10.6-3.161A17.021,17.021,0,0,1,4.438,0" transform="translate(360.748 189.29)" fill="#eb9598"/>
    <path id="Fill_89" data-name="Fill 89" d="M0,1.165A1.2,1.2,0,0,0,1.115,2.44,1.2,1.2,0,0,0,2.349,1.276,1.2,1.2,0,0,0,1.236,0,1.2,1.2,0,0,0,0,1.165" transform="translate(372.243 203.3)" fill="#132529"/>
    <path id="Fill_90" data-name="Fill 90" d="M2.729,0,0,.871a1.408,1.408,0,0,0,1.775.979A1.5,1.5,0,0,0,2.729,0" transform="translate(368.155 212.386)" fill="#e88385"/>
    <path id="Fill_91" data-name="Fill 91" d="M.236,2.3,2.614.656A1.388,1.388,0,0,0,.64.251,1.519,1.519,0,0,0,.236,2.3" transform="translate(362.373 198.552)" fill="#132529"/>
    <path id="Fill_92" data-name="Fill 92" d="M0,1.166A1.194,1.194,0,0,0,1.115,2.44,1.2,1.2,0,0,0,2.349,1.276,1.2,1.2,0,0,0,1.238,0,1.2,1.2,0,0,0,0,1.166" transform="translate(363.156 202.45)" fill="#132529"/>
    <path id="Fill_93" data-name="Fill 93" d="M3.911,0,3.724,7.075,0,5.922,3.911,0" transform="translate(364.988 202.942)" fill="#e88385"/>
    <path id="Fill_94" data-name="Fill 94" d="M0,4.615C3.006,4.22,9.188,2.444,10.152,0A6.329,6.329,0,0,1,7.983,3.12C6.136,4.7,0,6.485,0,6.485V4.615" transform="translate(372.838 214.302)" fill="#e88385"/>
    <path id="Fill_95" data-name="Fill 95" d="M1.348,31.441C.887,30.536.436,29.623,0,28.721c.436.9.887,1.814,1.348,2.719" transform="translate(396.093 245.795)" fill="#dbdcd6"/>
    <path id="Fill_96" data-name="Fill 96" d="M14.051,47.116A37.572,37.572,0,0,1,0,44.539a47.243,47.243,0,0,0,7.233.557,42.6,42.6,0,0,0,9.695-1.074,9.34,9.34,0,0,0,6.963-11.39,3.912,3.912,0,0,0-.158-.487,3.072,3.072,0,0,0-2.885-2.091,1.92,1.92,0,0,0-.248.013A9.033,9.033,0,0,0,24.466,24.3l1.878-9.431S22.857,3.8,23.21,0l8.878.512,1.149.8a15.5,15.5,0,0,1-.242,9.6s0,0,0,0-.008.023-.011.035L26.818,28.78s2.149,5.192,4.89,10.85c.436.9.887,1.814,1.348,2.719a39.087,39.087,0,0,1-19,4.767" transform="translate(364.385 234.887)" fill="#e54b5f"/>
    <path id="Fill_97" data-name="Fill 97" d="M39.508,46.151c-3.274.868-13.215,2.05-13.947-4.93a120.636,120.636,0,0,1,.041-16.7A40.257,40.257,0,0,1,34.117,1.854c.251-.318.394-.491.394-.491S33.074.192,29.986.735a33.955,33.955,0,0,0-8.753,15.623c-4.444-.649-10.062-1.13-13.8-1.409A25.944,25.944,0,0,1,18.248.4,5.718,5.718,0,0,0,14.308.34C8.134,3.864,4.884,9.823,3.391,14.671-.171,24.534-.042,61.25.02,74.289l6.138-9.775H45.342c-.5-14.019-5.833-18.364-5.833-18.364" transform="translate(354.59 224.122)" fill="#253c40"/>
    <path id="Fill_98" data-name="Fill 98" d="M25.644,35.251s-4.179-8.921-9.98-22.142C11.47,3.553,10.532,1.4,3.864.366L1.505,0C-1.655,10.387.522,15.092,4.687,22.2l8.227,15.946c3.273-.65,12.8-1.912,12.729-2.9" transform="translate(387.595 225.485)" fill="#eb9598"/>
    <path id="Fill_99" data-name="Fill 99" d="M0,3.539c2.445,4.914,4.539,7.953,7.5,8.748s27.454.512,27.454.512V3.539L11.652,0,0,3.539" transform="translate(400.51 260.097)" fill="#eb9598"/>
    <path id="Fill_100" data-name="Fill 100" d="M38.533,0H.012V75.045c-.181,2.979,1.677,5.99,5.614,8.263,7.528,4.347,19.734,4.347,27.262,0,3.768-2.176,5.649-5.027,5.645-7.878V0" transform="translate(410.941 365.324)" fill="#f5576c"/>
    <path id="Fill_101" data-name="Fill 101" d="M34.492,9.564h.017C30.248,6.777,32.9,0,32.9,0H5.638S8.215,6.735,4.027,9.564h.017C-1.83,13.93-1.31,20.235,5.638,24.246c7.528,4.347,19.734,4.347,27.262,0,6.946-4.011,7.468-10.317,1.593-14.682" transform="translate(410.93 348.947)" fill="#00a798"/>
    <path id="Fill_102" data-name="Fill 102" d="M19.268,24.181a27.859,27.859,0,0,1-13.631-3.26C1.878,18.752,0,15.911,0,13.067c0-2.412,1.348-4.824,4.044-6.828H4.027a5.931,5.931,0,0,0,2.395-5.2C6.422.685,6.4.336,6.372,0a28.462,28.462,0,0,0,12.9,2.862A28.469,28.469,0,0,0,32.139.012c-.035.349-.055.713-.055,1.081a5.8,5.8,0,0,0,2.425,5.147h-.017c2.7,2,4.045,4.416,4.044,6.828,0,2.843-1.878,5.685-5.636,7.855a27.863,27.863,0,0,1-13.631,3.26" transform="translate(410.93 352.272)" fill="#f5576c"/>
    <path id="Fill_103" data-name="Fill 103" d="M.559.559h0" transform="translate(443.27 348.388)" fill="#00a795"/>
    <path id="Fill_104" data-name="Fill 104" d="M26.5,3.338v0A14.01,14.01,0,0,1,27.2.159a14.6,14.6,0,0,0-.7,3.174l0,0ZM.735,3.325h0A14.827,14.827,0,0,0,.149.446,14.472,14.472,0,0,1,.735,3.323Z" transform="translate(416.567 348.947)" fill="#e1e2dc"/>
    <path id="Fill_105" data-name="Fill 105" d="M13.631,6.187A28.462,28.462,0,0,1,.735,3.324,14.019,14.019,0,0,0,0,0,27.859,27.859,0,0,0,13.631,3.26,27.863,27.863,0,0,0,27.262,0,13.933,13.933,0,0,0,26.5,3.337a28.469,28.469,0,0,1-12.87,2.85" transform="translate(416.567 348.947)" fill="#c03649"/>
    <path id="Fill_106" data-name="Fill 106" d="M38.554,5.883H36.276A14.329,14.329,0,0,0,32.908,3.26c-7.528-4.347-19.734-4.347-27.263,0A14.3,14.3,0,0,0,2.277,5.883H0v5.246c0,2.849,1.881,5.7,5.647,7.87,7.528,4.347,19.734,4.347,27.262,0,3.764-2.173,5.647-5.021,5.645-7.87V5.883" transform="translate(410.921 329.948)" fill="#f5576c"/>
    <path id="Fill_107" data-name="Fill 107" d="M5.647,19c7.528,4.347,19.734,4.347,27.262,0s7.528-11.393,0-15.739-19.734-4.347-27.263,0S-1.882,14.654,5.647,19" transform="translate(410.92 324.701)" fill="#00a798"/>
    <path id="Fill_108" data-name="Fill 108" d="M19.277,22.26A27.86,27.86,0,0,1,5.647,19C1.883,16.827,0,13.978,0,11.13s1.881-5.7,5.645-7.87A27.867,27.867,0,0,1,19.277,0,27.863,27.863,0,0,1,32.908,3.26c3.764,2.173,5.645,5.021,5.645,7.87s-1.881,5.7-5.645,7.869A27.863,27.863,0,0,1,19.277,22.26" transform="translate(410.921 324.701)" fill="#c03649"/>
    <path id="Fill_109" data-name="Fill 109" d="M3.757,61.122A3.757,3.757,0,0,1,0,57.365V3.757a3.757,3.757,0,0,1,7.515,0V57.365a3.757,3.757,0,0,1-3.757,3.757" transform="translate(426.451 382.582)" fill="#c03649"/>
    <path id="Fill_110" data-name="Fill 110" d="M2.141,61.541A2.09,2.09,0,0,1,0,59.262V4.648A5.145,5.145,0,0,1,3.254.21,3.239,3.239,0,0,1,4.367,0,2.09,2.09,0,0,1,6.508,2.28V56.893a5.149,5.149,0,0,1-3.254,4.438,3.275,3.275,0,0,1-1.113.21" transform="translate(439.789 380.11)" fill="#c03649"/>
    <path id="Fill_111" data-name="Fill 111" d="M4.367,61.541a3.265,3.265,0,0,1-1.113-.21A5.147,5.147,0,0,1,0,56.893V2.28A2.09,2.09,0,0,1,2.141,0,3.248,3.248,0,0,1,3.254.21,5.147,5.147,0,0,1,6.508,4.648V59.262a2.09,2.09,0,0,1-2.141,2.28" transform="translate(414.12 380.11)" fill="#c03649"/>
    <path id="Fill_112" data-name="Fill 112" d="M12.832,4.544,4.961,0,0,23.368S4.962,31.48,4.962,36.726v99.686l5.206,6.078,2.664-1.535V41.27c0-5.246,4.961-7.629,4.961-7.629l-4.961-29.1" transform="translate(422.633 196.303)" fill="#d4d5cf"/>
    <path id="Fill_113" data-name="Fill 113" d="M12.832,4.544,4.961,0,0,23.368S4.962,31.48,4.962,36.726v99.686l7.87,4.544V41.27c0-5.246,4.961-7.629,4.961-7.629l-4.961-29.1" transform="translate(419.969 197.838)" fill="#e4e4de"/>
    <path id="Fill_114" data-name="Fill 114" d="M0,1.535,2.664,0l7.871,4.544L7.871,6.078,0,1.535" transform="translate(424.93 196.303)" fill="#faf9f6"/>
    <path id="Fill_115" data-name="Fill 115" d="M2.664,0,0,1.535l4.961,29.1L7.625,29.1,2.664,0" transform="translate(432.801 200.847)" fill="#f2f0ec"/>
    <path id="Fill_116" data-name="Fill 116" d="M8.734,1.678c.4-1.76,3.183-2.746,2.908.189s1.131,4.98,1.528,6.347c.834,2.869.644,8.3-.484,9.367S10.11,19.89,7.958,19.724a9.712,9.712,0,0,1-5.894-2.4C.251,15.914-1.69,7.813,2.518,8.96c6.255,1.707,6.216-2.792,6.216-2.792V1.678" transform="translate(426.731 254.615)" fill="#eb9598"/>
    <path id="Fill_117" data-name="Fill 117" d="M0,0C4.4.884,7,4.113,12.3,12.346s13.517,22.3,13.517,22.3l20.559,7.869-.879,9.247s-22.431-3.98-25.5-6.261S5.04,26.016,5.04,26.016L0,0" transform="translate(229.823 282.849)" fill="#eb9598"/>
    <path id="Fill_118" data-name="Fill 118" d="M0,0C4.566.809,9.079,1.918,11.885,6.264s13.038,20.97,13.038,20.97S21.189,35.981,14.4,37.305L4.615,23.219,0,0" transform="translate(226.144 281.157)" fill="#ddded8"/>
    <path id="Fill_119" data-name="Fill 119" d="M12.866.707c-1.567.378-3.148.475-4.527.753C1.547,2.824.29,6.355.13,14.556-.139,28.282.093,60.049.093,60.049c6.048,4.4,28.4,7.1,41.131-2.2,0,0-.648-36.546-.648-43.02S36.979.578,27.046,0L12.866.707" transform="translate(196.543 280.824)" fill="#f2f0ec"/>
    <path id="Fill_120" data-name="Fill 120" d="M0,15.032H8.782V0H0Z" transform="translate(195.064 452.857)" fill="#eb9598"/>
    <path id="Fill_121" data-name="Fill 121" d="M0,15.909l8.777.3L9.217.3,0,0V15.909" transform="translate(230.982 440.596)" fill="#eb9598"/>
    <path id="Fill_122" data-name="Fill 122" d="M47.032,35.676h0L45.461,0,17.828,4.454a120.266,120.266,0,0,1-.978,16.894C16.328,25.754,12.1,31.757,4.608,33.743a167.135,167.135,0,0,0-.067,17.324c.136,4.159-1.818,50.168-1.818,50.168-.2,2.413-2.527,6.7-2.707,15.395-.263,12.6,2.671,40.745,2.671,40.745a11.551,11.551,0,0,0,9.777.192s5.9-40.445,7.477-52.922c1.372-10.888,7.106-41.506,7.106-41.506l6.711,36.805A49.944,49.944,0,0,0,32.671,113.9c.411,5.772,5.755,34.677,5.755,34.677a11.984,11.984,0,0,0,10.139.776s.525-45.374.626-50.668c.115-6.037-2.159-63.008-2.159-63.011" transform="translate(192.001 302.999)" fill="#253c40"/>
    <path id="Fill_123" data-name="Fill 123" d="M14.917,22.233c-.29-7.06-1.275-13.576-7.362-19.682A8.82,8.82,0,0,0,1.3,0H0S6.1,4.848,8.492,11.874a47.3,47.3,0,0,1,1.941,13.69l4.484-3.331" transform="translate(222.545 280.766)" fill="#253c40"/>
    <path id="Fill_124" data-name="Fill 124" d="M10.833,1.265V.011C11.3,0,11.6.468,11.776,1.6c.129.809.247,1.421.513,2.484a29.473,29.473,0,0,0,1.534,4.494c1.242,3.059,2.284,4.2,5.128,7.775a33.581,33.581,0,0,1,2.727,3.141c.53.945.717,3.574-.185,4.176-3.315,2.21-8.35,2.272-11.912,1.227a7.189,7.189,0,0,1-5.172-5.81c-.13-.809-.082-1.638-.174-2.452a11.64,11.64,0,0,0-2.2-5.1A15.418,15.418,0,0,1,.349,8.757C-.389,6.952.2,4.921.673,3.123,1.08,1.57,1.521-.137,2.051.009c0,.189,0,.957,0,.957A6.943,6.943,0,0,0,6.443,2.451c1.284.049,4.4-.206,4.39-1.186" transform="translate(193.012 462.29)" fill="#132529"/>
    <path id="Fill_125" data-name="Fill 125" d="M11.515.577c.456.016.828.659,1.833,1.747a19.176,19.176,0,0,0,5.166,3.717C21.8,7.688,28.2,10.22,31.089,11.523c1.808.814,1.723,3-.145,4.24s-6.379,2.138-11.8.926c-2.951-.66-6.792-3.386-9.224-3.238s-6.98.112-8.775-1.125S.072,8.447.579,6.178C1.133,3.7,1.825-.164,2.645.005V.86c1.056,1.6,6.5,2.249,8.823,1.073L11.515.577" transform="translate(228.337 453.523)" fill="#132529"/>
    <path id="Fill_126" data-name="Fill 126" d="M0,7.011A32.53,32.53,0,0,0,12.228,0S9.869,4.417,2.852,8.529L6.247,41.268,0,7.011" transform="translate(219.049 359.128)" fill="#132529"/>
    <path id="Fill_127" data-name="Fill 127" d="M0,12.068A12.069,12.069,0,1,0,12.068,0,12.069,12.069,0,0,0,0,12.068" transform="translate(212.896 240.27)" fill="#132529"/>
    <path id="Fill_128" data-name="Fill 128" d="M0,0S1.955,9.188,2.739,10.7a4.156,4.156,0,0,0,2.4,1.938L5.008,6.173,0,0" transform="translate(204.103 260.919)" fill="#132529"/>
    <path id="Fill_129" data-name="Fill 129" d="M4.577.032A4.53,4.53,0,0,0,.829,1.351C-.781,3,.117,8.149,2.123,13.2l3.683.423L4.577.032" transform="translate(201.98 247.724)" fill="#132529"/>
    <path id="Fill_130" data-name="Fill 130" d="M8.5,19.257c-.739.441-1.793-.978-2.7-1.932S1.909,15.07.426,18.2c-1.512,3.186,1.309,7.395,3.65,8.13C8.111,27.591,8.717,25,8.717,25l.3,15c5.017,6.432,18.938,5.888,13.138-.83l-.011-4.43a25.409,25.409,0,0,0,5.438.279c2.968-.459,4.834-2.8,5.734-6.011,1.446-5.159,2-9.324.768-19.47C32.737-1.58,19.8-1.7,12.819,2.7S8.5,19.257,8.5,19.257" transform="translate(200.394 242.089)" fill="#eb9598"/>
    <path id="Fill_131" data-name="Fill 131" d="M4.941,28.15C5.147,19.026,3.059,5.493,0,.811A8.823,8.823,0,0,1,4.527.059s5.745,8.949,5.5,28.091H4.941" transform="translate(204.881 281.473)" fill="#253c40"/>
    <path id="Fill_132" data-name="Fill 132" d="M3.188,24.043c-.372.007-1.784-2.338-2.7-3.174C-.79,19.709.853,9.21.853,9.21A5.094,5.094,0,0,1,1.73,3.543C3.476,1.622,5.91-.724,13.831.213,19.476.879,25.622,2.641,30.586.2a8.449,8.449,0,0,1-2.943,8.975s-1.8,1.159-6.523,1.734a69.806,69.806,0,0,1-13.1-.248c-1.37-.187-1.663,1.141-2.4,4.77-.649,3.186-1.187,8.585-2.435,8.61" transform="translate(205.704 238.546)" fill="#132529"/>
    <path id="Fill_133" data-name="Fill 133" d="M4.466,3.808,0,1.411A2.462,2.462,0,0,1,3.381.292,2.663,2.663,0,0,1,4.466,3.808" transform="translate(202.097 244.765)" fill="#132529"/>
    <path id="Fill_134" data-name="Fill 134" d="M12.141,5.733S5.517,4.4,3.2,3.167A7.632,7.632,0,0,1,0,0,10.438,10.438,0,0,0,1.819,3.736C3.512,5.9,12.141,7.494,12.141,7.494V5.733" transform="translate(210.394 271.1)" fill="#e88385"/>
    <path id="Fill_135" data-name="Fill 135" d="M2.654,1.384A1.349,1.349,0,0,1,1.327,2.758,1.357,1.357,0,0,1,0,1.376,1.35,1.35,0,0,1,1.327,0,1.359,1.359,0,0,1,2.654,1.384" transform="translate(219.633 259.145)" fill="#132529"/>
    <path id="Fill_136" data-name="Fill 136" d="M3.029.889.19,2.456A1.7,1.7,0,0,1,.851.2,1.582,1.582,0,0,1,3.029.889" transform="translate(217.85 254.629)" fill="#132529"/>
    <path id="Fill_137" data-name="Fill 137" d="M.095,0l3.03,1.138a1.591,1.591,0,0,1-2.058,1A1.7,1.7,0,0,1,.095,0" transform="translate(221.839 268.858)" fill="#e88385"/>
    <path id="Fill_138" data-name="Fill 138" d="M2.589,2.669,0,.675A1.569,1.569,0,0,1,2.251.33a1.717,1.717,0,0,1,.339,2.339" transform="translate(231.535 253.953)" fill="#132529"/>
    <path id="Fill_139" data-name="Fill 139" d="M2.654,1.383A1.349,1.349,0,0,1,1.327,2.757,1.358,1.358,0,0,1,0,1.375,1.348,1.348,0,0,1,1.327,0,1.358,1.358,0,0,1,2.654,1.383" transform="translate(230.672 258.768)" fill="#132529"/>
    <path id="Fill_140" data-name="Fill 140" d="M0,0,.436,7.983,4.6,6.562,0,0" transform="translate(226.215 259.145)" fill="#e88385"/>
    <path id="Fill_141" data-name="Fill 141" d="M37.56,11.98c.017-2.452,2.056-5.886,1.428-7.716L34.447,1.641l-9.1,22.875-9.282,5.277L11.48,23.1,25.2,2.624,20.658,0c-.575.267-1.151.564-1.74.9C8.55,6.793.081,21.313,0,33.332-.039,39.4,2.065,43.649,5.487,45.626h0l4.527,2.614.526-1.374c.111,0,.218.009.331,0V153.306C4.5,160.406.059,170.381,0,179.072c-.029,4.507,1.121,8.011,3.114,10.339l4.541,2.624,4.557-25.5,9.282-5.276,4.586,6.69-9.179,23.1,4.543,2.623S37.48,169.738,37.56,157.719a17.074,17.074,0,0,0-1.957-8.647l1.134-.953-4.507-2.6.007.015a9.771,9.771,0,0,0-5.545-1.35V37.746c6.37-7.1,10.811-17.075,10.868-25.766" transform="translate(251.993 261.992)" fill="#334f55"/>
    <path id="Fill_142" data-name="Fill 142" d="M0,106.434l4.541,2.623V2.623L0,0V106.434" transform="translate(262.862 308.865)" fill="#132529"/>
    <path id="Fill_143" data-name="Fill 143" d="M26.691,144.179V37.745c6.37-7.1,10.811-17.075,10.869-25.766.029-4.507-1.121-8.01-3.114-10.339l-9.1,22.876-9.282,5.276L11.479,23.1,20.658,0c-.576.266-1.152.564-1.74.9C8.549,6.793.08,21.313,0,33.331c-.058,8.81,4.408,13.8,10.868,13.54V153.305C4.5,160.4.058,170.38,0,179.072c-.03,4.507,1.12,8.01,3.113,10.339l9.1-22.876,9.282-5.276,4.586,6.69L16.9,191.05c.575-.266,1.151-.564,1.74-.9,10.368-5.895,18.837-20.415,18.917-32.433.058-8.81-4.409-13.8-10.869-13.54" transform="translate(256.535 264.616)" fill="#253c40"/>
    <path id="Fill_144" data-name="Fill 144" d="M7.16,1.122,9.134,0,13.72,6.69l-9.178,23.1L0,27.169l9.179-23.1L7.16,1.122" transform="translate(268.895 425.875)" fill="#132529"/>
    <path id="Fill_145" data-name="Fill 145" d="M8.107,2.841c0,1.71-2.6,3.617-4.5,4.81S-.707,10.512.2,13.969a4.938,4.938,0,0,0,6.5,3.425A7.115,7.115,0,0,0,10.92,11.71C11.391,8.526,12.465.889,8.107,0V2.841" transform="translate(275.119 318.462)" fill="#eb9598"/>
    <path id="Fill_146" data-name="Fill 146" d="M2.431,45.268C9.99,11.324,14.722,3.923,25.249,0L23.821,20.411s-9.87,22-11.357,29.773C11.158,57.017,9.7,65.608,9.923,71.454a4.233,4.233,0,0,0,1.206,2.758c1.927,2,2.48,3.7,3.748,5.937.993,1.749,2.054,2.389,1.763,2.794a2.287,2.287,0,0,1-3.094.293,15.968,15.968,0,0,1-2.8-2.574,21.256,21.256,0,0,0,1.888,6.543c2.218,4.735,1.753,7.183-4.733,5.615-4.064-.982-6.672-4.3-7.479-14A75.086,75.086,0,0,1,.09,68.074c.671-9.232,1.125-17.342,2.341-22.805" transform="translate(176.573 285.181)" fill="#eb9598"/>
    <path id="Fill_147" data-name="Fill 147" d="M21.67,0a15.2,15.2,0,0,0-7.6,2.332c-2.644,1.779-7.04,8.945-9.826,17.818S0,33.946,0,33.946s4.56,6.95,14.4,4.2c0,0,5.545-13.872,5.226-12.989,0,0,7.336-13.672,2.04-25.161" transform="translate(181.075 282.849)" fill="#ddded8"/>
  </g>
</svg>
