<svg xmlns="http://www.w3.org/2000/svg" width="570" height="364" viewBox="0 0 570 364">
  <g id="img4" transform="translate(0.5)">
    <path id="Fill_5" data-name="Fill 5" d="M56.044,325S9.624,290.012.72,230.213s67.406-94.788,81.4-118.326,15.261-94.151,83.3-109.42S262.712,47,281.153,66.084,350.466,76.9,392.435,75.627s108.1,43.259,81.4,141.863S426.775,325,426.775,325H56.044" transform="translate(44 31)" fill="#ebe7ee"/>
    <path id="Stroke_6" data-name="Stroke 6" d="M59,195S-42.083,112.549,20.37,0" transform="translate(81 162)" fill="none" stroke="#eeb541" stroke-linecap="round" stroke-linejoin="round" stroke-miterlimit="10" stroke-width="1"/>
    <path id="Fill_7" data-name="Fill 7" d="M19,7.359S9.827-3.647,2.8,1.261C-6.424,7.709,9.258,18.093,19,7.359" transform="translate(79 294)" fill="#eeb541"/>
    <path id="Fill_8" data-name="Fill 8" d="M.938,17S-3.184,3.017,5.853.415C17.727-3,17.064,15.778.938,17" transform="translate(97 284)" fill="#eeb541"/>
    <path id="Fill_9" data-name="Fill 9" d="M.938,17S-3.183,3.017,5.852.415C17.727-3,17.064,15.778.938,17" transform="translate(89 268)" fill="#eeb541"/>
    <path id="Fill_10" data-name="Fill 10" d="M.938,17S-3.183,3.016,5.852.415C17.727-3,17.064,15.778.938,17" transform="translate(83 247)" fill="#eeb541"/>
    <path id="Fill_11" data-name="Fill 11" d="M0,15.815S-.431.718,8.526.031C20.3-.872,15.165,18.061,0,15.815" transform="translate(81 226)" fill="#eeb541"/>
    <path id="Fill_12" data-name="Fill 12" d="M0,15.814S-.431.718,8.526.031C20.3-.872,15.165,18.062,0,15.814" transform="translate(83 203)" fill="#eeb541"/>
    <path id="Fill_13" data-name="Fill 13" d="M0,12.321S4.437-1.936,13.185.222C24.68,3.058,13.711,19.165,0,12.321" transform="translate(89 174)" fill="#eeb541"/>
    <path id="Fill_14" data-name="Fill 14" d="M18,12.1S13.189-2.153,4.61.279C-6.664,3.476,4.656,19.408,18,12.1" transform="translate(72 275)" fill="#eeb541"/>
    <path id="Fill_15" data-name="Fill 15" d="M18,12.1S13.189-2.153,4.61.279C-6.664,3.477,4.656,19.41,18,12.1" transform="translate(66 252)" fill="#eeb541"/>
    <path id="Fill_16" data-name="Fill 16" d="M15,15.684S14.76.3,6.051.006C-5.395-.378.407,18.661,15,15.684" transform="translate(66 226)" fill="#eeb541"/>
    <path id="Fill_17" data-name="Fill 17" d="M15,15.684S14.76.3,6.051.006C-5.395-.378.407,18.661,15,15.684" transform="translate(67 203)" fill="#eeb541"/>
    <path id="Fill_18" data-name="Fill 18" d="M15,15.684S14.76.3,6.05.006C-5.395-.377.407,18.661,15,15.684" transform="translate(75 171)" fill="#eeb541"/>
    <path id="Fill_19" data-name="Fill 19" d="M2.491,18S16.672,12.306,13.552,4.136C9.449-6.6-5.954,5.544,2.491,18" transform="translate(98 145)" fill="#eeb541"/>
    <path id="Stroke_20" data-name="Stroke 20" d="M38.807,0S27.356,22.822,34.989,54.519,68.07,122.349,0,213" transform="translate(442 143)" fill="none" stroke="#eeb541" stroke-linecap="round" stroke-linejoin="round" stroke-miterlimit="10" stroke-width="1"/>
    <path id="Fill_21" data-name="Fill 21" d="M13.772,16.989S15.912,1.882,7.079.178C-4.526-2.06-1.564,17.53,13.772,16.989" transform="translate(471 264)" fill="#eeb541"/>
    <path id="Fill_22" data-name="Fill 22" d="M13.772,16.989S15.912,1.88,7.08.178C-4.526-2.061-1.564,17.53,13.772,16.989" transform="translate(474 239)" fill="#eeb541"/>
    <path id="Fill_23" data-name="Fill 23" d="M18,11.873S12.827-2.366,4.414.343C-6.642,3.9,5.018,19.639,18,11.873" transform="translate(469 218)" fill="#eeb541"/>
    <path id="Fill_24" data-name="Fill 24" d="M16,14.282S14.2-.639,5.512.021C-5.9.889,1.794,18.756,16,14.282" transform="translate(465 198)" fill="#eeb541"/>
    <path id="Fill_25" data-name="Fill 25" d="M18,12.258S13.451-2,4.753.238C-6.676,3.181,4.4,19.238,18,12.258" transform="translate(457 173)" fill="#eeb541"/>
    <path id="Fill_26" data-name="Fill 26" d="M15,15.814S15.429.718,6.472.031C-5.3-.871-.163,18.063,15,15.814" transform="translate(461 146)" fill="#eeb541"/>
    <path id="Fill_27" data-name="Fill 27" d="M3.888,19s11.46-8.37,7.138-15.82C5.343-6.61-5.965,8.358,3.888,19" transform="translate(476 127)" fill="#eeb541"/>
    <path id="Fill_28" data-name="Fill 28" d="M0,8.531S7.881-3.146,15.585.823C25.706,6.04,11.177,17.84,0,8.531" transform="translate(483 272)" fill="#eeb541"/>
    <path id="Fill_29" data-name="Fill 29" d="M0,8.532S7.881-3.146,15.584.823C25.706,6.04,11.178,17.839,0,8.532" transform="translate(488 245)" fill="#eeb541"/>
    <path id="Fill_30" data-name="Fill 30" d="M0,14.125S2.351-.9,11.4.043C23.3,1.286,14.693,19.1,0,14.125" transform="translate(486 216)" fill="#eeb541"/>
    <path id="Fill_31" data-name="Fill 31" d="M0,14.125S2.351-.9,11.4.043C23.3,1.285,14.693,19.1,0,14.125" transform="translate(481 198)" fill="#eeb541"/>
    <path id="Fill_32" data-name="Fill 32" d="M0,14.125S2.352-.9,11.4.043C23.3,1.286,14.693,19.1,0,14.125" transform="translate(475 171)" fill="#eeb541"/>
    <path id="Fill_33" data-name="Fill 33" d="M0,14.125S2.352-.9,11.4.043C23.3,1.286,14.693,19.1,0,14.125" transform="translate(475 147)" fill="#eeb541"/>
    <path id="Fill_34" data-name="Fill 34" d="M57.6,136S34.494,87.929,16.969,62.98-10.22,3.523,16.912.11,67.755,73.643,57.6,136" transform="translate(95 196)" fill="#4c4a8d"/>
    <path id="Fill_35" data-name="Fill 35" d="M6.179.11A23.372,23.372,0,0,0,0,1.728L14.225,25.553S42.818,81.405,45.674,136C55.526,73.643,32.512-3.3,6.179.11" transform="translate(106 196)" fill="#39347d"/>
    <path id="Stroke_36" data-name="Stroke 36" d="M0,0S29.094,55.626,32,110" transform="translate(120 222)" fill="none" stroke="#3a2d68" stroke-miterlimit="10" stroke-width="1"/>
    <path id="Fill_37" data-name="Fill 37" d="M74.148,116.986s-38.66,1.644-62.185-31.07S6.868,0,6.868,0s.637,29.505,36.293,42.176,44.145,53.252,30.987,74.811" transform="translate(41 239)" fill="#00a2af"/>
    <path id="Fill_38" data-name="Fill 38" d="M74,116.986C72.518,100.5,61.5,100.5,39.921,81.478S14.48,33.931,14.48,33.931,5.9,15.539,6.854,0c0,0-18.395,53.2,5.084,85.916S74,116.986,74,116.986" transform="translate(41 239)" fill="#03b4c6"/>
    <path id="Stroke_39" data-name="Stroke 39" d="M0,0S3.888,28.5,25.646,47.515,58.506,66.524,60,83" transform="translate(55 273)" fill="none" stroke="#1a808f" stroke-linecap="round" stroke-linejoin="round" stroke-miterlimit="10" stroke-width="1"/>
    <path id="Fill_40" data-name="Fill 40" d="M2.4,136S25.506,87.927,43.031,62.979,70.219,3.523,43.088.11-7.755,73.642,2.4,136" transform="translate(416 191)" fill="#4c4a8d"/>
    <path id="Fill_41" data-name="Fill 41" d="M41.821.11A23.338,23.338,0,0,1,48,1.729L33.775,25.554S5.182,81.406,2.326,136C-7.526,73.642,15.487-3.3,41.821.11" transform="translate(416 191)" fill="#39347d"/>
    <path id="Stroke_42" data-name="Stroke 42" d="M32,0S2.906,55.626,0,110" transform="translate(418 217)" fill="none" stroke="#3a2d68" stroke-miterlimit="10" stroke-width="1"/>
    <path id="Fill_43" data-name="Fill 43" d="M5.852,116.986s38.659,1.644,62.185-31.07S73.132,0,73.132,0,72.5,29.505,36.839,42.176-7.307,95.428,5.852,116.986" transform="translate(412 239)" fill="#00a2af"/>
    <path id="Fill_44" data-name="Fill 44" d="M0,116.986C1.482,100.5,12.5,100.5,34.08,81.478S59.52,33.931,59.52,33.931,68.1,15.539,67.146,0c0,0,18.394,53.2-5.085,85.916S0,116.986,0,116.986" transform="translate(418 239)" fill="#03b4c6"/>
    <path id="Stroke_45" data-name="Stroke 45" d="M60,0S56.111,28.5,34.355,47.515,1.494,66.524,0,83" transform="translate(418 273)" fill="none" stroke="#1a808f" stroke-linecap="round" stroke-linejoin="round" stroke-miterlimit="10" stroke-width="1"/>
    <path id="Fill_46" data-name="Fill 46" d="M399.5,8H3.5A3.592,3.592,0,0,1,0,4.323V3.677A3.592,3.592,0,0,1,3.5,0h396A3.592,3.592,0,0,1,403,3.677v.646A3.592,3.592,0,0,1,399.5,8" transform="translate(82 356)" fill="#c2b2cc"/>
    <path id="Fill_47" data-name="Fill 47" d="M143,92H10.289L.058,8.6A7.67,7.67,0,0,1,7.68,0H143V92" transform="translate(96 264)" fill="#9e793d"/>
    <path id="Fill_48" data-name="Fill 48" d="M32,16A16,16,0,1,1,16,0,16,16,0,0,1,32,16" transform="translate(156 197)" fill="#7169a1"/>
    <path id="Fill_49" data-name="Fill 49" d="M25.228,22.9A15.4,15.4,0,0,1,9.665,7.663,14.893,14.893,0,0,1,11.792,0,15.3,15.3,0,0,0,0,14.765,15.4,15.4,0,0,0,15.564,30,15.606,15.606,0,0,0,29,22.428a15.875,15.875,0,0,1-3.772.469" transform="translate(157 197)" fill="#65619c"/>
    <path id="Fill_50" data-name="Fill 50" d="M21,10.5A10.5,10.5,0,1,1,10.5,0,10.5,10.5,0,0,1,21,10.5" transform="translate(130 164)" fill="#7169a1"/>
    <path id="Fill_51" data-name="Fill 51" d="M16.529,15.265A10.177,10.177,0,0,1,6.332,5.108,10.064,10.064,0,0,1,7.726,0,10.156,10.156,0,1,0,19,14.952a10.212,10.212,0,0,1-2.471.313" transform="translate(131 164)" fill="#65619c"/>
    <path id="Fill_52" data-name="Fill 52" d="M11,5.5A5.5,5.5,0,1,1,5.5,0,5.5,5.5,0,0,1,11,5.5" transform="translate(167 168)" fill="#7169a1"/>
    <path id="Fill_53" data-name="Fill 53" d="M8.7,8.4A5.48,5.48,0,0,1,3.332,2.809,5.725,5.725,0,0,1,4.066,0,5.544,5.544,0,0,0,0,5.414,5.479,5.479,0,0,0,5.367,11,5.326,5.326,0,0,0,10,8.223,5.138,5.138,0,0,1,8.7,8.4" transform="translate(167 168)" fill="#65619c"/>
    <path id="Fill_54" data-name="Fill 54" d="M0,16A16,16,0,1,0,16,0,16,16,0,0,0,0,16" transform="translate(388 196)" fill="#7169a1"/>
    <path id="Fill_55" data-name="Fill 55" d="M3.772,22.9A15.4,15.4,0,0,0,19.335,7.662,14.9,14.9,0,0,0,17.208,0,15.3,15.3,0,0,1,29,14.765,15.4,15.4,0,0,1,13.436,30,15.605,15.605,0,0,1,0,22.428a15.824,15.824,0,0,0,3.772.469" transform="translate(391 197)" fill="#65619c"/>
    <path id="Fill_56" data-name="Fill 56" d="M0,10.5A10.5,10.5,0,1,0,10.5,0,10.5,10.5,0,0,0,0,10.5" transform="translate(425 162)" fill="#7169a1"/>
    <path id="Fill_57" data-name="Fill 57" d="M2.471,15.265a10.177,10.177,0,0,0,10.2-10.157A10.069,10.069,0,0,0,11.275,0,10.156,10.156,0,1,1,0,14.952a10.224,10.224,0,0,0,2.471.313" transform="translate(427 162)" fill="#65619c"/>
    <path id="Fill_58" data-name="Fill 58" d="M0,5.5A5.5,5.5,0,1,0,5.5,0,5.5,5.5,0,0,0,0,5.5" transform="translate(399 167)" fill="#7169a1"/>
    <path id="Fill_59" data-name="Fill 59" d="M1.3,8.4A5.481,5.481,0,0,0,6.668,2.81,5.717,5.717,0,0,0,5.934,0,5.545,5.545,0,0,1,10,5.414,5.479,5.479,0,0,1,4.634,11,5.325,5.325,0,0,1,0,8.224,5.172,5.172,0,0,0,1.3,8.4" transform="translate(399 167)" fill="#65619c"/>
    <path id="Fill_60" data-name="Fill 60" d="M101.3,119,0,96.171,21.7,0,123,22.829,101.3,119" transform="translate(331 244)" fill="#2a2545"/>
    <path id="Fill_61" data-name="Fill 61" d="M97.053,88,0,66.158,14.947,0,112,21.843,97.053,88" transform="translate(339 246)" fill="#fffffe"/>
    <path id="Fill_62" data-name="Fill 62" d="M0,66.158,97,88,14.939,0,0,66.158" transform="translate(339 246)" fill="#f1f4f1"/>
    <path id="Fill_63" data-name="Fill 63" d="M42,37,0,27.711S17.384-1.123,28.43.034,42,37,42,37" transform="translate(383 280)" fill="#9786b3"/>
    <path id="Fill_64" data-name="Fill 64" d="M19.671,17.584A50.255,50.255,0,0,1,28,.035C17.119-1.153,0,28.646,0,28.646L23.073,34c-2.378-4-4.868-10.061-3.4-16.416" transform="translate(383 278)" fill="#7870a6"/>
    <path id="Fill_65" data-name="Fill 65" d="M0,24.324,53,36S44.062,9.215,36.46,2.112,16.111,6.676,0,24.324" transform="translate(353 276)" fill="#c2b2cc"/>
    <path id="Fill_66" data-name="Fill 66" d="M10.864,6.709A5.5,5.5,0,1,1,6.709.136a5.5,5.5,0,0,1,4.155,6.574" transform="translate(393 266)" fill="#c2b2cc"/>
    <path id="Fill_67" data-name="Fill 67" d="M18.936,18.59A28.347,28.347,0,0,1,28,0C20.657,2.28,11.128,11.513,0,23.56L20.393,28a18.849,18.849,0,0,1-1.456-9.41" transform="translate(353 276)" fill="#9786b3"/>
    <path id="Fill_68" data-name="Fill 68" d="M124.077,143,0,117.824,23.924,0,148,25.176,124.077,143" transform="translate(250 184)" fill="#362e5c"/>
    <path id="Fill_69" data-name="Fill 69" d="M118.564,105,0,80.945,16.436,0,135,24.055,118.564,105" transform="translate(259 187)" fill="#fffffe"/>
    <path id="Fill_70" data-name="Fill 70" d="M0,80.945,118,105,16.358,0,0,80.945" transform="translate(259 187)" fill="#f1f4f1"/>
    <path id="Fill_71" data-name="Fill 71" d="M52,45,0,34.7S20.638-1.106,34.281.026,52,45,52,45" transform="translate(312 227)" fill="#9786b3"/>
    <path id="Fill_72" data-name="Fill 72" d="M24.12,21.351C26.178,11.8,31.27,3.8,34,.026,20.467-1.111,0,35.175,0,35.175L28.766,41c-3.055-4.75-6.3-11.968-4.646-19.649" transform="translate(312 225)" fill="#7870a6"/>
    <path id="Fill_73" data-name="Fill 73" d="M0,30.926,64,44S52.55,11.075,43.226,2.48,18.895,8.661,0,30.926" transform="translate(277 223)" fill="#c2b2cc"/>
    <path id="Fill_74" data-name="Fill 74" d="M14.849,8.991A7.5,7.5,0,1,1,8.992.151a7.5,7.5,0,0,1,5.856,8.84" transform="translate(323 209)" fill="#c2b2cc"/>
    <path id="Fill_75" data-name="Fill 75" d="M22.611,23.339A35.664,35.664,0,0,1,33,0C24.241,3.022,13.045,14.746,0,30.007L24.613,35a24.153,24.153,0,0,1-2-11.661" transform="translate(277 223)" fill="#9786b3"/>
    <path id="Fill_76" data-name="Fill 76" d="M170,135.234,28.17,165,0,29.767,141.831,0,170,135.234" transform="translate(163 188)" fill="#3a2d68"/>
    <path id="Fill_77" data-name="Fill 77" d="M155,93.405,19.369,122,0,28.6,135.63,0,155,93.405" transform="translate(167 191)" fill="#fffffe"/>
    <path id="Fill_78" data-name="Fill 78" d="M19.369,92,155,63.835,0,0,19.369,92" transform="translate(167 221)" fill="#f1f4f1"/>
    <path id="Fill_79" data-name="Fill 79" d="M59,40.625,0,53S5.065,5.306,19.821.376,59,40.625,59,40.625" transform="translate(239 229)" fill="#9786b3"/>
    <path id="Fill_80" data-name="Fill 80" d="M19.155,27.239C16.978,16.119,18.711,5.271,19.874,0,5.079,4.977,0,53,0,53l33-6.951c-5.385-3.662-12.1-9.869-13.845-18.809" transform="translate(239 229)" fill="#7870a6"/>
    <path id="Fill_81" data-name="Fill 81" d="M0,51,74,35.37S46.853,5.521,33.032.656,9.967,18.5,0,51" transform="translate(197 240)" fill="#c2b2cc"/>
    <path id="Fill_82" data-name="Fill 82" d="M15.829,6.363A8,8,0,1,1,6.363.171a8,8,0,0,1,9.466,6.192" transform="translate(230 219)" fill="#c2b2cc"/>
    <path id="Fill_83" data-name="Fill 83" d="M20.652,29.57A41.916,41.916,0,0,1,21,0C13.2,7.218,6.771,24.8,0,47l28-5.945A28.026,28.026,0,0,1,20.652,29.57" transform="translate(197 244)" fill="#9786b3"/>
    <path id="Fill_88" data-name="Fill 88" d="M13.291,13.291c-1.692,1.693-5.881.248-9.357-3.226S-.984,2.4.708.709,6.59.46,10.066,3.935s4.918,7.664,3.226,9.357" transform="translate(286 107)" fill="#635493"/>
    <path id="Fill_89" data-name="Fill 89" d="M.5,6C.223,6,0,5.672,0,5.267V.734C0,.328.223,0,.5,0s.5.328.5.734V5.267C1,5.672.777,6,.5,6" transform="translate(197 84)" fill="#7169a1"/>
    <path id="Fill_90" data-name="Fill 90" d="M.6,5A.545.545,0,0,1,.3,4.913a.727.727,0,0,1-.225-.922L1.886.345A.558.558,0,0,1,2.7.088a.728.728,0,0,1,.226.922L1.114,4.656A.586.586,0,0,1,.6,5" transform="translate(201 85)" fill="#7169a1"/>
    <path id="Fill_91" data-name="Fill 91" d="M.686,3A.718.718,0,0,1,.1,2.721.528.528,0,0,1,.33,1.929L3.96.084a.762.762,0,0,1,.941.2.528.528,0,0,1-.231.792L1.04,2.916A.774.774,0,0,1,.686,3" transform="translate(204 90)" fill="#7169a1"/>
    <path id="Fill_92" data-name="Fill 92" d="M.732,1C.338,1,.012.8,0,.556S.307.093.71.085L5.245,0c.4-.009.743.191.755.444s-.306.463-.71.47L.755,1H.732" transform="translate(204 96)" fill="#7169a1"/>
    <path id="Fill_93" data-name="Fill 93" d="M4.331,3a.717.717,0,0,1-.31-.071L.358,1.159A.591.591,0,0,1,.077.33.7.7,0,0,1,.98.071l3.662,1.77a.591.591,0,0,1,.281.83A.68.68,0,0,1,4.331,3" transform="translate(204 99)" fill="#7169a1"/>
    <path id="Fill_94" data-name="Fill 94" d="M2.44,5a.542.542,0,0,1-.47-.318L.09,1.072A.8.8,0,0,1,.255.111.5.5,0,0,1,1.03.318l1.88,3.61a.8.8,0,0,1-.166.961A.484.484,0,0,1,2.44,5" transform="translate(202 101)" fill="#7169a1"/>
    <path id="Fill_95" data-name="Fill 95" d="M.578,6C.356,6,.171,5.7.157,5.311L0,.778C-.013.373.164.026.4,0S.829.286.843.69L1,5.223c.014.4-.163.751-.4.775L.578,6" transform="translate(198 102)" fill="#7169a1"/>
    <path id="Fill_96" data-name="Fill 96" d="M.637,5a.611.611,0,0,1-.279-.067.672.672,0,0,1-.293-.884L1.791.372A.626.626,0,0,1,2.642.067a.675.675,0,0,1,.294.885L1.209,4.628A.634.634,0,0,1,.637,5" transform="translate(193 102)" fill="#7169a1"/>
    <path id="Fill_97" data-name="Fill 97" d="M.706,3a.784.784,0,0,1-.582-.235.472.472,0,0,1,.181-.756L3.9.1a.841.841,0,0,1,.98.139A.472.472,0,0,1,4.7.992L1.1,2.9a.845.845,0,0,1-.4.1" transform="translate(188 100)" fill="#7169a1"/>
    <path id="Fill_98" data-name="Fill 98" d="M.734,2A.755.755,0,0,1,0,1.288.77.77,0,0,1,.668.438L5.2,0A.751.751,0,0,1,6,.711a.77.77,0,0,1-.666.85L.8,2C.779,2,.756,2,.734,2" transform="translate(186 96)" fill="#7169a1"/>
    <path id="Fill_99" data-name="Fill 99" d="M4.345,3a.65.65,0,0,1-.268-.059L.386,1.262A.663.663,0,0,1,.058.388.651.651,0,0,1,.923.059L4.614,1.738a.662.662,0,0,1,.328.873.654.654,0,0,1-.6.389" transform="translate(187 91)" fill="#7169a1"/>
    <path id="Fill_100" data-name="Fill 100" d="M2.47,5a.5.5,0,0,1-.427-.291L.1,1.139a.889.889,0,0,1,.113-1,.448.448,0,0,1,.74.153L2.9,3.861a.891.891,0,0,1-.114,1A.442.442,0,0,1,2.47,5" transform="translate(191 87)" fill="#7169a1"/>
    <path id="Fill_101" data-name="Fill 101" d="M.5,6C.224,6,0,5.672,0,5.267V.733C0,.328.224,0,.5,0s.5.328.5.733V5.267C1,5.672.776,6,.5,6" transform="translate(106 83)" fill="#7169a1"/>
    <path id="Fill_102" data-name="Fill 102" d="M.594,5A.545.545,0,0,1,.3,4.913a.73.73,0,0,1-.226-.922L1.886.344A.558.558,0,0,1,2.7.088a.727.727,0,0,1,.226.921L1.114,4.656A.586.586,0,0,1,.594,5" transform="translate(109 84)" fill="#7169a1"/>
    <path id="Fill_103" data-name="Fill 103" d="M.686,3A.718.718,0,0,1,.1,2.721.527.527,0,0,1,.33,1.93L3.961.083a.761.761,0,0,1,.94.2.528.528,0,0,1-.232.791L1.04,2.917A.787.787,0,0,1,.686,3" transform="translate(111 89)" fill="#7169a1"/>
    <path id="Fill_104" data-name="Fill 104" d="M.733,1C.338,1,.013.8,0,.556S.307.093.711.085L5.244,0c.4-.009.743.191.756.444s-.306.463-.711.471L.756,1H.733" transform="translate(112 95)" fill="#7169a1"/>
    <path id="Fill_105" data-name="Fill 105" d="M4.331,3a.708.708,0,0,1-.31-.071L.358,1.16A.593.593,0,0,1,.076.329a.7.7,0,0,1,.9-.258L4.642,1.841a.593.593,0,0,1,.281.831A.679.679,0,0,1,4.331,3" transform="translate(112 98)" fill="#7169a1"/>
    <path id="Fill_106" data-name="Fill 106" d="M2.44,5a.541.541,0,0,1-.47-.318L.09,1.071A.8.8,0,0,1,.255.111.5.5,0,0,1,1.03.317L2.91,3.928a.8.8,0,0,1-.166.96A.484.484,0,0,1,2.44,5" transform="translate(109 100)" fill="#7169a1"/>
    <path id="Fill_107" data-name="Fill 107" d="M.578,6C.356,6,.171,5.7.157,5.311L0,.779C-.013.374.164.026.4,0S.829.286.843.69L1,5.223c.014.4-.163.753-.4.776H.578" transform="translate(106 101)" fill="#7169a1"/>
    <path id="Fill_108" data-name="Fill 108" d="M.636,5a.613.613,0,0,1-.278-.067.674.674,0,0,1-.294-.884L1.791.371a.626.626,0,0,1,.851-.3.673.673,0,0,1,.293.884L1.209,4.629A.635.635,0,0,1,.636,5" transform="translate(100 101)" fill="#7169a1"/>
    <path id="Fill_109" data-name="Fill 109" d="M.705,3a.78.78,0,0,1-.581-.235A.472.472,0,0,1,.3,2.008L3.9.1a.839.839,0,0,1,.979.139.471.471,0,0,1-.18.756L1.1,2.9a.855.855,0,0,1-.4.1" transform="translate(96 99)" fill="#7169a1"/>
    <path id="Fill_110" data-name="Fill 110" d="M.734,2A.755.755,0,0,1,0,1.288.771.771,0,0,1,.669.437L5.2,0a.753.753,0,0,1,.8.71.771.771,0,0,1-.666.85L.8,2C.779,2,.756,2,.734,2" transform="translate(94 95)" fill="#7169a1"/>
    <path id="Fill_111" data-name="Fill 111" d="M4.345,3a.648.648,0,0,1-.268-.058L.386,1.262A.662.662,0,0,1,.058.389.653.653,0,0,1,.923.058l3.691,1.68A.661.661,0,0,1,4.345,3" transform="translate(96 90)" fill="#7169a1"/>
    <path id="Fill_112" data-name="Fill 112" d="M2.471,5a.5.5,0,0,1-.427-.292L.1,1.139a.889.889,0,0,1,.114-1,.447.447,0,0,1,.74.153L2.9,3.861a.889.889,0,0,1-.113,1A.446.446,0,0,1,2.471,5" transform="translate(99 85)" fill="#7169a1"/>
    <path id="Fill_113" data-name="Fill 113" d="M.5,6C.224,6,0,5.673,0,5.267V.733C0,.328.224,0,.5,0s.5.328.5.733V5.267C1,5.673.776,6,.5,6" transform="translate(532 303)" fill="#7169a1"/>
    <path id="Fill_114" data-name="Fill 114" d="M.6,5A.542.542,0,0,1,.3,4.912a.726.726,0,0,1-.227-.921L1.886.345A.557.557,0,0,1,2.7.088a.726.726,0,0,1,.226.921L1.113,4.656A.585.585,0,0,1,.6,5" transform="translate(535 304)" fill="#7169a1"/>
    <path id="Fill_115" data-name="Fill 115" d="M.685,3A.718.718,0,0,1,.1,2.721.527.527,0,0,1,.331,1.93L3.961.083a.761.761,0,0,1,.94.2.527.527,0,0,1-.232.791L1.039,2.917A.787.787,0,0,1,.685,3" transform="translate(537 309)" fill="#7169a1"/>
    <path id="Fill_116" data-name="Fill 116" d="M.733,1C.338,1,.013.8,0,.556S.308.093.711.085L5.244,0c.406-.01.743.19.756.444s-.305.463-.711.47L.756,1H.733" transform="translate(538 314)" fill="#7169a1"/>
    <path id="Fill_117" data-name="Fill 117" d="M4.331,3a.705.705,0,0,1-.31-.071L.358,1.159A.592.592,0,0,1,.076.329a.7.7,0,0,1,.9-.258L4.642,1.841a.592.592,0,0,1,.281.831A.679.679,0,0,1,4.331,3" transform="translate(538 318)" fill="#7169a1"/>
    <path id="Fill_118" data-name="Fill 118" d="M2.44,5a.543.543,0,0,1-.47-.317L.09,1.071A.8.8,0,0,1,.256.111.5.5,0,0,1,1.03.318L2.911,3.929a.8.8,0,0,1-.167.96A.484.484,0,0,1,2.44,5" transform="translate(535 320)" fill="#7169a1"/>
    <path id="Fill_119" data-name="Fill 119" d="M.578,6c-.221,0-.407-.3-.42-.689L0,.779C-.013.374.163.027.4,0S.829.287.843.691L1,5.223c.014.4-.163.752-.4.775L.578,6" transform="translate(532 321)" fill="#7169a1"/>
    <path id="Fill_120" data-name="Fill 120" d="M.637,5a.614.614,0,0,1-.279-.067.672.672,0,0,1-.293-.884L1.791.372a.625.625,0,0,1,.851-.3.673.673,0,0,1,.294.884L1.209,4.629A.635.635,0,0,1,.637,5" transform="translate(526 321)" fill="#7169a1"/>
    <path id="Fill_121" data-name="Fill 121" d="M.706,3a.782.782,0,0,1-.582-.235.472.472,0,0,1,.181-.757L3.9.1a.84.84,0,0,1,.98.138.472.472,0,0,1-.181.756L1.1,2.9a.846.846,0,0,1-.4.1" transform="translate(523 318)" fill="#7169a1"/>
    <path id="Fill_122" data-name="Fill 122" d="M.734,2A.755.755,0,0,1,0,1.287.77.77,0,0,1,.669.437L5.2,0a.753.753,0,0,1,.8.71.772.772,0,0,1-.666.85L.8,2C.779,2,.757,2,.734,2" transform="translate(520 315)" fill="#7169a1"/>
    <path id="Fill_123" data-name="Fill 123" d="M4.345,3a.636.636,0,0,1-.268-.059L.385,1.262A.663.663,0,0,1,.058.389.653.653,0,0,1,.923.058l3.692,1.68a.662.662,0,0,1,.328.873.653.653,0,0,1-.6.389" transform="translate(521 309)" fill="#7169a1"/>
    <path id="Fill_124" data-name="Fill 124" d="M2.471,5a.5.5,0,0,1-.428-.292L.1,1.139a.889.889,0,0,1,.113-1A.447.447,0,0,1,.957.292L2.9,3.86a.892.892,0,0,1-.113,1A.446.446,0,0,1,2.471,5" transform="translate(525 305)" fill="#7169a1"/>
    <path id="Fill_125" data-name="Fill 125" d="M.5,6C.224,6,0,5.672,0,5.267V.732C0,.328.224,0,.5,0s.5.328.5.732V5.267C1,5.672.776,6,.5,6" transform="translate(354 167)" fill="#7169a1"/>
    <path id="Fill_126" data-name="Fill 126" d="M.595,5A.533.533,0,0,1,.3,4.913a.727.727,0,0,1-.226-.922L1.887.345A.558.558,0,0,1,2.7.088a.727.727,0,0,1,.225.921L1.114,4.656A.586.586,0,0,1,.595,5" transform="translate(357 169)" fill="#7169a1"/>
    <path id="Fill_127" data-name="Fill 127" d="M.686,3A.722.722,0,0,1,.1,2.722.528.528,0,0,1,.331,1.93L3.96.083a.762.762,0,0,1,.941.2.529.529,0,0,1-.232.792L1.039,2.917A.783.783,0,0,1,.686,3" transform="translate(359 173)" fill="#7169a1"/>
    <path id="Fill_128" data-name="Fill 128" d="M.732,1C.337,1,.012.8,0,.556S.307.093.71.086L5.245,0c.4-.009.743.191.755.444s-.305.463-.71.47L.755,1H.732" transform="translate(360 178)" fill="#7169a1"/>
    <path id="Fill_129" data-name="Fill 129" d="M4.331,3a.719.719,0,0,1-.31-.07L.358,1.16A.592.592,0,0,1,.077.329a.7.7,0,0,1,.9-.258l3.663,1.77a.591.591,0,0,1,.28.83A.679.679,0,0,1,4.331,3" transform="translate(360 182)" fill="#7169a1"/>
    <path id="Fill_130" data-name="Fill 130" d="M2.441,5a.541.541,0,0,1-.47-.318L.089,1.072A.8.8,0,0,1,.256.111a.5.5,0,0,1,.773.207L2.91,3.928a.8.8,0,0,1-.167.961.484.484,0,0,1-.3.111" transform="translate(357 185)" fill="#7169a1"/>
    <path id="Fill_131" data-name="Fill 131" d="M.578,6c-.221,0-.407-.3-.42-.69L0,.778C-.013.374.164.026.4,0S.829.286.843.69L1,5.223c.014.4-.163.751-.4.776H.578" transform="translate(354 185)" fill="#7169a1"/>
    <path id="Fill_132" data-name="Fill 132" d="M.636,5a.6.6,0,0,1-.279-.067A.672.672,0,0,1,.065,4.05L1.791.372a.625.625,0,0,1,.851-.3.672.672,0,0,1,.294.884L1.208,4.63A.633.633,0,0,1,.636,5" transform="translate(348 185)" fill="#7169a1"/>
    <path id="Fill_133" data-name="Fill 133" d="M.706,3a.781.781,0,0,1-.581-.236.472.472,0,0,1,.18-.757L3.9.1a.839.839,0,0,1,.979.139A.473.473,0,0,1,4.7.993L1.1,2.9a.843.843,0,0,1-.4.1" transform="translate(345 183)" fill="#7169a1"/>
    <path id="Fill_134" data-name="Fill 134" d="M.734,2A.755.755,0,0,1,0,1.287.773.773,0,0,1,.669.436L5.2,0A.75.75,0,0,1,6,.711a.769.769,0,0,1-.666.85L.8,2C.779,2,.757,2,.734,2" transform="translate(342 178)" fill="#7169a1"/>
    <path id="Fill_135" data-name="Fill 135" d="M4.345,3a.653.653,0,0,1-.269-.059L.386,1.262A.663.663,0,0,1,.058.388.651.651,0,0,1,.923.059L4.614,1.738a.662.662,0,0,1,.328.873.655.655,0,0,1-.6.389" transform="translate(343 174)" fill="#7169a1"/>
    <path id="Fill_136" data-name="Fill 136" d="M2.471,5a.5.5,0,0,1-.428-.291L.1,1.139a.89.89,0,0,1,.113-1A.448.448,0,0,1,.957.292L2.9,3.861a.891.891,0,0,1-.114,1A.441.441,0,0,1,2.471,5" transform="translate(347 169)" fill="#7169a1"/>
    <path id="Fill_137" data-name="Fill 137" d="M.5,6C.224,6,0,5.671,0,5.267V.733C0,.328.224,0,.5,0s.5.328.5.733V5.267C1,5.671.777,6,.5,6" transform="translate(522 115)" fill="#7169a1"/>
    <path id="Fill_138" data-name="Fill 138" d="M.595,5A.544.544,0,0,1,.3,4.913a.728.728,0,0,1-.226-.922L1.886.345A.557.557,0,0,1,2.7.088a.729.729,0,0,1,.227.922L1.113,4.656A.584.584,0,0,1,.595,5" transform="translate(525 117)" fill="#7169a1"/>
    <path id="Fill_139" data-name="Fill 139" d="M.686,3A.716.716,0,0,1,.1,2.721.527.527,0,0,1,.33,1.929L3.961.084a.759.759,0,0,1,.939.2.527.527,0,0,1-.231.791L1.039,2.916A.781.781,0,0,1,.686,3" transform="translate(528 121)" fill="#7169a1"/>
    <path id="Fill_140" data-name="Fill 140" d="M.733,1C.338,1,.012.8,0,.556S.307.093.711.085L5.245,0c.4-.009.743.191.755.443s-.305.464-.71.471L.755,1H.733" transform="translate(528 126)" fill="#7169a1"/>
    <path id="Fill_141" data-name="Fill 141" d="M4.331,3a.7.7,0,0,1-.309-.071L.358,1.16A.593.593,0,0,1,.076.329a.7.7,0,0,1,.9-.258L4.642,1.841a.591.591,0,0,1,.281.831A.677.677,0,0,1,4.331,3" transform="translate(528 130)" fill="#7169a1"/>
    <path id="Fill_142" data-name="Fill 142" d="M2.441,5a.542.542,0,0,1-.471-.318L.09,1.072A.8.8,0,0,1,.256.111.5.5,0,0,1,1.03.318l1.88,3.61a.8.8,0,0,1-.166.961.484.484,0,0,1-.3.111" transform="translate(526 133)" fill="#7169a1"/>
    <path id="Fill_143" data-name="Fill 143" d="M.578,6C.356,6,.171,5.7.158,5.31L0,.777C-.013.373.164.026.4,0S.829.286.843.69L1,5.223c.015.4-.163.751-.4.775L.578,6" transform="translate(523 133)" fill="#7169a1"/>
    <path id="Fill_144" data-name="Fill 144" d="M.637,5a.623.623,0,0,1-.278-.066.673.673,0,0,1-.294-.885L1.792.372A.625.625,0,0,1,2.643.067a.673.673,0,0,1,.293.884L1.209,4.629A.636.636,0,0,1,.637,5" transform="translate(516 133)" fill="#7169a1"/>
    <path id="Fill_145" data-name="Fill 145" d="M.705,3a.78.78,0,0,1-.581-.235A.472.472,0,0,1,.3,2.009L3.9.1a.841.841,0,0,1,.98.139A.472.472,0,0,1,4.7.992L1.105,2.9a.858.858,0,0,1-.4.1" transform="translate(512 131)" fill="#7169a1"/>
    <path id="Fill_146" data-name="Fill 146" d="M.734,2A.754.754,0,0,1,0,1.288.772.772,0,0,1,.669.436L5.2,0A.751.751,0,0,1,6,.711a.77.77,0,0,1-.665.85L.8,2Q.767,2,.734,2" transform="translate(510 127)" fill="#7169a1"/>
    <path id="Fill_147" data-name="Fill 147" d="M4.345,3a.653.653,0,0,1-.268-.059L.385,1.262A.663.663,0,0,1,.058.388.651.651,0,0,1,.923.059L4.615,1.738a.662.662,0,0,1,.327.873.655.655,0,0,1-.6.389" transform="translate(511 122)" fill="#7169a1"/>
    <path id="Fill_148" data-name="Fill 148" d="M2.471,5a.5.5,0,0,1-.427-.291L.1,1.139a.893.893,0,0,1,.113-1A.448.448,0,0,1,.956.292L2.9,3.861a.89.89,0,0,1-.114,1A.44.44,0,0,1,2.471,5" transform="translate(515 117)" fill="#7169a1"/>
    <path id="Fill_149" data-name="Fill 149" d="M.5,6C.224,6,0,5.672,0,5.267V.733C0,.328.224,0,.5,0s.5.328.5.733V5.267C1,5.672.776,6,.5,6" transform="translate(426 53)" fill="#7169a1"/>
    <path id="Fill_150" data-name="Fill 150" d="M.594,5A.537.537,0,0,1,.3,4.913a.727.727,0,0,1-.225-.922L1.887.345A.558.558,0,0,1,2.7.087a.728.728,0,0,1,.226.922L1.114,4.656A.586.586,0,0,1,.594,5" transform="translate(429 54)" fill="#7169a1"/>
    <path id="Fill_151" data-name="Fill 151" d="M.686,3A.719.719,0,0,1,.1,2.721.527.527,0,0,1,.33,1.93L3.961.083a.761.761,0,0,1,.94.2.528.528,0,0,1-.231.791L1.04,2.916A.774.774,0,0,1,.686,3" transform="translate(432 59)" fill="#7169a1"/>
    <path id="Fill_152" data-name="Fill 152" d="M.732,1C.338,1,.012.8,0,.556S.306.093.711.086L5.246,0c.4-.009.743.191.754.444s-.306.463-.709.47L.754,1H.732" transform="translate(432 64)" fill="#7169a1"/>
    <path id="Fill_153" data-name="Fill 153" d="M4.331,3a.717.717,0,0,1-.31-.071L.357,1.159A.591.591,0,0,1,.077.33.7.7,0,0,1,.98.071l3.662,1.77a.591.591,0,0,1,.281.83A.68.68,0,0,1,4.331,3" transform="translate(432 68)" fill="#7169a1"/>
    <path id="Fill_154" data-name="Fill 154" d="M2.441,5a.543.543,0,0,1-.471-.319L.09,1.072A.8.8,0,0,1,.255.111.5.5,0,0,1,1.03.318L2.91,3.929a.8.8,0,0,1-.166.959.485.485,0,0,1-.3.112" transform="translate(431 70)" fill="#7169a1"/>
    <path id="Fill_155" data-name="Fill 155" d="M.578,6C.356,6,.171,5.7.158,5.311L0,.778C-.013.374.165.026.4,0S.83.285.843.689L1,5.223c.015.4-.163.753-.4.776H.578" transform="translate(427 71)" fill="#7169a1"/>
    <path id="Fill_156" data-name="Fill 156" d="M.636,5a.615.615,0,0,1-.278-.067.673.673,0,0,1-.294-.884L1.791.372a.625.625,0,0,1,.851-.3.672.672,0,0,1,.293.884L1.209,4.629A.635.635,0,0,1,.636,5" transform="translate(422 71)" fill="#7169a1"/>
    <path id="Fill_157" data-name="Fill 157" d="M.705,3a.779.779,0,0,1-.58-.236A.471.471,0,0,1,.3,2.008L3.9.1a.839.839,0,0,1,.979.139A.472.472,0,0,1,4.7.993L1.1,2.9a.847.847,0,0,1-.4.1" transform="translate(417 69)" fill="#7169a1"/>
    <path id="Fill_158" data-name="Fill 158" d="M.734,2A.755.755,0,0,1,0,1.287.771.771,0,0,1,.669.437L5.2,0A.752.752,0,0,1,6,.711a.771.771,0,0,1-.666.851L.8,2C.778,2,.756,2,.734,2" transform="translate(414 64)" fill="#7169a1"/>
    <path id="Fill_159" data-name="Fill 159" d="M4.345,3a.636.636,0,0,1-.268-.059L.386,1.262A.662.662,0,0,1,.058.389.652.652,0,0,1,.923.059L4.614,1.738a.662.662,0,0,1,.328.873.654.654,0,0,1-.6.389" transform="translate(416 59)" fill="#7169a1"/>
    <path id="Fill_160" data-name="Fill 160" d="M2.47,5a.5.5,0,0,1-.427-.291L.1,1.139a.891.891,0,0,1,.114-1,.448.448,0,0,1,.74.153L2.9,3.862a.888.888,0,0,1-.115,1A.438.438,0,0,1,2.47,5" transform="translate(419 55)" fill="#7169a1"/>
    <path id="Fill_161" data-name="Fill 161" d="M.5,6C.223,6,0,5.672,0,5.267V.733C0,.328.223,0,.5,0s.5.328.5.733V5.267C1,5.672.776,6,.5,6" transform="translate(269)" fill="#7169a1"/>
    <path id="Fill_162" data-name="Fill 162" d="M.594,5A.532.532,0,0,1,.3,4.913a.726.726,0,0,1-.226-.921L1.886.344A.558.558,0,0,1,2.7.088a.727.727,0,0,1,.226.921L1.114,4.657A.587.587,0,0,1,.594,5" transform="translate(273 2)" fill="#7169a1"/>
    <path id="Fill_163" data-name="Fill 163" d="M.685,3A.719.719,0,0,1,.1,2.722.527.527,0,0,1,.331,1.93L3.96.084a.759.759,0,0,1,.94.2.527.527,0,0,1-.231.792L1.04,2.917A.784.784,0,0,1,.685,3" transform="translate(275 6)" fill="#7169a1"/>
    <path id="Fill_164" data-name="Fill 164" d="M.732,1C.338,1,.012.8,0,.556S.306.093.71.085L5.245,0c.4-.009.743.191.755.443s-.306.464-.711.471L.755,1H.732" transform="translate(276 11)" fill="#7169a1"/>
    <path id="Fill_165" data-name="Fill 165" d="M4.331,3a.708.708,0,0,1-.31-.071L.358,1.159A.59.59,0,0,1,.077.329a.7.7,0,0,1,.9-.259l3.663,1.77a.591.591,0,0,1,.281.831A.681.681,0,0,1,4.331,3" transform="translate(276 16)" fill="#7169a1"/>
    <path id="Fill_166" data-name="Fill 166" d="M2.44,5a.542.542,0,0,1-.47-.318L.089,1.071A.8.8,0,0,1,.256.111.5.5,0,0,1,1.03.318l1.881,3.61a.8.8,0,0,1-.167.96A.479.479,0,0,1,2.44,5" transform="translate(273 18)" fill="#7169a1"/>
    <path id="Fill_167" data-name="Fill 167" d="M.578,6C.356,6,.171,5.7.157,5.31L0,.777C-.013.373.164.026.4,0S.829.285.843.689L1,5.222c.014.405-.163.752-.4.776L.578,6" transform="translate(269 19)" fill="#7169a1"/>
    <path id="Fill_168" data-name="Fill 168" d="M.636,5a.613.613,0,0,1-.278-.067.673.673,0,0,1-.293-.884L1.791.371a.627.627,0,0,1,.852-.3.672.672,0,0,1,.292.884L1.209,4.629A.635.635,0,0,1,.636,5" transform="translate(264 19)" fill="#7169a1"/>
    <path id="Fill_169" data-name="Fill 169" d="M.7,3a.782.782,0,0,1-.581-.235A.473.473,0,0,1,.3,2.008L3.9.1a.842.842,0,0,1,.98.139.472.472,0,0,1-.181.757L1.1,2.9A.855.855,0,0,1,.7,3" transform="translate(260 16)" fill="#7169a1"/>
    <path id="Fill_170" data-name="Fill 170" d="M.735,2A.756.756,0,0,1,0,1.287.771.771,0,0,1,.669.437L5.2,0a.752.752,0,0,1,.8.71.77.77,0,0,1-.665.85L.8,2C.779,2,.757,2,.735,2" transform="translate(258 13)" fill="#7169a1"/>
    <path id="Fill_171" data-name="Fill 171" d="M4.345,3a.648.648,0,0,1-.268-.058L.386,1.262A.662.662,0,0,1,.058.389.653.653,0,0,1,.923.058L4.614,1.738a.663.663,0,0,1,.328.874.654.654,0,0,1-.6.389" transform="translate(259 7)" fill="#7169a1"/>
    <path id="Fill_172" data-name="Fill 172" d="M2.471,5a.5.5,0,0,1-.428-.292L.1,1.138a.889.889,0,0,1,.113-1,.448.448,0,0,1,.74.154L2.9,3.861a.889.889,0,0,1-.113,1A.446.446,0,0,1,2.471,5" transform="translate(263 3)" fill="#7169a1"/>
    <path id="Fill_173" data-name="Fill 173" d="M.5,6C.223,6,0,5.672,0,5.268V.733C0,.329.223,0,.5,0s.5.329.5.733V5.268C1,5.672.777,6,.5,6" transform="translate(21 240)" fill="#7169a1"/>
    <path id="Fill_174" data-name="Fill 174" d="M.594,5A.545.545,0,0,1,.3,4.913a.728.728,0,0,1-.226-.922L1.886.344A.559.559,0,0,1,2.7.088a.726.726,0,0,1,.226.921L1.114,4.656A.586.586,0,0,1,.594,5" transform="translate(25 242)" fill="#7169a1"/>
    <path id="Fill_175" data-name="Fill 175" d="M.686,3A.721.721,0,0,1,.1,2.721a.528.528,0,0,1,.232-.791L3.959.083a.763.763,0,0,1,.941.2.527.527,0,0,1-.231.792L1.04,2.916A.787.787,0,0,1,.686,3" transform="translate(27 246)" fill="#7169a1"/>
    <path id="Fill_176" data-name="Fill 176" d="M.732,1C.338,1,.012.8,0,.557S.306.093.71.085L5.245,0c.4-.009.743.191.755.443s-.306.464-.71.471L.755,1H.732" transform="translate(28 251)" fill="#7169a1"/>
    <path id="Fill_177" data-name="Fill 177" d="M4.33,3a.716.716,0,0,1-.309-.071L.358,1.16A.59.59,0,0,1,.077.33a.7.7,0,0,1,.9-.26L4.642,1.84a.592.592,0,0,1,.281.83A.682.682,0,0,1,4.33,3" transform="translate(27 255)" fill="#7169a1"/>
    <path id="Fill_178" data-name="Fill 178" d="M2.44,5a.542.542,0,0,1-.47-.318L.09,1.071A.8.8,0,0,1,.255.111.5.5,0,0,1,1.03.317L2.91,3.928a.8.8,0,0,1-.166.961A.484.484,0,0,1,2.44,5" transform="translate(25 258)" fill="#7169a1"/>
    <path id="Fill_179" data-name="Fill 179" d="M.578,6C.356,6,.171,5.7.157,5.31L0,.777C-.013.373.164.026.4,0S.829.285.843.69L1,5.223c.014.4-.163.751-.4.775L.578,6" transform="translate(21 259)" fill="#7169a1"/>
    <path id="Fill_180" data-name="Fill 180" d="M.636,5a.609.609,0,0,1-.278-.066A.673.673,0,0,1,.065,4.05L1.791.371a.626.626,0,0,1,.851-.3.673.673,0,0,1,.293.885L1.209,4.629A.634.634,0,0,1,.636,5" transform="translate(16 258)" fill="#7169a1"/>
    <path id="Fill_181" data-name="Fill 181" d="M.7,3a.782.782,0,0,1-.581-.236A.473.473,0,0,1,.3,2.008L3.9.1a.842.842,0,0,1,.98.14A.472.472,0,0,1,4.7.992L1.1,2.9A.847.847,0,0,1,.7,3" transform="translate(11 256)" fill="#7169a1"/>
    <path id="Fill_182" data-name="Fill 182" d="M.734,2A.755.755,0,0,1,0,1.288.771.771,0,0,1,.669.436L5.2,0A.752.752,0,0,1,6,.711a.771.771,0,0,1-.665.85L.8,2,.734,2" transform="translate(9 253)" fill="#7169a1"/>
    <path id="Fill_183" data-name="Fill 183" d="M4.345,3a.648.648,0,0,1-.268-.058L.386,1.262A.662.662,0,0,1,.058.389.652.652,0,0,1,.923.058l3.691,1.68a.662.662,0,0,1,.328.873.654.654,0,0,1-.6.389" transform="translate(11 247)" fill="#7169a1"/>
    <path id="Fill_184" data-name="Fill 184" d="M2.471,5a.5.5,0,0,1-.427-.292L.1,1.138a.889.889,0,0,1,.113-1,.448.448,0,0,1,.74.154L2.9,3.861a.889.889,0,0,1-.113,1A.442.442,0,0,1,2.471,5" transform="translate(15 242)" fill="#7169a1"/>
    <path id="Stroke_185" data-name="Stroke 185" d="M34.195,338a4.888,4.888,0,1,1,4.892-4.888A4.9,4.9,0,0,1,34.195,338Zm-27.6-45.306a6.587,6.587,0,1,1,6.592-6.586A6.6,6.6,0,0,1,6.592,292.694Zm552.349-57.578A10.052,10.052,0,1,1,569,225.064,10.068,10.068,0,0,1,558.941,235.116ZM27.152,152.734a11.682,11.682,0,1,1,8.264-3.42A11.615,11.615,0,0,1,27.152,152.734ZM498.937,65.287a11.877,11.877,0,1,1,8.4-3.478A11.809,11.809,0,0,1,498.937,65.287ZM43.943,58.673a4.887,4.887,0,1,1,4.891-4.887A4.894,4.894,0,0,1,43.943,58.673Zm311-1.138a6.571,6.571,0,1,1,6.575-6.571A6.58,6.58,0,0,1,354.945,57.535ZM205.977,15.365a7.682,7.682,0,1,1,7.688-7.682A7.694,7.694,0,0,1,205.977,15.365Z" transform="translate(0 18)" fill="none" stroke="#7169a1" stroke-miterlimit="10" stroke-width="1"/>
    <path id="Fill_186" data-name="Fill 186" d="M28.2,8.836,26,3.28A5.192,5.192,0,0,0,21.173,0H0V97H144V8.836H28.2" transform="translate(106 259)" fill="#eeb541"/>
    <path id="Fill_187" data-name="Fill 187" d="M104.122,84.068C48.617,63.924,13.537,19.821,0,0V96H137L104.122,84.068" transform="translate(106 260)" fill="#ce9d3e"/>
    <path id="Fill_188" data-name="Fill 188" d="M109.616,52.894l-.011,0a16.327,16.327,0,0,0-12.12-22.942,31.547,31.547,0,0,0-63.053,1.633c0,.7.031,1.386.075,2.071-.025,0-.049,0-.075,0A16.663,16.663,0,0,0,17.778,50.321c0,.378.031.749.056,1.12C-.135,55.756,0,72,0,72l127-1.471c-1.165-18.957-17.384-17.634-17.384-17.634" transform="translate(221 53)" fill="#7169a1"/>
    <path id="Fill_189" data-name="Fill 189" d="M62.347,70.969c-11.653-.169-19.79-8.3-18.706-19.206S58.806,39.291,58.806,39.291s-9.258-6.5-6.168-20.992C54.27,10.645,60.142,4.292,65.32,0A31.5,31.5,0,0,0,34.284,31.575c0,.7.031,1.386.075,2.071-.025,0-.049,0-.075,0A16.629,16.629,0,0,0,17.7,50.318c0,.378.031.748.055,1.12C-.134,55.754,0,72,0,72l66-.768c-1.415-.155-2.652-.248-3.653-.263" transform="translate(221 53)" fill="#65619c"/>
  </g>
</svg>
